<svg width="182" height="49" viewBox="0 0 182 49" fill="none" xmlns="http://www.w3.org/2000/svg">
<path d="M1.2 24.6C1.2 26.9893 1.648 29.5493 2.544 32.28C3.48267 34.968 4.93333 37.464 6.896 39.768C8.85867 42.072 11.3547 43.992 14.384 45.528C17.4133 47.0213 21.04 47.768 25.264 47.768C28.1227 47.768 30.704 47.4267 33.008 46.744C35.3547 46.0187 37.4453 45.0587 39.28 43.864C41.1573 42.6693 42.7787 41.304 44.144 39.768C45.5093 38.1893 46.6187 36.5467 47.472 34.84C48.368 33.0907 49.0293 31.3413 49.456 29.592C49.9253 27.8427 50.16 26.1787 50.16 24.6C50.16 22.2107 49.6693 19.672 48.688 16.984C47.7067 14.2533 46.192 11.736 44.144 9.432C42.096 7.128 39.4933 5.22933 36.336 3.736C33.2213 2.2 29.5307 1.432 25.264 1.432C21.04 1.432 17.4133 2.17867 14.384 3.672C11.3547 5.16533 8.85867 7.064 6.896 9.368C4.93333 11.6293 3.48267 14.1253 2.544 16.856C1.648 19.5867 1.2 22.168 1.2 24.6ZM7.472 24.6C7.472 21.6133 7.92 18.8827 8.816 16.408C9.75467 13.8907 11.0133 11.736 12.592 9.944C14.2133 8.152 16.112 6.76533 18.288 5.784C20.464 4.76 22.832 4.248 25.392 4.248C27.9093 4.248 30.2773 4.76 32.496 5.784C34.7573 6.76533 36.72 8.152 38.384 9.944C40.0907 11.736 41.4347 13.8907 42.416 16.408C43.3973 18.8827 43.888 21.6133 43.888 24.6C43.888 27.5867 43.3973 30.3387 42.416 32.856C41.4347 35.3307 40.0907 37.464 38.384 39.256C36.72 41.048 34.7573 42.456 32.496 43.48C30.2773 44.4613 27.9093 44.952 25.392 44.952C22.832 44.952 20.464 44.4613 18.288 43.48C16.112 42.456 14.2133 41.048 12.592 39.256C11.0133 37.464 9.75467 35.3307 8.816 32.856C7.92 30.3387 7.472 27.5867 7.472 24.6ZM86.31 31.704H102.502V47H107.942V15H102.502V29.528H86.31V15H80.87V47H86.31V31.704ZM129.958 14.296C133.073 14.296 135.484 14.744 137.191 15.64C138.897 16.4933 140.135 17.624 140.903 19.032C141.713 20.44 142.183 22.0613 142.311 23.896C142.439 25.7307 142.503 27.608 142.503 29.528V47H137.319V43.864C136.081 45.0587 134.503 46.0187 132.583 46.744C130.663 47.4267 128.743 47.768 126.823 47.768C124.988 47.768 123.367 47.448 121.959 46.808C120.551 46.168 119.377 45.336 118.439 44.312C117.5 43.288 116.796 42.136 116.327 40.856C115.857 39.576 115.623 38.2747 115.623 36.952C115.623 35.5867 115.879 34.2213 116.391 32.856C116.903 31.4907 117.671 30.2747 118.695 29.208C119.719 28.0987 120.977 27.2027 122.47 26.52C123.964 25.8373 125.671 25.496 127.591 25.496C129.511 25.496 131.324 25.88 133.031 26.648C134.78 27.3733 136.209 28.4187 137.319 29.784V27.032C137.319 23.5333 136.785 20.9307 135.719 19.224C134.695 17.5173 132.796 16.664 130.023 16.664C128.828 16.664 127.783 16.8133 126.887 17.112C125.991 17.4107 125.18 17.8373 124.455 18.392C123.772 18.904 123.132 19.5653 122.535 20.376C121.937 21.144 121.34 22.0187 120.743 23L117.415 19.672C118.012 19.032 118.631 18.392 119.271 17.752C119.953 17.112 120.764 16.536 121.703 16.024C122.684 15.512 123.836 15.1067 125.159 14.808C126.481 14.4667 128.081 14.296 129.958 14.296ZM137.319 34.328C137.105 33.816 136.785 33.2187 136.359 32.536C135.975 31.8533 135.463 31.192 134.823 30.552C134.183 29.912 133.415 29.3787 132.519 28.952C131.623 28.4827 130.556 28.248 129.319 28.248C128.081 28.248 126.951 28.504 125.927 29.016C124.903 29.4853 124.028 30.1253 123.303 30.936C122.62 31.704 122.087 32.6213 121.703 33.688C121.319 34.7547 121.127 35.864 121.127 37.016C121.127 38.3813 121.361 39.576 121.831 40.6C122.343 41.5813 122.983 42.4347 123.751 43.16C124.519 43.8427 125.372 44.3547 126.311 44.696C127.249 45.0373 128.145 45.208 128.999 45.208C129.809 45.208 130.62 45.0587 131.431 44.76C132.284 44.4613 133.073 44.056 133.799 43.544C134.567 42.9893 135.249 42.3493 135.847 41.624C136.444 40.8987 136.935 40.1093 137.319 39.256V34.328ZM168.809 44.44C167.273 44.44 165.78 44.2053 164.329 43.736C162.921 43.2667 161.662 42.52 160.553 41.496C159.444 40.4293 158.548 39.0427 157.865 37.336C157.225 35.5867 156.905 33.4533 156.905 30.936C156.905 28.3333 157.268 26.136 157.993 24.344C158.718 22.5093 159.614 21.0587 160.681 19.992C161.79 18.8827 163.006 18.0933 164.329 17.624C165.652 17.112 166.91 16.856 168.105 16.856C170.068 16.856 171.774 17.368 173.225 18.392C174.676 19.416 175.636 20.6747 176.105 22.168H180.521C180.094 20.632 179.412 19.3733 178.473 18.392C177.534 17.368 176.446 16.5573 175.209 15.96C174.014 15.32 172.713 14.8933 171.305 14.68C169.94 14.424 168.617 14.296 167.337 14.296C164.649 14.296 162.281 14.744 160.233 15.64C158.185 16.4933 156.457 17.6667 155.049 19.16C153.641 20.6533 152.574 22.4027 151.849 24.408C151.166 26.4133 150.825 28.5467 150.825 30.808C150.825 33.1973 151.209 35.4373 151.977 37.528C152.745 39.576 153.833 41.368 155.241 42.904C156.692 44.3973 158.42 45.592 160.425 46.488C162.43 47.3413 164.692 47.768 167.209 47.768C170.025 47.768 172.478 47.2987 174.569 46.36C176.702 45.4213 178.494 44.3973 179.945 43.288L178.089 40.856C176.596 42.0933 175.102 43.0107 173.609 43.608C172.158 44.1627 170.558 44.44 168.809 44.44Z" fill="#333333"/>
<path d="M2.544 32.28L1.59384 32.5918L1.59679 32.6008L1.59991 32.6097L2.544 32.28ZM6.896 39.768L7.65724 39.1195L6.896 39.768ZM14.384 45.528L13.9317 46.42L13.9418 46.4249L14.384 45.528ZM33.008 46.744L33.2921 47.7029L33.3033 47.6994L33.008 46.744ZM39.28 43.864L38.7431 43.0203L38.7343 43.026L39.28 43.864ZM44.144 39.768L44.8915 40.4324L44.9004 40.4222L44.144 39.768ZM47.472 34.84L46.5819 34.3841L46.5776 34.3928L47.472 34.84ZM49.456 29.592L48.4902 29.3329L48.4872 29.3439L48.4845 29.355L49.456 29.592ZM48.688 16.984L47.7469 17.3222L47.7486 17.3269L48.688 16.984ZM44.144 9.432L43.3966 10.0964L44.144 9.432ZM36.336 3.736L35.8937 4.63287L35.901 4.63649L35.9084 4.63998L36.336 3.736ZM14.384 3.672L13.9418 2.77506H13.9418L14.384 3.672ZM6.896 9.368L7.65125 10.0235L7.65724 10.0165L6.896 9.368ZM2.544 16.856L1.59822 16.5309L1.59384 16.5442L2.544 16.856ZM8.816 16.408L7.87898 16.0586L7.87574 16.0676L8.816 16.408ZM12.592 9.944L11.8504 9.27302L11.8416 9.28297L12.592 9.944ZM18.288 5.784L18.6991 6.69558L18.7065 6.69226L18.7138 6.68882L18.288 5.784ZM32.496 5.784L32.0769 6.69196L32.0874 6.69677L32.0979 6.70134L32.496 5.784ZM38.384 9.944L37.6511 10.6245L37.6599 10.6337L38.384 9.944ZM42.416 16.408L41.4843 16.7712L41.4864 16.7766L42.416 16.408ZM42.416 32.856L43.3456 33.2246L43.3477 33.2192L42.416 32.856ZM38.384 39.256L37.6598 38.5663L37.6512 38.5755L38.384 39.256ZM32.496 43.48L32.9005 44.3946L32.9085 44.391L32.496 43.48ZM18.288 43.48L17.8622 44.3848L17.8695 44.3883L17.8769 44.3916L18.288 43.48ZM12.592 39.256L11.8416 39.9171L11.8505 39.9269L12.592 39.256ZM8.816 32.856L7.8739 33.1913L7.87735 33.201L7.881 33.2107L8.816 32.856ZM0.2 24.6C0.2 27.1142 0.671305 29.7802 1.59384 32.5918L3.49416 31.9682C2.6247 29.3184 2.2 26.8645 2.2 24.6H0.2ZM1.59991 32.6097C2.58182 35.4215 4.09707 38.0244 6.13476 40.4165L7.65724 39.1195C5.7696 36.9036 4.38351 34.5145 3.48809 31.9503L1.59991 32.6097ZM6.13476 40.4165C8.19319 42.8329 10.7987 44.8313 13.9318 46.4199L14.8362 44.6361C11.9106 43.1527 9.52415 41.3111 7.65724 39.1195L6.13476 40.4165ZM13.9418 46.4249C17.1388 48.0009 20.9242 48.768 25.264 48.768V46.768C21.1558 46.768 17.6879 46.0418 14.8262 44.6311L13.9418 46.4249ZM25.264 48.768C28.2012 48.768 30.8803 48.4174 33.2921 47.7028L32.7239 45.7852C30.5277 46.4359 28.0441 46.768 25.264 46.768V48.768ZM33.3033 47.6994C35.7279 46.95 37.9046 45.9529 39.8257 44.702L38.7343 43.026C36.9861 44.1644 34.9815 45.0873 32.7127 45.7886L33.3033 47.6994ZM39.8169 44.7077C41.7659 43.4674 43.4597 42.0431 44.8914 40.4324L43.3966 39.1036C42.0977 40.5649 40.5487 41.8713 38.7431 43.0203L39.8169 44.7077ZM44.9004 40.4222C46.3151 38.7864 47.4726 37.0749 48.3664 35.2872L46.5776 34.3928C45.7648 36.0184 44.7036 37.5923 43.3876 39.1138L44.9004 40.4222ZM48.362 35.2959C49.2904 33.4833 49.9807 31.6608 50.4275 29.829L48.4845 29.355C48.0779 31.0219 47.4456 32.698 46.582 34.3841L48.362 35.2959ZM50.4218 29.8511C50.9106 28.0294 51.16 26.2779 51.16 24.6H49.16C49.16 26.0794 48.9401 27.6559 48.4902 29.3329L50.4218 29.8511ZM51.16 24.6C51.16 22.0731 50.6411 19.4178 49.6274 16.6411L47.7486 17.3269C48.6976 19.9262 49.16 22.3482 49.16 24.6H51.16ZM49.6291 16.6458C48.6019 13.7877 47.0188 11.161 44.8914 8.76764L43.3966 10.0964C45.3652 12.311 46.8114 14.719 47.7469 17.3222L49.6291 16.6458ZM44.8914 8.76764C42.7429 6.35052 40.0264 4.37525 36.7636 2.83201L35.9084 4.63998C38.9603 6.08341 41.4491 7.90547 43.3966 10.0964L44.8914 8.76764ZM36.7783 2.83912C33.4982 1.22155 29.6496 0.431999 25.264 0.431999V2.432C29.4117 2.432 32.9445 3.17845 35.8937 4.63287L36.7783 2.83912ZM25.264 0.431999C20.9242 0.431999 17.1388 1.19909 13.9418 2.77506L14.8262 4.56894C17.6879 3.15824 21.1558 2.432 25.264 2.432V0.431999ZM13.9418 2.77506C10.8045 4.32162 8.19547 6.30044 6.13476 8.71953L7.65724 10.0165C9.52187 7.82756 11.9048 6.00904 14.8262 4.56894L13.9418 2.77506ZM6.14078 8.71253C4.09719 11.0671 2.58023 13.6744 1.59831 16.5309L3.48969 17.1811C4.3851 14.5762 5.76948 12.1916 7.65122 10.0235L6.14078 8.71253ZM1.59384 16.5442C0.670662 19.3577 0.2 22.0449 0.2 24.6H2.2C2.2 22.2911 2.62534 19.8156 3.49416 17.1678L1.59384 16.5442ZM8.472 24.6C8.472 21.7139 8.90473 19.1003 9.75627 16.7484L7.87574 16.0676C6.93527 18.665 6.472 21.5127 6.472 24.6H8.472ZM9.75298 16.7574C10.6543 14.3402 11.8539 12.2947 13.3424 10.605L11.8416 9.28297C10.1728 11.1773 8.85505 13.4411 7.87902 16.0586L9.75298 16.7574ZM13.3335 10.6149C14.8637 8.92373 16.6502 7.61958 18.6991 6.69558L17.8769 4.87241C15.5738 5.91108 13.563 7.38026 11.8505 9.27308L13.3335 10.6149ZM18.7138 6.68882C20.7481 5.73149 22.9695 5.248 25.392 5.248V3.248C22.6945 3.248 20.1799 3.7885 17.8622 4.87918L18.7138 6.68882ZM25.392 5.248C27.7691 5.248 29.9937 5.73045 32.0769 6.69196L32.9151 4.87604C30.561 3.78955 28.0495 3.248 25.392 3.248V5.248ZM32.0979 6.70134C34.2336 7.62813 36.082 8.93452 37.6512 10.6244L39.1168 9.26354C37.358 7.36947 35.2811 5.90253 32.8941 4.86665L32.0979 6.70134ZM37.6599 10.6337C39.2688 12.3231 40.5459 14.364 41.4843 16.7712L43.3477 16.0448C42.3235 13.4174 40.9125 11.1489 39.1081 9.25434L37.6599 10.6337ZM41.4864 16.7766C42.4159 19.1205 42.888 21.7242 42.888 24.6H44.888C44.888 21.5024 44.3788 18.6448 43.3456 16.0394L41.4864 16.7766ZM42.888 24.6C42.888 27.4755 42.416 30.1028 41.4843 32.4928L43.3477 33.2192C44.3787 30.5745 44.888 27.6978 44.888 24.6H42.888ZM41.4864 32.4874C40.5487 34.852 39.2716 36.874 37.6599 38.5663L39.1081 39.9457C40.9097 38.054 42.3206 35.8094 43.3456 33.2246L41.4864 32.4874ZM37.6512 38.5755C36.079 40.2687 34.2257 41.599 32.0835 42.569L32.9085 44.391C35.289 43.313 37.361 41.8273 39.1168 39.9365L37.6512 38.5755ZM32.0915 42.5655C30.0051 43.4883 27.7754 43.952 25.392 43.952V45.952C28.0433 45.952 30.5496 45.4344 32.9005 44.3945L32.0915 42.5655ZM25.392 43.952C22.9633 43.952 20.7367 43.4873 18.6991 42.5684L17.8769 44.3916C20.1913 45.4353 22.7007 45.952 25.392 45.952V43.952ZM18.7138 42.5752C16.6581 41.6078 14.8666 40.2795 13.3335 38.5851L11.8505 39.9269C13.5601 41.8165 15.5659 43.3042 17.8622 44.3848L18.7138 42.5752ZM13.3424 38.595C11.8513 36.9024 10.6516 34.8757 9.751 32.5013L7.881 33.2107C8.8577 35.7856 10.1754 38.0256 11.8416 39.917L13.3424 38.595ZM9.7581 32.5207C8.90465 30.1229 8.472 27.4858 8.472 24.6H6.472C6.472 27.6876 6.93535 30.5544 7.8739 33.1913L9.7581 32.5207ZM86.31 31.704V30.704H85.31V31.704H86.31ZM102.502 31.704H103.502V30.704H102.502V31.704ZM102.502 47H101.502V48H102.502V47ZM107.942 47V48H108.942V47H107.942ZM107.942 15H108.942V14H107.942V15ZM102.502 15V14H101.502V15H102.502ZM102.502 29.528V30.528H103.502V29.528H102.502ZM86.31 29.528H85.31V30.528H86.31V29.528ZM86.31 15H87.31V14H86.31V15ZM80.87 15V14H79.87V15H80.87ZM80.87 47H79.87V48H80.87V47ZM86.31 47V48H87.31V47H86.31ZM86.31 32.704H102.502V30.704H86.31V32.704ZM101.502 31.704V47H103.502V31.704H101.502ZM102.502 48H107.942V46H102.502V48ZM108.942 47V15H106.942V47H108.942ZM107.942 14H102.502V16H107.942V14ZM101.502 15V29.528H103.502V15H101.502ZM102.502 28.528H86.31V30.528H102.502V28.528ZM87.31 29.528V15H85.31V29.528H87.31ZM86.31 14H80.87V16H86.31V14ZM79.87 15V47H81.87V15H79.87ZM80.87 48H86.31V46H80.87V48ZM87.31 47V31.704H85.31V47H87.31ZM137.191 15.64L136.726 16.5254L136.734 16.53L136.743 16.5344L137.191 15.64ZM140.902 19.032L140.025 19.5109L140.03 19.521L140.036 19.531L140.902 19.032ZM142.311 23.896L143.308 23.8264L142.311 23.896ZM142.503 47V48H143.503V47H142.503ZM137.318 47H136.318V48H137.318V47ZM137.318 43.864H138.318V41.5084L136.624 43.1446L137.318 43.864ZM132.583 46.744L132.918 47.6862L132.927 47.6829L132.936 47.6795L132.583 46.744ZM121.959 46.808L122.372 45.8976L121.959 46.808ZM118.438 44.312L119.176 43.6363L118.438 44.312ZM116.391 32.856L115.454 32.5049L116.391 32.856ZM118.695 29.208L119.416 29.9005L119.423 29.8935L119.429 29.8863L118.695 29.208ZM122.47 26.52L122.055 25.6105L122.47 26.52ZM133.031 26.648L132.62 27.5599L132.634 27.566L132.647 27.5717L133.031 26.648ZM137.318 29.784L136.542 30.4146L138.318 32.6006V29.784H137.318ZM135.719 19.224L134.861 19.7385L134.866 19.7463L134.87 19.754L135.719 19.224ZM126.887 17.112L127.203 18.0607L126.887 17.112ZM124.454 18.392L125.055 19.192L125.062 19.1864L124.454 18.392ZM122.535 20.376L123.324 20.9899L123.332 20.9797L123.34 20.9692L122.535 20.376ZM120.743 23L120.035 23.7071L120.935 24.6068L121.597 23.5199L120.743 23ZM117.414 19.672L116.683 18.9897L116.024 19.696L116.707 20.3791L117.414 19.672ZM119.271 17.752L118.587 17.0225L118.575 17.0335L118.563 17.0449L119.271 17.752ZM121.702 16.024L121.24 15.1374L121.232 15.1417L121.224 15.1461L121.702 16.024ZM125.159 14.808L125.379 15.7834L125.394 15.7801L125.408 15.7763L125.159 14.808ZM137.318 34.328H138.318V34.128L138.242 33.9434L137.318 34.328ZM136.359 32.536L135.487 33.0263L135.498 33.0464L135.51 33.066L136.359 32.536ZM134.822 30.552L134.115 31.2591L134.822 30.552ZM132.518 28.952L132.054 29.8378L132.071 29.8467L132.089 29.8549L132.518 28.952ZM125.926 29.016L126.343 29.9251L126.359 29.918L126.374 29.9104L125.926 29.016ZM123.302 30.936L122.557 30.2692L122.555 30.2716L123.302 30.936ZM121.702 33.688L122.643 34.0267L121.702 33.688ZM121.83 40.6L120.921 41.0167L120.932 41.0399L120.944 41.0626L121.83 40.6ZM123.751 43.16L123.064 43.887L123.075 43.8974L123.086 43.9074L123.751 43.16ZM126.311 44.696L126.652 43.7562L126.311 44.696ZM131.43 44.76L131.1 43.8161L131.092 43.8188L131.085 43.8217L131.43 44.76ZM133.798 43.544L134.375 44.361L134.384 44.3547L133.798 43.544ZM135.846 41.624L135.075 40.9883L135.846 41.624ZM137.318 39.256L138.23 39.6664L138.318 39.4706V39.256H137.318ZM129.958 15.296C133 15.296 135.225 15.7373 136.726 16.5254L137.655 14.7546C135.743 13.7507 133.146 13.296 129.958 13.296V15.296ZM136.743 16.5344C138.303 17.3142 139.372 18.314 140.025 19.5109L141.78 18.5531C140.897 16.934 139.492 15.6725 137.638 14.7456L136.743 16.5344ZM140.036 19.531C140.761 20.7912 141.194 22.2621 141.313 23.9656L143.308 23.8264C143.171 21.8606 142.665 20.0888 141.769 18.533L140.036 19.531ZM141.313 23.9656C141.439 25.7761 141.503 27.6302 141.503 29.528H143.503C143.503 27.5858 143.438 25.6852 143.308 23.8264L141.313 23.9656ZM141.503 29.528V47H143.503V29.528H141.503ZM142.503 46H137.318V48H142.503V46ZM138.318 47V43.864H136.318V47H138.318ZM136.624 43.1446C135.501 44.2284 134.046 45.1221 132.229 45.8085L132.936 47.6795C134.959 46.9152 136.661 45.889 138.013 44.5834L136.624 43.1446ZM132.247 45.8018C130.428 46.4486 128.622 46.768 126.822 46.768V48.768C128.863 48.768 130.897 48.4048 132.918 47.6862L132.247 45.8018ZM126.822 46.768C125.104 46.768 123.628 46.4686 122.372 45.8976L121.545 47.7184C123.105 48.4274 124.871 48.768 126.822 48.768V46.768ZM122.372 45.8976C121.073 45.307 120.014 44.5504 119.176 43.6363L117.701 44.9877C118.741 46.1216 120.028 47.029 121.545 47.7184L122.372 45.8976ZM119.176 43.6363C118.324 42.7067 117.689 41.6668 117.265 40.5117L115.388 41.2003C115.903 42.6052 116.676 43.8693 117.701 44.9877L119.176 43.6363ZM117.265 40.5117C116.835 39.3386 116.622 38.1536 116.622 36.952H114.622C114.622 38.3957 114.879 39.8134 115.388 41.2003L117.265 40.5117ZM116.622 36.952C116.622 35.7145 116.854 34.4679 117.327 33.2071L115.454 32.5049C114.903 33.9748 114.622 35.4588 114.622 36.952H116.622ZM117.327 33.2071C117.79 31.9708 118.485 30.8706 119.416 29.9005L117.973 28.5155C116.856 29.6787 116.015 31.0105 115.454 32.5049L117.327 33.2071ZM119.429 29.8863C120.356 28.8827 121.503 28.0619 122.886 27.4295L122.055 25.6105C120.451 26.3435 119.081 27.3147 117.96 28.5297L119.429 29.8863ZM122.886 27.4295C124.229 26.8157 125.79 26.496 127.59 26.496V24.496C125.551 24.496 123.699 24.8589 122.055 25.6105L122.886 27.4295ZM127.59 26.496C129.373 26.496 131.046 26.8515 132.62 27.5599L133.441 25.7361C131.602 24.9085 129.648 24.496 127.59 24.496V26.496ZM132.647 27.5717C134.256 28.2385 135.546 29.1878 136.542 30.4146L138.095 29.1534C136.873 27.6495 135.304 26.5082 133.414 25.7243L132.647 27.5717ZM138.318 29.784V27.032H136.318V29.784H138.318ZM138.318 27.032C138.318 23.4673 137.782 20.6381 136.566 18.694L134.87 19.754C135.789 21.2233 136.318 23.5994 136.318 27.032H138.318ZM136.576 18.7095C135.304 16.5899 132.993 15.664 130.023 15.664V17.664C132.598 17.664 134.085 18.4448 134.861 19.7385L136.576 18.7095ZM130.023 15.664C128.747 15.664 127.591 15.823 126.57 16.1633L127.203 18.0607C127.974 17.8036 128.908 17.664 130.023 17.664V15.664ZM126.57 16.1633C125.573 16.4957 124.663 16.9735 123.847 17.5976L125.062 19.1864C125.696 18.7012 126.408 18.3256 127.203 18.0607L126.57 16.1633ZM123.854 17.592C123.081 18.172 122.375 18.9073 121.729 19.7828L123.34 20.9692C123.889 20.2234 124.462 19.636 125.054 19.192L123.854 17.592ZM121.745 19.7621C121.121 20.5649 120.502 21.4718 119.888 22.4801L121.597 23.5199C122.178 22.5655 122.754 21.7231 123.324 20.9899L121.745 19.7621ZM121.45 22.2929L118.122 18.9649L116.707 20.3791L120.035 23.7071L121.45 22.2929ZM118.146 20.3543C118.735 19.723 119.345 19.0913 119.978 18.4591L118.563 17.0449C117.916 17.6927 117.289 18.341 116.683 18.9897L118.146 20.3543ZM119.954 18.4815C120.567 17.907 121.307 17.379 122.181 16.9019L121.224 15.1461C120.221 15.693 119.339 16.317 118.587 17.0225L119.954 18.4815ZM122.165 16.9106C123.055 16.4463 124.122 16.0672 125.379 15.7834L124.938 13.8326C123.549 14.1462 122.313 14.5777 121.24 15.1374L122.165 16.9106ZM125.408 15.7763C126.625 15.4622 128.136 15.296 129.958 15.296V13.296C128.026 13.296 126.337 13.4711 124.909 13.8397L125.408 15.7763ZM138.242 33.9434C138 33.364 137.65 32.7163 137.206 32.006L135.51 33.066C135.92 33.7211 136.21 34.268 136.395 34.7126L138.242 33.9434ZM137.23 32.0457C136.795 31.2724 136.224 30.5396 135.53 29.8449L134.115 31.2591C134.701 31.8444 135.154 32.4342 135.487 33.0263L137.23 32.0457ZM135.53 29.8449C134.802 29.1169 133.937 28.5201 132.948 28.0491L132.089 29.8549C132.892 30.2373 133.563 30.7071 134.115 31.2591L135.53 29.8449ZM132.983 28.0662C131.915 27.5069 130.682 27.248 129.318 27.248V29.248C130.43 29.248 131.33 29.4584 132.054 29.8378L132.983 28.0662ZM129.318 27.248C127.939 27.248 126.653 27.5346 125.479 28.1216L126.374 29.9104C127.248 29.4734 128.224 29.248 129.318 29.248V27.248ZM125.51 28.1069C124.365 28.6315 123.378 29.3524 122.557 30.2692L124.048 31.6028C124.678 30.8983 125.44 30.3392 126.343 29.9251L125.51 28.1069ZM122.555 30.2716C121.779 31.1442 121.184 32.1751 120.762 33.3493L122.643 34.0267C122.989 33.0675 123.46 32.2638 124.05 31.6004L122.555 30.2716ZM120.762 33.3493C120.338 34.5264 120.127 35.7504 120.127 37.016H122.127C122.127 35.9776 122.299 34.983 122.643 34.0267L120.762 33.3493ZM120.127 37.016C120.127 38.4952 120.381 39.8372 120.921 41.0167L122.74 40.1833C122.341 39.3148 122.127 38.2674 122.127 37.016H120.127ZM120.944 41.0626C121.505 42.1378 122.211 43.0817 123.064 43.887L124.437 42.433C123.754 41.7877 123.18 41.0249 122.717 40.1374L120.944 41.0626ZM123.086 43.9074C123.946 44.6715 124.908 45.25 125.969 45.6358L126.652 43.7562C125.836 43.4593 125.091 43.0138 124.415 42.4126L123.086 43.9074ZM125.969 45.6358C126.999 46.0103 128.011 46.208 128.999 46.208V44.208C128.28 44.208 127.5 44.0644 126.652 43.7562L125.969 45.6358ZM128.999 46.208C129.935 46.208 130.862 46.0351 131.776 45.6983L131.085 43.8217C130.378 44.0822 129.684 44.208 128.999 44.208V46.208ZM131.761 45.7039C132.7 45.3751 133.573 44.9275 134.375 44.361L133.222 42.727C132.574 43.1845 131.868 43.5476 131.1 43.8161L131.761 45.7039ZM134.384 44.3547C135.221 43.7503 135.966 43.0516 136.618 42.2597L135.075 40.9883C134.532 41.647 133.912 42.2283 133.213 42.7333L134.384 44.3547ZM136.618 42.2597C137.272 41.4661 137.81 40.601 138.23 39.6664L136.407 38.8456C136.059 39.6176 135.616 40.3312 135.075 40.9883L136.618 42.2597ZM138.318 39.256V34.328H136.318V39.256H138.318ZM164.329 43.736L164.013 44.6847L164.021 44.6874L164.329 43.736ZM160.553 41.496L159.86 42.2168L159.867 42.2239L159.875 42.2308L160.553 41.496ZM157.865 37.336L156.926 37.6796L156.931 37.6936L156.937 37.7074L157.865 37.336ZM157.993 24.344L158.92 24.7192L158.923 24.7117L157.993 24.344ZM160.681 19.992L161.388 20.6991L160.681 19.992ZM164.329 17.624L164.663 18.5664L164.677 18.5617L164.69 18.5566L164.329 17.624ZM173.225 18.392L173.802 17.575L173.225 18.392ZM176.105 22.168L175.151 22.4678L175.371 23.168H176.105V22.168ZM180.521 22.168V23.168H181.837L181.485 21.9004L180.521 22.168ZM178.473 18.392L177.736 19.0677L177.743 19.0755L177.75 19.0832L178.473 18.392ZM175.209 15.96L174.737 16.8415L174.755 16.8514L174.774 16.8605L175.209 15.96ZM171.305 14.68L171.121 15.6629L171.138 15.6661L171.155 15.6687L171.305 14.68ZM160.233 15.64L160.618 16.5631L160.626 16.5597L160.634 16.5562L160.233 15.64ZM155.049 19.16L154.321 18.474L155.049 19.16ZM151.849 24.408L150.909 24.0679L150.905 24.0768L150.902 24.0857L151.849 24.408ZM151.977 37.528L151.038 37.8728L151.041 37.8791L151.977 37.528ZM155.241 42.904L154.504 43.5797L154.514 43.5904L154.524 43.6008L155.241 42.904ZM160.425 46.488L160.017 47.401L160.025 47.4047L160.033 47.4082L160.425 46.488ZM174.569 46.36L174.166 45.4447L174.159 45.4477L174.569 46.36ZM179.945 43.288L180.552 44.0824L181.346 43.4755L180.74 42.6813L179.945 43.288ZM178.089 40.856L178.884 40.2493L178.252 39.4219L177.451 40.086L178.089 40.856ZM173.609 43.608L173.966 44.5421L173.973 44.5393L173.98 44.5365L173.609 43.608ZM168.809 43.44C167.377 43.44 165.987 43.2215 164.637 42.7846L164.021 44.6874C165.572 45.1892 167.169 45.44 168.809 45.44V43.44ZM164.645 42.7873C163.374 42.3636 162.238 41.6908 161.231 40.7612L159.875 42.2308C161.086 43.3492 162.468 44.1697 164.013 44.6847L164.645 42.7873ZM161.246 40.7752C160.257 39.8242 159.433 38.5646 158.793 36.9646L156.937 37.7074C157.662 39.5207 158.63 41.0345 159.86 42.2168L161.246 40.7752ZM158.804 36.9924C158.216 35.3843 157.905 33.3746 157.905 30.936H155.905C155.905 33.532 156.234 35.789 156.926 37.6796L158.804 36.9924ZM157.905 30.936C157.905 28.42 158.256 26.3585 158.92 24.7192L157.066 23.9688C156.279 25.9135 155.905 28.2466 155.905 30.936H157.905ZM158.923 24.7117C159.613 22.9668 160.443 21.6442 161.388 20.6991L159.974 19.2849C158.786 20.4731 157.824 22.0518 157.063 23.9763L158.923 24.7117ZM161.388 20.6991C162.405 19.6825 163.497 18.9804 164.663 18.5664L163.995 16.6816C162.516 17.2062 161.176 18.0829 159.974 19.2849L161.388 20.6991ZM164.69 18.5566C165.919 18.081 167.055 17.856 168.105 17.856V15.856C166.766 15.856 165.385 16.143 163.968 16.6914L164.69 18.5566ZM168.105 17.856C169.884 17.856 171.384 18.3165 172.648 19.209L173.802 17.575C172.165 16.4195 170.251 15.856 168.105 15.856V17.856ZM172.648 19.209C173.945 20.1244 174.756 21.2112 175.151 22.4678L177.059 21.8682C176.515 20.1381 175.406 18.7076 173.802 17.575L172.648 19.209ZM176.105 23.168H180.521V21.168H176.105V23.168ZM181.485 21.9004C181.021 20.2331 180.267 18.8204 179.196 17.7008L177.75 19.0832C178.557 19.9262 179.167 21.0309 179.557 22.4356L181.485 21.9004ZM179.21 17.7163C178.187 16.5999 176.997 15.7125 175.644 15.0594L174.774 16.8605C175.896 17.4022 176.882 18.1361 177.736 19.0677L179.21 17.7163ZM175.681 15.0785C174.381 14.382 172.97 13.9208 171.455 13.6913L171.155 15.6687C172.456 15.8658 173.648 16.258 174.737 16.8415L175.681 15.0785ZM171.489 13.6971C170.068 13.4307 168.684 13.296 167.337 13.296V15.296C168.55 15.296 169.811 15.4173 171.121 15.6629L171.489 13.6971ZM167.337 13.296C164.538 13.296 162.029 13.7625 159.832 14.7238L160.634 16.5562C162.533 15.7255 164.76 15.296 167.337 15.296V13.296ZM159.848 14.7169C157.681 15.6199 155.833 16.8703 154.321 18.474L155.777 19.846C157.081 18.463 158.689 17.3668 160.618 16.5631L159.848 14.7169ZM154.321 18.474C152.816 20.0707 151.679 21.939 150.909 24.0679L152.789 24.7481C153.47 22.8663 154.466 21.2359 155.777 19.846L154.321 18.474ZM150.902 24.0857C150.182 26.2016 149.825 28.4445 149.825 30.808H151.825C151.825 28.6489 152.151 26.625 152.796 24.7303L150.902 24.0857ZM149.825 30.808C149.825 33.3064 150.227 35.6639 151.038 37.8728L152.916 37.1832C152.191 35.2108 151.825 33.0883 151.825 30.808H149.825ZM151.041 37.8791C151.851 40.041 153.005 41.9446 154.504 43.5797L155.978 42.2283C154.661 40.7914 153.639 39.111 152.913 37.1769L151.041 37.8791ZM154.524 43.6008C156.068 45.1901 157.902 46.4561 160.017 47.401L160.833 45.575C158.937 44.7279 157.316 43.6046 155.958 42.2072L154.524 43.6008ZM160.033 47.4082C162.18 48.3217 164.578 48.768 167.209 48.768V46.768C164.806 46.768 162.68 46.361 160.817 45.5678L160.033 47.4082ZM167.209 48.768C170.135 48.768 172.733 48.2804 174.979 47.2723L174.159 45.4477C172.223 46.3169 169.915 46.768 167.209 46.768V48.768ZM174.972 47.2753C177.159 46.313 179.024 45.2511 180.552 44.0824L179.338 42.4936C177.965 43.5435 176.246 44.5297 174.166 45.4447L174.972 47.2753ZM180.74 42.6813L178.884 40.2493L177.294 41.4627L179.15 43.8947L180.74 42.6813ZM177.451 40.086C176.022 41.2701 174.617 42.1278 173.238 42.6795L173.98 44.5365C175.588 43.8935 177.17 42.9165 178.727 41.626L177.451 40.086ZM173.252 42.6739C171.929 43.1799 170.452 43.44 168.809 43.44V45.44C170.665 45.44 172.388 45.1455 173.966 44.5421L173.252 42.6739Z" fill="url(#paint0_linear)" fill-opacity="0.5"/>
<defs>
<linearGradient id="paint0_linear" x1="-1.14825" y1="-9.9986" x2="44.4964" y2="85.0841" gradientUnits="userSpaceOnUse">
<stop stop-color="#C69C6D"/>
<stop offset="1" stop-color="#E6A762"/>
</linearGradient>
</defs>
</svg>
