<svg width="42" height="42" viewBox="0 0 42 42" fill="none" xmlns="http://www.w3.org/2000/svg">
<path d="M28.7031 5.75968C30.7248 5.76571 32.6619 6.5715 34.0915 8.00106C35.521 9.43062 36.3268 11.3678 36.3329 13.3895V28.6474C36.3268 30.6691 35.521 32.6063 34.0915 34.0358C32.6619 35.4654 30.7248 36.2712 28.7031 36.2772H13.4451C11.4234 36.2712 9.48628 35.4654 8.05672 34.0358C6.62717 32.6063 5.82138 30.6691 5.81534 28.6474V13.3895C5.82138 11.3678 6.62717 9.43062 8.05672 8.00106C9.48628 6.5715 11.4234 5.76571 13.4451 5.75968H28.7031ZM28.7031 2.70825H13.4451C7.57034 2.70825 2.76392 7.51467 2.76392 13.3895V28.6474C2.76392 34.5222 7.57034 39.3286 13.4451 39.3286H28.7031C34.5779 39.3286 39.3843 34.5222 39.3843 28.6474V13.3895C39.3843 7.51467 34.5779 2.70825 28.7031 2.70825Z" fill="#C69C6D"/>
<path d="M30.9917 13.3898C30.539 13.3898 30.0965 13.2556 29.7201 13.0041C29.3437 12.7526 29.0503 12.3951 28.8771 11.9769C28.7039 11.5587 28.6585 11.0985 28.7469 10.6545C28.8352 10.2105 29.0532 9.80271 29.3732 9.48262C29.6933 9.16253 30.1012 8.94455 30.5451 8.85623C30.9891 8.76792 31.4493 8.81325 31.8675 8.98648C32.2858 9.15971 32.6432 9.45307 32.8947 9.82945C33.1462 10.2058 33.2804 10.6484 33.2804 11.101C33.2811 11.4018 33.2223 11.6997 33.1075 11.9777C32.9927 12.2556 32.8242 12.5082 32.6115 12.7209C32.3988 12.9335 32.1463 13.1021 31.8683 13.2169C31.5903 13.3317 31.2924 13.3904 30.9917 13.3898Z" fill="#C69C6D"/>
<path d="M21.074 14.9147C22.2812 14.9147 23.4613 15.2727 24.465 15.9434C25.4688 16.614 26.2511 17.5673 26.7131 18.6826C27.1751 19.7979 27.2959 21.0251 27.0604 22.2091C26.8249 23.3931 26.2436 24.4807 25.39 25.3343C24.5364 26.1879 23.4488 26.7693 22.2648 27.0048C21.0808 27.2403 19.8536 27.1194 18.7383 26.6574C17.623 26.1955 16.6697 25.4131 15.999 24.4094C15.3283 23.4056 14.9704 22.2256 14.9704 21.0184C14.9721 19.4001 15.6157 17.8486 16.76 16.7043C17.9043 15.5601 19.4558 14.9164 21.074 14.9147ZM21.074 11.8633C19.2633 11.8633 17.4933 12.4002 15.9877 13.4062C14.4822 14.4122 13.3088 15.842 12.6158 17.5149C11.9229 19.1877 11.7416 21.0285 12.0949 22.8044C12.4481 24.5804 13.32 26.2116 14.6004 27.492C15.8808 28.7724 17.5121 29.6443 19.288 29.9976C21.0639 30.3508 22.9047 30.1695 24.5775 29.4766C26.2504 28.7837 27.6802 27.6102 28.6862 26.1047C29.6922 24.5991 30.2291 22.8291 30.2291 21.0184C30.2291 18.5903 29.2646 16.2617 27.5477 14.5447C25.8307 12.8278 23.5021 11.8633 21.074 11.8633Z" fill="#C69C6D"/>
</svg>
