<svg width="51" height="51" viewBox="0 0 51 51" fill="none" xmlns="http://www.w3.org/2000/svg">
<path fill-rule="evenodd" clip-rule="evenodd" d="M47.5443 12.9479C47.8935 11.8414 47.5443 11.0371 45.9993 11.0371H40.8623C39.5666 11.0371 38.9682 11.7414 38.619 12.4947C38.619 12.4947 35.9765 18.9294 32.2863 23.1012C31.0896 24.3077 30.5413 24.7099 29.8929 24.7099C29.5437 24.7099 29.0944 24.3077 29.0944 23.2022V12.8959C29.0944 11.5893 28.6962 10.9861 27.5986 10.9861H19.5199C18.7214 10.9861 18.2231 11.5893 18.2231 12.1926C18.2231 13.4491 20.0682 13.7512 20.2673 17.2697V24.9149C20.2673 26.5736 19.973 26.8767 19.3198 26.8767C17.5747 26.8767 13.3362 20.392 10.7937 13.0028C10.2994 11.5393 9.79715 10.9861 8.5004 10.9861H3.31436C1.81849 10.9861 1.56934 11.6894 1.56934 12.4437C1.56934 13.8013 3.31436 20.6372 9.6971 29.685C13.9356 35.8647 19.9691 39.1861 25.4043 39.1861C28.6962 39.1861 29.0944 38.4317 29.0944 37.1752V32.5002C29.0944 30.9926 29.3936 30.7415 30.4412 30.7415C31.1887 30.7415 32.5355 31.1427 35.5772 34.1089C39.0673 37.6274 39.6656 39.2361 41.6108 39.2361H46.7468C48.2427 39.2361 48.9411 38.4818 48.5418 37.0241C48.0936 35.5665 46.3976 33.4556 44.2033 30.9426C43.0066 29.5359 41.2115 27.9773 40.6632 27.223C39.9158 26.2175 40.1149 25.8154 40.6632 24.911C40.6132 24.911 46.8969 15.9632 47.5443 12.944" fill="#CF9F67"/>
</svg>
