<svg width="299" height="48" viewBox="0 0 299 48" fill="none" xmlns="http://www.w3.org/2000/svg">
<path d="M1.68 46H7.504V30.256L14.736 22.512L31.76 46H38.416L18.448 18.544L34.704 1.2H31.504L7.504 26.416V1.2H1.68V46ZM76.6645 30.064C76.6645 32.2827 76.2805 34.416 75.5125 36.464C74.7445 38.4693 73.6352 40.24 72.1845 41.776C70.7765 43.312 69.0485 44.528 67.0005 45.424C64.9952 46.32 62.7338 46.768 60.2165 46.768C57.6565 46.768 55.3312 46.32 53.2405 45.424C51.1925 44.4853 49.4432 43.248 47.9925 41.712C46.5845 40.176 45.4752 38.4053 44.6645 36.4C43.8965 34.352 43.5125 32.24 43.5125 30.064C43.5125 27.8453 43.8965 25.7333 44.6645 23.728C45.4752 21.68 46.5845 19.888 47.9925 18.352C49.4432 16.816 51.1925 15.6 53.2405 14.704C55.3312 13.7653 57.6565 13.296 60.2165 13.296C62.7338 13.296 64.9952 13.7653 67.0005 14.704C69.0485 15.6 70.7765 16.816 72.1845 18.352C73.6352 19.888 74.7445 21.68 75.5125 23.728C76.2805 25.7333 76.6645 27.8453 76.6645 30.064ZM70.5845 30.064C70.5845 27.0773 70.2645 24.6667 69.6245 22.832C68.9845 20.9547 68.1525 19.504 67.1285 18.48C66.1045 17.456 64.9738 16.7733 63.7365 16.432C62.4992 16.048 61.3045 15.856 60.1525 15.856C59.0005 15.856 57.8058 16.048 56.5685 16.432C55.3312 16.7733 54.1792 17.456 53.1125 18.48C52.0885 19.504 51.2352 20.9547 50.5525 22.832C49.9125 24.6667 49.5925 27.0773 49.5925 30.064C49.5925 33.008 49.9125 35.4187 50.5525 37.296C51.2352 39.1307 52.0885 40.56 53.1125 41.584C54.1792 42.608 55.3312 43.312 56.5685 43.696C57.8058 44.0373 59.0005 44.208 60.1525 44.208C61.3045 44.208 62.4992 44.0373 63.7365 43.696C64.9738 43.312 66.1045 42.608 67.1285 41.584C68.1525 40.56 68.9845 39.1307 69.6245 37.296C70.2645 35.4187 70.5845 33.008 70.5845 30.064ZM90.435 30.704H106.627V46H112.067V14H106.627V28.528H90.435V14H84.995V46H90.435V30.704ZM131.268 46H136.708V16.56H149.507V14H118.468V16.56H131.268V46ZM167.708 13.296C170.823 13.296 173.234 13.744 174.941 14.64C176.647 15.4933 177.885 16.624 178.653 18.032C179.463 19.44 179.933 21.0613 180.061 22.896C180.189 24.7307 180.253 26.608 180.253 28.528V46H175.069V42.864C173.831 44.0587 172.253 45.0187 170.333 45.744C168.413 46.4267 166.493 46.768 164.573 46.768C162.738 46.768 161.117 46.448 159.709 45.808C158.301 45.168 157.127 44.336 156.189 43.312C155.25 42.288 154.546 41.136 154.077 39.856C153.607 38.576 153.373 37.2747 153.373 35.952C153.373 34.5867 153.629 33.2213 154.141 31.856C154.653 30.4907 155.421 29.2747 156.445 28.208C157.469 27.0987 158.727 26.2027 160.22 25.52C161.714 24.8373 163.421 24.496 165.341 24.496C167.261 24.496 169.074 24.88 170.781 25.648C172.53 26.3733 173.959 27.4187 175.069 28.784V26.032C175.069 22.5333 174.535 19.9307 173.469 18.224C172.445 16.5173 170.546 15.664 167.773 15.664C166.578 15.664 165.533 15.8133 164.637 16.112C163.741 16.4107 162.93 16.8373 162.205 17.392C161.522 17.904 160.882 18.5653 160.285 19.376C159.687 20.144 159.09 21.0187 158.493 22L155.165 18.672C155.762 18.032 156.381 17.392 157.021 16.752C157.703 16.112 158.514 15.536 159.453 15.024C160.434 14.512 161.586 14.1067 162.909 13.808C164.231 13.4667 165.831 13.296 167.708 13.296ZM175.069 33.328C174.855 32.816 174.535 32.2187 174.109 31.536C173.725 30.8533 173.213 30.192 172.573 29.552C171.933 28.912 171.165 28.3787 170.269 27.952C169.373 27.4827 168.306 27.248 167.069 27.248C165.831 27.248 164.701 27.504 163.677 28.016C162.653 28.4853 161.778 29.1253 161.053 29.936C160.37 30.704 159.837 31.6213 159.453 32.688C159.069 33.7547 158.877 34.864 158.877 36.016C158.877 37.3813 159.111 38.576 159.581 39.6C160.093 40.5813 160.733 41.4347 161.501 42.16C162.269 42.8427 163.122 43.3547 164.061 43.696C164.999 44.0373 165.895 44.208 166.749 44.208C167.559 44.208 168.37 44.0587 169.181 43.76C170.034 43.4613 170.823 43.056 171.549 42.544C172.317 41.9893 172.999 41.3493 173.597 40.624C174.194 39.8987 174.685 39.1093 175.069 38.256V33.328ZM195.935 30.512V14H190.495V46H195.935V34.736L199.455 31.024L207.391 41.456C207.903 42.096 208.436 42.736 208.991 43.376C209.546 44.016 210.143 44.592 210.783 45.104C211.423 45.616 212.106 46.0213 212.831 46.32C213.599 46.6187 214.41 46.768 215.263 46.768C216.031 46.768 216.778 46.6827 217.503 46.512C218.228 46.3413 218.868 46.1707 219.423 46V43.44H217.631C217.119 43.44 216.586 43.2907 216.031 42.992C215.476 42.6933 214.9 42.3093 214.303 41.84C213.748 41.328 213.194 40.7947 212.639 40.24C212.127 39.6427 211.658 39.0667 211.231 38.512L202.847 27.568L215.839 14H211.807L195.935 30.512ZM234.768 46H240.208V16.56H253.007V14H221.968V16.56H234.768V46ZM259.433 14V46H276.265C277.417 46 278.547 45.808 279.657 45.424C280.809 45.04 281.811 44.4853 282.665 43.76C283.518 42.992 284.201 42.096 284.713 41.072C285.267 40.0053 285.545 38.8107 285.545 37.488C285.545 35.312 285.054 33.6267 284.073 32.432C283.134 31.2373 281.982 30.3627 280.617 29.808C279.251 29.2107 277.822 28.848 276.329 28.72C274.835 28.592 273.577 28.528 272.553 28.528H264.873V14H259.433ZM292.265 14V46H297.705V14H292.265ZM264.873 43.568V30.704H272.233C272.617 30.704 273.214 30.7467 274.025 30.832C274.835 30.9173 275.646 31.1947 276.457 31.664C277.31 32.0907 278.057 32.7733 278.697 33.712C279.337 34.608 279.657 35.888 279.657 37.552C279.657 39.5573 279.017 41.072 277.737 42.096C276.499 43.0773 275.049 43.568 273.385 43.568H264.873Z" fill="#333333"/>
<path d="M1.68 46H0.68V47H1.68V46ZM7.504 46V47H8.504V46H7.504ZM7.504 30.256L6.77315 29.5735L6.504 29.8617V30.256H7.504ZM14.736 22.512L15.5457 21.9251L14.8335 20.9425L14.0051 21.8295L14.736 22.512ZM31.76 46L30.9503 46.5869L31.2498 47H31.76V46ZM38.416 46V47H40.3798L39.2247 45.4118L38.416 46ZM18.448 18.544L17.7184 17.8601L17.1529 18.4634L17.6393 19.1322L18.448 18.544ZM34.704 1.2L35.4336 1.88385L37.0118 0.199997H34.704V1.2ZM31.504 1.2V0.199997H31.0752L30.7796 0.510571L31.504 1.2ZM7.504 26.416H6.504V28.9171L8.22836 27.1054L7.504 26.416ZM7.504 1.2H8.504V0.199997H7.504V1.2ZM1.68 1.2V0.199997H0.68V1.2H1.68ZM1.68 47H7.504V45H1.68V47ZM8.504 46V30.256H6.504V46H8.504ZM8.23485 30.9385L15.4669 23.1945L14.0051 21.8295L6.77315 29.5735L8.23485 30.9385ZM13.9263 23.0989L30.9503 46.5869L32.5697 45.4131L15.5457 21.9251L13.9263 23.0989ZM31.76 47H38.416V45H31.76V47ZM39.2247 45.4118L19.2567 17.9558L17.6393 19.1322L37.6073 46.5882L39.2247 45.4118ZM19.1776 19.2279L35.4336 1.88385L33.9744 0.516146L17.7184 17.8601L19.1776 19.2279ZM34.704 0.199997H31.504V2.2H34.704V0.199997ZM30.7796 0.510571L6.77964 25.7266L8.22836 27.1054L32.2284 1.88942L30.7796 0.510571ZM8.504 26.416V1.2H6.504V26.416H8.504ZM7.504 0.199997H1.68V2.2H7.504V0.199997ZM0.68 1.2V46H2.68V1.2H0.68ZM75.5125 36.464L76.4464 36.8217L76.4488 36.8151L75.5125 36.464ZM72.1845 41.776L71.4575 41.0894L71.4524 41.0948L71.4473 41.1003L72.1845 41.776ZM67.0005 45.424L66.5997 44.5078L66.5926 44.511L67.0005 45.424ZM53.2405 45.424L52.8238 46.3331L52.8352 46.3382L52.8466 46.3431L53.2405 45.424ZM47.9925 41.712L47.2553 42.3877L47.2604 42.3932L47.2655 42.3986L47.9925 41.712ZM44.6645 36.4L43.7282 36.7511L43.7326 36.763L43.7374 36.7748L44.6645 36.4ZM44.6645 23.728L43.7346 23.3599L43.7306 23.3703L44.6645 23.728ZM47.9925 18.352L47.2655 17.6654L47.2604 17.6708L47.2553 17.6763L47.9925 18.352ZM53.2405 14.704L53.6413 15.6202L53.6501 15.6163L53.2405 14.704ZM67.0005 14.704L66.5766 15.6097L66.5881 15.6151L66.5997 15.6202L67.0005 14.704ZM72.1845 18.352L71.4473 19.0277L71.4524 19.0332L71.4575 19.0386L72.1845 18.352ZM75.5125 23.728L74.5761 24.0791L74.5786 24.0856L75.5125 23.728ZM69.6245 22.832L68.678 23.1547L68.6803 23.1614L69.6245 22.832ZM63.7365 16.432L63.4401 17.3871L63.4553 17.3918L63.4706 17.396L63.7365 16.432ZM56.5685 16.432L56.8344 17.396L56.8497 17.3918L56.8649 17.3871L56.5685 16.432ZM53.1125 18.48L52.42 17.7586L52.4126 17.7657L52.4054 17.7729L53.1125 18.48ZM50.5525 22.832L49.6126 22.4902L49.6083 22.5026L50.5525 22.832ZM50.5525 37.296L49.606 37.6187L49.6105 37.6318L49.6153 37.6447L50.5525 37.296ZM53.1125 41.584L52.4054 42.2911L52.4126 42.2983L52.42 42.3054L53.1125 41.584ZM56.5685 43.696L56.2721 44.6511L56.2873 44.6558L56.3026 44.66L56.5685 43.696ZM63.7365 43.696L64.0024 44.66L64.0177 44.6558L64.0329 44.6511L63.7365 43.696ZM67.1285 41.584L67.8356 42.2911L67.1285 41.584ZM69.6245 37.296L70.5687 37.6254L70.571 37.6187L69.6245 37.296ZM75.6645 30.064C75.6645 32.1645 75.3015 34.1788 74.5762 36.1129L76.4488 36.8151C77.2595 34.6532 77.6645 32.4008 77.6645 30.064H75.6645ZM74.5786 36.1064C73.8566 37.9916 72.8169 39.65 71.4575 41.0894L72.9115 42.4626C74.4535 40.83 75.6324 38.9471 76.4464 36.8216L74.5786 36.1064ZM71.4473 41.1003C70.1402 42.5263 68.5295 43.6636 66.5997 44.5078L67.4013 46.3402C69.5675 45.3924 71.4128 44.0977 72.9217 42.4517L71.4473 41.1003ZM66.5926 44.511C64.733 45.3418 62.6137 45.768 60.2165 45.768V47.768C62.854 47.768 65.2573 47.2982 67.4084 46.337L66.5926 44.511ZM60.2165 45.768C57.7749 45.768 55.5859 45.3412 53.6344 44.5049L52.8466 46.3431C55.0764 47.2988 57.5381 47.768 60.2165 47.768V45.768ZM53.6572 44.5149C51.7181 43.6262 50.0762 42.4619 48.7195 41.0254L47.2655 42.3986C48.8101 44.0341 50.6669 45.3445 52.8238 46.3331L53.6572 44.5149ZM48.7297 41.0363C47.4055 39.5918 46.3592 37.924 45.5916 36.0252L43.7374 36.7748C44.5911 38.8867 45.7635 40.7602 47.2553 42.3877L48.7297 41.0363ZM45.6008 36.0489C44.8747 34.1126 44.5125 32.1195 44.5125 30.064H42.5125C42.5125 32.3605 42.9183 34.5914 43.7282 36.7511L45.6008 36.0489ZM44.5125 30.064C44.5125 27.9635 44.8755 25.973 45.5984 24.0856L43.7306 23.3703C42.9175 25.4936 42.5125 27.7272 42.5125 30.064H44.5125ZM45.5943 24.096C46.3627 22.155 47.4087 20.4687 48.7297 19.0277L47.2553 17.6763C45.7603 19.3073 44.5877 21.205 43.7347 23.36L45.5943 24.096ZM48.7195 19.0386C50.0727 17.6059 51.7091 16.4655 53.6413 15.6202L52.8397 13.7878C50.6759 14.7345 48.8137 16.0261 47.2655 17.6654L48.7195 19.0386ZM53.6501 15.6163C55.5976 14.7419 57.7811 14.296 60.2165 14.296V12.296C57.5319 12.296 55.0647 12.7888 52.8309 13.7917L53.6501 15.6163ZM60.2165 14.296C62.6074 14.296 64.721 14.7411 66.5766 15.6097L67.4244 13.7983C65.2693 12.7895 62.8603 12.296 60.2165 12.296V14.296ZM66.5997 15.6202C68.5295 16.4644 70.1402 17.6017 71.4473 19.0277L72.9217 17.6763C71.4128 16.0303 69.5675 14.7356 67.4013 13.7878L66.5997 15.6202ZM71.4575 19.0386C72.8135 20.4744 73.8532 22.1513 74.5762 24.0791L76.4488 23.3769C75.6358 21.2087 74.4568 19.3016 72.9115 17.6654L71.4575 19.0386ZM74.5786 24.0856C75.3015 25.973 75.6645 27.9635 75.6645 30.064H77.6645C77.6645 27.7272 77.2595 25.4936 76.4464 23.3703L74.5786 24.0856ZM71.5845 30.064C71.5845 27.0188 71.2599 24.4841 70.5687 22.5026L68.6803 23.1614C69.2691 24.8492 69.5845 27.1359 69.5845 30.064H71.5845ZM70.571 22.5093C69.8989 20.5378 69.0001 18.9374 67.8356 17.7729L66.4214 19.1871C67.3049 20.0706 68.0701 21.3715 68.678 23.1547L70.571 22.5093ZM67.8356 17.7729C66.7052 16.6425 65.4271 15.861 64.0024 15.468L63.4706 17.396C64.5206 17.6857 65.5038 18.2695 66.4214 19.1871L67.8356 17.7729ZM64.0329 15.4769C62.7114 15.0668 61.4166 14.856 60.1525 14.856V16.856C61.1924 16.856 62.287 17.0292 63.4401 17.3871L64.0329 15.4769ZM60.1525 14.856C58.8884 14.856 57.5936 15.0668 56.2721 15.4769L56.8649 17.3871C58.018 17.0292 59.1126 16.856 60.1525 16.856V14.856ZM56.3026 15.468C54.8822 15.8598 53.5881 16.6372 52.42 17.7586L53.805 19.2014C54.7702 18.2748 55.7801 17.6868 56.8344 17.396L56.3026 15.468ZM52.4054 17.7729C51.2466 18.9316 50.3275 20.5246 49.6127 22.4903L51.4923 23.1737C52.1428 21.3847 52.9304 20.0764 53.8196 19.1871L52.4054 17.7729ZM49.6083 22.5026C48.9171 24.4841 48.5925 27.0188 48.5925 30.064H50.5925C50.5925 27.1359 50.9079 24.8492 51.4967 23.1614L49.6083 22.5026ZM48.5925 30.064C48.5925 33.0699 48.9179 35.6002 49.606 37.6187L51.499 36.9733C50.9071 35.2372 50.5925 32.9461 50.5925 30.064H48.5925ZM49.6153 37.6447C50.3314 39.5692 51.2508 41.1365 52.4054 42.2911L53.8196 40.8769C52.9262 39.9835 52.139 38.6921 51.4897 36.9473L49.6153 37.6447ZM52.42 42.3054C53.5828 43.4217 54.8666 44.2149 56.2721 44.6511L56.8649 42.7409C55.7957 42.4091 54.7755 41.7943 53.805 40.8626L52.42 42.3054ZM56.3026 44.66C57.6168 45.0225 58.9011 45.208 60.1525 45.208V43.208C59.0999 43.208 57.9949 43.0521 56.8344 42.732L56.3026 44.66ZM60.1525 45.208C61.4039 45.208 62.6882 45.0225 64.0024 44.66L63.4706 42.732C62.3101 43.0521 61.2051 43.208 60.1525 43.208V45.208ZM64.0329 44.6511C65.4427 44.2135 66.7106 43.4161 67.8356 42.2911L66.4214 40.8769C65.4984 41.7999 64.5049 42.4105 63.4401 42.7409L64.0329 44.6511ZM67.8356 42.2911C68.996 41.1307 69.8952 39.556 70.5687 37.6254L68.6803 36.9666C68.0738 38.7054 67.309 39.9893 66.4214 40.8769L67.8356 42.2911ZM70.571 37.6187C71.2591 35.6002 71.5845 33.0699 71.5845 30.064H69.5845C69.5845 32.9461 69.2699 35.2372 68.678 36.9733L70.571 37.6187ZM90.435 30.704V29.704H89.435V30.704H90.435ZM106.627 30.704H107.627V29.704H106.627V30.704ZM106.627 46H105.627V47H106.627V46ZM112.067 46V47H113.067V46H112.067ZM112.067 14H113.067V13H112.067V14ZM106.627 14V13H105.627V14H106.627ZM106.627 28.528V29.528H107.627V28.528H106.627ZM90.435 28.528H89.435V29.528H90.435V28.528ZM90.435 14H91.435V13H90.435V14ZM84.995 14V13H83.995V14H84.995ZM84.995 46H83.995V47H84.995V46ZM90.435 46V47H91.435V46H90.435ZM90.435 31.704H106.627V29.704H90.435V31.704ZM105.627 30.704V46H107.627V30.704H105.627ZM106.627 47H112.067V45H106.627V47ZM113.067 46V14H111.067V46H113.067ZM112.067 13H106.627V15H112.067V13ZM105.627 14V28.528H107.627V14H105.627ZM106.627 27.528H90.435V29.528H106.627V27.528ZM91.435 28.528V14H89.435V28.528H91.435ZM90.435 13H84.995V15H90.435V13ZM83.995 14V46H85.995V14H83.995ZM84.995 47H90.435V45H84.995V47ZM91.435 46V30.704H89.435V46H91.435ZM131.268 46H130.268V47H131.268V46ZM136.708 46V47H137.708V46H136.708ZM136.708 16.56V15.56H135.708V16.56H136.708ZM149.508 16.56V17.56H150.508V16.56H149.508ZM149.508 14H150.508V13H149.508V14ZM118.467 14V13H117.467V14H118.467ZM118.467 16.56H117.467V17.56H118.467V16.56ZM131.268 16.56H132.268V15.56H131.268V16.56ZM131.268 47H136.708V45H131.268V47ZM137.708 46V16.56H135.708V46H137.708ZM136.708 17.56H149.508V15.56H136.708V17.56ZM150.508 16.56V14H148.508V16.56H150.508ZM149.508 13H118.467V15H149.508V13ZM117.467 14V16.56H119.467V14H117.467ZM118.467 17.56H131.268V15.56H118.467V17.56ZM130.268 16.56V46H132.268V16.56H130.268ZM174.941 14.64L174.476 15.5254L174.484 15.53L174.493 15.5344L174.941 14.64ZM178.652 18.032L177.775 18.5109L177.78 18.521L177.786 18.531L178.652 18.032ZM180.061 22.896L181.058 22.8264L180.061 22.896ZM180.253 46V47H181.253V46H180.253ZM175.068 46H174.068V47H175.068V46ZM175.068 42.864H176.068V40.5084L174.374 42.1446L175.068 42.864ZM170.333 45.744L170.668 46.6862L170.677 46.6829L170.686 46.6795L170.333 45.744ZM159.708 45.808L160.122 44.8976L159.708 45.808ZM156.189 43.312L156.926 42.6363L156.189 43.312ZM154.141 31.856L153.204 31.5049L154.141 31.856ZM156.445 28.208L157.166 28.9005L157.173 28.8935L157.179 28.8863L156.445 28.208ZM160.221 25.52L159.805 24.6105L160.221 25.52ZM170.781 25.648L170.37 26.5599L170.384 26.566L170.397 26.5717L170.781 25.648ZM175.068 28.784L174.292 29.4146L176.068 31.6006V28.784H175.068ZM173.469 18.224L172.611 18.7385L172.616 18.7463L172.62 18.754L173.469 18.224ZM164.637 16.112L164.953 17.0607L164.637 16.112ZM162.204 17.392L162.805 18.192L162.812 18.1864L162.204 17.392ZM160.285 19.376L161.074 19.9899L161.082 19.9797L161.09 19.9692L160.285 19.376ZM158.492 22L157.785 22.7071L158.685 23.6068L159.347 22.5199L158.492 22ZM155.165 18.672L154.433 17.9897L153.774 18.696L154.457 19.3791L155.165 18.672ZM157.021 16.752L156.337 16.0225L156.325 16.0335L156.313 16.0449L157.021 16.752ZM159.452 15.024L158.99 14.1374L158.982 14.1417L158.974 14.1461L159.452 15.024ZM162.909 13.808L163.129 14.7834L163.144 14.7801L163.158 14.7763L162.909 13.808ZM175.068 33.328H176.068V33.128L175.992 32.9434L175.068 33.328ZM174.109 31.536L173.237 32.0263L173.248 32.0464L173.26 32.066L174.109 31.536ZM172.572 29.552L171.865 30.2591L172.572 29.552ZM170.268 27.952L169.804 28.8378L169.821 28.8467L169.839 28.8549L170.268 27.952ZM163.676 28.016L164.093 28.9251L164.109 28.918L164.124 28.9104L163.676 28.016ZM161.053 29.936L160.307 29.2692L160.305 29.2716L161.053 29.936ZM159.452 32.688L160.393 33.0267L159.452 32.688ZM159.581 39.6L158.671 40.0167L158.682 40.0399L158.694 40.0626L159.581 39.6ZM161.501 42.16L160.814 42.887L160.825 42.8974L160.836 42.9074L161.501 42.16ZM164.061 43.696L164.402 42.7562L164.061 43.696ZM169.18 43.76L168.85 42.8161L168.842 42.8188L168.835 42.8217L169.18 43.76ZM171.548 42.544L172.125 43.361L172.134 43.3547L171.548 42.544ZM173.596 40.624L172.825 39.9883L173.596 40.624ZM175.068 38.256L175.98 38.6664L176.068 38.4706V38.256H175.068ZM167.708 14.296C170.75 14.296 172.975 14.7373 174.476 15.5254L175.405 13.7546C173.493 12.7507 170.896 12.296 167.708 12.296V14.296ZM174.493 15.5344C176.053 16.3142 177.122 17.314 177.775 18.5109L179.53 17.5531C178.647 15.934 177.242 14.6725 175.388 13.7456L174.493 15.5344ZM177.786 18.531C178.511 19.7912 178.944 21.2621 179.063 22.9656L181.058 22.8264C180.921 20.8606 180.415 19.0888 179.519 17.533L177.786 18.531ZM179.063 22.9656C179.189 24.7761 179.253 26.6302 179.253 28.528H181.253C181.253 26.5858 181.188 24.6852 181.058 22.8264L179.063 22.9656ZM179.253 28.528V46H181.253V28.528H179.253ZM180.253 45H175.068V47H180.253V45ZM176.068 46V42.864H174.068V46H176.068ZM174.374 42.1446C173.251 43.2284 171.796 44.1221 169.979 44.8085L170.686 46.6795C172.709 45.9152 174.411 44.889 175.763 43.5834L174.374 42.1446ZM169.997 44.8018C168.178 45.4486 166.372 45.768 164.572 45.768V47.768C166.613 47.768 168.647 47.4048 170.668 46.6862L169.997 44.8018ZM164.572 45.768C162.854 45.768 161.378 45.4686 160.122 44.8976L159.295 46.7184C160.855 47.4274 162.621 47.768 164.572 47.768V45.768ZM160.122 44.8976C158.823 44.307 157.764 43.5504 156.926 42.6363L155.451 43.9877C156.491 45.1216 157.778 46.029 159.295 46.7184L160.122 44.8976ZM156.926 42.6363C156.074 41.7067 155.439 40.6668 155.015 39.5117L153.138 40.2003C153.653 41.6052 154.426 42.8693 155.451 43.9877L156.926 42.6363ZM155.015 39.5117C154.585 38.3386 154.372 37.1536 154.372 35.952H152.372C152.372 37.3957 152.629 38.8134 153.138 40.2003L155.015 39.5117ZM154.372 35.952C154.372 34.7145 154.604 33.4679 155.077 32.2071L153.204 31.5049C152.653 32.9748 152.372 34.4588 152.372 35.952H154.372ZM155.077 32.2071C155.54 30.9708 156.235 29.8706 157.166 28.9005L155.723 27.5155C154.606 28.6787 153.765 30.0105 153.204 31.5049L155.077 32.2071ZM157.179 28.8863C158.106 27.8827 159.253 27.0619 160.636 26.4295L159.805 24.6105C158.201 25.3435 156.831 26.3147 155.71 27.5297L157.179 28.8863ZM160.636 26.4295C161.979 25.8157 163.54 25.496 165.34 25.496V23.496C163.301 23.496 161.449 23.8589 159.805 24.6105L160.636 26.4295ZM165.34 25.496C167.123 25.496 168.796 25.8515 170.37 26.5599L171.191 24.7361C169.352 23.9085 167.398 23.496 165.34 23.496V25.496ZM170.397 26.5717C172.006 27.2385 173.296 28.1878 174.292 29.4146L175.845 28.1534C174.623 26.6495 173.054 25.5082 171.164 24.7243L170.397 26.5717ZM176.068 28.784V26.032H174.068V28.784H176.068ZM176.068 26.032C176.068 22.4673 175.532 19.6381 174.316 17.694L172.62 18.754C173.539 20.2233 174.068 22.5994 174.068 26.032H176.068ZM174.326 17.7095C173.054 15.5899 170.743 14.664 167.773 14.664V16.664C170.348 16.664 171.835 17.4448 172.611 18.7385L174.326 17.7095ZM167.773 14.664C166.497 14.664 165.341 14.823 164.32 15.1633L164.953 17.0607C165.724 16.8036 166.658 16.664 167.773 16.664V14.664ZM164.32 15.1633C163.323 15.4957 162.413 15.9735 161.597 16.5976L162.812 18.1864C163.446 17.7012 164.158 17.3256 164.953 17.0607L164.32 15.1633ZM161.605 16.592C160.831 17.172 160.125 17.9073 159.479 18.7828L161.09 19.9692C161.639 19.2234 162.212 18.636 162.805 18.192L161.605 16.592ZM159.495 18.7621C158.871 19.5649 158.252 20.4718 157.638 21.4801L159.347 22.5199C159.928 21.5655 160.504 20.7231 161.074 19.9899L159.495 18.7621ZM159.2 21.2929L155.872 17.9649L154.457 19.3791L157.785 22.7071L159.2 21.2929ZM155.896 19.3543C156.485 18.723 157.095 18.0913 157.728 17.4591L156.313 16.0449C155.666 16.6927 155.039 17.341 154.433 17.9897L155.896 19.3543ZM157.704 17.4815C158.317 16.907 159.057 16.379 159.931 15.9019L158.974 14.1461C157.971 14.693 157.089 15.317 156.337 16.0225L157.704 17.4815ZM159.915 15.9106C160.805 15.4463 161.872 15.0672 163.129 14.7834L162.688 12.8326C161.299 13.1462 160.063 13.5777 158.99 14.1374L159.915 15.9106ZM163.158 14.7763C164.375 14.4622 165.886 14.296 167.708 14.296V12.296C165.776 12.296 164.087 12.4711 162.659 12.8397L163.158 14.7763ZM175.992 32.9434C175.75 32.364 175.4 31.7163 174.956 31.006L173.26 32.066C173.67 32.7211 173.96 33.268 174.145 33.7126L175.992 32.9434ZM174.98 31.0457C174.545 30.2724 173.974 29.5396 173.28 28.8449L171.865 30.2591C172.451 30.8444 172.904 31.4342 173.237 32.0263L174.98 31.0457ZM173.28 28.8449C172.552 28.1169 171.687 27.5201 170.698 27.0491L169.839 28.8549C170.642 29.2373 171.313 29.7071 171.865 30.2591L173.28 28.8449ZM170.733 27.0662C169.665 26.5069 168.432 26.248 167.068 26.248V28.248C168.18 28.248 169.08 28.4584 169.804 28.8378L170.733 27.0662ZM167.068 26.248C165.689 26.248 164.403 26.5346 163.229 27.1216L164.124 28.9104C164.998 28.4734 165.974 28.248 167.068 28.248V26.248ZM163.26 27.1069C162.115 27.6315 161.128 28.3524 160.307 29.2692L161.798 30.6028C162.428 29.8983 163.19 29.3392 164.093 28.9251L163.26 27.1069ZM160.305 29.2716C159.529 30.1442 158.934 31.1751 158.512 32.3493L160.393 33.0267C160.739 32.0675 161.21 31.2638 161.8 30.6004L160.305 29.2716ZM158.512 32.3493C158.088 33.5264 157.876 34.7504 157.876 36.016H159.876C159.876 34.9776 160.049 33.983 160.393 33.0267L158.512 32.3493ZM157.876 36.016C157.876 37.4952 158.131 38.8372 158.671 40.0167L160.49 39.1833C160.091 38.3148 159.876 37.2674 159.876 36.016H157.876ZM158.694 40.0626C159.255 41.1378 159.961 42.0817 160.814 42.887L162.187 41.433C161.504 40.7877 160.93 40.0249 160.467 39.1374L158.694 40.0626ZM160.836 42.9074C161.696 43.6715 162.658 44.25 163.719 44.6358L164.402 42.7562C163.586 42.4593 162.841 42.0138 162.165 41.4126L160.836 42.9074ZM163.719 44.6358C164.749 45.0103 165.761 45.208 166.749 45.208V43.208C166.03 43.208 165.25 43.0644 164.402 42.7562L163.719 44.6358ZM166.749 45.208C167.685 45.208 168.612 45.0351 169.526 44.6983L168.835 42.8217C168.128 43.0822 167.434 43.208 166.749 43.208V45.208ZM169.511 44.7039C170.45 44.3751 171.323 43.9275 172.125 43.361L170.972 41.727C170.324 42.1845 169.618 42.5476 168.85 42.8161L169.511 44.7039ZM172.134 43.3547C172.971 42.7503 173.716 42.0516 174.368 41.2597L172.825 39.9883C172.282 40.647 171.662 41.2283 170.963 41.7333L172.134 43.3547ZM174.368 41.2597C175.022 40.4661 175.56 39.601 175.98 38.6664L174.157 37.8456C173.809 38.6176 173.366 39.3312 172.825 39.9883L174.368 41.2597ZM176.068 38.256V33.328H174.068V38.256H176.068ZM195.935 30.512H194.935V32.9953L196.656 31.205L195.935 30.512ZM195.935 14H196.935V13H195.935V14ZM190.495 14V13H189.495V14H190.495ZM190.495 46H189.495V47H190.495V46ZM195.935 46V47H196.935V46H195.935ZM195.935 34.736L195.209 34.0479L194.935 34.3372V34.736H195.935ZM199.455 31.024L200.251 30.4185L199.539 29.4824L198.729 30.3359L199.455 31.024ZM207.391 41.456L206.595 42.0615L206.603 42.0712L206.61 42.0807L207.391 41.456ZM210.783 45.104L210.158 45.8849L210.783 45.104ZM212.831 46.32L212.45 47.2447L212.459 47.2484L212.469 47.252L212.831 46.32ZM217.503 46.512L217.732 47.4854L217.503 46.512ZM219.423 46L219.717 46.9558L220.423 46.7386V46H219.423ZM219.423 43.44H220.423V42.44H219.423V43.44ZM216.031 42.992L216.505 42.1115L216.031 42.992ZM214.303 41.84L213.625 42.5748L213.654 42.6018L213.685 42.6263L214.303 41.84ZM212.639 40.24L211.88 40.8908L211.905 40.9199L211.932 40.9471L212.639 40.24ZM211.231 38.512L210.437 39.1201L210.438 39.1217L211.231 38.512ZM202.847 27.568L202.125 26.8764L201.532 27.4956L202.053 28.1761L202.847 27.568ZM215.839 14L216.561 14.6916L218.181 13H215.839V14ZM211.807 14V13H211.381L211.086 13.307L211.807 14ZM196.935 30.512V14H194.935V30.512H196.935ZM195.935 13H190.495V15H195.935V13ZM189.495 14V46H191.495V14H189.495ZM190.495 47H195.935V45H190.495V47ZM196.935 46V34.736H194.935V46H196.935ZM196.661 35.4241L200.181 31.7121L198.729 30.3359L195.209 34.0479L196.661 35.4241ZM198.659 31.6295L206.595 42.0615L208.187 40.8505L200.251 30.4185L198.659 31.6295ZM206.61 42.0807C207.131 42.7313 207.672 43.3813 208.235 44.0309L209.747 42.7211C209.2 42.0907 208.675 41.4607 208.172 40.8313L206.61 42.0807ZM208.235 44.0309C208.828 44.7153 209.469 45.3337 210.158 45.8849L211.408 44.3231C210.817 43.8503 210.263 43.3167 209.747 42.7211L208.235 44.0309ZM210.158 45.8849C210.869 46.4535 211.633 46.9083 212.45 47.2447L213.212 45.3953C212.578 45.1344 211.977 44.7785 211.408 44.3231L210.158 45.8849ZM212.469 47.252C213.356 47.5972 214.29 47.768 215.263 47.768V45.768C214.529 45.768 213.842 45.6401 213.193 45.388L212.469 47.252ZM215.263 47.768C216.106 47.768 216.929 47.6743 217.732 47.4854L217.274 45.5386C216.626 45.6911 215.956 45.768 215.263 45.768V47.768ZM217.732 47.4854C218.473 47.311 219.136 47.1346 219.717 46.9558L219.129 45.0442C218.601 45.2067 217.983 45.3717 217.274 45.5386L217.732 47.4854ZM220.423 46V43.44H218.423V46H220.423ZM219.423 42.44H217.631V44.44H219.423V42.44ZM217.631 42.44C217.318 42.44 216.947 42.3496 216.505 42.1115L215.557 43.8725C216.224 44.2317 216.92 44.44 217.631 44.44V42.44ZM216.505 42.1115C216.01 41.8449 215.482 41.4945 214.921 41.0537L213.685 42.6263C214.319 43.1241 214.943 43.5417 215.557 43.8725L216.505 42.1115ZM214.981 41.1052C214.437 40.6026 213.892 40.0785 213.346 39.5329L211.932 40.9471C212.496 41.5108 213.06 42.0534 213.625 42.5748L214.981 41.1052ZM213.398 39.5892C212.896 39.0037 212.438 38.4414 212.024 37.9023L210.438 39.1217C210.877 39.692 211.358 40.2817 211.88 40.8908L213.398 39.5892ZM212.025 37.9039L203.641 26.9599L202.053 28.1761L210.437 39.1201L212.025 37.9039ZM203.569 28.2596L216.561 14.6916L215.117 13.3084L202.125 26.8764L203.569 28.2596ZM215.839 13H211.807V15H215.839V13ZM211.086 13.307L195.214 29.819L196.656 31.205L212.528 14.693L211.086 13.307ZM234.768 46H233.768V47H234.768V46ZM240.208 46V47H241.208V46H240.208ZM240.208 16.56V15.56H239.208V16.56H240.208ZM253.008 16.56V17.56H254.008V16.56H253.008ZM253.008 14H254.008V13H253.008V14ZM221.967 14V13H220.967V14H221.967ZM221.967 16.56H220.967V17.56H221.967V16.56ZM234.768 16.56H235.768V15.56H234.768V16.56ZM234.768 47H240.208V45H234.768V47ZM241.208 46V16.56H239.208V46H241.208ZM240.208 17.56H253.008V15.56H240.208V17.56ZM254.008 16.56V14H252.008V16.56H254.008ZM253.008 13H221.967V15H253.008V13ZM220.967 14V16.56H222.967V14H220.967ZM221.967 17.56H234.768V15.56H221.967V17.56ZM233.768 16.56V46H235.768V16.56H233.768ZM259.432 14V13H258.432V14H259.432ZM259.432 46H258.432V47H259.432V46ZM279.656 45.424L279.34 44.4753L279.329 44.479L279.656 45.424ZM282.664 43.76L283.312 44.5219L283.323 44.5128L283.333 44.5033L282.664 43.76ZM284.712 41.072L283.825 40.6106L283.822 40.6177L283.818 40.6248L284.712 41.072ZM284.073 32.432L283.286 33.0498L283.293 33.0584L283.3 33.0667L284.073 32.432ZM280.617 29.808L280.216 30.7242L280.228 30.7295L280.24 30.7345L280.617 29.808ZM264.872 28.528H263.872V29.528H264.872V28.528ZM264.872 14H265.872V13H264.872V14ZM292.264 14V13H291.264V14H292.264ZM292.264 46H291.264V47H292.264V46ZM297.704 46V47H298.704V46H297.704ZM297.704 14H298.704V13H297.704V14ZM264.872 43.568H263.872V44.568H264.872V43.568ZM264.872 30.704V29.704H263.872V30.704H264.872ZM274.025 30.832L274.129 29.8375L274.025 30.832ZM276.457 31.664L275.955 32.5294L275.982 32.5448L276.009 32.5584L276.457 31.664ZM278.697 33.712L277.87 34.2753L277.876 34.2844L277.883 34.2932L278.697 33.712ZM277.737 42.096L278.358 42.8795L278.361 42.8769L277.737 42.096ZM258.432 14V46H260.432V14H258.432ZM259.432 47H276.264V45H259.432V47ZM276.264 47C277.53 47 278.771 46.7887 279.984 46.369L279.329 44.479C278.323 44.8273 277.303 45 276.264 45V47ZM279.973 46.3727C281.236 45.9516 282.353 45.3369 283.312 44.5219L282.017 42.9981C281.269 43.6338 280.381 44.1284 279.34 44.4753L279.973 46.3727ZM283.333 44.5033C284.28 43.6518 285.039 42.6555 285.607 41.5192L283.818 40.6248C283.362 41.5365 282.756 42.3322 281.996 43.0167L283.333 44.5033ZM285.6 41.5334C286.236 40.3103 286.544 38.9549 286.544 37.488H284.544C284.544 38.6664 284.299 39.7003 283.825 40.6106L285.6 41.5334ZM286.544 37.488C286.544 35.1734 286.023 33.2314 284.845 31.7973L283.3 33.0667C284.084 34.0219 284.544 35.4506 284.544 37.488H286.544ZM284.859 31.8142C283.816 30.4871 282.525 29.5038 280.993 28.8815L280.24 30.7345C281.439 31.2216 282.452 31.9875 283.286 33.0498L284.859 31.8142ZM281.017 28.8918C279.551 28.2505 278.015 27.8609 276.414 27.7237L276.243 29.7163C277.628 29.8351 278.951 30.1709 280.216 30.7242L281.017 28.8918ZM276.414 27.7237C274.904 27.5942 273.615 27.528 272.552 27.528V29.528C273.538 29.528 274.766 29.5898 276.243 29.7163L276.414 27.7237ZM272.552 27.528H264.872V29.528H272.552V27.528ZM265.872 28.528V14H263.872V28.528H265.872ZM264.872 13H259.432V15H264.872V13ZM291.264 14V46H293.264V14H291.264ZM292.264 47H297.704V45H292.264V47ZM298.704 46V14H296.704V46H298.704ZM297.704 13H292.264V15H297.704V13ZM265.872 43.568V30.704H263.872V43.568H265.872ZM264.872 31.704H272.233V29.704H264.872V31.704ZM272.233 31.704C272.561 31.704 273.114 31.7417 273.92 31.8265L274.129 29.8375C273.313 29.7516 272.672 29.704 272.233 29.704V31.704ZM273.92 31.8265C274.571 31.8951 275.248 32.12 275.955 32.5294L276.958 30.7986C276.043 30.2693 275.099 29.9396 274.129 29.8375L273.92 31.8265ZM276.009 32.5584C276.683 32.8955 277.308 33.4506 277.87 34.2753L279.523 33.1487C278.805 32.096 277.936 31.2858 276.904 30.7696L276.009 32.5584ZM277.883 34.2932C278.354 34.953 278.656 35.996 278.656 37.552H280.656C280.656 35.78 280.319 34.263 279.51 33.1308L277.883 34.2932ZM278.656 37.552C278.656 39.3285 278.102 40.5232 277.112 41.3151L278.361 42.8769C279.931 41.6208 280.656 39.7862 280.656 37.552H278.656ZM277.115 41.3125C276.064 42.1457 274.836 42.568 273.384 42.568V44.568C275.261 44.568 276.934 44.0089 278.358 42.8795L277.115 41.3125ZM273.384 42.568H264.872V44.568H273.384V42.568Z" fill="url(#paint0_linear)" fill-opacity="0.5"/>
<defs>
<linearGradient id="paint0_linear" x1="-4.57735" y1="-10.9986" x2="26.4824" y2="97.0691" gradientUnits="userSpaceOnUse">
<stop stop-color="#C69C6D"/>
<stop offset="1" stop-color="#E6A762"/>
</linearGradient>
</defs>
</svg>
