<svg width="227" height="48" viewBox="0 0 227 48" fill="none" xmlns="http://www.w3.org/2000/svg">
<path d="M1.68 1.2V46H7.504V4.72H29.008V1.2H1.68ZM41.113 14H37.273L27.545 38.128C27.3317 38.5973 27.097 39.152 26.841 39.792C26.585 40.3893 26.2863 40.9653 25.945 41.52C25.6037 42.0747 25.1983 42.544 24.729 42.928C24.3023 43.2693 23.833 43.44 23.321 43.44C22.7237 43.44 22.105 43.2693 21.465 42.928C20.825 42.5867 20.313 42.2453 19.929 41.904L18.905 45.296C19.8863 46.2347 21.273 46.704 23.065 46.704C23.8757 46.704 24.601 46.576 25.241 46.32C25.881 46.1067 26.4783 45.7013 27.033 45.104C27.5877 44.464 28.121 43.6533 28.633 42.672C29.1877 41.648 29.7637 40.368 30.361 38.832L37.721 20.336H38.105L48.345 46H54.105L41.113 14ZM72.271 13.296C75.3857 13.296 77.7963 13.744 79.503 14.64C81.2097 15.4933 82.447 16.624 83.215 18.032C84.0257 19.44 84.495 21.0613 84.623 22.896C84.751 24.7307 84.815 26.608 84.815 28.528V46H79.631V42.864C78.3937 44.0587 76.815 45.0187 74.895 45.744C72.975 46.4267 71.055 46.768 69.135 46.768C67.3003 46.768 65.679 46.448 64.271 45.808C62.863 45.168 61.6897 44.336 60.751 43.312C59.8123 42.288 59.1083 41.136 58.639 39.856C58.1697 38.576 57.935 37.2747 57.935 35.952C57.935 34.5867 58.191 33.2213 58.703 31.856C59.215 30.4907 59.983 29.2747 61.007 28.208C62.031 27.0987 63.2897 26.2027 64.783 25.52C66.2763 24.8373 67.983 24.496 69.903 24.496C71.823 24.496 73.6363 24.88 75.343 25.648C77.0923 26.3733 78.5217 27.4187 79.631 28.784V26.032C79.631 22.5333 79.0977 19.9307 78.031 18.224C77.007 16.5173 75.1083 15.664 72.335 15.664C71.1403 15.664 70.095 15.8133 69.199 16.112C68.303 16.4107 67.4923 16.8373 66.767 17.392C66.0843 17.904 65.4443 18.5653 64.847 19.376C64.2497 20.144 63.6523 21.0187 63.055 22L59.727 18.672C60.3243 18.032 60.943 17.392 61.583 16.752C62.2657 16.112 63.0763 15.536 64.015 15.024C64.9963 14.512 66.1483 14.1067 67.471 13.808C68.7937 13.4667 70.3937 13.296 72.271 13.296ZM79.631 33.328C79.4177 32.816 79.0977 32.2187 78.671 31.536C78.287 30.8533 77.775 30.192 77.135 29.552C76.495 28.912 75.727 28.3787 74.831 27.952C73.935 27.4827 72.8683 27.248 71.631 27.248C70.3937 27.248 69.263 27.504 68.239 28.016C67.215 28.4853 66.3403 29.1253 65.615 29.936C64.9323 30.704 64.399 31.6213 64.015 32.688C63.631 33.7547 63.439 34.864 63.439 36.016C63.439 37.3813 63.6737 38.576 64.143 39.6C64.655 40.5813 65.295 41.4347 66.063 42.16C66.831 42.8427 67.6843 43.3547 68.623 43.696C69.5617 44.0373 70.4577 44.208 71.311 44.208C72.1217 44.208 72.9323 44.0587 73.743 43.76C74.5963 43.4613 75.3857 43.056 76.111 42.544C76.879 41.9893 77.5617 41.3493 78.159 40.624C78.7563 39.8987 79.247 39.1093 79.631 38.256V33.328ZM95.0575 14V46H109.522C111.612 46 113.404 45.7653 114.898 45.296C116.391 44.784 117.607 44.144 118.546 43.376C119.484 42.5653 120.167 41.6693 120.594 40.688C121.02 39.664 121.234 38.6187 121.234 37.552C121.234 35.9307 120.914 34.5867 120.274 33.52C119.634 32.4533 118.823 31.6213 117.842 31.024C116.903 30.384 115.879 29.936 114.77 29.68C113.703 29.424 112.722 29.2747 111.826 29.232V28.784C112.679 28.6133 113.532 28.3573 114.386 28.016C115.239 27.632 115.986 27.1413 116.626 26.544C117.308 25.904 117.842 25.1787 118.226 24.368C118.652 23.5147 118.866 22.5547 118.866 21.488C118.866 20.8907 118.759 20.1653 118.546 19.312C118.332 18.4587 117.863 17.648 117.138 16.88C116.412 16.0693 115.346 15.3867 113.938 14.832C112.572 14.2773 110.738 14 108.434 14H95.0575ZM100.498 43.44V30.704H106.13C106.812 30.704 107.666 30.7467 108.69 30.832C109.756 30.9173 110.78 31.1733 111.762 31.6C112.743 32.0267 113.575 32.688 114.258 33.584C114.983 34.48 115.346 35.7173 115.346 37.296C115.346 38.832 115.004 40.0267 114.322 40.88C113.639 41.6907 112.828 42.288 111.89 42.672C110.994 43.056 110.076 43.2907 109.138 43.376C108.242 43.4187 107.58 43.44 107.154 43.44H100.498ZM100.498 28.528V16.56H106.833C108.284 16.56 109.436 16.7733 110.29 17.2C111.186 17.6267 111.868 18.1387 112.338 18.736C112.807 19.3333 113.106 19.9733 113.234 20.656C113.404 21.296 113.49 21.872 113.49 22.384C113.49 23.3653 113.276 24.24 112.85 25.008C112.466 25.7333 111.932 26.3733 111.25 26.928C110.567 27.44 109.778 27.8453 108.882 28.144C107.986 28.4 107.047 28.528 106.066 28.528H100.498ZM134.998 30.704H151.19V46H156.63V14H151.19V28.528H134.998V14H129.558V46H134.998V30.704ZM178.646 13.296C181.761 13.296 184.171 13.744 185.878 14.64C187.585 15.4933 188.822 16.624 189.59 18.032C190.401 19.44 190.87 21.0613 190.998 22.896C191.126 24.7307 191.19 26.608 191.19 28.528V46H186.006V42.864C184.769 44.0587 183.19 45.0187 181.27 45.744C179.35 46.4267 177.43 46.768 175.51 46.768C173.675 46.768 172.054 46.448 170.646 45.808C169.238 45.168 168.065 44.336 167.126 43.312C166.187 42.288 165.483 41.136 165.014 39.856C164.545 38.576 164.31 37.2747 164.31 35.952C164.31 34.5867 164.566 33.2213 165.078 31.856C165.59 30.4907 166.358 29.2747 167.382 28.208C168.406 27.0987 169.665 26.2027 171.158 25.52C172.651 24.8373 174.358 24.496 176.278 24.496C178.198 24.496 180.011 24.88 181.718 25.648C183.467 26.3733 184.897 27.4187 186.006 28.784V26.032C186.006 22.5333 185.473 19.9307 184.406 18.224C183.382 16.5173 181.483 15.664 178.71 15.664C177.515 15.664 176.47 15.8133 175.574 16.112C174.678 16.4107 173.867 16.8373 173.142 17.392C172.459 17.904 171.819 18.5653 171.222 19.376C170.625 20.144 170.027 21.0187 169.43 22L166.102 18.672C166.699 18.032 167.318 17.392 167.958 16.752C168.641 16.112 169.451 15.536 170.39 15.024C171.371 14.512 172.523 14.1067 173.846 13.808C175.169 13.4667 176.769 13.296 178.646 13.296ZM186.006 33.328C185.793 32.816 185.473 32.2187 185.046 31.536C184.662 30.8533 184.15 30.192 183.51 29.552C182.87 28.912 182.102 28.3787 181.206 27.952C180.31 27.4827 179.243 27.248 178.006 27.248C176.769 27.248 175.638 27.504 174.614 28.016C173.59 28.4853 172.715 29.1253 171.99 29.936C171.307 30.704 170.774 31.6213 170.39 32.688C170.006 33.7547 169.814 34.864 169.814 36.016C169.814 37.3813 170.049 38.576 170.518 39.6C171.03 40.5813 171.67 41.4347 172.438 42.16C173.206 42.8427 174.059 43.3547 174.998 43.696C175.937 44.0373 176.833 44.208 177.686 44.208C178.497 44.208 179.307 44.0587 180.118 43.76C180.971 43.4613 181.761 43.056 182.486 42.544C183.254 41.9893 183.937 41.3493 184.534 40.624C185.131 39.8987 185.622 39.1093 186.006 38.256V33.328ZM225.561 14H212.76C211.865 14 210.713 14.0853 209.305 14.256C207.939 14.384 206.595 14.7467 205.273 15.344C203.95 15.8987 202.819 16.752 201.881 17.904C200.942 19.056 200.473 20.656 200.473 22.704C200.473 23.8133 200.686 24.8587 201.113 25.84C201.582 26.7787 202.222 27.6107 203.033 28.336C203.843 29.0613 204.803 29.6373 205.913 30.064C207.022 30.4907 208.217 30.704 209.497 30.704H210.969V30.96C210.286 31.216 209.71 31.536 209.241 31.92C208.771 32.304 208.345 32.752 207.961 33.264C207.577 33.7333 207.193 34.2667 206.809 34.864C206.467 35.4613 206.083 36.1013 205.657 36.784C204.249 39.088 203.033 40.7733 202.009 41.84C200.985 42.9067 199.811 43.44 198.489 43.44H196.953V46C198.105 46.512 199.385 46.768 200.793 46.768C202.371 46.768 203.737 46.3627 204.889 45.552C206.083 44.6987 207.171 43.44 208.153 41.776L214.617 30.704H220.121V46H225.561V14ZM220.121 16.56V28.528H214.873C213.593 28.528 212.419 28.4427 211.353 28.272C210.329 28.0587 209.433 27.7387 208.665 27.312C207.939 26.8427 207.363 26.224 206.937 25.456C206.51 24.688 206.297 23.728 206.297 22.576C206.297 21.0827 206.617 19.9307 207.257 19.12C207.897 18.3093 208.622 17.712 209.433 17.328C210.243 16.944 211.033 16.7307 211.801 16.688C212.611 16.6027 213.166 16.56 213.465 16.56H220.121Z" fill="#333333"/>
<path d="M1.68 1.2V0.199997H0.68V1.2H1.68ZM1.68 46H0.68V47H1.68V46ZM7.504 46V47H8.504V46H7.504ZM7.504 4.72V3.72H6.504V4.72H7.504ZM29.008 4.72V5.72H30.008V4.72H29.008ZM29.008 1.2H30.008V0.199997H29.008V1.2ZM0.68 1.2V46H2.68V1.2H0.68ZM1.68 47H7.504V45H1.68V47ZM8.504 46V4.72H6.504V46H8.504ZM7.504 5.72H29.008V3.72H7.504V5.72ZM30.008 4.72V1.2H28.008V4.72H30.008ZM29.008 0.199997H1.68V2.2H29.008V0.199997ZM41.113 14L42.0395 13.6238L41.7863 13H41.113V14ZM37.273 14V13H36.598L36.3455 13.6261L37.273 14ZM27.545 38.128L28.4554 38.5418L28.4643 38.5221L28.4725 38.5019L27.545 38.128ZM26.841 39.792L27.7601 40.1859L27.7649 40.1747L27.7695 40.1634L26.841 39.792ZM25.945 41.52L26.7967 42.0441L25.945 41.52ZM24.729 42.928L25.3537 43.7089L25.3622 43.702L24.729 42.928ZM21.465 42.928L20.9944 43.8104L21.465 42.928ZM19.929 41.904L20.5934 41.1566L19.4239 40.1171L18.9717 41.615L19.929 41.904ZM18.905 45.296L17.9477 45.007L17.7703 45.5945L18.2138 46.0186L18.905 45.296ZM25.241 46.32L24.9248 45.3713L24.8969 45.3806L24.8696 45.3915L25.241 46.32ZM27.033 45.104L27.7658 45.7845L27.7775 45.7719L27.7887 45.7589L27.033 45.104ZM28.633 42.672L27.7537 42.1957L27.75 42.2025L27.7464 42.2094L28.633 42.672ZM30.361 38.832L29.4318 38.4623L29.429 38.4696L30.361 38.832ZM37.721 20.336V19.336H37.0427L36.7919 19.9663L37.721 20.336ZM38.105 20.336L39.0338 19.9654L38.7827 19.336H38.105V20.336ZM48.345 46L47.4162 46.3706L47.6673 47H48.345V46ZM54.105 46V47H55.5903L55.0316 45.6238L54.105 46ZM41.113 13H37.273V15H41.113V13ZM36.3455 13.6261L26.6175 37.7541L28.4725 38.5019L38.2005 14.3739L36.3455 13.6261ZM26.6346 37.7142C26.4132 38.2013 26.1725 38.7708 25.9125 39.4206L27.7695 40.1634C28.0215 39.5332 28.2501 38.9934 28.4554 38.5418L26.6346 37.7142ZM25.9219 39.3981C25.6852 39.9503 25.4091 40.4828 25.0933 40.9959L26.7967 42.0441C27.1636 41.4478 27.4848 40.8283 27.7601 40.1859L25.9219 39.3981ZM25.0933 40.9959C24.8061 41.4627 24.4727 41.8456 24.0958 42.154L25.3622 43.702C25.924 43.2424 26.4013 42.6866 26.7967 42.0441L25.0933 40.9959ZM24.1043 42.1471C23.8422 42.3568 23.5901 42.44 23.321 42.44V44.44C24.0759 44.44 24.7625 44.1818 25.3537 43.7089L24.1043 42.1471ZM23.321 42.44C22.9194 42.44 22.4615 42.3261 21.9356 42.0456L20.9944 43.8104C21.7485 44.2125 22.5279 44.44 23.321 44.44V42.44ZM21.9356 42.0456C21.3392 41.7276 20.8997 41.4289 20.5934 41.1566L19.2646 42.6514C19.7263 43.0618 20.3108 43.4458 20.9944 43.8104L21.9356 42.0456ZM18.9717 41.615L17.9477 45.007L19.8623 45.585L20.8863 42.193L18.9717 41.615ZM18.2138 46.0186C19.4346 47.1864 21.1002 47.704 23.065 47.704V45.704C21.4458 45.704 20.3381 45.283 19.5962 44.5734L18.2138 46.0186ZM23.065 47.704C23.9809 47.704 24.8354 47.5593 25.6124 47.2485L24.8696 45.3915C24.3666 45.5927 23.7705 45.704 23.065 45.704V47.704ZM25.5572 47.2687C26.3864 46.9923 27.1206 46.4793 27.7658 45.7845L26.3002 44.4235C25.8361 44.9234 25.3756 45.221 24.9248 45.3713L25.5572 47.2687ZM27.7887 45.7589C28.4071 45.0454 28.9819 44.1651 29.5196 43.1346L27.7464 42.2094C27.2601 43.1416 26.7682 43.8826 26.2773 44.4491L27.7887 45.7589ZM29.5123 43.1483C30.0932 42.0759 30.6862 40.7549 31.293 39.1944L29.429 38.4696C28.8412 39.9811 28.2822 41.2201 27.7537 42.1957L29.5123 43.1483ZM31.2901 39.2017L38.6501 20.7057L36.7919 19.9663L29.4319 38.4623L31.2901 39.2017ZM37.721 21.336H38.105V19.336H37.721V21.336ZM37.1762 20.7066L47.4162 46.3706L49.2738 45.6294L39.0338 19.9654L37.1762 20.7066ZM48.345 47H54.105V45H48.345V47ZM55.0316 45.6238L42.0395 13.6238L40.1865 14.3762L53.1785 46.3762L55.0316 45.6238ZM79.503 14.64L79.0382 15.5254L79.0469 15.53L79.0558 15.5344L79.503 14.64ZM83.215 18.032L82.3371 18.5109L82.3426 18.521L82.3484 18.531L83.215 18.032ZM84.623 22.896L85.6206 22.8264L84.623 22.896ZM84.815 46V47H85.815V46H84.815ZM79.631 46H78.631V47H79.631V46ZM79.631 42.864H80.631V40.5084L78.9364 42.1446L79.631 42.864ZM74.895 45.744L75.23 46.6862L75.2392 46.6829L75.2484 46.6795L74.895 45.744ZM64.271 45.808L64.6848 44.8976L64.271 45.808ZM60.751 43.312L61.4882 42.6363L60.751 43.312ZM58.703 31.856L57.7667 31.5049L58.703 31.856ZM61.007 28.208L61.7284 28.9005L61.7352 28.8935L61.7418 28.8863L61.007 28.208ZM64.783 25.52L64.3672 24.6105L64.783 25.52ZM75.343 25.648L74.9326 26.5599L74.9462 26.566L74.96 26.5717L75.343 25.648ZM79.631 28.784L78.8549 29.4146L80.631 31.6006V28.784H79.631ZM78.031 18.224L77.1735 18.7385L77.1782 18.7463L77.183 18.754L78.031 18.224ZM69.199 16.112L69.5152 17.0607L69.199 16.112ZM66.767 17.392L67.367 18.192L67.3745 18.1864L66.767 17.392ZM64.847 19.376L65.6364 19.9899L65.6443 19.9797L65.6521 19.9692L64.847 19.376ZM63.055 22L62.3479 22.7071L63.2476 23.6068L63.9092 22.5199L63.055 22ZM59.727 18.672L58.9959 17.9897L58.3367 18.696L59.0199 19.3791L59.727 18.672ZM61.583 16.752L60.8991 16.0225L60.8873 16.0335L60.8759 16.0449L61.583 16.752ZM64.015 15.024L63.5524 14.1374L63.5443 14.1417L63.5361 14.1461L64.015 15.024ZM67.471 13.808L67.6913 14.7834L67.7061 14.7801L67.7209 14.7763L67.471 13.808ZM79.631 33.328H80.631V33.128L80.5541 32.9434L79.631 33.328ZM78.671 31.536L77.7994 32.0263L77.8108 32.0464L77.823 32.066L78.671 31.536ZM77.135 29.552L76.4279 30.2591L77.135 29.552ZM74.831 27.952L74.367 28.8378L74.3839 28.8467L74.4011 28.8549L74.831 27.952ZM68.239 28.016L68.6557 28.9251L68.6711 28.918L68.6862 28.9104L68.239 28.016ZM65.615 29.936L64.8698 29.2692L64.8676 29.2716L65.615 29.936ZM64.015 32.688L64.9559 33.0267L64.015 32.688ZM64.143 39.6L63.2339 40.0167L63.2446 40.0399L63.2564 40.0626L64.143 39.6ZM66.063 42.16L65.3764 42.887L65.3874 42.8974L65.3986 42.9074L66.063 42.16ZM68.623 43.696L68.9647 42.7562L68.623 43.696ZM73.743 43.76L73.4127 42.8161L73.405 42.8188L73.3973 42.8217L73.743 43.76ZM76.111 42.544L76.6877 43.361L76.6965 43.3547L76.111 42.544ZM78.159 40.624L77.3871 39.9883L78.159 40.624ZM79.631 38.256L80.5429 38.6664L80.631 38.4706V38.256H79.631ZM72.271 14.296C75.3127 14.296 77.537 14.7373 79.0382 15.5254L79.9678 13.7546C78.0556 12.7507 75.4587 12.296 72.271 12.296V14.296ZM79.0558 15.5344C80.6153 16.3142 81.6843 17.314 82.3371 18.5109L84.0929 17.5531C83.2097 15.934 81.8041 14.6725 79.9502 13.7456L79.0558 15.5344ZM82.3484 18.531C83.074 19.7912 83.5066 21.2621 83.6254 22.9656L85.6206 22.8264C85.4834 20.8606 84.9773 19.0888 84.0816 17.533L82.3484 18.531ZM83.6254 22.9656C83.7517 24.7761 83.815 26.6302 83.815 28.528H85.815C85.815 26.5858 85.7503 24.6852 85.6206 22.8264L83.6254 22.9656ZM83.815 28.528V46H85.815V28.528H83.815ZM84.815 45H79.631V47H84.815V45ZM80.631 46V42.864H78.631V46H80.631ZM78.9364 42.1446C77.8139 43.2284 76.3585 44.1221 74.5416 44.8085L75.2484 46.6795C77.2715 45.9152 78.9734 44.889 80.3256 43.5834L78.9364 42.1446ZM74.56 44.8018C72.7409 45.4486 70.934 45.768 69.135 45.768V47.768C71.176 47.768 73.2091 47.4048 75.23 46.6862L74.56 44.8018ZM69.135 45.768C67.4168 45.768 65.9409 45.4686 64.6848 44.8976L63.8572 46.7184C65.4171 47.4274 67.1838 47.768 69.135 47.768V45.768ZM64.6848 44.8976C63.3854 44.307 62.3261 43.5504 61.4882 42.6363L60.0138 43.9877C61.0532 45.1216 62.3406 46.029 63.8572 46.7184L64.6848 44.8976ZM61.4882 42.6363C60.636 41.7067 60.0014 40.6668 59.5779 39.5117L57.7001 40.2003C58.2153 41.6052 58.9887 42.8693 60.0138 43.9877L61.4882 42.6363ZM59.5779 39.5117C59.1477 38.3386 58.935 37.1536 58.935 35.952H56.935C56.935 37.3957 57.1916 38.8134 57.7001 40.2003L59.5779 39.5117ZM58.935 35.952C58.935 34.7145 59.1665 33.4679 59.6393 32.2071L57.7667 31.5049C57.2155 32.9748 56.935 34.4588 56.935 35.952H58.935ZM59.6393 32.2071C60.1029 30.9708 60.7971 29.8706 61.7284 28.9005L60.2856 27.5155C59.1689 28.6787 58.3271 30.0105 57.7667 31.5049L59.6393 32.2071ZM61.7418 28.8863C62.6682 27.8827 63.8154 27.0619 65.1988 26.4295L64.3672 24.6105C62.7639 25.3435 61.3938 26.3147 60.2722 27.5297L61.7418 28.8863ZM65.1988 26.4295C66.5413 25.8157 68.1024 25.496 69.903 25.496V23.496C67.8636 23.496 66.0113 23.8589 64.3672 24.6105L65.1988 26.4295ZM69.903 25.496C71.6853 25.496 73.3584 25.8515 74.9326 26.5599L75.7534 24.7361C73.9143 23.9085 71.9607 23.496 69.903 23.496V25.496ZM74.96 26.5717C76.568 27.2385 77.8582 28.1878 78.8549 29.4146L80.4071 28.1534C79.1852 26.6495 77.6166 25.5082 75.726 24.7243L74.96 26.5717ZM80.631 28.784V26.032H78.631V28.784H80.631ZM80.631 26.032C80.631 22.4673 80.094 19.6381 78.879 17.694L77.183 18.754C78.1013 20.2233 78.631 22.5994 78.631 26.032H80.631ZM78.8885 17.7095C77.6167 15.5899 75.306 14.664 72.335 14.664V16.664C74.9107 16.664 76.3973 17.4448 77.1735 18.7385L78.8885 17.7095ZM72.335 14.664C71.06 14.664 69.9036 14.823 68.8828 15.1633L69.5152 17.0607C70.2864 16.8036 71.2207 16.664 72.335 16.664V14.664ZM68.8828 15.1633C67.8855 15.4957 66.9758 15.9735 66.1596 16.5976L67.3745 18.1864C68.0089 17.7012 68.7205 17.3256 69.5152 17.0607L68.8828 15.1633ZM66.167 16.592C65.3937 17.172 64.687 17.9073 64.0419 18.7828L65.6521 19.9692C66.2016 19.2234 66.775 18.636 67.367 18.192L66.167 16.592ZM64.0576 18.7621C63.4332 19.5649 62.8145 20.4718 62.2008 21.4801L63.9092 22.5199C64.4902 21.5655 65.0661 20.7231 65.6364 19.9899L64.0576 18.7621ZM63.7621 21.2929L60.4341 17.9649L59.0199 19.3791L62.3479 22.7071L63.7621 21.2929ZM60.4581 19.3543C61.0473 18.723 61.658 18.0913 62.2901 17.4591L60.8759 16.0449C60.228 16.6927 59.6014 17.341 58.9959 17.9897L60.4581 19.3543ZM62.2669 17.4815C62.8798 16.907 63.6192 16.379 64.4939 15.9019L63.5361 14.1461C62.5335 14.693 61.6516 15.317 60.8991 16.0225L62.2669 17.4815ZM64.4776 15.9106C65.3674 15.4463 66.4347 15.0672 67.6913 14.7834L67.2507 12.8326C65.8619 13.1462 64.6253 13.5777 63.5524 14.1374L64.4776 15.9106ZM67.7209 14.7763C68.9379 14.4622 70.449 14.296 72.271 14.296V12.296C70.3384 12.296 68.6494 12.4711 67.2211 12.8397L67.7209 14.7763ZM80.5541 32.9434C80.3127 32.364 79.9629 31.7163 79.519 31.006L77.823 32.066C78.2324 32.7211 78.5227 33.268 78.7079 33.7126L80.5541 32.9434ZM79.5426 31.0457C79.1076 30.2724 78.5368 29.5396 77.8421 28.8449L76.4279 30.2591C77.0132 30.8444 77.4664 31.4342 77.7994 32.0263L79.5426 31.0457ZM77.8421 28.8449C77.1141 28.1169 76.2499 27.5201 75.2609 27.0491L74.4011 28.8549C75.2041 29.2373 75.8759 29.7071 76.4279 30.2591L77.8421 28.8449ZM75.295 27.0662C74.2273 26.5069 72.9943 26.248 71.631 26.248V28.248C72.7423 28.248 73.6427 28.4584 74.367 28.8378L75.295 27.0662ZM71.631 26.248C70.2512 26.248 68.9657 26.5346 67.7918 27.1216L68.6862 28.9104C69.5603 28.4734 70.5361 28.248 71.631 28.248V26.248ZM67.8223 27.1069C66.6779 27.6315 65.6901 28.3524 64.8698 29.2692L66.3602 30.6028C66.9906 29.8983 67.7521 29.3392 68.6557 28.9251L67.8223 27.1069ZM64.8676 29.2716C64.0919 30.1442 63.4968 31.1751 63.0741 32.3493L64.9559 33.0267C65.3012 32.0675 65.7727 31.2638 66.3624 30.6004L64.8676 29.2716ZM63.0741 32.3493C62.6504 33.5264 62.439 34.7504 62.439 36.016H64.439C64.439 34.9776 64.6116 33.983 64.9559 33.0267L63.0741 32.3493ZM62.439 36.016C62.439 37.4952 62.6934 38.8372 63.2339 40.0167L65.0521 39.1833C64.654 38.3148 64.439 37.2674 64.439 36.016H62.439ZM63.2564 40.0626C63.8174 41.1378 64.5237 42.0817 65.3764 42.887L66.7496 41.433C66.0663 40.7877 65.4926 40.0249 65.0296 39.1374L63.2564 40.0626ZM65.3986 42.9074C66.2583 43.6715 67.2204 44.25 68.2813 44.6358L68.9647 42.7562C68.1482 42.4593 67.4037 42.0138 66.7274 41.4126L65.3986 42.9074ZM68.2813 44.6358C69.3112 45.0103 70.3231 45.208 71.311 45.208V43.208C70.5922 43.208 69.8122 43.0644 68.9647 42.7562L68.2813 44.6358ZM71.311 45.208C72.2472 45.208 73.1747 45.0351 74.0887 44.6983L73.3973 42.8217C72.69 43.0822 71.9961 43.208 71.311 43.208V45.208ZM74.0733 44.7039C75.0127 44.3751 75.8851 43.9275 76.6877 43.361L75.5343 41.727C74.8862 42.1845 74.18 42.5476 73.4127 42.8161L74.0733 44.7039ZM76.6965 43.3547C77.5333 42.7503 78.2787 42.0516 78.9309 41.2597L77.3871 39.9883C76.8446 40.647 76.2247 41.2283 75.5255 41.7333L76.6965 43.3547ZM78.9309 41.2597C79.5845 40.4661 80.1223 39.601 80.5429 38.6664L78.7191 37.8456C78.3717 38.6176 77.9282 39.3312 77.3871 39.9883L78.9309 41.2597ZM80.631 38.256V33.328H78.631V38.256H80.631ZM95.0575 14V13H94.0575V14H95.0575ZM95.0575 46H94.0575V47H95.0575V46ZM114.897 45.296L115.197 46.25L115.21 46.2461L115.222 46.2419L114.897 45.296ZM118.546 43.376L119.179 44.15L119.189 44.1415L119.199 44.1328L118.546 43.376ZM120.594 40.688L121.511 41.0867L121.514 41.0797L121.517 41.0726L120.594 40.688ZM120.273 33.52L121.131 33.0055L120.273 33.52ZM117.841 31.024L117.278 31.8502L117.299 31.8648L117.322 31.8782L117.841 31.024ZM114.77 29.68L114.536 30.6524L114.545 30.6544L114.77 29.68ZM111.826 29.232H110.826V30.1855L111.778 30.2309L111.826 29.232ZM111.826 28.784L111.629 27.8034L110.826 27.9642V28.784H111.826ZM114.385 28.016L114.757 28.9445L114.777 28.9366L114.796 28.9279L114.385 28.016ZM116.626 26.544L117.308 27.2751L117.309 27.2735L116.626 26.544ZM118.226 24.368L117.331 23.9208L117.326 23.9303L117.322 23.9399L118.226 24.368ZM118.546 19.312L119.516 19.0695L118.546 19.312ZM117.137 16.88L116.392 17.5468L116.401 17.5568L116.41 17.5666L117.137 16.88ZM113.938 14.832L113.561 15.7585L113.571 15.7624L113.938 14.832ZM100.497 43.44H99.4975V44.44H100.497V43.44ZM100.497 30.704V29.704H99.4975V30.704H100.497ZM108.689 30.832L108.606 31.8285L108.61 31.8288L108.689 30.832ZM114.257 33.584L113.462 34.19L113.471 34.2018L113.48 34.2132L114.257 33.584ZM114.322 40.88L115.086 41.5241L115.095 41.5145L115.102 41.5047L114.322 40.88ZM111.89 42.672L111.511 41.7465L111.503 41.7496L111.496 41.7529L111.89 42.672ZM109.137 43.376L109.185 44.3749L109.207 44.3738L109.228 44.3719L109.137 43.376ZM100.497 28.528H99.4975V29.528H100.497V28.528ZM100.497 16.56V15.56H99.4975V16.56H100.497ZM110.29 17.2L109.842 18.0944L109.851 18.0987L109.86 18.1029L110.29 17.2ZM113.234 20.656L112.251 20.8403L112.258 20.8773L112.267 20.9137L113.234 20.656ZM112.85 25.008L111.975 24.5224L111.97 24.5312L111.966 24.5401L112.85 25.008ZM111.249 26.928L111.85 27.728L111.865 27.7164L111.88 27.7041L111.249 26.928ZM108.882 28.144L109.156 29.1055L109.177 29.0996L109.198 29.0927L108.882 28.144ZM94.0575 14V46H96.0575V14H94.0575ZM95.0575 47H109.521V45H95.0575V47ZM109.521 47C111.682 47 113.581 46.7581 115.197 46.25L114.598 44.342C113.228 44.7726 111.542 45 109.521 45V47ZM115.222 46.2419C116.795 45.7024 118.125 45.012 119.179 44.15L117.912 42.602C117.089 43.276 115.986 43.8656 114.573 44.3501L115.222 46.2419ZM119.199 44.1328C120.233 43.2396 121.015 42.226 121.511 41.0867L119.676 40.2893C119.318 41.1127 118.735 41.891 117.892 42.6192L119.199 44.1328ZM121.517 41.0726C121.992 39.9317 122.234 38.756 122.234 37.552H120.234C120.234 38.4814 120.048 39.3963 119.67 40.3034L121.517 41.0726ZM122.234 37.552C122.234 35.8032 121.888 34.268 121.131 33.0055L119.416 34.0345C119.939 34.9053 120.234 36.0581 120.234 37.552H122.234ZM121.131 33.0055C120.415 31.8117 119.492 30.8582 118.361 30.1698L117.322 31.8782C118.153 32.3844 118.852 33.095 119.416 34.0345L121.131 33.0055ZM118.405 30.1978C117.363 29.4876 116.224 28.9895 114.994 28.7056L114.545 30.6544C115.533 30.8825 116.442 31.2804 117.278 31.8502L118.405 30.1978ZM115.003 28.7076C113.888 28.4401 112.844 28.2794 111.873 28.2331L111.778 30.2309C112.599 30.27 113.518 30.4079 114.536 30.6524L115.003 28.7076ZM112.826 29.232V28.784H110.826V29.232H112.826ZM112.022 29.7646C112.938 29.5813 113.85 29.3072 114.757 28.9445L114.014 27.0875C113.214 27.4074 112.42 27.6454 111.629 27.8034L112.022 29.7646ZM114.796 28.9279C115.742 28.502 116.582 27.9522 117.308 27.2751L115.943 25.8129C115.389 26.3305 114.735 26.7619 113.975 27.1041L114.796 28.9279ZM117.309 27.2735C118.08 26.5515 118.689 25.725 119.129 24.7961L117.322 23.9399C116.994 24.6323 116.537 25.2565 115.942 25.8145L117.309 27.2735ZM119.12 24.8152C119.624 23.8074 119.866 22.6914 119.866 21.488H117.866C117.866 22.4179 117.68 23.222 117.331 23.9208L119.12 24.8152ZM119.866 21.488C119.866 20.7803 119.74 19.9685 119.516 19.0695L117.575 19.5545C117.777 20.3621 117.866 21.001 117.866 21.488H119.866ZM119.516 19.0695C119.253 18.0192 118.684 17.0611 117.865 16.1934L116.41 17.5666C117.042 18.2349 117.411 18.8981 117.575 19.5545L119.516 19.0695ZM117.883 16.2132C117.021 15.25 115.804 14.4923 114.304 13.9016L113.571 15.7624C114.887 16.281 115.803 16.8887 116.392 17.5468L117.883 16.2132ZM114.314 13.9055C112.781 13.2828 110.802 13 108.434 13V15C110.673 15 112.363 15.2719 113.561 15.7585L114.314 13.9055ZM108.434 13H95.0575V15H108.434V13ZM101.497 43.44V30.704H99.4975V43.44H101.497ZM100.497 31.704H106.13V29.704H100.497V31.704ZM106.13 31.704C106.774 31.704 107.598 31.7445 108.606 31.8285L108.773 29.8355C107.733 29.7488 106.85 29.704 106.13 29.704V31.704ZM108.61 31.8288C109.566 31.9053 110.483 32.1344 111.363 32.5171L112.16 30.6829C111.078 30.2123 109.946 29.9293 108.769 29.8352L108.61 31.8288ZM111.363 32.5171C112.179 32.872 112.877 33.4225 113.462 34.19L115.053 32.978C114.272 31.9535 113.307 31.1813 112.16 30.6829L111.363 32.5171ZM113.48 34.2132C114.016 34.8753 114.346 35.8624 114.346 37.296H116.346C116.346 35.5723 115.949 34.0847 115.035 32.9548L113.48 34.2132ZM114.346 37.296C114.346 38.6954 114.034 39.6389 113.541 40.2553L115.102 41.5047C115.975 40.4144 116.346 38.9686 116.346 37.296H114.346ZM113.557 40.2359C112.973 40.9286 112.293 41.4264 111.511 41.7465L112.268 43.5975C113.363 43.1496 114.304 42.4527 115.086 41.5241L113.557 40.2359ZM111.496 41.7529C110.693 42.0969 109.878 42.3046 109.047 42.3801L109.228 44.3719C110.275 44.2767 111.294 44.0151 112.283 43.5911L111.496 41.7529ZM109.09 42.3771C108.197 42.4197 107.555 42.44 107.154 42.44V44.44C107.605 44.44 108.286 44.4177 109.185 44.3749L109.09 42.3771ZM107.154 42.44H100.497V44.44H107.154V42.44ZM101.497 28.528V16.56H99.4975V28.528H101.497ZM100.497 17.56H106.833V15.56H100.497V17.56ZM106.833 17.56C108.203 17.56 109.181 17.7639 109.842 18.0944L110.737 16.3056C109.691 15.7827 108.366 15.56 106.833 15.56V17.56ZM109.86 18.1029C110.657 18.4828 111.202 18.909 111.551 19.3538L113.124 18.1182C112.535 17.3683 111.714 16.7705 110.719 16.2971L109.86 18.1029ZM111.551 19.3538C111.931 19.8367 112.155 20.3303 112.251 20.8403L114.216 20.4717C114.056 19.6163 113.683 18.83 113.124 18.1182L111.551 19.3538ZM112.267 20.9137C112.422 21.4928 112.49 21.9801 112.49 22.384H114.49C114.49 21.7639 114.387 21.0992 114.2 20.3983L112.267 20.9137ZM112.49 22.384C112.49 23.2157 112.31 23.9197 111.975 24.5224L113.724 25.4936C114.242 24.5603 114.49 23.515 114.49 22.384H112.49ZM111.966 24.5401C111.649 25.1384 111.205 25.6758 110.619 26.1519L111.88 27.7041C112.659 27.0709 113.282 26.3283 113.733 25.4759L111.966 24.5401ZM110.649 26.128C110.061 26.569 109.37 26.927 108.565 27.1953L109.198 29.0927C110.185 28.7636 111.072 28.311 111.85 27.728L110.649 26.128ZM108.607 27.1825C107.805 27.4116 106.959 27.528 106.065 27.528V29.528C107.135 29.528 108.166 29.3884 109.156 29.1055L108.607 27.1825ZM106.065 27.528H100.497V29.528H106.065V27.528ZM134.997 30.704V29.704H133.997V30.704H134.997ZM151.189 30.704H152.189V29.704H151.189V30.704ZM151.189 46H150.189V47H151.189V46ZM156.63 46V47H157.63V46H156.63ZM156.63 14H157.63V13H156.63V14ZM151.189 14V13H150.189V14H151.189ZM151.189 28.528V29.528H152.189V28.528H151.189ZM134.997 28.528H133.997V29.528H134.997V28.528ZM134.997 14H135.997V13H134.997V14ZM129.557 14V13H128.557V14H129.557ZM129.557 46H128.557V47H129.557V46ZM134.997 46V47H135.997V46H134.997ZM134.997 31.704H151.189V29.704H134.997V31.704ZM150.189 30.704V46H152.189V30.704H150.189ZM151.189 47H156.63V45H151.189V47ZM157.63 46V14H155.63V46H157.63ZM156.63 13H151.189V15H156.63V13ZM150.189 14V28.528H152.189V14H150.189ZM151.189 27.528H134.997V29.528H151.189V27.528ZM135.997 28.528V14H133.997V28.528H135.997ZM134.997 13H129.557V15H134.997V13ZM128.557 14V46H130.557V14H128.557ZM129.557 47H134.997V45H129.557V47ZM135.997 46V30.704H133.997V46H135.997ZM185.878 14.64L185.413 15.5254L185.422 15.53L185.431 15.5344L185.878 14.64ZM189.59 18.032L188.712 18.5109L188.718 18.521L188.723 18.531L189.59 18.032ZM190.998 22.896L191.996 22.8264L190.998 22.896ZM191.19 46V47H192.19V46H191.19ZM186.006 46H185.006V47H186.006V46ZM186.006 42.864H187.006V40.5084L185.311 42.1446L186.006 42.864ZM181.27 45.744L181.605 46.6862L181.614 46.6829L181.623 46.6795L181.27 45.744ZM170.646 45.808L171.06 44.8976L170.646 45.808ZM167.126 43.312L167.863 42.6363L167.126 43.312ZM165.078 31.856L164.142 31.5049L165.078 31.856ZM167.382 28.208L168.103 28.9005L168.11 28.8935L168.117 28.8863L167.382 28.208ZM171.158 25.52L170.742 24.6105L171.158 25.52ZM181.718 25.648L181.308 26.5599L181.321 26.566L181.335 26.5717L181.718 25.648ZM186.006 28.784L185.23 29.4146L187.006 31.6006V28.784H186.006ZM184.406 18.224L183.549 18.7385L183.553 18.7463L183.558 18.754L184.406 18.224ZM175.574 16.112L175.89 17.0607L175.574 16.112ZM173.142 17.392L173.742 18.192L173.749 18.1864L173.142 17.392ZM171.222 19.376L172.011 19.9899L172.019 19.9797L172.027 19.9692L171.222 19.376ZM169.43 22L168.723 22.7071L169.623 23.6068L170.284 22.5199L169.43 22ZM166.102 18.672L165.371 17.9897L164.712 18.696L165.395 19.3791L166.102 18.672ZM167.958 16.752L167.274 16.0225L167.262 16.0335L167.251 16.0449L167.958 16.752ZM170.39 15.024L169.927 14.1374L169.919 14.1417L169.911 14.1461L170.39 15.024ZM173.846 13.808L174.066 14.7834L174.081 14.7801L174.096 14.7763L173.846 13.808ZM186.006 33.328H187.006V33.128L186.929 32.9434L186.006 33.328ZM185.046 31.536L184.174 32.0263L184.186 32.0464L184.198 32.066L185.046 31.536ZM183.51 29.552L182.803 30.2591L183.51 29.552ZM181.206 27.952L180.742 28.8378L180.759 28.8467L180.776 28.8549L181.206 27.952ZM174.614 28.016L175.031 28.9251L175.046 28.918L175.061 28.9104L174.614 28.016ZM171.99 29.936L171.245 29.2692L171.243 29.2716L171.99 29.936ZM170.39 32.688L171.331 33.0267L170.39 32.688ZM170.518 39.6L169.609 40.0167L169.62 40.0399L169.631 40.0626L170.518 39.6ZM172.438 42.16L171.751 42.887L171.762 42.8974L171.774 42.9074L172.438 42.16ZM174.998 43.696L175.34 42.7562L174.998 43.696ZM180.118 43.76L179.788 42.8161L179.78 42.8188L179.772 42.8217L180.118 43.76ZM182.486 42.544L183.063 43.361L183.071 43.3547L182.486 42.544ZM184.534 40.624L183.762 39.9883L184.534 40.624ZM186.006 38.256L186.918 38.6664L187.006 38.4706V38.256H186.006ZM178.646 14.296C181.688 14.296 183.912 14.7373 185.413 15.5254L186.343 13.7546C184.431 12.7507 181.834 12.296 178.646 12.296V14.296ZM185.431 15.5344C186.99 16.3142 188.059 17.314 188.712 18.5109L190.468 17.5531C189.585 15.934 188.179 14.6725 186.325 13.7456L185.431 15.5344ZM188.723 18.531C189.449 19.7912 189.882 21.2621 190 22.9656L191.996 22.8264C191.858 20.8606 191.352 19.0888 190.457 17.533L188.723 18.531ZM190 22.9656C190.127 24.7761 190.19 26.6302 190.19 28.528H192.19C192.19 26.5858 192.125 24.6852 191.996 22.8264L190 22.9656ZM190.19 28.528V46H192.19V28.528H190.19ZM191.19 45H186.006V47H191.19V45ZM187.006 46V42.864H185.006V46H187.006ZM185.311 42.1446C184.189 43.2284 182.734 44.1221 180.917 44.8085L181.623 46.6795C183.646 45.9152 185.348 44.889 186.701 43.5834L185.311 42.1446ZM180.935 44.8018C179.116 45.4486 177.309 45.768 175.51 45.768V47.768C177.551 47.768 179.584 47.4048 181.605 46.6862L180.935 44.8018ZM175.51 45.768C173.792 45.768 172.316 45.4686 171.06 44.8976L170.232 46.7184C171.792 47.4274 173.559 47.768 175.51 47.768V45.768ZM171.06 44.8976C169.76 44.307 168.701 43.5504 167.863 42.6363L166.389 43.9877C167.428 45.1216 168.716 46.029 170.232 46.7184L171.06 44.8976ZM167.863 42.6363C167.011 41.7067 166.376 40.6668 165.953 39.5117L164.075 40.2003C164.59 41.6052 165.364 42.8693 166.389 43.9877L167.863 42.6363ZM165.953 39.5117C165.523 38.3386 165.31 37.1536 165.31 35.952H163.31C163.31 37.3957 163.567 38.8134 164.075 40.2003L165.953 39.5117ZM165.31 35.952C165.31 34.7145 165.542 33.4679 166.014 32.2071L164.142 31.5049C163.59 32.9748 163.31 34.4588 163.31 35.952H165.31ZM166.014 32.2071C166.478 30.9708 167.172 29.8706 168.103 28.9005L166.661 27.5155C165.544 28.6787 164.702 30.0105 164.142 31.5049L166.014 32.2071ZM168.117 28.8863C169.043 27.8827 170.19 27.0619 171.574 26.4295L170.742 24.6105C169.139 25.3435 167.769 26.3147 166.647 27.5297L168.117 28.8863ZM171.574 26.4295C172.916 25.8157 174.477 25.496 176.278 25.496V23.496C174.239 23.496 172.386 23.8589 170.742 24.6105L171.574 26.4295ZM176.278 25.496C178.06 25.496 179.733 25.8515 181.308 26.5599L182.128 24.7361C180.289 23.9085 178.336 23.496 176.278 23.496V25.496ZM181.335 26.5717C182.943 27.2385 184.233 28.1878 185.23 29.4146L186.782 28.1534C185.56 26.6495 183.992 25.5082 182.101 24.7243L181.335 26.5717ZM187.006 28.784V26.032H185.006V28.784H187.006ZM187.006 26.032C187.006 22.4673 186.469 19.6381 185.254 17.694L183.558 18.754C184.476 20.2233 185.006 22.5994 185.006 26.032H187.006ZM185.263 17.7095C183.992 15.5899 181.681 14.664 178.71 14.664V16.664C181.286 16.664 182.772 17.4448 183.549 18.7385L185.263 17.7095ZM178.71 14.664C177.435 14.664 176.279 14.823 175.258 15.1633L175.89 17.0607C176.661 16.8036 177.596 16.664 178.71 16.664V14.664ZM175.258 15.1633C174.26 15.4957 173.351 15.9735 172.535 16.5976L173.749 18.1864C174.384 17.7012 175.096 17.3256 175.89 17.0607L175.258 15.1633ZM172.542 16.592C171.769 17.172 171.062 17.9073 170.417 18.7828L172.027 19.9692C172.577 19.2234 173.15 18.636 173.742 18.192L172.542 16.592ZM170.433 18.7621C169.808 19.5649 169.19 20.4718 168.576 21.4801L170.284 22.5199C170.865 21.5655 171.441 20.7231 172.011 19.9899L170.433 18.7621ZM170.137 21.2929L166.809 17.9649L165.395 19.3791L168.723 22.7071L170.137 21.2929ZM166.833 19.3543C167.422 18.723 168.033 18.0913 168.665 17.4591L167.251 16.0449C166.603 16.6927 165.976 17.341 165.371 17.9897L166.833 19.3543ZM168.642 17.4815C169.255 16.907 169.994 16.379 170.869 15.9019L169.911 14.1461C168.908 14.693 168.027 15.317 167.274 16.0225L168.642 17.4815ZM170.853 15.9106C171.742 15.4463 172.81 15.0672 174.066 14.7834L173.626 12.8326C172.237 13.1462 171 13.5777 169.927 14.1374L170.853 15.9106ZM174.096 14.7763C175.313 14.4622 176.824 14.296 178.646 14.296V12.296C176.713 12.296 175.024 12.4711 173.596 12.8397L174.096 14.7763ZM186.929 32.9434C186.688 32.364 186.338 31.7163 185.894 31.006L184.198 32.066C184.607 32.7211 184.898 33.268 185.083 33.7126L186.929 32.9434ZM185.918 31.0457C185.483 30.2724 184.912 29.5396 184.217 28.8449L182.803 30.2591C183.388 30.8444 183.841 31.4342 184.174 32.0263L185.918 31.0457ZM184.217 28.8449C183.489 28.1169 182.625 27.5201 181.636 27.0491L180.776 28.8549C181.579 29.2373 182.251 29.7071 182.803 30.2591L184.217 28.8449ZM181.67 27.0662C180.602 26.5069 179.369 26.248 178.006 26.248V28.248C179.117 28.248 180.018 28.4584 180.742 28.8378L181.67 27.0662ZM178.006 26.248C176.626 26.248 175.341 26.5346 174.167 27.1216L175.061 28.9104C175.935 28.4734 176.911 28.248 178.006 28.248V26.248ZM174.197 27.1069C173.053 27.6315 172.065 28.3524 171.245 29.2692L172.735 30.6028C173.366 29.8983 174.127 29.3392 175.031 28.9251L174.197 27.1069ZM171.243 29.2716C170.467 30.1442 169.872 31.1751 169.449 32.3493L171.331 33.0267C171.676 32.0675 172.148 31.2638 172.737 30.6004L171.243 29.2716ZM169.449 32.3493C169.025 33.5264 168.814 34.7504 168.814 36.016H170.814C170.814 34.9776 170.987 33.983 171.331 33.0267L169.449 32.3493ZM168.814 36.016C168.814 37.4952 169.068 38.8372 169.609 40.0167L171.427 39.1833C171.029 38.3148 170.814 37.2674 170.814 36.016H168.814ZM169.631 40.0626C170.192 41.1378 170.899 42.0817 171.751 42.887L173.125 41.433C172.441 40.7877 171.868 40.0249 171.405 39.1374L169.631 40.0626ZM171.774 42.9074C172.633 43.6715 173.595 44.25 174.656 44.6358L175.34 42.7562C174.523 42.4593 173.779 42.0138 173.102 41.4126L171.774 42.9074ZM174.656 44.6358C175.686 45.0103 176.698 45.208 177.686 45.208V43.208C176.967 43.208 176.187 43.0644 175.34 42.7562L174.656 44.6358ZM177.686 45.208C178.622 45.208 179.55 45.0351 180.464 44.6983L179.772 42.8217C179.065 43.0822 178.371 43.208 177.686 43.208V45.208ZM180.448 44.7039C181.388 44.3751 182.26 43.9275 183.063 43.361L181.909 41.727C181.261 42.1845 180.555 42.5476 179.788 42.8161L180.448 44.7039ZM183.071 43.3547C183.908 42.7503 184.654 42.0516 185.306 41.2597L183.762 39.9883C183.22 40.647 182.6 41.2283 181.901 41.7333L183.071 43.3547ZM185.306 41.2597C185.959 40.4661 186.497 39.601 186.918 38.6664L185.094 37.8456C184.747 38.6176 184.303 39.3312 183.762 39.9883L185.306 41.2597ZM187.006 38.256V33.328H185.006V38.256H187.006ZM225.561 14H226.561V13H225.561V14ZM209.305 14.256L209.398 15.2516L209.411 15.2504L209.425 15.2487L209.305 14.256ZM205.273 15.344L205.659 16.2662L205.672 16.2609L205.684 16.2554L205.273 15.344ZM201.88 17.904L202.656 18.5357V18.5357L201.88 17.904ZM201.113 25.84L200.195 26.2387L200.206 26.2633L200.218 26.2872L201.113 25.84ZM203.033 28.336L203.699 27.5908V27.5908L203.033 28.336ZM205.913 30.064L206.271 29.1307L205.913 30.064ZM210.969 30.704H211.969V29.704H210.969V30.704ZM210.969 30.96L211.32 31.8963L211.969 31.653V30.96H210.969ZM209.24 31.92L208.607 31.146L209.24 31.92ZM207.96 33.264L208.734 33.8972L208.748 33.8809L208.76 33.864L207.96 33.264ZM206.809 34.864L205.967 34.3232L205.953 34.3452L205.94 34.3679L206.809 34.864ZM205.656 36.784L204.808 36.254L204.803 36.2626L205.656 36.784ZM202.008 41.84L201.287 41.1475L202.008 41.84ZM196.952 43.44V42.44H195.952V43.44H196.952ZM196.952 46H195.952V46.6499L196.546 46.9138L196.952 46ZM204.889 45.552L205.464 46.3698L205.47 46.3657L204.889 45.552ZM208.152 41.776L209.014 42.284L209.016 42.2802L208.152 41.776ZM214.617 30.704V29.704H214.042L213.753 30.1998L214.617 30.704ZM220.12 30.704H221.12V29.704H220.12V30.704ZM220.12 46H219.12V47H220.12V46ZM225.561 46V47H226.561V46H225.561ZM220.12 16.56H221.12V15.56H220.12V16.56ZM220.12 28.528V29.528H221.12V28.528H220.12ZM211.353 28.272L211.149 29.251L211.171 29.2557L211.195 29.2594L211.353 28.272ZM208.665 27.312L208.121 28.1516L208.149 28.1698L208.179 28.1862L208.665 27.312ZM209.432 17.328L209.861 18.2317L209.432 17.328ZM211.801 16.688L211.856 17.6865L211.881 17.6851L211.905 17.6825L211.801 16.688ZM225.561 13H212.76V15H225.561V13ZM212.76 13C211.808 13 210.612 13.0902 209.184 13.2633L209.425 15.2487C210.813 15.0805 211.921 15 212.76 15V13ZM209.211 13.2604C207.73 13.3993 206.278 13.7925 204.861 14.4326L205.684 16.2554C206.912 15.7008 208.149 15.3687 209.398 15.2516L209.211 13.2604ZM204.886 14.4218C203.406 15.0423 202.144 15.9978 201.105 17.2723L202.656 18.5357C203.495 17.5062 204.494 16.755 205.659 16.2662L204.886 14.4218ZM201.105 17.2723C199.975 18.6598 199.473 20.5122 199.473 22.704H201.473C201.473 20.7998 201.909 19.4522 202.656 18.5357L201.105 17.2723ZM199.473 22.704C199.473 23.9454 199.712 25.1269 200.195 26.2387L202.03 25.4413C201.66 24.5904 201.473 23.6813 201.473 22.704H199.473ZM200.218 26.2872C200.746 27.3428 201.465 28.2749 202.366 29.0812L203.699 27.5908C202.979 26.9464 202.418 26.2145 202.007 25.3928L200.218 26.2872ZM202.366 29.0812C203.275 29.8946 204.342 30.5312 205.554 30.9973L206.271 29.1307C205.265 28.7435 204.412 28.2281 203.699 27.5908L202.366 29.0812ZM205.554 30.9973C206.786 31.4714 208.103 31.704 209.497 31.704V29.704C208.33 29.704 207.258 29.51 206.271 29.1307L205.554 30.9973ZM209.497 31.704H210.969V29.704H209.497V31.704ZM209.969 30.704V30.96H211.969V30.704H209.969ZM210.617 30.0237C209.852 30.3105 209.176 30.6805 208.607 31.146L209.874 32.694C210.243 32.3915 210.719 32.1215 211.32 31.8963L210.617 30.0237ZM208.607 31.146C208.072 31.5838 207.59 32.0911 207.161 32.664L208.76 33.864C209.099 33.4129 209.47 33.0242 209.874 32.694L208.607 31.146ZM207.187 32.6308C206.775 33.1341 206.369 33.6991 205.967 34.3232L207.65 35.4048C208.016 34.8342 208.378 34.3326 208.734 33.8972L207.187 32.6308ZM205.94 34.3679C205.606 34.9521 205.229 35.5807 204.809 36.254L206.505 37.314C206.937 36.622 207.328 35.9706 207.677 35.3601L205.94 34.3679ZM204.803 36.2626C203.407 38.5466 202.236 40.1591 201.287 41.1475L202.73 42.5325C203.829 41.3875 205.09 39.6294 206.51 37.3055L204.803 36.2626ZM201.287 41.1475C200.427 42.0432 199.505 42.44 198.488 42.44V44.44C200.117 44.44 201.542 43.7701 202.73 42.5325L201.287 41.1475ZM198.488 42.44H196.952V44.44H198.488V42.44ZM195.952 43.44V46H197.952V43.44H195.952ZM196.546 46.9138C197.84 47.4889 199.261 47.768 200.792 47.768V45.768C199.508 45.768 198.369 45.5351 197.359 45.0862L196.546 46.9138ZM200.792 47.768C202.551 47.768 204.123 47.3131 205.464 46.3698L204.313 44.7342C203.35 45.4122 202.191 45.768 200.792 45.768V47.768ZM205.47 46.3657C206.808 45.4098 207.983 44.0321 209.014 42.284L207.291 41.268C206.359 42.8479 205.358 43.9875 204.307 44.7383L205.47 46.3657ZM209.016 42.2802L215.48 31.2082L213.753 30.1998L207.289 41.2718L209.016 42.2802ZM214.617 31.704H220.12V29.704H214.617V31.704ZM219.12 30.704V46H221.12V30.704H219.12ZM220.12 47H225.561V45H220.12V47ZM226.561 46V14H224.561V46H226.561ZM219.12 16.56V28.528H221.12V16.56H219.12ZM220.12 27.528H214.872V29.528H220.12V27.528ZM214.872 27.528C213.636 27.528 212.516 27.4455 211.51 27.2846L211.195 29.2594C212.322 29.4398 213.549 29.528 214.872 29.528V27.528ZM211.556 27.293C210.613 27.0964 209.815 26.8073 209.15 26.4378L208.179 28.1862C209.05 28.67 210.044 29.0209 211.149 29.251L211.556 27.293ZM209.208 26.4724C208.622 26.0937 208.159 25.5976 207.811 24.9704L206.062 25.9416C206.567 26.8504 207.256 27.5916 208.121 28.1516L209.208 26.4724ZM207.811 24.9704C207.488 24.3901 207.296 23.6093 207.296 22.576H205.296C205.296 23.8467 205.531 24.9859 206.062 25.9416L207.811 24.9704ZM207.296 22.576C207.296 21.2103 207.591 20.3102 208.041 19.7396L206.472 18.5004C205.642 19.5511 205.296 20.9551 205.296 22.576H207.296ZM208.041 19.7396C208.6 19.0316 209.209 18.5405 209.861 18.2317L209.004 16.4243C208.035 16.8835 207.193 17.5871 206.472 18.5004L208.041 19.7396ZM209.861 18.2317C210.574 17.894 211.237 17.7209 211.856 17.6865L211.745 15.6895C210.828 15.7405 209.913 15.994 209.004 16.4243L209.861 18.2317ZM211.905 17.6825C212.721 17.5966 213.226 17.56 213.465 17.56V15.56C213.106 15.56 212.501 15.6087 211.696 15.6935L211.905 17.6825ZM213.465 17.56H220.12V15.56H213.465V17.56Z" fill="url(#paint0_linear)" fill-opacity="0.5"/>
<defs>
<linearGradient id="paint0_linear" x1="-4.90884" y1="-10.9986" x2="33.5338" y2="91.5905" gradientUnits="userSpaceOnUse">
<stop stop-color="#C69C6D"/>
<stop offset="1" stop-color="#E6A762"/>
</linearGradient>
</defs>
</svg>
