<svg width="126" height="57" viewBox="0 0 126 57" fill="none" xmlns="http://www.w3.org/2000/svg">
<path d="M27.1123 28.5V57H32.5184H37.9246V28.5V1.10716e-05H32.5184H27.1123V28.5ZM31.8253 3.6041V5.04573H30.4669H29.1084V3.64291C29.1084 2.86664 29.125 2.21791 29.1472 2.20128C29.1639 2.1791 29.7793 2.16246 30.5057 2.16246H31.8253V3.6041ZM35.873 3.6041V5.04573H34.5145H33.1561V3.64291C33.1561 2.86664 33.1727 2.21791 33.1949 2.20128C33.2115 2.1791 33.827 2.16246 34.5534 2.16246H35.873V3.6041ZM35.873 7.95672V9.42608L34.5312 9.41499L33.1838 9.39836L33.1672 8.01217C33.1616 7.25254 33.1672 6.59826 33.1838 6.55945C33.2004 6.504 33.5165 6.48736 34.5423 6.48736H35.873V7.95672ZM31.8253 12.265V13.7233L30.4835 13.7122L29.1361 13.7011L29.1195 12.326C29.114 11.5719 29.1195 10.9232 29.1361 10.8843C29.1528 10.8289 29.4688 10.8123 30.4946 10.8123H31.8253V12.265ZM35.873 12.265V13.7233L34.5312 13.7122L33.1838 13.7011L33.1672 12.326C33.1616 11.5719 33.1672 10.9232 33.1838 10.8843C33.2004 10.8289 33.5165 10.8123 34.5423 10.8123H35.873V12.265ZM35.873 16.6897V18.1313L34.5312 18.1202L33.1838 18.1036L33.1672 16.6731L33.1561 15.2481H34.5145H35.873V16.6897ZM31.8253 21.0146V22.4562H30.4669H29.1084V21.0146V19.573H30.4669H31.8253V21.0146ZM35.873 29.6644V31.106H34.5145H33.1561V29.7032C33.1561 28.927 33.1727 28.2782 33.1949 28.2616C33.2115 28.2394 33.827 28.2228 34.5534 28.2228H35.873V29.6644ZM31.8253 33.9893V35.4309H30.4669H29.1084V33.9893V32.5477H30.4669H31.8253V33.9893ZM31.8253 38.3142V39.7558H30.4669H29.1084V38.353C29.1084 37.5768 29.125 36.928 29.1472 36.9114C29.1639 36.8892 29.7793 36.8726 30.5057 36.8726H31.8253V38.3142ZM35.873 38.3142V39.7558H34.5145H33.1561V38.353C33.1561 37.5768 33.1727 36.928 33.1949 36.9114C33.2115 36.8892 33.827 36.8726 34.5534 36.8726H35.873V38.3142ZM31.8253 42.6724V44.1362L30.4835 44.1251L29.1361 44.1085L29.1195 42.7223C29.114 41.9626 29.1195 41.3084 29.1361 41.264C29.1583 41.2086 29.4466 41.1975 30.4946 41.1975L31.8253 41.203V42.6724ZM35.873 42.6668V44.1362L34.5312 44.1251L33.1838 44.1085L33.1672 42.7223C33.1616 41.9626 33.1672 41.3084 33.1838 41.2696C33.2004 41.2141 33.5165 41.1975 34.5423 41.1975H35.873V42.6668ZM35.873 46.9917V48.4611L34.5312 48.45L33.1838 48.4334L33.1672 47.0472C33.1616 46.2876 33.1672 45.6333 33.1838 45.5945C33.2004 45.539 33.5165 45.5224 34.5423 45.5224H35.873V46.9917ZM31.8253 51.3444V52.786L30.4835 52.7749L29.1361 52.7583L29.1195 51.3277L29.1084 49.9027H30.4669H31.8253V51.3444Z" fill="#C69C6D"/>
<path d="M0 35.0151V57H5.43385H10.8677V35.0151V13.0302H5.43385H0V35.0151ZM8.81614 16.6897V18.1313H7.45768H6.09922V16.6897V15.2481H7.45768H8.81614V16.6897ZM4.76848 21.0146V22.4562H3.41002H2.05156V21.0146V19.573H3.41002H4.76848V21.0146ZM8.81614 21.0146V22.4562H7.45768H6.09922V21.0146V19.573H7.45768H8.81614V21.0146ZM4.76848 25.3395V26.7811H3.41002H2.05156V25.3395V23.8979H3.41002H4.76848V25.3395ZM8.81614 25.3395V26.7811H7.45768H6.09922V25.3395V23.8979H7.45768H8.81614V25.3395ZM4.76848 29.6644V31.106H3.41002H2.05156V29.6644V28.2228H3.41002H4.76848V29.6644ZM4.76848 33.9893V35.4309H3.41002H2.05156V33.9893V32.5477H3.41002H4.76848V33.9893ZM8.81614 38.3142V39.7558H7.45768H6.09922V38.3142V36.8726H7.45768H8.81614V38.3142ZM4.75739 42.6779L4.76848 44.1362H3.41002H2.05156V42.7056C2.05156 41.9183 2.06819 41.2529 2.09037 41.2307C2.11255 41.2141 2.71693 41.203 3.4322 41.2086L4.74076 41.2252L4.75739 42.6779ZM8.80506 46.9751L8.78842 48.4334H7.45768H6.12694L6.11031 46.9751L6.09922 45.5224H7.45768H8.81614L8.80506 46.9751ZM4.76848 51.3444V52.786H3.41002H2.05156V51.3444V49.9027H3.41002H4.76848V51.3444ZM8.81614 51.3444V52.786H7.45768H6.09922V51.3444V49.9027H7.45768H8.81614V51.3444Z" fill="#C69C6D"/>
<path d="M13.5283 41.5024V57H18.9622H24.396V41.5024V26.0049H18.9622H13.5283V41.5024ZM18.2968 29.6644V31.106H16.9383H15.5799V29.6644V28.2228H16.9383H18.2968V29.6644ZM18.2968 33.9893V35.4309H16.9383H15.5799V33.9893V32.5477H16.9383H18.2968V33.9893ZM22.3445 33.9893V35.4309H20.986H19.6275V33.9893V32.5477H20.986H22.3445V33.9893ZM18.2968 38.3142V39.7558H16.9383H15.5799V38.3142V36.8726H16.9383H18.2968V38.3142ZM22.3445 38.3142V39.7558H20.986H19.6275V38.3142V36.8726H20.986H22.3445V38.3142ZM22.3334 42.6779L22.3445 44.1362H20.986H19.6275V42.7056C19.6275 41.9183 19.6442 41.2529 19.6664 41.2307C19.6885 41.2141 20.2929 41.203 21.0082 41.2086L22.3167 41.2252L22.3334 42.6779ZM22.3334 46.9751L22.3167 48.4334H20.986H19.6553L19.6386 46.9751L19.6275 45.5224H20.986H22.3445L22.3334 46.9751ZM18.2968 51.3444V52.786H16.9383H15.5799V51.3444V49.9027H16.9383H18.2968V51.3444ZM22.3445 51.3444V52.786H20.986H19.6275V51.3444V49.9027H20.986H22.3445V51.3444Z" fill="#C69C6D"/>
<path d="M55.232 24.288C56.048 24.64 56.696 25.176 57.176 25.896C57.672 26.6 57.92 27.408 57.92 28.32C57.92 29.616 57.464 30.72 56.552 31.632C55.64 32.544 54.536 33 53.24 33H45.92V16.2H52.688C53.936 16.2 55 16.648 55.88 17.544C56.76 18.424 57.2 19.48 57.2 20.712C57.2 22.28 56.544 23.472 55.232 24.288ZM52.688 17.784H47.6V23.64H52.688C53.472 23.64 54.136 23.36 54.68 22.8C55.24 22.224 55.52 21.528 55.52 20.712C55.52 19.912 55.24 19.224 54.68 18.648C54.136 18.072 53.472 17.784 52.688 17.784ZM53.24 31.416C54.072 31.416 54.776 31.12 55.352 30.528C55.944 29.92 56.24 29.184 56.24 28.32C56.24 27.472 55.944 26.744 55.352 26.136C54.776 25.528 54.072 25.224 53.24 25.224H47.6V31.416H53.24ZM61.3708 18.12C61.1468 18.344 60.8748 18.456 60.5548 18.456C60.2348 18.456 59.9628 18.344 59.7388 18.12C59.5148 17.896 59.4028 17.624 59.4028 17.304C59.4028 16.984 59.5148 16.712 59.7388 16.488C59.9628 16.264 60.2348 16.152 60.5548 16.152C60.8748 16.152 61.1468 16.264 61.3708 16.488C61.5948 16.712 61.7068 16.984 61.7068 17.304C61.7068 17.624 61.5948 17.896 61.3708 18.12ZM59.7628 33V21H61.3468V33H59.7628ZM74.2281 21H75.8121V32.52C75.8121 34.248 75.2201 35.608 74.0361 36.6C72.8521 37.592 71.4361 38.088 69.7881 38.088C66.9721 38.088 65.0761 37.112 64.1001 35.16L65.4921 34.368C66.2121 35.824 67.6441 36.552 69.7881 36.552C71.1641 36.552 72.2441 36.184 73.0281 35.448C73.8281 34.728 74.2281 33.752 74.2281 32.52V30.648C73.1241 32.408 71.5081 33.288 69.3801 33.288C67.6681 33.288 66.2041 32.68 64.9881 31.464C63.7881 30.248 63.1881 28.76 63.1881 27C63.1881 25.24 63.7881 23.752 64.9881 22.536C66.2041 21.32 67.6681 20.712 69.3801 20.712C71.5081 20.712 73.1241 21.592 74.2281 23.352V21ZM66.1401 30.384C67.0521 31.296 68.1721 31.752 69.5001 31.752C70.8281 31.752 71.9481 31.296 72.8601 30.384C73.7721 29.456 74.2281 28.328 74.2281 27C74.2281 25.672 73.7721 24.552 72.8601 23.64C71.9481 22.712 70.8281 22.248 69.5001 22.248C68.1721 22.248 67.0521 22.712 66.1401 23.64C65.2281 24.552 64.7721 25.672 64.7721 27C64.7721 28.328 65.2281 29.456 66.1401 30.384ZM91.6539 33.288C89.1099 33.288 87.0059 32.448 85.3419 30.768C83.6779 29.088 82.8459 27.032 82.8459 24.6C82.8459 22.168 83.6779 20.112 85.3419 18.432C87.0059 16.752 89.1099 15.912 91.6539 15.912C93.2059 15.912 94.6299 16.288 95.9259 17.04C97.2219 17.776 98.2219 18.776 98.9259 20.04L97.4379 20.904C96.9099 19.88 96.1259 19.064 95.0859 18.456C94.0459 17.848 92.9019 17.544 91.6539 17.544C89.5579 17.544 87.8459 18.224 86.5179 19.584C85.1899 20.944 84.5259 22.616 84.5259 24.6C84.5259 26.584 85.1899 28.256 86.5179 29.616C87.8459 30.976 89.5579 31.656 91.6539 31.656C92.9019 31.656 94.0459 31.352 95.0859 30.744C96.1259 30.136 96.9099 29.32 97.4379 28.296L98.9259 29.136C98.2379 30.4 97.2379 31.408 95.9259 32.16C94.6299 32.912 93.2059 33.288 91.6539 33.288ZM102.257 18.12C102.033 18.344 101.761 18.456 101.441 18.456C101.121 18.456 100.849 18.344 100.625 18.12C100.401 17.896 100.289 17.624 100.289 17.304C100.289 16.984 100.401 16.712 100.625 16.488C100.849 16.264 101.121 16.152 101.441 16.152C101.761 16.152 102.033 16.264 102.257 16.488C102.481 16.712 102.593 16.984 102.593 17.304C102.593 17.624 102.481 17.896 102.257 18.12ZM100.649 33V21H102.233V33H100.649ZM111.154 22.536H107.698V29.808C107.698 30.464 107.826 30.936 108.082 31.224C108.338 31.496 108.722 31.64 109.234 31.656C109.746 31.656 110.386 31.64 111.154 31.608V33C109.474 33.256 108.21 33.136 107.362 32.64C106.53 32.144 106.114 31.2 106.114 29.808V22.536H103.594V21H106.114V18.12L107.698 17.64V21H111.154V22.536ZM121.868 21H123.548L118.412 34.104C117.948 35.288 117.284 36.216 116.42 36.888C115.572 37.576 114.62 37.88 113.564 37.8V36.312C115.004 36.472 116.1 35.64 116.852 33.816L117.164 33.072L111.788 21H113.468L117.98 31.056L121.868 21Z" fill="#EBE6E2"/>
<path d="M98.48 40V44H97.952V40.808L96.552 43.08H96.488L95.088 40.808V44H94.56V40H95.168L96.52 42.192L97.872 40H98.48ZM100.647 39.904C101.239 39.904 101.716 40.1147 102.079 40.536C102.447 40.952 102.631 41.4453 102.631 42.016C102.631 42.0747 102.626 42.1573 102.615 42.264H99.1031C99.1564 42.6693 99.3271 42.992 99.6151 43.232C99.9084 43.4667 100.268 43.584 100.695 43.584C100.999 43.584 101.26 43.5227 101.479 43.4C101.703 43.272 101.871 43.1067 101.983 42.904L102.447 43.176C102.271 43.4587 102.031 43.6827 101.727 43.848C101.423 44.0133 101.076 44.096 100.687 44.096C100.058 44.096 99.5457 43.8987 99.1511 43.504C98.7564 43.1093 98.5591 42.608 98.5591 42C98.5591 41.4027 98.7537 40.904 99.1431 40.504C99.5324 40.104 100.034 39.904 100.647 39.904ZM100.647 40.416C100.231 40.416 99.8817 40.5413 99.5991 40.792C99.3217 41.0373 99.1564 41.3573 99.1031 41.752H102.087C102.034 41.3307 101.871 41.0027 101.599 40.768C101.327 40.5333 101.01 40.416 100.647 40.416ZM104.447 44.096C103.871 44.096 103.391 43.9067 103.007 43.528C102.623 43.144 102.431 42.648 102.431 42.04C102.431 41.3573 102.532 40.8347 102.735 40.472C102.938 40.104 103.348 39.7707 103.967 39.472C104.084 39.4133 104.239 39.344 104.431 39.264C104.628 39.184 104.775 39.12 104.871 39.072C104.972 39.024 105.082 38.9627 105.199 38.888C105.316 38.808 105.404 38.72 105.463 38.624C105.522 38.528 105.559 38.4133 105.575 38.28L105.991 38.52C105.97 38.648 105.927 38.768 105.863 38.88C105.799 38.992 105.732 39.0827 105.663 39.152C105.599 39.2213 105.495 39.2987 105.351 39.384C105.212 39.464 105.103 39.5227 105.023 39.56C104.948 39.592 104.815 39.648 104.623 39.728C104.436 39.808 104.311 39.8613 104.247 39.888C103.874 40.048 103.599 40.216 103.423 40.392C103.247 40.5627 103.122 40.7867 103.047 41.064C103.228 40.824 103.458 40.648 103.735 40.536C104.018 40.4187 104.292 40.36 104.559 40.36C105.092 40.36 105.532 40.536 105.879 40.888C106.231 41.2347 106.407 41.68 106.407 42.224C106.407 42.7627 106.22 43.2107 105.847 43.568C105.479 43.92 105.012 44.096 104.447 44.096ZM104.447 43.568C104.863 43.568 105.204 43.4427 105.471 43.192C105.743 42.936 105.879 42.6133 105.879 42.224C105.879 41.8293 105.751 41.5067 105.495 41.256C105.244 41 104.908 40.872 104.487 40.872C104.108 40.872 103.764 40.992 103.455 41.232C103.146 41.4667 102.991 41.7813 102.991 42.176C102.991 42.5813 103.13 42.9147 103.407 43.176C103.69 43.4373 104.036 43.568 104.447 43.568ZM108.258 39.904C108.85 39.904 109.327 40.1147 109.69 40.536C110.058 40.952 110.242 41.4453 110.242 42.016C110.242 42.0747 110.237 42.1573 110.226 42.264H106.714C106.767 42.6693 106.938 42.992 107.226 43.232C107.519 43.4667 107.879 43.584 108.306 43.584C108.61 43.584 108.871 43.5227 109.09 43.4C109.314 43.272 109.482 43.1067 109.594 42.904L110.058 43.176C109.882 43.4587 109.642 43.6827 109.338 43.848C109.034 44.0133 108.687 44.096 108.298 44.096C107.669 44.096 107.157 43.8987 106.762 43.504C106.367 43.1093 106.17 42.608 106.17 42C106.17 41.4027 106.365 40.904 106.754 40.504C107.143 40.104 107.645 39.904 108.258 39.904ZM108.258 40.416C107.842 40.416 107.493 40.5413 107.21 40.792C106.933 41.0373 106.767 41.3573 106.714 41.752H109.698C109.645 41.3307 109.482 41.0027 109.21 40.768C108.938 40.5333 108.621 40.416 108.258 40.416ZM113.406 40V44H112.878V40.512H111.07V42.296C111.07 42.9627 110.942 43.4213 110.686 43.672C110.435 43.9227 110.088 44.032 109.646 44V43.504C109.95 43.536 110.174 43.464 110.318 43.288C110.467 43.112 110.542 42.7813 110.542 42.296V40H113.406ZM115.348 41.52C115.721 41.52 116.036 41.6373 116.292 41.872C116.553 42.1013 116.684 42.3973 116.684 42.76C116.684 43.1227 116.553 43.4213 116.292 43.656C116.036 43.8853 115.721 44 115.348 44H113.724V40H114.252V41.52H115.348ZM115.348 43.488C115.572 43.488 115.761 43.4213 115.916 43.288C116.076 43.1547 116.156 42.9787 116.156 42.76C116.156 42.5413 116.076 42.3653 115.916 42.232C115.761 42.0987 115.572 42.032 115.348 42.032H114.252V43.488H115.348Z" fill="#EBE6E2"/>
</svg>
