<svg width="38" height="38" viewBox="0 0 38 38" fill="none" xmlns="http://www.w3.org/2000/svg">
<path d="M24.6399 14.24L12.5599 23.84C12.3199 24.04 12.2399 24.44 12.4799 24.68C12.5999 24.84 12.7599 24.92 12.9599 24.92C13.0799 24.92 13.2399 24.88 13.3199 24.8L25.3999 15.2C25.6399 15 25.7199 14.6 25.4799 14.36C25.2799 14.08 24.9199 14.04 24.6399 14.24Z" fill="#C69C6D"/>
<path d="M15.8001 18.52C15.9601 18.52 16.1201 18.52 16.2801 18.48C17.9201 18.24 19.0801 16.68 18.8001 15C18.6801 14.2 18.2401 13.48 17.6001 13C16.9601 12.52 16.1601 12.32 15.3601 12.44C14.5601 12.56 13.8401 13 13.3601 13.64C12.8801 14.28 12.6801 15.08 12.8001 15.88C13.0401 17.44 14.3601 18.52 15.8001 18.52ZM15.5201 13.68C15.6001 13.68 15.7201 13.64 15.8001 13.64C16.6801 13.64 17.4801 14.28 17.6001 15.2C17.7601 16.2 17.0801 17.12 16.0801 17.28C15.0801 17.44 14.1601 16.76 14.0001 15.76C13.8401 14.76 14.5601 13.84 15.5201 13.68Z" fill="#C69C6D"/>
<path d="M22.1997 20.52C20.5197 20.52 19.1597 21.88 19.1597 23.56C19.1597 25.24 20.5197 26.6 22.1997 26.6C23.8797 26.6 25.2397 25.24 25.2397 23.56C25.1997 21.88 23.8397 20.52 22.1997 20.52ZM22.1997 25.36C21.1997 25.36 20.3597 24.52 20.3597 23.52C20.3597 22.52 21.1997 21.68 22.1997 21.68C23.1997 21.68 24.0397 22.52 24.0397 23.52C23.9997 24.56 23.1997 25.36 22.1997 25.36Z" fill="#C69C6D"/>
<path d="M37.1598 19.12C37.1598 19.08 37.1998 19 37.1998 18.96C37.1998 17.24 35.3998 16.36 33.8398 15.6C32.7198 15.04 31.5198 14.44 31.1998 13.72C30.8798 12.96 31.3198 11.72 31.7598 10.56C32.3598 8.92001 32.9598 7.24001 31.8398 6.12001C30.7198 5.00001 29.1198 5.40001 27.5198 5.76001C26.3998 6.00001 25.2398 6.28001 24.4798 5.96001C23.7198 5.64001 23.0798 4.64001 22.4798 3.68001C21.5998 2.32001 20.6398 0.76001 18.9598 0.76001C17.2798 0.76001 16.3198 2.32001 15.4798 3.72001C14.8798 4.72001 14.2798 5.72001 13.5198 6.04001C12.7598 6.36001 11.5598 6.08001 10.4398 5.80001C8.83977 5.40001 7.19977 5.00001 6.11977 6.08001C4.99977 7.20001 5.55977 8.88001 6.07977 10.52C6.47977 11.72 6.83977 12.92 6.51977 13.72C6.19977 14.48 5.07977 15.04 3.99977 15.6C2.47977 16.4 0.759766 17.28 0.759766 18.96C0.759766 19 0.759766 19.08 0.799766 19.12C0.799766 19.16 0.759766 19.24 0.759766 19.28C0.759766 20.96 2.47977 21.88 3.99977 22.64C5.07977 23.2 6.19977 23.76 6.51977 24.52C6.83977 25.28 6.43977 26.52 6.07977 27.72C5.55977 29.36 4.99977 31.04 6.11977 32.16C7.23977 33.28 8.87977 32.84 10.4398 32.44C11.5598 32.16 12.7598 31.88 13.5198 32.2C14.2798 32.52 14.8798 33.52 15.4798 34.52C16.3198 35.92 17.2798 37.48 18.9598 37.48C20.6398 37.48 21.6398 35.92 22.4798 34.56C23.0798 33.6 23.7198 32.6 24.4798 32.28C25.2798 31.96 26.3998 32.2 27.5198 32.48C29.0798 32.84 30.7198 33.24 31.8398 32.12C32.9598 31 32.3598 29.32 31.7598 27.68C31.3198 26.48 30.8798 25.28 31.1998 24.52C31.5198 23.76 32.6798 23.2 33.8398 22.64C35.3998 21.84 37.1998 20.96 37.1998 19.28C37.1998 19.2 37.1598 19.16 37.1598 19.12ZM33.2798 21.56C31.9598 22.24 30.5598 22.92 30.0798 24.08C29.5598 25.28 30.1198 26.72 30.5998 28.12C31.0798 29.44 31.5598 30.72 30.9598 31.28C30.3198 31.92 29.0798 31.64 27.7598 31.32C26.4398 31 25.1198 30.72 23.9598 31.2C22.8398 31.68 22.1198 32.8 21.4398 33.92C20.6798 35.12 19.9598 36.28 18.9198 36.28C17.9198 36.28 17.1998 35.12 16.4398 33.88C15.7598 32.72 15.0398 31.56 13.9198 31.08C12.7598 30.6 11.3998 30.92 10.0798 31.28C8.75977 31.6 7.51977 31.92 6.87977 31.32C6.27977 30.72 6.67977 29.44 7.11977 28.12C7.55977 26.72 8.03977 25.28 7.51977 24.12C7.03977 22.96 5.71977 22.28 4.43977 21.64C3.11977 20.96 1.87977 20.32 1.87977 19.32C1.87977 19.28 1.87977 19.2 1.83977 19.16C1.83977 19.12 1.87977 19.04 1.87977 19C1.87977 18.04 3.11977 17.4 4.43977 16.68C5.71977 16.04 7.03977 15.36 7.51977 14.2C7.99977 13 7.55977 11.56 7.11977 10.2C6.67977 8.84001 6.27977 7.56001 6.87977 7.00001C7.51977 6.36001 8.75977 6.68001 10.0798 7.04001C11.3998 7.36001 12.7598 7.72001 13.9198 7.24001C15.0398 6.76001 15.7598 5.60001 16.4398 4.44001C17.1998 3.20001 17.8798 2.04001 18.9198 2.04001C19.9598 2.04001 20.6798 3.20001 21.4398 4.40001C22.1598 5.52001 22.8798 6.64001 23.9598 7.12001C25.1198 7.60001 26.4398 7.28001 27.7598 7.00001C29.0798 6.68001 30.3198 6.40001 30.9598 7.04001C31.5598 7.60001 31.0798 8.88001 30.5998 10.2C30.0798 11.6 29.5598 13.04 30.0798 14.24C30.5598 15.4 31.9598 16.08 33.2798 16.76C34.6798 17.44 35.9598 18.12 35.9598 19.08C35.9598 19.12 35.9598 19.2 35.9998 19.24C35.9998 19.28 35.9598 19.36 35.9598 19.4C35.9998 20.2 34.6798 20.88 33.2798 21.56Z" fill="#C69C6D"/>
</svg>
