<svg width="38" height="24" viewBox="0 0 38 24" fill="none" xmlns="http://www.w3.org/2000/svg">
<path d="M36.6209 11.7856H33.5281V6.56637C33.5281 6.23593 33.2603 5.96847 32.9303 5.96847H23.2439V0.760005C23.2439 0.429568 22.9761 0.162109 22.6461 0.162109H1.23901C0.908572 0.162109 0.641113 0.429568 0.641113 0.760005V20.365C0.641113 20.695 0.908572 20.9629 1.23901 20.9629H6.23662C6.44389 22.5043 7.76404 23.6977 9.36082 23.6977C10.9576 23.6977 12.2778 22.5043 12.485 20.9629H22.6461H26.5069C26.7141 22.5043 28.0351 23.6977 29.6335 23.6977C31.2318 23.6977 32.5528 22.5043 32.7604 20.9629H36.6213C36.9513 20.9629 37.2192 20.695 37.2192 20.365V12.3835C37.2188 12.0531 36.9509 11.7856 36.6209 11.7856ZM9.36082 22.5019C8.28022 22.5019 7.40092 21.6222 7.40092 20.5408C7.40092 19.4594 8.28022 18.5797 9.36082 18.5797C10.4414 18.5797 11.3207 19.4594 11.3207 20.5408C11.3207 21.6222 10.4418 22.5019 9.36082 22.5019ZM9.36082 17.3839C7.888 17.3839 6.65156 18.3999 6.30517 19.7671H1.8369V1.3579H22.0482V6.56637V12.3835V19.7667H12.4169C12.0705 18.3999 10.8336 17.3839 9.36082 17.3839ZM29.6335 22.5019C28.5513 22.5019 27.6712 21.6222 27.6712 20.5408C27.6712 19.4594 28.5513 18.5797 29.6335 18.5797C30.7156 18.5797 31.5962 19.4594 31.5962 20.5408C31.5962 21.6222 30.7152 22.5019 29.6335 22.5019ZM36.023 19.7667H32.6919C32.3451 18.3995 31.1075 17.3835 29.6335 17.3835C28.1594 17.3835 26.9218 18.3995 26.5754 19.7667H23.2443V12.3835V7.16426H32.3328V12.3835C32.3328 12.7135 32.6006 12.9814 32.9306 12.9814H36.0234V19.7667H36.023Z" fill="#C69C6D"/>
</svg>
