<svg width="31" height="32" viewBox="0 0 31 32" fill="none" xmlns="http://www.w3.org/2000/svg">
<path d="M29.936 27.1961L18.5 15.3481L25.496 8.35206L26.768 9.62406C26.8246 9.68076 26.892 9.72554 26.9662 9.75577C27.0404 9.78599 27.1199 9.80106 27.2 9.80006H27.268C27.3577 9.78951 27.4438 9.75885 27.52 9.71037C27.5962 9.66189 27.6605 9.59684 27.708 9.52006L30.316 5.34806C30.3885 5.23164 30.4188 5.09392 30.4021 4.95782C30.3854 4.82172 30.3225 4.69546 30.224 4.60006L28.4 2.77606C28.3039 2.67979 28.1779 2.61904 28.0427 2.60378C27.9075 2.58851 27.7712 2.61964 27.656 2.69206L23.484 5.30006C23.4075 5.34778 23.3428 5.41211 23.2946 5.48828C23.2464 5.56446 23.216 5.65051 23.2056 5.74006C23.1952 5.8296 23.2051 5.92033 23.2347 6.00551C23.2642 6.09069 23.3125 6.16813 23.376 6.23206L24.648 7.50406L17.668 14.4841L12.34 8.96806C12.8032 7.90742 12.9567 6.73734 12.7829 5.5931C12.6091 4.44886 12.115 3.37718 11.3577 2.50193C10.6005 1.62668 9.61095 0.983616 8.5036 0.647064C7.39624 0.310512 6.21625 0.294218 5.10002 0.600065C4.99956 0.62767 4.90802 0.68096 4.8344 0.75469C4.76079 0.828419 4.70764 0.920046 4.68019 1.02055C4.65275 1.12106 4.65194 1.22698 4.67786 1.32789C4.70378 1.42881 4.75554 1.52123 4.82802 1.59606L7.32402 4.20006L6.67202 6.49606L4.36802 7.07606L1.87602 4.49606C1.80354 4.42127 1.71283 4.36663 1.61283 4.33752C1.51282 4.30841 1.40696 4.30584 1.30566 4.33006C1.20435 4.35427 1.1111 4.40444 1.03507 4.47563C0.959037 4.54682 0.902846 4.63657 0.872025 4.73606C0.548825 5.78744 0.513036 6.90618 0.768373 7.97607C1.02371 9.04595 1.56086 10.028 2.32402 10.8201C3.16261 11.6912 4.24131 12.2932 5.42296 12.5496C6.6046 12.806 7.83581 12.7052 8.96002 12.2601L14.136 17.6161L10.936 20.8161L10.08 19.9601C9.96752 19.8477 9.81502 19.7846 9.65602 19.7846C9.49702 19.7846 9.34452 19.8477 9.23202 19.9601L0.976024 28.2001C0.863664 28.3126 0.800552 28.4651 0.800552 28.6241C0.800552 28.7831 0.863664 28.9356 0.976024 29.0481L3.53602 31.6081C3.64852 31.7204 3.80102 31.7835 3.96002 31.7835C4.11902 31.7835 4.27152 31.7204 4.38402 31.6081L12.624 23.4001C12.7364 23.2876 12.7995 23.1351 12.7995 22.9761C12.7995 22.8171 12.7364 22.6646 12.624 22.5521L11.768 21.6801L14.968 18.4801L26.568 30.4801C26.7825 30.704 27.0393 30.8829 27.3236 31.0065C27.6079 31.1302 27.914 31.1959 28.224 31.2001H28.264C28.8772 31.2013 29.4662 30.9613 29.904 30.5321C30.3485 30.0927 30.6012 29.4956 30.6072 28.8707C30.6132 28.2458 30.372 27.6438 29.936 27.1961ZM27.888 3.96006L29.04 5.11206L27.084 8.24006L24.76 5.91606L27.888 3.96006ZM3.96002 30.3601L2.24802 28.6401L9.64002 21.2481L11.352 22.9601L3.96002 30.3601ZM29.048 29.6801C28.8286 29.8932 28.5339 30.0111 28.228 30.0081C27.9253 30.0012 27.6376 29.8747 27.428 29.6561L9.53202 11.1201C9.44391 11.0299 9.32963 10.9698 9.20541 10.9482C9.0812 10.9267 8.95335 10.9448 8.84002 11.0001C7.91184 11.4436 6.86762 11.5838 5.85534 11.4007C4.84305 11.2176 3.91406 10.7206 3.20002 9.98006C2.71415 9.47577 2.34067 8.87424 2.10418 8.21511C1.86769 7.55598 1.77357 6.85422 1.82802 6.15606L3.76002 8.15606C3.83364 8.23214 3.92607 8.28738 4.02794 8.31618C4.1298 8.34498 4.23747 8.34632 4.34002 8.32006L7.31602 7.57206C7.41634 7.54814 7.50879 7.49876 7.58446 7.42869C7.66013 7.35863 7.71646 7.27024 7.74802 7.17206L8.58802 4.21206C8.61679 4.11123 8.61864 4.00463 8.59337 3.90286C8.5681 3.8011 8.51661 3.70773 8.44402 3.63206L6.50802 1.63206C7.37273 1.59414 8.2322 1.78425 9.00024 2.18334C9.76827 2.58242 10.4179 3.17645 10.8839 3.90583C11.3499 4.63522 11.6159 5.47431 11.6552 6.33895C11.6946 7.20359 11.5058 8.06337 11.108 8.83206C11.0538 8.94028 11.0335 9.06238 11.05 9.18231C11.0664 9.30225 11.1187 9.41441 11.2 9.50406L29.072 28.0281C29.2855 28.2499 29.4028 28.5471 29.3983 28.855C29.3938 29.1629 29.2679 29.4565 29.048 29.6721V29.6801Z" fill="#C69C6D"/>
</svg>
