<svg width="36" height="36" viewBox="0 0 36 36" fill="none" xmlns="http://www.w3.org/2000/svg">
<path d="M35.1159 6.76192L28.9403 0.586235C28.7076 0.353579 28.3308 0.353579 28.0982 0.586235L17.1106 11.5734L10.4775 5.04718C10.4724 5.04202 10.4656 5.03844 10.4601 5.03368C10.4382 5.01383 10.4148 4.99596 10.3898 4.97929C10.3779 4.97135 10.3668 4.96261 10.3545 4.95547C10.3251 4.93879 10.2937 4.92569 10.2612 4.91378C10.2528 4.911 10.2457 4.90584 10.2373 4.90306L1.25351 2.09611C1.04309 2.0306 0.811621 2.08698 0.654797 2.24341C0.497973 2.40023 0.441199 2.6309 0.507502 2.84212L3.31485 11.8255C3.33192 11.8799 3.35812 11.93 3.38949 11.9768C3.39941 11.9919 3.41132 12.0042 3.42244 12.0181C3.43713 12.0364 3.44904 12.0562 3.46572 12.0725L10.092 18.592L0.586112 28.0983C0.353457 28.331 0.353457 28.7077 0.586112 28.9404L6.76219 35.1169C6.87376 35.2284 7.02542 35.2912 7.18343 35.2912C7.34145 35.2912 7.49271 35.2284 7.60467 35.1169L17.2086 25.5129L24.9792 33.0647C25.0784 33.1603 25.2031 33.2068 25.3305 33.2207C26.2318 34.0564 27.3943 34.5189 28.6306 34.5189C29.9296 34.5189 31.1513 34.0131 32.0696 33.0944C33.9408 31.2233 33.9618 28.196 32.1399 26.2942C32.1109 26.1954 32.0593 26.1041 31.9838 26.0314L24.1907 18.5305L35.1163 7.6044C35.3486 7.37135 35.3486 6.99457 35.1159 6.76192ZM9.32338 5.86584L8.87832 7.37849L6.80348 7.98872C6.60934 8.04589 6.45728 8.19755 6.40011 8.39209L5.79028 10.4665L4.27723 10.9116L1.98363 3.57224L9.32338 5.86584ZM7.18304 33.8535L1.84904 28.5191L4.09301 26.2752L6.75981 28.942C6.87614 29.0583 7.02859 29.1163 7.18105 29.1163C7.33351 29.1163 7.48597 29.0583 7.60229 28.942C7.83495 28.7093 7.83495 28.3325 7.60229 28.0999L4.93549 25.4331L7.1207 23.2479L9.7875 25.9147C9.90383 26.031 10.0563 26.089 10.2087 26.089C10.3612 26.089 10.5137 26.031 10.63 25.9147C10.8626 25.682 10.8626 25.3052 10.63 25.0726L7.96319 22.4058L10.9444 19.4246L16.3547 24.6827L7.18304 33.8535ZM31.2263 32.2519C29.8935 33.584 27.7849 33.6749 26.3445 32.5279L31.5026 27.3698C32.6496 28.8106 32.5587 30.9199 31.2263 32.2519ZM25.3877 31.8009L11.3164 18.1255L5.02284 11.9335L6.43822 11.5175C6.63237 11.4603 6.78443 11.3086 6.8416 11.1141L7.45182 9.03964L9.52666 8.42941C9.7208 8.37224 9.87286 8.22058 9.93003 8.02604L10.3517 6.59318L22.9158 18.9549L30.7209 26.4681L25.3877 31.8009ZM23.3367 17.6999L17.9594 12.4088L21.0161 9.35209L23.6829 12.0189C23.7992 12.1352 23.9517 12.1932 24.1041 12.1932C24.2566 12.1932 24.409 12.1352 24.5254 12.0189C24.758 11.7866 24.758 11.4091 24.5254 11.1768L21.8586 8.51001L24.3416 6.02703L27.0084 8.69383C27.1247 8.81016 27.2771 8.86812 27.4296 8.86812C27.582 8.86812 27.7345 8.81016 27.8508 8.69383C28.0835 8.46157 28.0835 8.084 27.8508 7.85175L25.184 5.18495L28.5198 1.84916L33.853 7.18316L23.3367 17.6999Z" fill="#C69C6D"/>
</svg>
