<svg width="133" height="31" viewBox="0 0 133 31" fill="none" xmlns="http://www.w3.org/2000/svg">
<path d="M0 15.2766V30.5532H10.0093H20.0187V27.6944V24.8357H14.7606H9.50254V21.5302V18.2247H14.6973H19.892V15.3659V12.5072H14.6973H9.50254V9.2017V5.89624H14.7606H20.0187V2.94812V-4.55278e-07H10.0093H0V15.2766Z" fill="#E20A17"/>
<path d="M31.9154 0.821585C30.6991 1.96511 30.0656 3.37665 29.5714 6.05678C29.4321 6.86082 29.394 9.20148 29.394 18.7964V30.5532L38.4278 30.5175L47.4489 30.4639L47.4869 27.9267L47.5249 25.3716H41.4306H35.349V21.6194V17.8672L40.455 17.8315L45.5484 17.7779L45.5864 15.3122L45.6244 12.8643H40.4803H35.349V9.0228V5.18127H41.4306H47.5122V2.67981V0.17835H40.0496H32.5996L31.9154 0.821585Z" fill="black"/>
<path d="M52.9732 0.55357C51.6682 1.37548 50.8066 2.87635 50.2998 5.1634C50.0591 6.23546 50.0464 6.80722 50.0464 18.4211V30.5532H59.1688H68.2912V21.7088V12.8643H63.9834H59.6756V15.3658V17.8672H62.7164H65.7572V21.4408V25.0143H60.8793H56.0013V15.0978V5.18127H62.1463H68.2912V2.67981V0.17835H60.9173C53.784 0.17835 53.5053 0.196218 52.9732 0.55357Z" fill="black"/>
<path d="M73.8914 0.642907C72.523 1.60776 71.4714 3.734 71.2053 6.07465C71.1293 6.77149 71.0786 11.8816 71.0786 18.8857V30.5532H80.201H89.3235V21.7088V12.8643H85.0157H80.7079V15.3658V17.8672H83.812H86.9162V21.4408V25.0143H81.9749H77.0335V15.0978V5.18127H83.1785H89.3235V2.67981V0.17835H81.9368H74.5502L73.8914 0.642907Z" fill="black"/>
<path d="M95.0761 0.446365C94.4299 0.857318 93.4417 2.25099 93.0362 3.34091C92.8209 3.91267 92.5168 5.03833 92.3774 5.84237C92.124 7.23604 92.1113 7.73633 92.1113 18.9214V30.5532H101.17H110.229V27.9624V25.3716L104.186 25.3359L98.1296 25.2823L98.0916 21.5658L98.0662 17.8672H103.198H108.329V15.3658V12.8643L103.236 12.8286L98.1296 12.775L98.0916 8.9692L98.0662 5.18127H104.148H110.229V2.67981V0.17835L102.856 0.196218C96.964 0.196218 95.3929 0.249823 95.0761 0.446365Z" fill="black"/>
<path d="M115.462 0.55357C114.436 1.26827 113.739 2.71555 113.067 5.53862L112.7 7.05737L112.662 18.8142L112.624 30.5532H115.678H118.718L118.731 24.3353C118.731 18.171 118.731 18.1353 118.972 18.582C119.111 18.8321 120.593 21.6194 122.266 24.7999L125.319 30.5532H128.854H132.402V30.1423C132.402 29.91 131.794 28.6414 130.932 27.069C130.121 25.586 129.31 24.103 129.133 23.7635C128.943 23.4241 128.145 21.9768 127.372 20.5474C126.586 19.118 125.94 17.903 125.94 17.8136C125.94 17.7422 126.51 17.6886 127.207 17.6886H128.487L129.108 16.8667C129.931 15.7946 130.4 14.7047 130.831 12.9537C131.148 11.6672 131.186 11.2741 131.198 9.11214C131.198 6.3248 130.97 4.96686 130.185 3.1265C129.64 1.8579 129.348 1.37548 128.677 0.696511L128.183 0.17835H122.089C116.172 0.17835 115.982 0.196218 115.462 0.55357ZM127.157 5.46715C127.397 5.62796 127.714 6.02105 127.879 6.3248C128.132 6.82509 128.158 7.0931 128.158 9.11214C128.158 11.1312 128.132 11.4171 127.866 11.9888C127.347 13.1859 127.207 13.2217 122.722 13.2217H118.718V9.20148V5.18127H122.722C126.156 5.18127 126.789 5.21701 127.157 5.46715Z" fill="black"/>
</svg>
