<svg width="134" height="70" viewBox="0 0 134 70" fill="none" xmlns="http://www.w3.org/2000/svg">
<path d="M0.0295387 26.1256L0.0738467 52.2893H3.10156H6.12928L6.17359 26.1256L6.20313 -5.57108e-05H3.10156H0L0.0295387 26.1256Z" fill="#0070BA"/>
<path d="M7.45805 16.4278C7.41374 16.694 7.39897 24.8702 7.41374 34.6055L7.45805 52.2889L10.6039 52.4029L13.735 52.479V45.5578C13.735 39.0549 13.7055 38.4844 13.3954 37.1154C13.2181 36.2788 12.7603 35.0999 12.3763 34.4534C11.9923 33.8069 11.6821 33.0844 11.6821 32.8942C11.6673 32.6661 11.9479 32.2858 12.3024 32.0196C12.7455 31.6773 13.0409 31.1069 13.292 30.1562C13.6464 28.8252 13.6612 28.4829 13.7055 22.3603L13.7498 15.9715H10.6335C8.28514 15.9715 7.50236 16.0855 7.45805 16.4278Z" fill="#0070BA"/>
<path d="M15.0358 16.1616C15.0062 16.2757 14.9914 23.2349 15.021 31.6773C15.0505 40.0816 15.0653 48.2198 15.0653 49.7029V52.479H18.093H21.1207V34.2252V15.9715H18.1225C16.4684 15.9715 15.0801 16.0475 15.0358 16.1616Z" fill="#0070BA"/>
<path d="M22.3915 16.2765C22.2734 16.7709 22.3768 32.4766 22.4949 32.971C22.5835 33.3512 23.3368 33.4653 25.4045 33.4653C26.9257 33.4653 28.2845 33.3512 28.4174 33.2372C28.6242 33.047 28.6537 32.1724 28.6537 27.609C28.6537 24.6808 28.5799 21.6005 28.5208 20.7639C28.3288 18.7864 27.5904 16.923 26.7928 16.3906C26.0691 15.9343 22.5097 15.8202 22.3915 16.2765Z" fill="#0070BA"/>
<path d="M31.459 16.5804C31.0455 16.9227 30.6319 17.6832 30.3513 18.5199L29.9082 19.8889V33.9975V48.1062L30.2774 49.3611C30.9864 51.833 31.5624 52.2893 33.896 52.2893H35.9637V34.2257V16.1621L34.0437 16.086C32.6701 16.048 31.9316 16.1621 31.459 16.5804Z" fill="#0070BA"/>
<path d="M37.1455 16.4288C37.1012 16.695 37.0865 24.871 37.1012 34.6062L37.1455 52.2893H39.2133C41.1333 52.2893 41.3253 52.2133 42.0194 51.3386C43.3044 49.6273 43.2896 49.8935 43.2453 33.7696C43.201 20.2696 43.1862 19.8133 42.8908 18.7485C42.241 16.5429 41.7831 16.1626 39.4053 16.0485C37.6772 15.9344 37.2046 16.0105 37.1455 16.4288Z" fill="#0070BA"/>
<path d="M44.6778 16.4273C44.6335 16.6935 44.6187 24.8696 44.6335 34.6049L44.6778 52.2882L47.6169 52.4023C49.8027 52.4783 50.5855 52.3643 50.6741 52.022C50.7923 51.5276 50.8218 18.709 50.7037 16.9977L50.6298 15.971H47.6907C45.4605 15.971 44.7221 16.0851 44.6778 16.4273Z" fill="#0070BA"/>
<path d="M51.8403 34.2252V52.479H54.9419H58.0435V36.7351C58.0435 26.4674 57.9844 20.5729 57.881 19.8884C57.7924 19.318 57.5856 18.4053 57.4084 17.9489C56.8176 16.3137 56.2416 15.9715 53.9671 15.9715H51.8403V34.2252Z" fill="#0070BA"/>
<path d="M60.9248 16.542C60.5999 16.8463 60.3193 17.1125 60.3045 17.1125C60.3045 17.1125 60.083 17.9111 59.8319 18.8998L59.374 20.6491V33.9592C59.374 46.7748 59.3888 47.3072 59.6842 48.9045C59.95 50.2355 60.1568 50.6918 60.8657 51.5284C61.6633 52.4411 61.8405 52.4792 63.6129 52.4031L65.5034 52.289V34.2254V16.1617L63.5095 16.0857C62.0621 16.0096 61.3531 16.1617 60.9248 16.542Z" fill="#0070BA"/>
<path d="M66.6831 16.429C66.6388 16.6952 66.6241 24.8714 66.6388 34.6068L66.6831 52.2902L68.6031 52.3662C70.4345 52.4803 70.5675 52.4042 71.3355 51.4155C72.7828 49.5521 72.7385 50.1605 72.7828 35.4434C72.8124 28.4081 72.7976 21.9051 72.7385 21.0685C72.6351 19.2051 72.0444 17.3797 71.2911 16.5431C70.5822 15.7825 66.7865 15.7065 66.6831 16.429Z" fill="#0070BA"/>
<path d="M75.8114 16.3893C75.5456 16.5794 75.1172 17.4541 74.8071 18.4048L74.2902 20.04L74.2458 26.657L74.2163 33.2739L74.6446 34.9092C75.3388 37.5712 75.8705 38.1416 79.297 40.005C80.065 40.4233 80.7739 40.9937 80.8921 41.2599C81.2613 42.2487 81.3795 43.8078 81.3795 48.1431C81.3795 51.3375 81.4238 52.4783 81.5715 52.5164C81.6601 52.5164 82.7973 52.5164 84.0971 52.4783C86.2386 52.4403 86.4897 52.3262 87.0509 51.5276C88.1882 49.8924 88.2473 49.4741 88.2916 41.9825C88.3359 35.9359 88.3063 35.1754 88.0405 33.7303C87.5383 31.0303 86.5488 29.8514 83.8903 28.6725C81.4238 27.6077 81.2318 26.9612 81.2318 20.3443V15.971L78.7653 16.009C77.3917 16.009 76.0773 16.1991 75.8114 16.3893ZM80.5081 22.4358L80.5672 26.9992L81.0841 28.2922C81.5419 29.4331 81.8078 29.6993 83.3734 30.5359C84.3481 31.0683 85.3968 31.6387 85.6922 31.7528C86.4602 32.1331 87.2725 34.0725 87.4349 35.9359C87.5088 36.7726 87.5826 39.5106 87.5826 42.0205C87.5826 49.7022 87.1986 50.653 84.1118 50.5008L82.1918 50.3868L82.118 46.2036C82.0736 43.7698 81.9555 41.5642 81.8373 40.9557C81.5567 39.5867 80.8921 38.5599 80.0502 38.2176C77.2293 37.1148 75.7966 35.7458 75.324 33.7683C75.0582 32.6655 75.0286 31.8669 75.0286 26.9232C75.0286 23.5386 75.1025 20.9527 75.1911 20.3823C75.5308 18.4809 76.3579 17.8724 78.5142 17.8724H80.4638L80.5081 22.4358Z" fill="#0074B9"/>
<path d="M82.4131 21.1049V26.2388L85.3374 26.1627L88.2469 26.0486L88.2912 23.1204C88.3798 17.0739 87.8481 16.0852 84.5398 16.0091L82.4131 15.9331V21.1049ZM86.9177 18.7091C87.3608 19.2035 87.4789 20.1162 87.4051 22.474L87.3608 24.1472L85.4555 24.2613C84.1854 24.3373 83.4912 24.2233 83.3583 23.919C83.1515 23.4627 83.0629 19.0134 83.2549 18.519C83.4174 18.0627 86.5189 18.2148 86.9177 18.7091Z" fill="#0074B9"/>
<path d="M89.5029 42.9715V69.9717H92.6783H95.8538L95.8242 43.0476L95.7799 16.1616L92.6488 16.0475L89.5029 15.9714V42.9715ZM94.9824 42.9715C94.9676 56.4336 94.9381 67.4998 94.9085 67.5759C94.879 67.652 93.8304 67.728 92.5897 67.728L90.3152 67.766L90.2709 43.0096L90.2414 18.2911L92.4863 18.1771C93.727 18.101 94.8051 18.1771 94.8642 18.2911C94.9381 18.4052 94.9824 29.5475 94.9824 42.9715Z" fill="#0074B9"/>
<path d="M96.6661 16.4283C96.6217 16.6945 96.607 24.8706 96.6217 34.6059L96.6661 52.2892L98.6599 52.4032C100.388 52.4793 100.742 52.4032 101.407 51.7187C102.16 50.9201 102.766 49.5891 103.076 48.03C103.179 47.4595 103.238 43.0102 103.238 34.0355C103.238 19.6227 103.238 19.6607 102.352 17.7593C101.688 16.3142 101.023 15.9719 98.7633 15.9719C97.2716 15.9719 96.7104 16.086 96.6661 16.4283ZM101.392 18.786C101.673 19.0903 102.042 19.9269 102.205 20.6114C102.485 21.7903 102.5 22.5128 102.5 34.1496C102.5 45.9004 102.485 46.5088 102.205 47.5356C101.584 49.7412 101.082 50.1976 99.1916 50.1976H97.4784V34.2256V18.2536H99.1768C100.329 18.2536 101.053 18.4438 101.392 18.786Z" fill="#0074B9"/>
<path d="M105.971 16.3897C105.247 16.8461 104.464 18.7095 104.272 20.5349C104.198 21.2574 104.125 23.1209 104.125 24.604V27.3801H107.374H110.623V21.6758V15.9714L108.6 16.0094C107.477 16.0474 106.296 16.1996 105.971 16.3897ZM109.885 21.9039V25.0984H107.448H105.011V22.8927C105.011 20.9152 105.055 20.5729 105.469 19.5461C105.897 18.4813 105.971 18.4433 107.713 18.2531C108.703 18.1391 109.604 18.2151 109.707 18.4053C109.825 18.6334 109.885 19.8123 109.885 21.9039Z" fill="#0074B9"/>
<path d="M111.775 33.1604C111.746 42.6296 111.761 50.8438 111.79 51.4142L111.834 52.479H114.921H118.008V34.2252V15.9715H114.906H111.82L111.775 33.1604ZM117.196 34.2252V50.0071L114.877 50.1212L112.543 50.2353V34.2252V18.2151L114.877 18.3292L117.196 18.4433V34.2252Z" fill="#0074B9"/>
<path d="M119.189 34.2252V52.479H122.291C125.378 52.479 125.393 52.479 125.466 51.6043C125.511 51.148 125.525 42.9718 125.511 33.4647L125.466 16.1616L122.335 16.0475L119.189 15.9715V34.2252ZM124.565 18.3673C124.684 18.4814 124.713 23.0828 124.684 34.3773L124.654 50.2353L122.321 50.1212L120.002 50.0071L119.957 34.7957C119.943 26.4293 119.957 19.2419 119.987 18.8236C120.061 18.1011 120.179 18.063 122.232 18.1391C123.428 18.1771 124.477 18.2912 124.565 18.3673Z" fill="#0074B9"/>
<path d="M126.574 34.2252V52.479H130.044H133.515V36.1267V19.8124L133.057 18.4433C132.304 16.2377 131.876 15.9715 129.07 15.9715H126.574V34.2252ZM131.979 18.7856C132.142 18.9377 132.393 19.6222 132.526 20.2687C132.762 21.3715 132.777 22.8927 132.747 35.7464L132.703 50.0071H130.044H127.386V34.2252V18.4433L127.903 18.2532C128.538 18.025 131.551 18.4053 131.979 18.7856Z" fill="#0074B9"/>
<path d="M105.529 30.0039C104.244 32.0955 104.082 33.3504 104.156 41.6027C104.215 48.676 104.348 49.7408 105.47 51.338C106.076 52.2127 106.297 52.2887 108.38 52.4028L110.625 52.5549V40.9181V29.2814H108.306C106.282 29.2814 105.913 29.3954 105.529 30.0039ZM109.857 40.766L109.812 50.007L108.335 50.1211C106.445 50.2732 106.016 50.045 105.455 48.638L105.012 47.4591V40.9562C105.012 35.0997 105.042 34.3011 105.308 33.2744C105.47 32.6659 105.706 32.0194 105.854 31.8673C106.002 31.7532 106.962 31.6011 108.01 31.6011L109.886 31.5631L109.857 40.766Z" fill="#0074B9"/>
<path d="M74.2458 42.097C74.2015 42.2871 74.2015 43.8463 74.231 45.5956C74.2753 48.2957 74.3492 48.9802 74.6593 50.045C75.2206 51.9084 76.1806 52.5168 78.3665 52.4028L80.124 52.2887L80.1683 47.0407L80.2126 41.8308H77.2588C75.6341 41.8308 74.2753 41.9449 74.2458 42.097ZM79.3117 47.1548V50.1971H77.7314C75.708 50.1971 75.2501 49.6267 75.1024 47.0027C74.9252 44.0745 74.8957 44.1125 77.244 44.1125H79.3117V47.1548Z" fill="#0074B9"/>
</svg>
