<svg width="34" height="34" viewBox="0 0 34 34" fill="none" xmlns="http://www.w3.org/2000/svg">
<path d="M31.8046 24.5795C31.4579 24.2103 30.2341 23.1186 27.9842 21.6743C25.7178 20.2173 24.0463 19.3089 23.5669 19.097C23.5246 19.0783 23.4781 19.0714 23.4322 19.0772C23.3863 19.0829 23.3429 19.101 23.3066 19.1296C22.5342 19.7319 21.234 20.8382 21.1643 20.898C20.7141 21.2838 20.7141 21.2838 20.3455 21.1636C19.6974 20.9511 17.6839 19.882 15.9295 18.1235C14.175 16.3651 13.0508 14.3019 12.8383 13.6544C12.7167 13.2852 12.7167 13.2852 13.1039 12.8349C13.1637 12.7652 14.2707 11.465 14.873 10.6933C14.9015 10.657 14.9196 10.6136 14.9254 10.5677C14.9311 10.5218 14.9242 10.4753 14.9055 10.433C14.6937 9.95291 13.7852 8.28212 12.3283 6.01568C10.8819 3.7665 9.79155 2.54263 9.42233 2.19599C9.38845 2.16402 9.34657 2.14178 9.30111 2.13161C9.25565 2.12144 9.20829 2.12373 9.16401 2.13822C7.87339 2.58174 6.62814 3.14766 5.44526 3.82826C4.30336 4.49207 3.22227 5.25539 2.2146 6.10931C2.17942 6.13922 2.15305 6.17813 2.13831 6.22189C2.12357 6.26564 2.12102 6.31258 2.13093 6.35767C2.26972 7.00447 2.93311 9.70455 4.99171 13.4445C7.09214 17.2616 8.54776 19.2172 11.6323 22.2912C14.7169 25.3651 16.7343 26.9084 20.5553 29.0088C24.2953 31.0674 26.9967 31.7315 27.6422 31.869C27.6874 31.8788 27.7344 31.8762 27.7783 31.8615C27.8221 31.8467 27.8611 31.8204 27.8912 31.7853C28.745 30.7776 29.5081 29.6966 30.1716 28.5546C30.8521 27.3717 31.418 26.1264 31.8617 24.8359C31.8759 24.7919 31.8781 24.745 31.868 24.6999C31.858 24.6549 31.8361 24.6133 31.8046 24.5795Z" fill="url(#paint0_linear)"/>
<defs>
<linearGradient id="paint0_linear" x1="16.9996" y1="2.12537" x2="16.9996" y2="31.8748" gradientUnits="userSpaceOnUse">
<stop stop-color="#C69C6D"/>
<stop offset="1" stop-color="#D39F64"/>
</linearGradient>
</defs>
</svg>
