<svg width="635" height="63" viewBox="0 0 635 63" fill="none" xmlns="http://www.w3.org/2000/svg">
<path d="M40.144 1.2H1.68V46H7.504V4.72H34.32V46H40.144V1.2ZM84.1645 30.064C84.1645 32.2827 83.7805 34.416 83.0125 36.464C82.2445 38.4693 81.1352 40.24 79.6845 41.776C78.2765 43.312 76.5485 44.528 74.5005 45.424C72.4952 46.32 70.2338 46.768 67.7165 46.768C65.1565 46.768 62.8312 46.32 60.7405 45.424C58.6925 44.4853 56.9432 43.248 55.4925 41.712C54.0845 40.176 52.9752 38.4053 52.1645 36.4C51.3965 34.352 51.0125 32.24 51.0125 30.064C51.0125 27.8453 51.3965 25.7333 52.1645 23.728C52.9752 21.68 54.0845 19.888 55.4925 18.352C56.9432 16.816 58.6925 15.6 60.7405 14.704C62.8312 13.7653 65.1565 13.296 67.7165 13.296C70.2338 13.296 72.4952 13.7653 74.5005 14.704C76.5485 15.6 78.2765 16.816 79.6845 18.352C81.1352 19.888 82.2445 21.68 83.0125 23.728C83.7805 25.7333 84.1645 27.8453 84.1645 30.064ZM78.0845 30.064C78.0845 27.0773 77.7645 24.6667 77.1245 22.832C76.4845 20.9547 75.6525 19.504 74.6285 18.48C73.6045 17.456 72.4738 16.7733 71.2365 16.432C69.9992 16.048 68.8045 15.856 67.6525 15.856C66.5005 15.856 65.3058 16.048 64.0685 16.432C62.8312 16.7733 61.6792 17.456 60.6125 18.48C59.5885 19.504 58.7352 20.9547 58.0525 22.832C57.4125 24.6667 57.0925 27.0773 57.0925 30.064C57.0925 33.008 57.4125 35.4187 58.0525 37.296C58.7352 39.1307 59.5885 40.56 60.6125 41.584C61.6792 42.608 62.8312 43.312 64.0685 43.696C65.3058 44.0373 66.5005 44.208 67.6525 44.208C68.8045 44.208 69.9992 44.0373 71.2365 43.696C72.4738 43.312 73.6045 42.608 74.6285 41.584C75.6525 40.56 76.4845 39.1307 77.1245 37.296C77.7645 35.4187 78.0845 33.008 78.0845 30.064ZM108.559 43.44C107.023 43.44 105.53 43.2053 104.079 42.736C102.671 42.2667 101.412 41.52 100.303 40.496C99.1937 39.4293 98.2977 38.0427 97.615 36.336C96.975 34.5867 96.655 32.4533 96.655 29.936C96.655 27.3333 97.0177 25.136 97.743 23.344C98.4683 21.5093 99.3643 20.0587 100.431 18.992C101.54 17.8827 102.756 17.0933 104.079 16.624C105.402 16.112 106.66 15.856 107.855 15.856C109.818 15.856 111.524 16.368 112.975 17.392C114.426 18.416 115.386 19.6747 115.855 21.168H120.271C119.844 19.632 119.162 18.3733 118.223 17.392C117.284 16.368 116.196 15.5573 114.959 14.96C113.764 14.32 112.463 13.8933 111.055 13.68C109.69 13.424 108.367 13.296 107.087 13.296C104.399 13.296 102.031 13.744 99.983 14.64C97.935 15.4933 96.207 16.6667 94.799 18.16C93.391 19.6533 92.3243 21.4027 91.599 23.408C90.9163 25.4133 90.575 27.5467 90.575 29.808C90.575 32.1973 90.959 34.4373 91.727 36.528C92.495 38.576 93.583 40.368 94.991 41.904C96.4417 43.3973 98.1697 44.592 100.175 45.488C102.18 46.3413 104.442 46.768 106.959 46.768C109.775 46.768 112.228 46.2987 114.319 45.36C116.452 44.4213 118.244 43.3973 119.695 42.288L117.839 39.856C116.346 41.0933 114.852 42.0107 113.359 42.608C111.908 43.1627 110.308 43.44 108.559 43.44ZM145.676 14H141.836L132.108 38.128C131.894 38.5973 131.66 39.152 131.404 39.792C131.148 40.3893 130.849 40.9653 130.508 41.52C130.166 42.0747 129.761 42.544 129.292 42.928C128.865 43.2693 128.396 43.44 127.884 43.44C127.286 43.44 126.668 43.2693 126.028 42.928C125.388 42.5867 124.876 42.2453 124.492 41.904L123.468 45.296C124.449 46.2347 125.836 46.704 127.628 46.704C128.438 46.704 129.164 46.576 129.804 46.32C130.444 46.1067 131.041 45.7013 131.595 45.104C132.15 44.464 132.684 43.6533 133.196 42.672C133.75 41.648 134.326 40.368 134.924 38.832L142.284 20.336H142.668L152.908 46H158.668L145.676 14ZM193.474 31.408V30.064C193.474 27.2053 193.068 24.7307 192.257 22.64C191.447 20.5493 190.338 18.8213 188.93 17.456C187.564 16.0907 185.964 15.0667 184.13 14.384C182.295 13.7013 180.354 13.36 178.306 13.36C176.13 13.36 174.124 13.744 172.29 14.512C170.455 15.2373 168.855 16.3253 167.49 17.776C166.124 19.184 165.058 20.912 164.29 22.96C163.522 24.9653 163.138 27.248 163.138 29.808C163.138 31.9413 163.458 34.032 164.098 36.08C164.78 38.0853 165.783 39.8987 167.106 41.52C168.471 43.0987 170.178 44.3787 172.226 45.36C174.316 46.2987 176.77 46.768 179.586 46.768C182.316 46.768 184.834 46.2987 187.138 45.36C189.442 44.3787 191.447 42.992 193.154 41.2L191.106 39.152C190.21 39.92 189.356 40.624 188.546 41.264C187.778 41.904 186.988 42.4373 186.178 42.864C185.367 43.2907 184.514 43.632 183.618 43.888C182.764 44.1013 181.804 44.208 180.738 44.208C179.543 44.208 178.263 44.0373 176.898 43.696C175.575 43.312 174.338 42.6507 173.186 41.712C172.034 40.7733 171.074 39.472 170.306 37.808C169.538 36.144 169.154 34.0107 169.154 31.408H193.474ZM169.154 28.848C169.154 27.1413 169.324 25.4987 169.666 23.92C170.05 22.2987 170.604 20.8693 171.33 19.632C172.098 18.3947 173.058 17.4133 174.21 16.688C175.362 15.92 176.727 15.536 178.306 15.536C181.335 15.536 183.682 16.7307 185.346 19.12C187.052 21.4667 187.906 24.7093 187.906 28.848H169.154ZM230.032 43.44L217.744 14H213.904L201.936 43.44H197.328V52.72H201.808V46H229.968V52.72H234.448V43.44H230.032ZM214.352 20.336H214.736L224.272 43.44H204.944L214.352 20.336ZM245.623 30.704H261.815V46H267.255V14H261.815V28.528H245.623V14H240.183V46H245.623V30.704ZM282.935 42.224V14H277.495V46H283.895L300.215 17.968V46H305.655V14H299.255L282.935 42.224ZM344.286 31.408V30.064C344.286 27.2053 343.881 24.7307 343.07 22.64C342.259 20.5493 341.15 18.8213 339.742 17.456C338.377 16.0907 336.777 15.0667 334.942 14.384C333.107 13.7013 331.166 13.36 329.118 13.36C326.942 13.36 324.937 13.744 323.102 14.512C321.267 15.2373 319.667 16.3253 318.302 17.776C316.937 19.184 315.87 20.912 315.102 22.96C314.334 24.9653 313.95 27.248 313.95 29.808C313.95 31.9413 314.27 34.032 314.91 36.08C315.593 38.0853 316.595 39.8987 317.918 41.52C319.283 43.0987 320.99 44.3787 323.038 45.36C325.129 46.2987 327.582 46.768 330.398 46.768C333.129 46.768 335.646 46.2987 337.95 45.36C340.254 44.3787 342.259 42.992 343.966 41.2L341.918 39.152C341.022 39.92 340.169 40.624 339.358 41.264C338.59 41.904 337.801 42.4373 336.99 42.864C336.179 43.2907 335.326 43.632 334.43 43.888C333.577 44.1013 332.617 44.208 331.55 44.208C330.355 44.208 329.075 44.0373 327.71 43.696C326.387 43.312 325.15 42.6507 323.998 41.712C322.846 40.7733 321.886 39.472 321.118 37.808C320.35 36.144 319.966 34.0107 319.966 31.408H344.286ZM319.966 28.848C319.966 27.1413 320.137 25.4987 320.478 23.92C320.862 22.2987 321.417 20.8693 322.142 19.632C322.91 18.3947 323.87 17.4133 325.022 16.688C326.174 15.92 327.539 15.536 329.118 15.536C332.147 15.536 334.494 16.7307 336.158 19.12C337.865 21.4667 338.718 24.7093 338.718 28.848H319.966ZM380.435 16.56H395.347V46H400.787V14H374.995V46H380.435V16.56ZM411.058 62H416.498V40.752H416.754C417.18 41.8613 417.735 42.8 418.418 43.568C419.143 44.336 419.954 44.9547 420.85 45.424C421.746 45.8933 422.684 46.2347 423.666 46.448C424.69 46.6613 425.714 46.768 426.738 46.768C428.871 46.768 430.834 46.384 432.626 45.616C434.418 44.8053 435.954 43.6747 437.234 42.224C438.556 40.7733 439.58 39.024 440.306 36.976C441.031 34.8853 441.394 32.5813 441.394 30.064C441.394 27.504 441.031 25.2 440.306 23.152C439.58 21.104 438.556 19.3547 437.234 17.904C435.954 16.4107 434.418 15.28 432.626 14.512C430.834 13.7013 428.871 13.296 426.738 13.296C421.66 13.296 418.332 15.2587 416.754 19.184H416.498V14H411.058V62ZM416.498 26.8C416.498 25.392 416.711 24.0693 417.138 22.832C417.607 21.552 418.247 20.464 419.058 19.568C419.868 18.6293 420.807 17.904 421.874 17.392C422.983 16.8373 424.156 16.56 425.394 16.56C426.716 16.56 427.975 16.816 429.17 17.328C430.407 17.7973 431.474 18.5653 432.37 19.632C433.266 20.6987 433.97 22.0853 434.482 23.792C435.036 25.4987 435.314 27.5467 435.314 29.936C435.314 32.368 435.036 34.4373 434.482 36.144C433.97 37.8507 433.244 39.2587 432.306 40.368C431.41 41.4347 430.364 42.224 429.17 42.736C427.975 43.2053 426.716 43.44 425.394 43.44C424.199 43.44 423.068 43.2053 422.002 42.736C420.935 42.224 419.996 41.4987 419.186 40.56C418.375 39.5787 417.714 38.4053 417.202 37.04C416.732 35.6747 416.498 34.1173 416.498 32.368V26.8ZM480.915 30.064C480.915 32.2827 480.531 34.416 479.763 36.464C478.995 38.4693 477.885 40.24 476.435 41.776C475.027 43.312 473.299 44.528 471.251 45.424C469.245 46.32 466.984 46.768 464.467 46.768C461.907 46.768 459.581 46.32 457.491 45.424C455.443 44.4853 453.693 43.248 452.243 41.712C450.835 40.176 449.725 38.4053 448.915 36.4C448.147 34.352 447.763 32.24 447.763 30.064C447.763 27.8453 448.147 25.7333 448.915 23.728C449.725 21.68 450.835 19.888 452.243 18.352C453.693 16.816 455.443 15.6 457.491 14.704C459.581 13.7653 461.907 13.296 464.467 13.296C466.984 13.296 469.245 13.7653 471.251 14.704C473.299 15.6 475.027 16.816 476.435 18.352C477.885 19.888 478.995 21.68 479.763 23.728C480.531 25.7333 480.915 27.8453 480.915 30.064ZM474.835 30.064C474.835 27.0773 474.515 24.6667 473.875 22.832C473.235 20.9547 472.403 19.504 471.379 18.48C470.355 17.456 469.224 16.7733 467.987 16.432C466.749 16.048 465.555 15.856 464.403 15.856C463.251 15.856 462.056 16.048 460.819 16.432C459.581 16.7733 458.429 17.456 457.363 18.48C456.339 19.504 455.485 20.9547 454.803 22.832C454.163 24.6667 453.843 27.0773 453.843 30.064C453.843 33.008 454.163 35.4187 454.803 37.296C455.485 39.1307 456.339 40.56 457.363 41.584C458.429 42.608 459.581 43.312 460.819 43.696C462.056 44.0373 463.251 44.208 464.403 44.208C465.555 44.208 466.749 44.0373 467.987 43.696C469.224 43.312 470.355 42.608 471.379 41.584C472.403 40.56 473.235 39.1307 473.875 37.296C474.515 35.4187 474.835 33.008 474.835 30.064ZM517.661 31.408V30.064C517.661 27.2053 517.256 24.7307 516.445 22.64C515.634 20.5493 514.525 18.8213 513.117 17.456C511.752 16.0907 510.152 15.0667 508.317 14.384C506.482 13.7013 504.541 13.36 502.493 13.36C500.317 13.36 498.312 13.744 496.477 14.512C494.642 15.2373 493.042 16.3253 491.677 17.776C490.312 19.184 489.245 20.912 488.477 22.96C487.709 24.9653 487.325 27.248 487.325 29.808C487.325 31.9413 487.645 34.032 488.285 36.08C488.968 38.0853 489.97 39.8987 491.293 41.52C492.658 43.0987 494.365 44.3787 496.413 45.36C498.504 46.2987 500.957 46.768 503.773 46.768C506.504 46.768 509.021 46.2987 511.325 45.36C513.629 44.3787 515.634 42.992 517.341 41.2L515.293 39.152C514.397 39.92 513.544 40.624 512.733 41.264C511.965 41.904 511.176 42.4373 510.365 42.864C509.554 43.2907 508.701 43.632 507.805 43.888C506.952 44.1013 505.992 44.208 504.925 44.208C503.73 44.208 502.45 44.0373 501.085 43.696C499.762 43.312 498.525 42.6507 497.373 41.712C496.221 40.7733 495.261 39.472 494.493 37.808C493.725 36.144 493.341 34.0107 493.341 31.408H517.661ZM493.341 28.848C493.341 27.1413 493.512 25.4987 493.853 23.92C494.237 22.2987 494.792 20.8693 495.517 19.632C496.285 18.3947 497.245 17.4133 498.397 16.688C499.549 15.92 500.914 15.536 502.493 15.536C505.522 15.536 507.869 16.7307 509.533 19.12C511.24 21.4667 512.093 24.7093 512.093 28.848H493.341ZM531.435 30.512V14H525.995V46H531.435V34.736L534.955 31.024L542.891 41.456C543.403 42.096 543.936 42.736 544.491 43.376C545.046 44.016 545.643 44.592 546.283 45.104C546.923 45.616 547.606 46.0213 548.331 46.32C549.099 46.6187 549.91 46.768 550.763 46.768C551.531 46.768 552.278 46.6827 553.003 46.512C553.728 46.3413 554.368 46.1707 554.923 46V43.44H553.131C552.619 43.44 552.086 43.2907 551.531 42.992C550.976 42.6933 550.4 42.3093 549.803 41.84C549.248 41.328 548.694 40.7947 548.139 40.24C547.627 39.6427 547.158 39.0667 546.731 38.512L538.347 27.568L551.339 14H547.307L531.435 30.512ZM570.268 46H575.708V16.56H588.507V14H557.468V16.56H570.268V46ZM594.933 14V46H611.765C612.917 46 614.047 45.808 615.157 45.424C616.309 45.04 617.311 44.4853 618.165 43.76C619.018 42.992 619.701 42.096 620.213 41.072C620.767 40.0053 621.045 38.8107 621.045 37.488C621.045 35.312 620.554 33.6267 619.573 32.432C618.634 31.2373 617.482 30.3627 616.117 29.808C614.751 29.2107 613.322 28.848 611.829 28.72C610.335 28.592 609.077 28.528 608.053 28.528H600.373V14H594.933ZM627.765 14V46H633.205V14H627.765ZM600.373 43.568V30.704H607.733C608.117 30.704 608.714 30.7467 609.525 30.832C610.335 30.9173 611.146 31.1947 611.957 31.664C612.81 32.0907 613.557 32.7733 614.197 33.712C614.837 34.608 615.157 35.888 615.157 37.552C615.157 39.5573 614.517 41.072 613.237 42.096C611.999 43.0773 610.549 43.568 608.885 43.568H600.373Z" fill="#333333"/>
<path d="M40.144 1.2H41.144V0.199997H40.144V1.2ZM1.68 1.2V0.199997H0.68V1.2H1.68ZM1.68 46H0.68V47H1.68V46ZM7.504 46V47H8.504V46H7.504ZM7.504 4.72V3.72H6.504V4.72H7.504ZM34.32 4.72H35.32V3.72H34.32V4.72ZM34.32 46H33.32V47H34.32V46ZM40.144 46V47H41.144V46H40.144ZM40.144 0.199997H1.68V2.2H40.144V0.199997ZM0.68 1.2V46H2.68V1.2H0.68ZM1.68 47H7.504V45H1.68V47ZM8.504 46V4.72H6.504V46H8.504ZM7.504 5.72H34.32V3.72H7.504V5.72ZM33.32 4.72V46H35.32V4.72H33.32ZM34.32 47H40.144V45H34.32V47ZM41.144 46V1.2H39.144V46H41.144ZM83.0125 36.464L83.9464 36.8217L83.9488 36.8151L83.0125 36.464ZM79.6845 41.776L78.9575 41.0894L78.9524 41.0948L78.9473 41.1003L79.6845 41.776ZM74.5005 45.424L74.0997 44.5078L74.0926 44.511L74.5005 45.424ZM60.7405 45.424L60.3238 46.3331L60.3352 46.3382L60.3466 46.3431L60.7405 45.424ZM55.4925 41.712L54.7553 42.3877L54.7604 42.3932L54.7655 42.3986L55.4925 41.712ZM52.1645 36.4L51.2282 36.7511L51.2326 36.763L51.2374 36.7748L52.1645 36.4ZM52.1645 23.728L51.2346 23.3599L51.2306 23.3703L52.1645 23.728ZM55.4925 18.352L54.7655 17.6654L54.7604 17.6708L54.7553 17.6763L55.4925 18.352ZM60.7405 14.704L61.1413 15.6202L61.1501 15.6163L60.7405 14.704ZM74.5005 14.704L74.0766 15.6097L74.0881 15.6151L74.0997 15.6202L74.5005 14.704ZM79.6845 18.352L78.9473 19.0277L78.9524 19.0332L78.9575 19.0386L79.6845 18.352ZM83.0125 23.728L82.0761 24.0791L82.0786 24.0856L83.0125 23.728ZM77.1245 22.832L76.178 23.1547L76.1803 23.1614L77.1245 22.832ZM71.2365 16.432L70.9401 17.3871L70.9553 17.3918L70.9706 17.396L71.2365 16.432ZM64.0685 16.432L64.3344 17.396L64.3497 17.3918L64.3649 17.3871L64.0685 16.432ZM60.6125 18.48L59.92 17.7586L59.9126 17.7657L59.9054 17.7729L60.6125 18.48ZM58.0525 22.832L57.1126 22.4902L57.1083 22.5026L58.0525 22.832ZM58.0525 37.296L57.106 37.6187L57.1105 37.6318L57.1153 37.6447L58.0525 37.296ZM60.6125 41.584L59.9054 42.2911L59.9126 42.2983L59.92 42.3054L60.6125 41.584ZM64.0685 43.696L63.7721 44.6511L63.7873 44.6558L63.8026 44.66L64.0685 43.696ZM71.2365 43.696L71.5024 44.66L71.5177 44.6558L71.5329 44.6511L71.2365 43.696ZM74.6285 41.584L75.3356 42.2911L74.6285 41.584ZM77.1245 37.296L78.0687 37.6254L78.071 37.6187L77.1245 37.296ZM83.1645 30.064C83.1645 32.1645 82.8015 34.1788 82.0762 36.1129L83.9488 36.8151C84.7595 34.6532 85.1645 32.4008 85.1645 30.064H83.1645ZM82.0786 36.1064C81.3566 37.9916 80.3169 39.65 78.9575 41.0894L80.4115 42.4626C81.9535 40.83 83.1324 38.9471 83.9464 36.8216L82.0786 36.1064ZM78.9473 41.1003C77.6402 42.5263 76.0295 43.6636 74.0997 44.5078L74.9013 46.3402C77.0675 45.3924 78.9128 44.0977 80.4217 42.4517L78.9473 41.1003ZM74.0926 44.511C72.233 45.3418 70.1137 45.768 67.7165 45.768V47.768C70.354 47.768 72.7573 47.2982 74.9084 46.337L74.0926 44.511ZM67.7165 45.768C65.2749 45.768 63.0859 45.3412 61.1344 44.5049L60.3466 46.3431C62.5764 47.2988 65.0381 47.768 67.7165 47.768V45.768ZM61.1572 44.5149C59.2181 43.6262 57.5762 42.4619 56.2195 41.0254L54.7655 42.3986C56.3101 44.0341 58.1669 45.3445 60.3238 46.3331L61.1572 44.5149ZM56.2297 41.0363C54.9055 39.5918 53.8592 37.924 53.0916 36.0252L51.2374 36.7748C52.0911 38.8867 53.2635 40.7602 54.7553 42.3877L56.2297 41.0363ZM53.1008 36.0489C52.3747 34.1126 52.0125 32.1195 52.0125 30.064H50.0125C50.0125 32.3605 50.4183 34.5914 51.2282 36.7511L53.1008 36.0489ZM52.0125 30.064C52.0125 27.9635 52.3755 25.973 53.0984 24.0856L51.2306 23.3703C50.4175 25.4936 50.0125 27.7272 50.0125 30.064H52.0125ZM53.0943 24.096C53.8627 22.155 54.9087 20.4687 56.2297 19.0277L54.7553 17.6763C53.2603 19.3073 52.0877 21.205 51.2347 23.36L53.0943 24.096ZM56.2195 19.0386C57.5727 17.6059 59.2091 16.4655 61.1413 15.6202L60.3397 13.7878C58.1759 14.7345 56.3137 16.0261 54.7655 17.6654L56.2195 19.0386ZM61.1501 15.6163C63.0976 14.7419 65.2811 14.296 67.7165 14.296V12.296C65.0319 12.296 62.5647 12.7888 60.3309 13.7917L61.1501 15.6163ZM67.7165 14.296C70.1074 14.296 72.221 14.7411 74.0766 15.6097L74.9244 13.7983C72.7693 12.7895 70.3603 12.296 67.7165 12.296V14.296ZM74.0997 15.6202C76.0295 16.4644 77.6402 17.6017 78.9473 19.0277L80.4217 17.6763C78.9128 16.0303 77.0675 14.7356 74.9013 13.7878L74.0997 15.6202ZM78.9575 19.0386C80.3135 20.4744 81.3532 22.1513 82.0762 24.0791L83.9488 23.3769C83.1358 21.2087 81.9568 19.3016 80.4115 17.6654L78.9575 19.0386ZM82.0786 24.0856C82.8015 25.973 83.1645 27.9635 83.1645 30.064H85.1645C85.1645 27.7272 84.7595 25.4936 83.9464 23.3703L82.0786 24.0856ZM79.0845 30.064C79.0845 27.0188 78.7599 24.4841 78.0687 22.5026L76.1803 23.1614C76.7691 24.8492 77.0845 27.1359 77.0845 30.064H79.0845ZM78.071 22.5093C77.3989 20.5378 76.5001 18.9374 75.3356 17.7729L73.9214 19.1871C74.8049 20.0706 75.5701 21.3715 76.178 23.1547L78.071 22.5093ZM75.3356 17.7729C74.2052 16.6425 72.9271 15.861 71.5024 15.468L70.9706 17.396C72.0206 17.6857 73.0038 18.2695 73.9214 19.1871L75.3356 17.7729ZM71.5329 15.4769C70.2114 15.0668 68.9166 14.856 67.6525 14.856V16.856C68.6924 16.856 69.787 17.0292 70.9401 17.3871L71.5329 15.4769ZM67.6525 14.856C66.3884 14.856 65.0936 15.0668 63.7721 15.4769L64.3649 17.3871C65.518 17.0292 66.6126 16.856 67.6525 16.856V14.856ZM63.8026 15.468C62.3822 15.8598 61.0881 16.6372 59.92 17.7586L61.305 19.2014C62.2702 18.2748 63.2801 17.6868 64.3344 17.396L63.8026 15.468ZM59.9054 17.7729C58.7467 18.9316 57.8275 20.5246 57.1127 22.4903L58.9923 23.1737C59.6428 21.3847 60.4304 20.0764 61.3196 19.1871L59.9054 17.7729ZM57.1083 22.5026C56.4171 24.4841 56.0925 27.0188 56.0925 30.064H58.0925C58.0925 27.1359 58.4079 24.8492 58.9967 23.1614L57.1083 22.5026ZM56.0925 30.064C56.0925 33.0699 56.4179 35.6002 57.106 37.6187L58.999 36.9733C58.4071 35.2372 58.0925 32.9461 58.0925 30.064H56.0925ZM57.1153 37.6447C57.8314 39.5692 58.7508 41.1365 59.9054 42.2911L61.3196 40.8769C60.4262 39.9835 59.639 38.6921 58.9897 36.9473L57.1153 37.6447ZM59.92 42.3054C61.0828 43.4217 62.3666 44.2149 63.7721 44.6511L64.3649 42.7409C63.2957 42.4091 62.2755 41.7943 61.305 40.8626L59.92 42.3054ZM63.8026 44.66C65.1168 45.0225 66.4011 45.208 67.6525 45.208V43.208C66.5999 43.208 65.4949 43.0521 64.3344 42.732L63.8026 44.66ZM67.6525 45.208C68.9039 45.208 70.1882 45.0225 71.5024 44.66L70.9706 42.732C69.8101 43.0521 68.7051 43.208 67.6525 43.208V45.208ZM71.5329 44.6511C72.9427 44.2135 74.2106 43.4161 75.3356 42.2911L73.9214 40.8769C72.9984 41.7999 72.0049 42.4105 70.9401 42.7409L71.5329 44.6511ZM75.3356 42.2911C76.496 41.1307 77.3952 39.556 78.0687 37.6254L76.1803 36.9666C75.5738 38.7054 74.809 39.9893 73.9214 40.8769L75.3356 42.2911ZM78.071 37.6187C78.7591 35.6002 79.0845 33.0699 79.0845 30.064H77.0845C77.0845 32.9461 76.7699 35.2372 76.178 36.9733L78.071 37.6187ZM104.079 42.736L103.763 43.6847L103.771 43.6874L104.079 42.736ZM100.303 40.496L99.6099 41.2168L99.6172 41.2239L99.6247 41.2308L100.303 40.496ZM97.615 36.336L96.6759 36.6796L96.681 36.6936L96.6865 36.7074L97.615 36.336ZM97.743 23.344L98.67 23.7192L98.673 23.7117L97.743 23.344ZM100.431 18.992L101.138 19.6991L100.431 18.992ZM104.079 16.624L104.413 17.5664L104.427 17.5617L104.44 17.5566L104.079 16.624ZM112.975 17.392L113.552 16.575L112.975 17.392ZM115.855 21.168L114.901 21.4678L115.121 22.168H115.855V21.168ZM120.271 21.168V22.168H121.587L121.235 20.9004L120.271 21.168ZM118.223 17.392L117.486 18.0677L117.493 18.0755L117.5 18.0832L118.223 17.392ZM114.959 14.96L114.487 15.8415L114.505 15.8514L114.524 15.8605L114.959 14.96ZM111.055 13.68L110.871 14.6629L110.888 14.6661L110.905 14.6687L111.055 13.68ZM99.983 14.64L100.368 15.5631L100.376 15.5597L100.384 15.5562L99.983 14.64ZM94.799 18.16L94.0714 17.474L94.799 18.16ZM91.599 23.408L90.6586 23.0679L90.6554 23.0768L90.6524 23.0857L91.599 23.408ZM91.727 36.528L90.7883 36.8728L90.7907 36.8791L91.727 36.528ZM94.991 41.904L94.2538 42.5797L94.2636 42.5904L94.2737 42.6008L94.991 41.904ZM100.175 45.488L99.7671 46.401L99.7752 46.4047L99.7834 46.4082L100.175 45.488ZM114.319 45.36L113.916 44.4447L113.909 44.4477L114.319 45.36ZM119.695 42.288L120.302 43.0824L121.096 42.4755L120.49 41.6813L119.695 42.288ZM117.839 39.856L118.634 39.2493L118.002 38.4219L117.201 39.086L117.839 39.856ZM113.359 42.608L113.716 43.5421L113.723 43.5393L113.73 43.5365L113.359 42.608ZM108.559 42.44C107.127 42.44 105.737 42.2215 104.387 41.7846L103.771 43.6874C105.322 44.1892 106.919 44.44 108.559 44.44V42.44ZM104.395 41.7873C103.124 41.3636 101.988 40.6908 100.981 39.7612L99.6247 41.2308C100.836 42.3492 102.218 43.1697 103.763 43.6847L104.395 41.7873ZM100.996 39.7752C100.007 38.8242 99.1835 37.5646 98.5435 35.9646L96.6865 36.7074C97.4118 38.5207 98.3802 40.0345 99.6099 41.2168L100.996 39.7752ZM98.5541 35.9924C97.9658 34.3843 97.655 32.3746 97.655 29.936H95.655C95.655 32.532 95.9842 34.789 96.6759 36.6796L98.5541 35.9924ZM97.655 29.936C97.655 27.42 98.0064 25.3585 98.6699 23.7192L96.8161 22.9688C96.0289 24.9135 95.655 27.2466 95.655 29.936H97.655ZM98.673 23.7117C99.3628 21.9668 100.193 20.6442 101.138 19.6991L99.7239 18.2849C98.5357 19.4731 97.5739 21.0518 96.813 22.9763L98.673 23.7117ZM101.138 19.6991C102.155 18.6825 103.247 17.9804 104.413 17.5664L103.745 15.6816C102.266 16.2062 100.926 17.0829 99.7239 18.2849L101.138 19.6991ZM104.44 17.5566C105.669 17.081 106.805 16.856 107.855 16.856V14.856C106.516 14.856 105.135 15.143 103.718 15.6914L104.44 17.5566ZM107.855 16.856C109.634 16.856 111.134 17.3165 112.398 18.209L113.552 16.575C111.915 15.4195 110.001 14.856 107.855 14.856V16.856ZM112.398 18.209C113.695 19.1244 114.506 20.2112 114.901 21.4678L116.809 20.8682C116.265 19.1381 115.156 17.7076 113.552 16.575L112.398 18.209ZM115.855 22.168H120.271V20.168H115.855V22.168ZM121.235 20.9004C120.771 19.2331 120.017 17.8204 118.946 16.7008L117.5 18.0832C118.307 18.9262 118.917 20.0309 119.307 21.4356L121.235 20.9004ZM118.96 16.7163C117.937 15.5999 116.747 14.7125 115.394 14.0594L114.524 15.8605C115.646 16.4022 116.632 17.1361 117.486 18.0677L118.96 16.7163ZM115.431 14.0785C114.131 13.382 112.72 12.9208 111.205 12.6913L110.905 14.6687C112.206 14.8658 113.398 15.258 114.487 15.8415L115.431 14.0785ZM111.239 12.6971C109.818 12.4307 108.434 12.296 107.087 12.296V14.296C108.3 14.296 109.561 14.4173 110.871 14.6629L111.239 12.6971ZM107.087 12.296C104.288 12.296 101.779 12.7625 99.5822 13.7238L100.384 15.5562C102.283 14.7255 104.51 14.296 107.087 14.296V12.296ZM99.5984 13.7169C97.4313 14.6199 95.5834 15.8703 94.0714 17.474L95.5266 18.846C96.8306 17.463 98.4387 16.3668 100.368 15.5631L99.5984 13.7169ZM94.0714 17.474C92.5659 19.0707 91.4286 20.939 90.6586 23.0679L92.5394 23.7481C93.22 21.8663 94.2161 20.2359 95.5266 18.846L94.0714 17.474ZM90.6524 23.0857C89.932 25.2016 89.575 27.4445 89.575 29.808H91.575C91.575 27.6489 91.9006 25.625 92.5456 23.7303L90.6524 23.0857ZM89.575 29.808C89.575 32.3064 89.9769 34.6639 90.7883 36.8728L92.6657 36.1832C91.9411 34.2108 91.575 32.0883 91.575 29.808H89.575ZM90.7907 36.8791C91.6014 39.041 92.755 40.9446 94.2538 42.5797L95.7282 41.2283C94.411 39.7914 93.3886 38.111 92.6633 36.1769L90.7907 36.8791ZM94.2737 42.6008C95.8176 44.1901 97.6523 45.4561 99.7671 46.401L100.583 44.575C98.687 43.7279 97.0657 42.6046 95.7083 41.2072L94.2737 42.6008ZM99.7834 46.4082C101.93 47.3217 104.328 47.768 106.959 47.768V45.768C104.556 45.768 102.43 45.361 100.567 44.5678L99.7834 46.4082ZM106.959 47.768C109.885 47.768 112.483 47.2804 114.729 46.2723L113.909 44.4477C111.973 45.3169 109.665 45.768 106.959 45.768V47.768ZM114.722 46.2753C116.909 45.313 118.774 44.2511 120.302 43.0824L119.088 41.4936C117.715 42.5435 115.996 43.5297 113.916 44.4447L114.722 46.2753ZM120.49 41.6813L118.634 39.2493L117.044 40.4627L118.9 42.8947L120.49 41.6813ZM117.201 39.086C115.772 40.2701 114.367 41.1278 112.988 41.6795L113.73 43.5365C115.338 42.8935 116.92 41.9165 118.477 40.626L117.201 39.086ZM113.002 41.6739C111.679 42.1799 110.202 42.44 108.559 42.44V44.44C110.415 44.44 112.138 44.1455 113.716 43.5421L113.002 41.6739ZM145.676 14L146.602 13.6238L146.349 13H145.676V14ZM141.835 14V13H141.16L140.908 13.6261L141.835 14ZM132.107 38.128L133.018 38.5418L133.027 38.5221L133.035 38.5019L132.107 38.128ZM131.404 39.792L132.323 40.1859L132.327 40.1747L132.332 40.1634L131.404 39.792ZM130.508 41.52L131.359 42.0441L130.508 41.52ZM129.292 42.928L129.916 43.7089L129.925 43.702L129.292 42.928ZM126.027 42.928L125.557 43.8104L126.027 42.928ZM124.492 41.904L125.156 41.1566L123.986 40.1171L123.534 41.615L124.492 41.904ZM123.467 45.296L122.51 45.007L122.333 45.5945L122.776 46.0186L123.467 45.296ZM129.803 46.32L129.487 45.3713L129.459 45.3806L129.432 45.3915L129.803 46.32ZM131.596 45.104L132.328 45.7845L132.34 45.7719L132.351 45.7589L131.596 45.104ZM133.195 42.672L132.316 42.1957L132.313 42.2025L132.309 42.2094L133.195 42.672ZM134.924 38.832L133.994 38.4623L133.992 38.4696L134.924 38.832ZM142.284 20.336V19.336H141.605L141.354 19.9663L142.284 20.336ZM142.667 20.336L143.596 19.9654L143.345 19.336H142.667V20.336ZM152.908 46L151.979 46.3706L152.23 47H152.908V46ZM158.668 46V47H160.153L159.594 45.6238L158.668 46ZM145.676 13H141.835V15H145.676V13ZM140.908 13.6261L131.18 37.7541L133.035 38.5019L142.763 14.3739L140.908 13.6261ZM131.197 37.7142C130.976 38.2013 130.735 38.7708 130.475 39.4206L132.332 40.1634C132.584 39.5332 132.813 38.9934 133.018 38.5418L131.197 37.7142ZM130.484 39.3981C130.248 39.9503 129.972 40.4828 129.656 40.9959L131.359 42.0441C131.726 41.4478 132.047 40.8283 132.323 40.1859L130.484 39.3981ZM129.656 40.9959C129.369 41.4627 129.035 41.8456 128.658 42.154L129.925 43.702C130.486 43.2424 130.964 42.6866 131.359 42.0441L129.656 40.9959ZM128.667 42.1471C128.405 42.3568 128.153 42.44 127.883 42.44V44.44C128.638 44.44 129.325 44.1818 129.916 43.7089L128.667 42.1471ZM127.883 42.44C127.482 42.44 127.024 42.3261 126.498 42.0456L125.557 43.8104C126.311 44.2125 127.09 44.44 127.883 44.44V42.44ZM126.498 42.0456C125.902 41.7276 125.462 41.4289 125.156 41.1566L123.827 42.6514C124.289 43.0618 124.873 43.4458 125.557 43.8104L126.498 42.0456ZM123.534 41.615L122.51 45.007L124.425 45.585L125.449 42.193L123.534 41.615ZM122.776 46.0186C123.997 47.1864 125.663 47.704 127.628 47.704V45.704C126.008 45.704 124.901 45.283 124.159 44.5734L122.776 46.0186ZM127.628 47.704C128.543 47.704 129.398 47.5593 130.175 47.2485L129.432 45.3915C128.929 45.5927 128.333 45.704 127.628 45.704V47.704ZM130.12 47.2687C130.949 46.9923 131.683 46.4793 132.328 45.7845L130.863 44.4235C130.399 44.9234 129.938 45.221 129.487 45.3713L130.12 47.2687ZM132.351 45.7589C132.97 45.0454 133.544 44.1651 134.082 43.1346L132.309 42.2094C131.823 43.1416 131.331 43.8826 130.84 44.4491L132.351 45.7589ZM134.075 43.1483C134.656 42.0759 135.249 40.7549 135.855 39.1944L133.992 38.4696C133.404 39.9811 132.845 41.2201 132.316 42.1957L134.075 43.1483ZM135.853 39.2017L143.213 20.7057L141.354 19.9663L133.994 38.4623L135.853 39.2017ZM142.284 21.336H142.667V19.336H142.284V21.336ZM141.739 20.7066L151.979 46.3706L153.836 45.6294L143.596 19.9654L141.739 20.7066ZM152.908 47H158.668V45H152.908V47ZM159.594 45.6238L146.602 13.6238L144.749 14.3762L157.741 46.3762L159.594 45.6238ZM193.474 31.408V32.408H194.474V31.408H193.474ZM192.258 22.64L191.325 23.0015V23.0015L192.258 22.64ZM188.93 17.456L188.222 18.1631L188.228 18.1685L188.233 18.1739L188.93 17.456ZM184.13 14.384L183.781 15.3212L184.13 14.384ZM172.29 14.512L172.657 15.442L172.666 15.4383L172.676 15.4344L172.29 14.512ZM167.49 17.776L168.207 18.4721L168.213 18.4668L168.218 18.4614L167.49 17.776ZM164.29 22.96L165.223 23.3177L165.226 23.3111L164.29 22.96ZM164.098 36.08L163.143 36.3783L163.147 36.3903L163.151 36.4023L164.098 36.08ZM167.105 41.52L166.331 42.1521L166.34 42.1633L166.349 42.1742L167.105 41.52ZM172.225 45.36L171.793 46.2618L171.805 46.2672L171.816 46.2723L172.225 45.36ZM187.137 45.36L187.515 46.2861L187.522 46.2831L187.529 46.28L187.137 45.36ZM193.154 41.2L193.878 41.8897L194.551 41.183L193.861 40.4929L193.154 41.2ZM191.105 39.152L191.813 38.4449L191.158 37.7901L190.455 38.3927L191.105 39.152ZM188.546 41.264L187.926 40.4791L187.915 40.4873L187.905 40.4958L188.546 41.264ZM183.617 43.888L183.86 44.8581L183.876 44.8541L183.892 44.8495L183.617 43.888ZM176.898 43.696L176.619 44.6563L176.637 44.6616L176.655 44.6661L176.898 43.696ZM173.186 41.712L173.817 40.9368L173.186 41.712ZM170.305 37.808L169.398 38.2271L170.305 37.808ZM169.154 31.408V30.408H168.154V31.408H169.154ZM169.154 28.848H168.154V29.848H169.154V28.848ZM169.665 23.92L168.692 23.6895L168.69 23.6991L168.688 23.7087L169.665 23.92ZM171.329 19.632L170.48 19.1046L170.473 19.1154L170.467 19.1263L171.329 19.632ZM174.21 16.688L174.742 17.5342L174.753 17.5273L174.764 17.52L174.21 16.688ZM185.346 19.12L184.525 19.6915L184.531 19.6999L184.537 19.7082L185.346 19.12ZM187.906 28.848V29.848H188.906V28.848H187.906ZM194.474 31.408V30.064H192.474V31.408H194.474ZM194.474 30.064C194.474 27.1142 194.056 24.5113 193.19 22.2785L191.325 23.0015C192.081 24.95 192.474 27.2965 192.474 30.064H194.474ZM193.19 22.2785C192.335 20.0726 191.151 18.2172 189.626 16.7381L188.233 18.1739C189.524 19.4254 190.559 21.0261 191.325 23.0015L193.19 22.2785ZM189.637 16.7489C188.168 15.2806 186.446 14.1788 184.478 13.4468L183.781 15.3212C185.483 15.9545 186.96 16.9008 188.222 18.1631L189.637 16.7489ZM184.478 13.4468C182.527 12.7207 180.467 12.36 178.305 12.36V14.36C180.24 14.36 182.063 14.682 183.781 15.3212L184.478 13.4468ZM178.305 12.36C176.009 12.36 173.871 12.7657 171.903 13.5896L172.676 15.4344C174.377 14.7223 176.25 14.36 178.305 14.36V12.36ZM171.922 13.582C169.949 14.362 168.226 15.534 166.761 17.0906L168.218 18.4614C169.483 17.1167 170.961 16.1127 172.657 15.442L171.922 13.582ZM166.772 17.0799C165.3 18.5974 164.164 20.447 163.353 22.6089L165.226 23.3111C165.951 21.377 166.948 19.7706 168.207 18.4721L166.772 17.0799ZM163.356 22.6024C162.536 24.7415 162.137 27.1487 162.137 29.808H164.137C164.137 27.3473 164.507 25.1892 165.223 23.3176L163.356 22.6024ZM162.137 29.808C162.137 32.0431 162.473 34.2343 163.143 36.3783L165.052 35.7817C164.442 33.8297 164.137 31.8396 164.137 29.808H162.137ZM163.151 36.4023C163.871 38.5189 164.932 40.4374 166.331 42.1521L167.88 40.8879C166.634 39.3599 165.689 37.6518 165.044 35.7577L163.151 36.4023ZM166.349 42.1742C167.812 43.8656 169.632 45.2264 171.793 46.2618L172.658 44.4582C170.723 43.531 169.13 42.3317 167.862 40.8658L166.349 42.1742ZM171.816 46.2723C174.061 47.2804 176.66 47.768 179.585 47.768V45.768C176.879 45.768 174.571 45.3169 172.635 44.4477L171.816 46.2723ZM179.585 47.768C182.433 47.768 185.08 47.2781 187.515 46.2861L186.76 44.4339C184.587 45.3192 182.199 45.768 179.585 45.768V47.768ZM187.529 46.28C189.957 45.246 192.076 43.7815 193.878 41.8897L192.429 40.5103C190.818 42.2025 188.926 43.5113 186.746 44.44L187.529 46.28ZM193.861 40.4929L191.813 38.4449L190.398 39.8591L192.446 41.9071L193.861 40.4929ZM190.455 38.3927C189.568 39.1532 188.725 39.8485 187.926 40.4791L189.165 42.0489C189.988 41.3995 190.851 40.6868 191.756 39.9113L190.455 38.3927ZM187.905 40.4958C187.186 41.0949 186.455 41.5879 185.712 41.9791L186.643 43.7489C187.521 43.2868 188.369 42.7131 189.186 42.0322L187.905 40.4958ZM185.712 41.9791C184.963 42.3732 184.174 42.689 183.343 42.9265L183.892 44.8495C184.853 44.575 185.771 44.2082 186.643 43.7489L185.712 41.9791ZM183.375 42.9179C182.616 43.1077 181.739 43.208 180.738 43.208V45.208C181.869 45.208 182.913 45.095 183.86 44.8581L183.375 42.9179ZM180.738 43.208C179.638 43.208 178.44 43.0508 177.14 42.7259L176.655 44.6661C178.086 45.0239 179.448 45.208 180.738 45.208V43.208ZM177.176 42.7357C175.992 42.3919 174.873 41.7974 173.817 40.9368L172.554 42.4872C173.802 43.5039 175.157 44.2321 176.619 44.6563L177.176 42.7357ZM173.817 40.9368C172.807 40.114 171.932 38.9463 171.213 37.3889L169.398 38.2271C170.215 39.9977 171.26 41.4326 172.554 42.4872L173.817 40.9368ZM171.213 37.3889C170.526 35.8995 170.154 33.9225 170.154 31.408H168.154C168.154 34.0988 168.549 36.3885 169.398 38.2271L171.213 37.3889ZM169.154 32.408H193.474V30.408H169.154V32.408ZM170.154 28.848C170.154 27.2084 170.317 25.6367 170.643 24.1313L168.688 23.7087C168.331 25.3606 168.154 27.0743 168.154 28.848H170.154ZM170.639 24.1505C171.003 22.6106 171.524 21.2767 172.192 20.1377L170.467 19.1263C169.684 20.4619 169.096 21.9867 168.692 23.6895L170.639 24.1505ZM172.179 20.1594C172.873 19.0418 173.728 18.1731 174.742 17.5342L173.677 15.8418C172.387 16.6535 171.322 17.7475 170.48 19.1046L172.179 20.1594ZM174.764 17.52C175.73 16.8764 176.896 16.536 178.305 16.536V14.536C176.558 14.536 174.993 14.9636 173.655 15.8559L174.764 17.52ZM178.305 16.536C181.023 16.536 183.057 17.5833 184.525 19.6915L186.166 18.5485C184.306 15.8781 181.646 14.536 178.305 14.536V16.536ZM184.537 19.7082C186.076 21.8249 186.906 24.8337 186.906 28.848H188.906C188.906 24.585 188.028 21.1084 186.154 18.5318L184.537 19.7082ZM187.906 27.848H169.154V29.848H187.906V27.848ZM230.031 43.44L229.109 43.8252L229.365 44.44H230.031V43.44ZM217.743 14L218.666 13.6148L218.41 13H217.743V14ZM213.904 14V13H213.231L212.977 13.6234L213.904 14ZM201.936 43.44V44.44H202.608L202.862 43.8166L201.936 43.44ZM197.327 43.44V42.44H196.327V43.44H197.327ZM197.327 52.72H196.327V53.72H197.327V52.72ZM201.807 52.72V53.72H202.807V52.72H201.807ZM201.807 46V45H200.807V46H201.807ZM229.967 46H230.967V45H229.967V46ZM229.967 52.72H228.967V53.72H229.967V52.72ZM234.448 52.72V53.72H235.448V52.72H234.448ZM234.448 43.44H235.448V42.44H234.448V43.44ZM214.352 20.336V19.336H213.679L213.425 19.9589L214.352 20.336ZM214.736 20.336L215.66 19.9545L215.405 19.336H214.736V20.336ZM224.271 43.44V44.44H225.766L225.196 43.0585L224.271 43.44ZM204.943 43.44L204.017 43.0629L203.457 44.44H204.943V43.44ZM230.954 43.0548L218.666 13.6148L216.821 14.3852L229.109 43.8252L230.954 43.0548ZM217.743 13H213.904V15H217.743V13ZM212.977 13.6234L201.009 43.0634L202.862 43.8166L214.83 14.3766L212.977 13.6234ZM201.936 42.44H197.327V44.44H201.936V42.44ZM196.327 43.44V52.72H198.327V43.44H196.327ZM197.327 53.72H201.807V51.72H197.327V53.72ZM202.807 52.72V46H200.807V52.72H202.807ZM201.807 47H229.967V45H201.807V47ZM228.967 46V52.72H230.967V46H228.967ZM229.967 53.72H234.448V51.72H229.967V53.72ZM235.448 52.72V43.44H233.448V52.72H235.448ZM234.448 42.44H230.031V44.44H234.448V42.44ZM214.352 21.336H214.736V19.336H214.352V21.336ZM213.811 20.7175L223.347 43.8215L225.196 43.0585L215.66 19.9545L213.811 20.7175ZM224.271 42.44H204.943V44.44H224.271V42.44ZM205.87 43.8171L215.278 20.7131L213.425 19.9589L204.017 43.0629L205.87 43.8171ZM245.622 30.704V29.704H244.622V30.704H245.622ZM261.815 30.704H262.815V29.704H261.815V30.704ZM261.815 46H260.815V47H261.815V46ZM267.255 46V47H268.255V46H267.255ZM267.255 14H268.255V13H267.255V14ZM261.815 14V13H260.815V14H261.815ZM261.815 28.528V29.528H262.815V28.528H261.815ZM245.622 28.528H244.622V29.528H245.622V28.528ZM245.622 14H246.622V13H245.622V14ZM240.182 14V13H239.182V14H240.182ZM240.182 46H239.182V47H240.182V46ZM245.622 46V47H246.622V46H245.622ZM245.622 31.704H261.815V29.704H245.622V31.704ZM260.815 30.704V46H262.815V30.704H260.815ZM261.815 47H267.255V45H261.815V47ZM268.255 46V14H266.255V46H268.255ZM267.255 13H261.815V15H267.255V13ZM260.815 14V28.528H262.815V14H260.815ZM261.815 27.528H245.622V29.528H261.815V27.528ZM246.622 28.528V14H244.622V28.528H246.622ZM245.622 13H240.182V15H245.622V13ZM239.182 14V46H241.182V14H239.182ZM240.182 47H245.622V45H240.182V47ZM246.622 46V30.704H244.622V46H246.622ZM282.935 42.224H281.935V45.9511L283.801 42.7246L282.935 42.224ZM282.935 14H283.935V13H282.935V14ZM277.495 14V13H276.495V14H277.495ZM277.495 46H276.495V47H277.495V46ZM283.895 46V47H284.47L284.759 46.5031L283.895 46ZM300.215 17.968H301.215V14.2628L299.351 17.4649L300.215 17.968ZM300.215 46H299.215V47H300.215V46ZM305.655 46V47H306.655V46H305.655ZM305.655 14H306.655V13H305.655V14ZM299.255 14V13H298.678L298.389 13.4994L299.255 14ZM283.935 42.224V14H281.935V42.224H283.935ZM282.935 13H277.495V15H282.935V13ZM276.495 14V46H278.495V14H276.495ZM277.495 47H283.895V45H277.495V47ZM284.759 46.5031L301.079 18.4711L299.351 17.4649L283.031 45.4969L284.759 46.5031ZM299.215 17.968V46H301.215V17.968H299.215ZM300.215 47H305.655V45H300.215V47ZM306.655 46V14H304.655V46H306.655ZM305.655 13H299.255V15H305.655V13ZM298.389 13.4994L282.069 41.7234L283.801 42.7246L300.121 14.5006L298.389 13.4994ZM344.286 31.408V32.408H345.286V31.408H344.286ZM343.07 22.64L342.138 23.0015V23.0015L343.07 22.64ZM339.742 17.456L339.035 18.1631L339.04 18.1685L339.046 18.1739L339.742 17.456ZM334.942 14.384L334.593 15.3212L334.942 14.384ZM323.102 14.512L323.47 15.442L323.479 15.4383L323.488 15.4344L323.102 14.512ZM318.302 17.776L319.02 18.4721L319.025 18.4668L319.03 18.4614L318.302 17.776ZM315.102 22.96L316.036 23.3177L316.038 23.3111L315.102 22.96ZM314.91 36.08L313.956 36.3783L313.959 36.3903L313.963 36.4023L314.91 36.08ZM317.918 41.52L317.143 42.1521L317.152 42.1633L317.162 42.1742L317.918 41.52ZM323.038 45.36L322.606 46.2618L322.617 46.2672L322.628 46.2723L323.038 45.36ZM337.95 45.36L338.327 46.2861L338.335 46.2831L338.342 46.28L337.95 45.36ZM343.966 41.2L344.69 41.8897L345.363 41.183L344.673 40.4929L343.966 41.2ZM341.918 39.152L342.625 38.4449L341.97 37.7901L341.267 38.3927L341.918 39.152ZM339.358 41.264L338.738 40.4791L338.728 40.4873L338.718 40.4958L339.358 41.264ZM334.43 43.888L334.673 44.8581L334.689 44.8541L334.705 44.8495L334.43 43.888ZM327.71 43.696L327.431 44.6563L327.449 44.6616L327.467 44.6661L327.71 43.696ZM323.998 41.712L324.63 40.9368L323.998 41.712ZM321.118 37.808L320.21 38.2271L321.118 37.808ZM319.966 31.408V30.408H318.966V31.408H319.966ZM319.966 28.848H318.966V29.848H319.966V28.848ZM320.478 23.92L319.505 23.6895L319.503 23.6991L319.501 23.7087L320.478 23.92ZM322.142 19.632L321.292 19.1046L321.286 19.1154L321.279 19.1263L322.142 19.632ZM325.022 16.688L325.555 17.5342L325.566 17.5273L325.577 17.52L325.022 16.688ZM336.158 19.12L335.337 19.6915L335.343 19.6999L335.349 19.7082L336.158 19.12ZM338.718 28.848V29.848H339.718V28.848H338.718ZM345.286 31.408V30.064H343.286V31.408H345.286ZM345.286 30.064C345.286 27.1142 344.868 24.5113 344.002 22.2785L342.138 23.0015C342.893 24.95 343.286 27.2965 343.286 30.064H345.286ZM344.002 22.2785C343.147 20.0726 341.964 18.2172 340.438 16.7381L339.046 18.1739C340.336 19.4254 341.372 21.0261 342.138 23.0015L344.002 22.2785ZM340.449 16.7489C338.981 15.2806 337.258 14.1788 335.291 13.4468L334.593 15.3212C336.295 15.9545 337.773 16.9008 339.035 18.1631L340.449 16.7489ZM335.291 13.4468C333.339 12.7207 331.279 12.36 329.118 12.36V14.36C331.053 14.36 332.875 14.682 334.593 15.3212L335.291 13.4468ZM329.118 12.36C326.822 12.36 324.684 12.7657 322.716 13.5896L323.488 15.4344C325.189 14.7223 327.062 14.36 329.118 14.36V12.36ZM322.734 13.582C320.762 14.362 319.039 15.534 317.574 17.0906L319.03 18.4614C320.296 17.1167 321.773 16.1127 323.47 15.442L322.734 13.582ZM317.584 17.0799C316.113 18.5974 314.976 20.447 314.166 22.6089L316.038 23.3111C316.764 21.377 317.761 19.7706 319.02 18.4721L317.584 17.0799ZM314.168 22.6024C313.349 24.7415 312.95 27.1487 312.95 29.808H314.95C314.95 27.3473 315.319 25.1892 316.036 23.3176L314.168 22.6024ZM312.95 29.808C312.95 32.0431 313.286 34.2343 313.956 36.3783L315.864 35.7817C315.254 33.8297 314.95 31.8396 314.95 29.808H312.95ZM313.963 36.4023C314.684 38.5189 315.744 40.4374 317.143 42.1521L318.693 40.8879C317.446 39.3599 316.501 37.6518 315.857 35.7577L313.963 36.4023ZM317.162 42.1742C318.625 43.8656 320.445 45.2264 322.606 46.2618L323.47 44.4582C321.535 43.531 319.942 42.3317 318.674 40.8658L317.162 42.1742ZM322.628 46.2723C324.874 47.2804 327.472 47.768 330.398 47.768V45.768C327.692 45.768 325.384 45.3169 323.448 44.4477L322.628 46.2723ZM330.398 47.768C333.245 47.768 335.892 47.2781 338.327 46.2861L337.573 44.4339C335.4 45.3192 333.012 45.768 330.398 45.768V47.768ZM338.342 46.28C340.77 45.246 342.888 43.7815 344.69 41.8897L343.242 40.5103C341.63 42.2025 339.738 43.5113 337.558 44.44L338.342 46.28ZM344.673 40.4929L342.625 38.4449L341.211 39.8591L343.259 41.9071L344.673 40.4929ZM341.267 38.3927C340.38 39.1532 339.537 39.8485 338.738 40.4791L339.978 42.0489C340.8 41.3995 341.664 40.6868 342.569 39.9113L341.267 38.3927ZM338.718 40.4958C337.999 41.0949 337.267 41.5879 336.524 41.9791L337.456 43.7489C338.334 43.2868 339.181 42.7131 339.998 42.0322L338.718 40.4958ZM336.524 41.9791C335.776 42.3732 334.986 42.689 334.155 42.9265L334.705 44.8495C335.666 44.575 336.583 44.2082 337.456 43.7489L336.524 41.9791ZM334.187 42.9179C333.428 43.1077 332.552 43.208 331.55 43.208V45.208C332.682 45.208 333.725 45.095 334.673 44.8581L334.187 42.9179ZM331.55 43.208C330.45 43.208 329.252 43.0508 327.953 42.7259L327.467 44.6661C328.898 45.0239 330.261 45.208 331.55 45.208V43.208ZM327.989 42.7357C326.805 42.3919 325.686 41.7974 324.63 40.9368L323.366 42.4872C324.614 43.5039 325.97 44.2321 327.431 44.6563L327.989 42.7357ZM324.63 40.9368C323.62 40.114 322.745 38.9463 322.026 37.3889L320.21 38.2271C321.027 39.9977 322.072 41.4326 323.366 42.4872L324.63 40.9368ZM322.026 37.3889C321.339 35.8995 320.966 33.9225 320.966 31.408H318.966C318.966 34.0988 319.362 36.3885 320.21 38.2271L322.026 37.3889ZM319.966 32.408H344.286V30.408H319.966V32.408ZM320.966 28.848C320.966 27.2084 321.13 25.6367 321.455 24.1313L319.501 23.7087C319.143 25.3606 318.966 27.0743 318.966 28.848H320.966ZM321.451 24.1505C321.816 22.6106 322.337 21.2767 323.005 20.1377L321.279 19.1263C320.496 20.4619 319.908 21.9867 319.505 23.6895L321.451 24.1505ZM322.992 20.1594C323.685 19.0418 324.54 18.1731 325.555 17.5342L324.489 15.8418C323.2 16.6535 322.135 17.7475 321.292 19.1046L322.992 20.1594ZM325.577 17.52C326.542 16.8764 327.708 16.536 329.118 16.536V14.536C327.37 14.536 325.806 14.9636 324.467 15.8559L325.577 17.52ZM329.118 16.536C331.836 16.536 333.869 17.5833 335.337 19.6915L336.979 18.5485C335.119 15.8781 332.459 14.536 329.118 14.536V16.536ZM335.349 19.7082C336.889 21.8249 337.718 24.8337 337.718 28.848H339.718C339.718 24.585 338.841 21.1084 336.967 18.5318L335.349 19.7082ZM338.718 27.848H319.966V29.848H338.718V27.848ZM380.435 16.56V15.56H379.435V16.56H380.435ZM395.347 16.56H396.347V15.56H395.347V16.56ZM395.347 46H394.347V47H395.347V46ZM400.787 46V47H401.787V46H400.787ZM400.787 14H401.787V13H400.787V14ZM374.995 14V13H373.995V14H374.995ZM374.995 46H373.995V47H374.995V46ZM380.435 46V47H381.435V46H380.435ZM380.435 17.56H395.347V15.56H380.435V17.56ZM394.347 16.56V46H396.347V16.56H394.347ZM395.347 47H400.787V45H395.347V47ZM401.787 46V14H399.787V46H401.787ZM400.787 13H374.995V15H400.787V13ZM373.995 14V46H375.995V14H373.995ZM374.995 47H380.435V45H374.995V47ZM381.435 46V16.56H379.435V46H381.435ZM411.057 62H410.057V63H411.057V62ZM416.497 62V63H417.497V62H416.497ZM416.497 40.752V39.752H415.497V40.752H416.497ZM416.754 40.752L417.687 40.393L417.44 39.752H416.754V40.752ZM418.418 43.568L417.67 44.2324L417.68 44.2436L417.69 44.2546L418.418 43.568ZM420.849 45.424L420.385 46.3098L420.849 45.424ZM423.665 46.448L423.453 47.4252L423.462 47.427L423.665 46.448ZM432.625 45.616L433.019 46.5351L433.029 46.5312L433.038 46.5271L432.625 45.616ZM437.233 42.224L436.495 41.5502L436.489 41.5563L436.484 41.5624L437.233 42.224ZM440.306 36.976L441.248 37.3099L441.25 37.3038L440.306 36.976ZM440.306 23.152L439.363 23.4858V23.4858L440.306 23.152ZM437.233 17.904L436.474 18.5548L436.484 18.5664L436.495 18.5778L437.233 17.904ZM432.625 14.512L432.213 15.4231L432.222 15.4272L432.232 15.4311L432.625 14.512ZM416.754 19.184V20.184H417.429L417.681 19.5571L416.754 19.184ZM416.497 19.184H415.497V20.184H416.497V19.184ZM416.497 14H417.497V13H416.497V14ZM411.057 14V13H410.057V14H411.057ZM417.138 22.832L416.199 22.4877L416.195 22.4968L416.192 22.506L417.138 22.832ZM419.057 19.568L419.799 20.2389L419.807 20.2304L419.814 20.2216L419.057 19.568ZM421.874 17.392L422.306 18.2935L422.314 18.29L422.321 18.2864L421.874 17.392ZM429.169 17.328L428.776 18.2471L428.795 18.2555L428.815 18.263L429.169 17.328ZM432.37 19.632L433.135 18.9888L432.37 19.632ZM434.482 23.792L433.524 24.0793L433.527 24.0903L433.53 24.1011L434.482 23.792ZM434.482 36.144L433.53 35.8349L433.527 35.8457L433.524 35.8567L434.482 36.144ZM432.306 40.368L431.542 39.7221L431.54 39.7248L432.306 40.368ZM429.169 42.736L429.535 43.6668L429.549 43.6612L429.563 43.6551L429.169 42.736ZM422.001 42.736L421.569 43.6375L421.584 43.6447L421.599 43.6513L422.001 42.736ZM419.185 40.56L418.415 41.1969L418.422 41.2053L418.429 41.2136L419.185 40.56ZM417.202 37.04L416.256 37.3651L416.26 37.3782L416.265 37.3911L417.202 37.04ZM411.057 63H416.497V61H411.057V63ZM417.497 62V40.752H415.497V62H417.497ZM416.497 41.752H416.754V39.752H416.497V41.752ZM415.82 41.111C416.283 42.3151 416.896 43.3617 417.67 44.2324L419.165 42.9036C418.574 42.2383 418.077 41.4075 417.687 40.393L415.82 41.111ZM417.69 44.2546C418.488 45.0995 419.387 45.7869 420.385 46.3098L421.314 44.5382C420.52 44.1225 419.797 43.5725 419.145 42.8814L417.69 44.2546ZM420.385 46.3098C421.36 46.8204 422.384 47.1927 423.453 47.4252L423.878 45.4708C422.985 45.2767 422.131 44.9662 421.314 44.5382L420.385 46.3098ZM423.462 47.427C424.551 47.654 425.644 47.768 426.737 47.768V45.768C425.783 45.768 424.828 45.6687 423.869 45.469L423.462 47.427ZM426.737 47.768C428.993 47.768 431.092 47.3613 433.019 46.5351L432.232 44.6969C430.575 45.4067 428.748 45.768 426.737 45.768V47.768ZM433.038 46.5271C434.956 45.6591 436.608 44.4442 437.983 42.8856L436.484 41.5624C435.299 42.9051 433.879 43.9516 432.213 44.7049L433.038 46.5271ZM437.972 42.8978C439.394 41.3385 440.483 39.4701 441.248 37.3098L439.363 36.6422C438.677 38.5779 437.718 40.2082 436.495 41.5502L437.972 42.8978ZM441.25 37.3038C442.017 35.0943 442.393 32.6778 442.393 30.064H440.393C440.393 32.4849 440.045 34.6764 439.361 36.6482L441.25 37.3038ZM442.393 30.064C442.393 27.4101 442.018 24.9906 441.248 22.8181L439.363 23.4858C440.044 25.4094 440.393 27.5979 440.393 30.064H442.393ZM441.248 22.8182C440.483 20.6579 439.394 18.7895 437.972 17.2302L436.495 18.5778C437.718 19.9198 438.677 21.5501 439.363 23.4858L441.248 22.8182ZM437.993 17.2532C436.614 15.6447 434.953 14.4217 433.019 13.5929L432.232 15.4311C433.882 16.1383 435.293 17.1766 436.474 18.5548L437.993 17.2532ZM433.038 13.6009C431.105 12.7268 429.001 12.296 426.737 12.296V14.296C428.741 14.296 430.561 14.6758 432.213 15.4231L433.038 13.6009ZM426.737 12.296C424.075 12.296 421.785 12.8103 419.926 13.9066C418.053 15.0108 416.689 16.6642 415.826 18.8109L417.681 19.5571C418.397 17.7784 419.486 16.4879 420.941 15.6294C422.41 14.763 424.323 14.296 426.737 14.296V12.296ZM416.754 18.184H416.497V20.184H416.754V18.184ZM417.497 19.184V14H415.497V19.184H417.497ZM416.497 13H411.057V15H416.497V13ZM410.057 14V62H412.057V14H410.057ZM417.497 26.8C417.497 25.4945 417.695 24.2828 418.083 23.158L416.192 22.506C415.727 23.8559 415.497 25.2895 415.497 26.8H417.497ZM418.076 23.1763C418.507 22.0014 419.085 21.0283 419.799 20.2389L418.316 18.8971C417.409 19.8997 416.707 21.1026 416.199 22.4877L418.076 23.1763ZM419.814 20.2216C420.54 19.3819 421.369 18.7432 422.306 18.2935L421.441 16.4905C420.244 17.0648 419.197 17.8768 418.301 18.9144L419.814 20.2216ZM422.321 18.2864C423.292 17.801 424.312 17.56 425.393 17.56V15.56C424.001 15.56 422.674 15.8736 421.426 16.4976L422.321 18.2864ZM425.393 17.56C426.583 17.56 427.708 17.7894 428.776 18.2471L429.563 16.4089C428.242 15.8426 426.849 15.56 425.393 15.56V17.56ZM428.815 18.263C429.884 18.6685 430.812 19.3322 431.604 20.2752L433.135 18.9888C432.135 17.7985 430.93 16.9261 429.524 16.393L428.815 18.263ZM431.604 20.2752C432.391 21.2128 433.04 22.4682 433.524 24.0793L435.439 23.5047C434.899 21.7025 434.14 20.1845 433.135 18.9888L431.604 20.2752ZM433.53 24.1011C434.044 25.6811 434.314 27.6191 434.314 29.936H436.314C436.314 27.4743 436.028 25.3163 435.433 23.4829L433.53 24.1011ZM434.314 29.936C434.314 32.2977 434.043 34.2564 433.53 35.8349L435.433 36.4531C436.029 34.6182 436.314 32.4383 436.314 29.936H434.314ZM433.524 35.8567C433.042 37.4607 432.374 38.7385 431.542 39.7221L433.069 41.0139C434.114 39.7788 434.897 38.2406 435.439 36.4313L433.524 35.8567ZM431.54 39.7248C430.737 40.6805 429.816 41.3709 428.776 41.8169L429.563 43.6551C430.912 43.0771 432.082 42.1889 433.071 41.0112L431.54 39.7248ZM428.804 41.8052C427.729 42.2274 426.595 42.44 425.393 42.44V44.44C426.837 44.44 428.22 44.1832 429.535 43.6668L428.804 41.8052ZM425.393 42.44C424.334 42.44 423.341 42.2327 422.404 41.8207L421.599 43.6513C422.796 44.1779 424.064 44.44 425.393 44.44V42.44ZM422.434 41.8345C421.497 41.3848 420.668 40.7461 419.942 39.9064L418.429 41.2136C419.325 42.2512 420.372 43.0632 421.569 43.6375L422.434 41.8345ZM419.956 39.9231C419.226 39.0387 418.616 37.9653 418.138 36.6889L416.265 37.3911C416.811 38.8454 417.524 40.1187 418.415 41.1969L419.956 39.9231ZM418.147 36.7149C417.72 35.4737 417.497 34.0294 417.497 32.368H415.497C415.497 34.2053 415.744 35.8757 416.256 37.3651L418.147 36.7149ZM417.497 32.368V26.8H415.497V32.368H417.497ZM479.763 36.464L480.696 36.8217L480.699 36.8151L479.763 36.464ZM476.435 41.776L475.707 41.0894L475.702 41.0948L475.697 41.1003L476.435 41.776ZM471.25 45.424L470.85 44.5078L470.843 44.511L471.25 45.424ZM457.491 45.424L457.074 46.3331L457.085 46.3382L457.097 46.3431L457.491 45.424ZM452.242 41.712L451.505 42.3877L451.51 42.3932L451.515 42.3986L452.242 41.712ZM448.914 36.4L447.978 36.7511L447.983 36.763L447.987 36.7748L448.914 36.4ZM448.914 23.728L447.985 23.3599L447.981 23.3703L448.914 23.728ZM452.242 18.352L451.515 17.6654L451.51 17.6708L451.505 17.6763L452.242 18.352ZM457.491 14.704L457.891 15.6202L457.9 15.6163L457.491 14.704ZM471.25 14.704L470.827 15.6097L470.838 15.6151L470.85 15.6202L471.25 14.704ZM476.435 18.352L475.697 19.0277L475.702 19.0332L475.707 19.0386L476.435 18.352ZM479.763 23.728L478.826 24.0791L478.829 24.0856L479.763 23.728ZM473.875 22.832L472.928 23.1547L472.93 23.1614L473.875 22.832ZM467.987 16.432L467.69 17.3871L467.705 17.3918L467.721 17.396L467.987 16.432ZM460.819 16.432L461.084 17.396L461.1 17.3918L461.115 17.3871L460.819 16.432ZM457.362 18.48L456.67 17.7586L456.663 17.7657L456.655 17.7729L457.362 18.48ZM454.802 22.832L453.863 22.4902L453.858 22.5026L454.802 22.832ZM454.802 37.296L453.856 37.6187L453.86 37.6318L453.865 37.6447L454.802 37.296ZM457.362 41.584L456.655 42.2911L456.663 42.2983L456.67 42.3054L457.362 41.584ZM460.819 43.696L460.522 44.6511L460.537 44.6558L460.553 44.66L460.819 43.696ZM467.987 43.696L468.252 44.66L468.268 44.6558L468.283 44.6511L467.987 43.696ZM471.379 41.584L472.086 42.2911L471.379 41.584ZM473.875 37.296L474.819 37.6254L474.821 37.6187L473.875 37.296ZM479.914 30.064C479.914 32.1645 479.551 34.1788 478.826 36.1129L480.699 36.8151C481.51 34.6532 481.914 32.4008 481.914 30.064H479.914ZM478.829 36.1064C478.107 37.9916 477.067 39.65 475.707 41.0894L477.162 42.4626C478.703 40.83 479.882 38.9471 480.696 36.8216L478.829 36.1064ZM475.697 41.1003C474.39 42.5263 472.779 43.6636 470.85 44.5078L471.651 46.3402C473.818 45.3924 475.663 44.0977 477.172 42.4517L475.697 41.1003ZM470.843 44.511C468.983 45.3418 466.864 45.768 464.466 45.768V47.768C467.104 47.768 469.507 47.2982 471.658 46.337L470.843 44.511ZM464.466 45.768C462.025 45.768 459.836 45.3412 457.884 44.5049L457.097 46.3431C459.326 47.2988 461.788 47.768 464.466 47.768V45.768ZM457.907 44.5149C455.968 43.6262 454.326 42.4619 452.97 41.0254L451.515 42.3986C453.06 44.0341 454.917 45.3445 457.074 46.3331L457.907 44.5149ZM452.98 41.0363C451.656 39.5918 450.609 37.924 449.842 36.0252L447.987 36.7748C448.841 38.8867 450.013 40.7602 451.505 42.3877L452.98 41.0363ZM449.851 36.0489C449.125 34.1126 448.763 32.1195 448.763 30.064H446.763C446.763 32.3605 447.168 34.5914 447.978 36.7511L449.851 36.0489ZM448.763 30.064C448.763 27.9635 449.126 25.973 449.848 24.0856L447.981 23.3703C447.167 25.4936 446.763 27.7272 446.763 30.064H448.763ZM449.844 24.096C450.613 22.155 451.659 20.4687 452.98 19.0277L451.505 17.6763C450.01 19.3073 448.838 21.205 447.985 23.36L449.844 24.096ZM452.97 19.0386C454.323 17.6059 455.959 16.4655 457.891 15.6202L457.09 13.7878C454.926 14.7345 453.064 16.0261 451.515 17.6654L452.97 19.0386ZM457.9 15.6163C459.848 14.7419 462.031 14.296 464.466 14.296V12.296C461.782 12.296 459.315 12.7888 457.081 13.7917L457.9 15.6163ZM464.466 14.296C466.857 14.296 468.971 14.7411 470.827 15.6097L471.674 13.7983C469.519 12.7895 467.11 12.296 464.466 12.296V14.296ZM470.85 15.6202C472.779 16.4644 474.39 17.6017 475.697 19.0277L477.172 17.6763C475.663 16.0303 473.818 14.7356 471.651 13.7878L470.85 15.6202ZM475.707 19.0386C477.064 20.4744 478.103 22.1513 478.826 24.0791L480.699 23.3769C479.886 21.2087 478.707 19.3016 477.162 17.6654L475.707 19.0386ZM478.829 24.0856C479.551 25.973 479.914 27.9635 479.914 30.064H481.914C481.914 27.7272 481.51 25.4936 480.696 23.3703L478.829 24.0856ZM475.835 30.064C475.835 27.0188 475.51 24.4841 474.819 22.5026L472.93 23.1614C473.519 24.8492 473.835 27.1359 473.835 30.064H475.835ZM474.821 22.5093C474.149 20.5378 473.25 18.9374 472.086 17.7729L470.671 19.1871C471.555 20.0706 472.32 21.3715 472.928 23.1547L474.821 22.5093ZM472.086 17.7729C470.955 16.6425 469.677 15.861 468.252 15.468L467.721 17.396C468.771 17.6857 469.754 18.2695 470.671 19.1871L472.086 17.7729ZM468.283 15.4769C466.961 15.0668 465.667 14.856 464.402 14.856V16.856C465.442 16.856 466.537 17.0292 467.69 17.3871L468.283 15.4769ZM464.402 14.856C463.138 14.856 461.844 15.0668 460.522 15.4769L461.115 17.3871C462.268 17.0292 463.363 16.856 464.402 16.856V14.856ZM460.553 15.468C459.132 15.8598 457.838 16.6372 456.67 17.7586L458.055 19.2014C459.02 18.2748 460.03 17.6868 461.084 17.396L460.553 15.468ZM456.655 17.7729C455.497 18.9316 454.577 20.5246 453.863 22.4903L455.742 23.1737C456.393 21.3847 457.18 20.0764 458.07 19.1871L456.655 17.7729ZM453.858 22.5026C453.167 24.4841 452.842 27.0188 452.842 30.064H454.842C454.842 27.1359 455.158 24.8492 455.747 23.1614L453.858 22.5026ZM452.842 30.064C452.842 33.0699 453.168 35.6002 453.856 37.6187L455.749 36.9733C455.157 35.2372 454.842 32.9461 454.842 30.064H452.842ZM453.865 37.6447C454.581 39.5692 455.501 41.1365 456.655 42.2911L458.07 40.8769C457.176 39.9835 456.389 38.6921 455.74 36.9473L453.865 37.6447ZM456.67 42.3054C457.833 43.4217 459.117 44.2149 460.522 44.6511L461.115 42.7409C460.046 42.4091 459.026 41.7943 458.055 40.8626L456.67 42.3054ZM460.553 44.66C461.867 45.0225 463.151 45.208 464.402 45.208V43.208C463.35 43.208 462.245 43.0521 461.084 42.732L460.553 44.66ZM464.402 45.208C465.654 45.208 466.938 45.0225 468.252 44.66L467.721 42.732C466.56 43.0521 465.455 43.208 464.402 43.208V45.208ZM468.283 44.6511C469.693 44.2135 470.961 43.4161 472.086 42.2911L470.671 40.8769C469.748 41.7999 468.755 42.4105 467.69 42.7409L468.283 44.6511ZM472.086 42.2911C473.246 41.1307 474.145 39.556 474.819 37.6254L472.93 36.9666C472.324 38.7054 471.559 39.9893 470.671 40.8769L472.086 42.2911ZM474.821 37.6187C475.509 35.6002 475.835 33.0699 475.835 30.064H473.835C473.835 32.9461 473.52 35.2372 472.928 36.9733L474.821 37.6187ZM517.661 31.408V32.408H518.661V31.408H517.661ZM516.445 22.64L515.513 23.0015V23.0015L516.445 22.64ZM513.117 17.456L512.41 18.1631L512.415 18.1685L512.421 18.1739L513.117 17.456ZM508.317 14.384L507.968 15.3212L508.317 14.384ZM496.477 14.512L496.845 15.442L496.854 15.4383L496.863 15.4344L496.477 14.512ZM491.677 17.776L492.395 18.4721L492.4 18.4668L492.405 18.4614L491.677 17.776ZM488.477 22.96L489.411 23.3177L489.413 23.3111L488.477 22.96ZM488.285 36.08L487.331 36.3783L487.334 36.3903L487.338 36.4023L488.285 36.08ZM491.293 41.52L490.518 42.1521L490.527 42.1633L490.537 42.1742L491.293 41.52ZM496.413 45.36L495.981 46.2618L495.992 46.2672L496.003 46.2723L496.413 45.36ZM511.325 45.36L511.702 46.2861L511.71 46.2831L511.717 46.28L511.325 45.36ZM517.341 41.2L518.065 41.8897L518.738 41.183L518.048 40.4929L517.341 41.2ZM515.293 39.152L516 38.4449L515.345 37.7901L514.642 38.3927L515.293 39.152ZM512.733 41.264L512.113 40.4791L512.103 40.4873L512.093 40.4958L512.733 41.264ZM507.805 43.888L508.048 44.8581L508.064 44.8541L508.08 44.8495L507.805 43.888ZM501.085 43.696L500.806 44.6563L500.824 44.6616L500.842 44.6661L501.085 43.696ZM497.373 41.712L498.005 40.9368L497.373 41.712ZM494.493 37.808L493.585 38.2271L494.493 37.808ZM493.341 31.408V30.408H492.341V31.408H493.341ZM493.341 28.848H492.341V29.848H493.341V28.848ZM493.853 23.92L492.88 23.6895L492.878 23.6991L492.876 23.7087L493.853 23.92ZM495.517 19.632L494.667 19.1046L494.661 19.1154L494.654 19.1263L495.517 19.632ZM498.397 16.688L498.93 17.5342L498.941 17.5273L498.952 17.52L498.397 16.688ZM509.533 19.12L508.712 19.6915L508.718 19.6999L508.724 19.7082L509.533 19.12ZM512.093 28.848V29.848H513.093V28.848H512.093ZM518.661 31.408V30.064H516.661V31.408H518.661ZM518.661 30.064C518.661 27.1142 518.243 24.5113 517.377 22.2785L515.513 23.0015C516.268 24.95 516.661 27.2965 516.661 30.064H518.661ZM517.377 22.2785C516.522 20.0726 515.339 18.2172 513.813 16.7381L512.421 18.1739C513.711 19.4254 514.747 21.0261 515.513 23.0015L517.377 22.2785ZM513.824 16.7489C512.356 15.2806 510.633 14.1788 508.666 13.4468L507.968 15.3212C509.67 15.9545 511.148 16.9008 512.41 18.1631L513.824 16.7489ZM508.666 13.4468C506.714 12.7207 504.654 12.36 502.493 12.36V14.36C504.428 14.36 506.25 14.682 507.968 15.3212L508.666 13.4468ZM502.493 12.36C500.197 12.36 498.059 12.7657 496.091 13.5896L496.863 15.4344C498.564 14.7223 500.437 14.36 502.493 14.36V12.36ZM496.109 13.582C494.137 14.362 492.414 15.534 490.949 17.0906L492.405 18.4614C493.671 17.1167 495.148 16.1127 496.845 15.442L496.109 13.582ZM490.959 17.0799C489.488 18.5974 488.351 20.447 487.541 22.6089L489.413 23.3111C490.139 21.377 491.136 19.7706 492.395 18.4721L490.959 17.0799ZM487.543 22.6024C486.724 24.7415 486.325 27.1487 486.325 29.808H488.325C488.325 27.3473 488.694 25.1892 489.411 23.3176L487.543 22.6024ZM486.325 29.808C486.325 32.0431 486.661 34.2343 487.331 36.3783L489.239 35.7817C488.629 33.8297 488.325 31.8396 488.325 29.808H486.325ZM487.338 36.4023C488.059 38.5189 489.119 40.4374 490.518 42.1521L492.068 40.8879C490.821 39.3599 489.876 37.6518 489.232 35.7577L487.338 36.4023ZM490.537 42.1742C492 43.8656 493.82 45.2264 495.981 46.2618L496.845 44.4582C494.91 43.531 493.317 42.3317 492.049 40.8658L490.537 42.1742ZM496.003 46.2723C498.249 47.2804 500.847 47.768 503.773 47.768V45.768C501.067 45.768 498.759 45.3169 496.823 44.4477L496.003 46.2723ZM503.773 47.768C506.62 47.768 509.267 47.2781 511.702 46.2861L510.948 44.4339C508.775 45.3192 506.387 45.768 503.773 45.768V47.768ZM511.717 46.28C514.145 45.246 516.263 43.7815 518.065 41.8897L516.617 40.5103C515.005 42.2025 513.113 43.5113 510.933 44.44L511.717 46.28ZM518.048 40.4929L516 38.4449L514.586 39.8591L516.634 41.9071L518.048 40.4929ZM514.642 38.3927C513.755 39.1532 512.912 39.8485 512.113 40.4791L513.353 42.0489C514.175 41.3995 515.039 40.6868 515.944 39.9113L514.642 38.3927ZM512.093 40.4958C511.374 41.0949 510.643 41.5879 509.899 41.9791L510.831 43.7489C511.709 43.2868 512.556 42.7131 513.373 42.0322L512.093 40.4958ZM509.899 41.9791C509.151 42.3732 508.361 42.689 507.53 42.9265L508.08 44.8495C509.041 44.575 509.958 44.2082 510.831 43.7489L509.899 41.9791ZM507.562 42.9179C506.803 43.1077 505.927 43.208 504.925 43.208V45.208C506.057 45.208 507.1 45.095 508.048 44.8581L507.562 42.9179ZM504.925 43.208C503.825 43.208 502.627 43.0508 501.328 42.7259L500.842 44.6661C502.273 45.0239 503.636 45.208 504.925 45.208V43.208ZM501.364 42.7357C500.18 42.3919 499.061 41.7974 498.005 40.9368L496.741 42.4872C497.989 43.5039 499.345 44.2321 500.806 44.6563L501.364 42.7357ZM498.005 40.9368C496.995 40.114 496.12 38.9463 495.401 37.3889L493.585 38.2271C494.402 39.9977 495.447 41.4326 496.741 42.4872L498.005 40.9368ZM495.401 37.3889C494.714 35.8995 494.341 33.9225 494.341 31.408H492.341C492.341 34.0988 492.737 36.3885 493.585 38.2271L495.401 37.3889ZM493.341 32.408H517.661V30.408H493.341V32.408ZM494.341 28.848C494.341 27.2084 494.505 25.6367 494.83 24.1313L492.876 23.7087C492.518 25.3606 492.341 27.0743 492.341 28.848H494.341ZM494.826 24.1505C495.191 22.6106 495.712 21.2767 496.38 20.1377L494.654 19.1263C493.871 20.4619 493.283 21.9867 492.88 23.6895L494.826 24.1505ZM496.367 20.1594C497.06 19.0418 497.915 18.1731 498.93 17.5342L497.864 15.8418C496.575 16.6535 495.51 17.7475 494.667 19.1046L496.367 20.1594ZM498.952 17.52C499.917 16.8764 501.083 16.536 502.493 16.536V14.536C500.745 14.536 499.181 14.9636 497.842 15.8559L498.952 17.52ZM502.493 16.536C505.211 16.536 507.244 17.5833 508.712 19.6915L510.354 18.5485C508.494 15.8781 505.834 14.536 502.493 14.536V16.536ZM508.724 19.7082C510.264 21.8249 511.093 24.8337 511.093 28.848H513.093C513.093 24.585 512.216 21.1084 510.342 18.5318L508.724 19.7082ZM512.093 27.848H493.341V29.848H512.093V27.848ZM531.435 30.512H530.435V32.9953L532.156 31.205L531.435 30.512ZM531.435 14H532.435V13H531.435V14ZM525.995 14V13H524.995V14H525.995ZM525.995 46H524.995V47H525.995V46ZM531.435 46V47H532.435V46H531.435ZM531.435 34.736L530.709 34.0479L530.435 34.3372V34.736H531.435ZM534.955 31.024L535.751 30.4185L535.039 29.4824L534.229 30.3359L534.955 31.024ZM542.891 41.456L542.095 42.0615L542.103 42.0712L542.11 42.0807L542.891 41.456ZM546.283 45.104L545.658 45.8849L546.283 45.104ZM548.331 46.32L547.95 47.2447L547.959 47.2484L547.969 47.252L548.331 46.32ZM553.003 46.512L553.232 47.4854L553.003 46.512ZM554.923 46L555.217 46.9558L555.923 46.7386V46H554.923ZM554.923 43.44H555.923V42.44H554.923V43.44ZM551.531 42.992L552.005 42.1115L551.531 42.992ZM549.803 41.84L549.125 42.5748L549.154 42.6018L549.185 42.6263L549.803 41.84ZM548.139 40.24L547.38 40.8908L547.405 40.9199L547.432 40.9471L548.139 40.24ZM546.731 38.512L545.937 39.1201L545.938 39.1217L546.731 38.512ZM538.347 27.568L537.625 26.8764L537.032 27.4956L537.553 28.1761L538.347 27.568ZM551.339 14L552.061 14.6916L553.681 13H551.339V14ZM547.307 14V13H546.881L546.586 13.307L547.307 14ZM532.435 30.512V14H530.435V30.512H532.435ZM531.435 13H525.995V15H531.435V13ZM524.995 14V46H526.995V14H524.995ZM525.995 47H531.435V45H525.995V47ZM532.435 46V34.736H530.435V46H532.435ZM532.161 35.4241L535.681 31.7121L534.229 30.3359L530.709 34.0479L532.161 35.4241ZM534.159 31.6295L542.095 42.0615L543.687 40.8505L535.751 30.4185L534.159 31.6295ZM542.11 42.0807C542.631 42.7313 543.172 43.3813 543.735 44.0309L545.247 42.7211C544.7 42.0907 544.175 41.4607 543.672 40.8313L542.11 42.0807ZM543.735 44.0309C544.328 44.7153 544.969 45.3337 545.658 45.8849L546.908 44.3231C546.317 43.8503 545.763 43.3167 545.247 42.7211L543.735 44.0309ZM545.658 45.8849C546.369 46.4535 547.133 46.9083 547.95 47.2447L548.712 45.3953C548.078 45.1344 547.477 44.7785 546.908 44.3231L545.658 45.8849ZM547.969 47.252C548.856 47.5972 549.79 47.768 550.763 47.768V45.768C550.029 45.768 549.342 45.6401 548.693 45.388L547.969 47.252ZM550.763 47.768C551.606 47.768 552.429 47.6743 553.232 47.4854L552.774 45.5386C552.126 45.6911 551.456 45.768 550.763 45.768V47.768ZM553.232 47.4854C553.973 47.311 554.636 47.1346 555.217 46.9558L554.629 45.0442C554.101 45.2067 553.483 45.3717 552.774 45.5386L553.232 47.4854ZM555.923 46V43.44H553.923V46H555.923ZM554.923 42.44H553.131V44.44H554.923V42.44ZM553.131 42.44C552.818 42.44 552.447 42.3496 552.005 42.1115L551.057 43.8725C551.724 44.2317 552.42 44.44 553.131 44.44V42.44ZM552.005 42.1115C551.51 41.8449 550.982 41.4945 550.421 41.0537L549.185 42.6263C549.819 43.1241 550.443 43.5417 551.057 43.8725L552.005 42.1115ZM550.481 41.1052C549.937 40.6026 549.392 40.0785 548.846 39.5329L547.432 40.9471C547.996 41.5108 548.56 42.0534 549.125 42.5748L550.481 41.1052ZM548.898 39.5892C548.396 39.0037 547.938 38.4414 547.524 37.9023L545.938 39.1217C546.377 39.692 546.858 40.2817 547.38 40.8908L548.898 39.5892ZM547.525 37.9039L539.141 26.9599L537.553 28.1761L545.937 39.1201L547.525 37.9039ZM539.069 28.2596L552.061 14.6916L550.617 13.3084L537.625 26.8764L539.069 28.2596ZM551.339 13H547.307V15H551.339V13ZM546.586 13.307L530.714 29.819L532.156 31.205L548.028 14.693L546.586 13.307ZM570.268 46H569.268V47H570.268V46ZM575.708 46V47H576.708V46H575.708ZM575.708 16.56V15.56H574.708V16.56H575.708ZM588.508 16.56V17.56H589.508V16.56H588.508ZM588.508 14H589.508V13H588.508V14ZM557.468 14V13H556.468V14H557.468ZM557.468 16.56H556.468V17.56H557.468V16.56ZM570.268 16.56H571.268V15.56H570.268V16.56ZM570.268 47H575.708V45H570.268V47ZM576.708 46V16.56H574.708V46H576.708ZM575.708 17.56H588.508V15.56H575.708V17.56ZM589.508 16.56V14H587.508V16.56H589.508ZM588.508 13H557.468V15H588.508V13ZM556.468 14V16.56H558.468V14H556.468ZM557.468 17.56H570.268V15.56H557.468V17.56ZM569.268 16.56V46H571.268V16.56H569.268ZM594.932 14V13H593.932V14H594.932ZM594.932 46H593.932V47H594.932V46ZM615.156 45.424L614.84 44.4753L614.829 44.479L615.156 45.424ZM618.164 43.76L618.812 44.5219L618.823 44.5128L618.833 44.5033L618.164 43.76ZM620.213 41.072L619.325 40.6106L619.322 40.6177L619.318 40.6248L620.213 41.072ZM619.573 32.432L618.786 33.0498L618.793 33.0584L618.8 33.0667L619.573 32.432ZM616.117 29.808L615.716 30.7242L615.728 30.7295L615.74 30.7345L616.117 29.808ZM600.372 28.528H599.372V29.528H600.372V28.528ZM600.372 14H601.372V13H600.372V14ZM627.765 14V13H626.765V14H627.765ZM627.765 46H626.765V47H627.765V46ZM633.205 46V47H634.205V46H633.205ZM633.205 14H634.205V13H633.205V14ZM600.372 43.568H599.372V44.568H600.372V43.568ZM600.372 30.704V29.704H599.372V30.704H600.372ZM609.524 30.832L609.629 29.8375L609.524 30.832ZM611.956 31.664L611.455 32.5294L611.482 32.5448L611.509 32.5584L611.956 31.664ZM614.196 33.712L613.37 34.2753L613.376 34.2844L613.383 34.2932L614.196 33.712ZM613.237 42.096L613.858 42.8795L613.861 42.8769L613.237 42.096ZM593.932 14V46H595.932V14H593.932ZM594.932 47H611.765V45H594.932V47ZM611.765 47C613.03 47 614.271 46.7887 615.484 46.369L614.829 44.479C613.823 44.8273 612.803 45 611.765 45V47ZM615.473 46.3727C616.736 45.9516 617.853 45.3369 618.812 44.5219L617.517 42.9981C616.769 43.6338 615.881 44.1284 614.84 44.4753L615.473 46.3727ZM618.833 44.5033C619.78 43.6518 620.539 42.6555 621.107 41.5192L619.318 40.6248C618.862 41.5365 618.256 42.3322 617.496 43.0167L618.833 44.5033ZM621.1 41.5334C621.736 40.3103 622.044 38.9549 622.044 37.488H620.044C620.044 38.6664 619.799 39.7003 619.325 40.6106L621.1 41.5334ZM622.044 37.488C622.044 35.1734 621.523 33.2314 620.345 31.7973L618.8 33.0667C619.584 34.0219 620.044 35.4506 620.044 37.488H622.044ZM620.359 31.8142C619.316 30.4871 618.025 29.5038 616.493 28.8815L615.74 30.7345C616.939 31.2216 617.952 31.9875 618.786 33.0498L620.359 31.8142ZM616.517 28.8918C615.051 28.2505 613.515 27.8609 611.914 27.7237L611.743 29.7163C613.128 29.8351 614.451 30.1709 615.716 30.7242L616.517 28.8918ZM611.914 27.7237C610.404 27.5942 609.115 27.528 608.052 27.528V29.528C609.038 29.528 610.266 29.5898 611.743 29.7163L611.914 27.7237ZM608.052 27.528H600.372V29.528H608.052V27.528ZM601.372 28.528V14H599.372V28.528H601.372ZM600.372 13H594.932V15H600.372V13ZM626.765 14V46H628.765V14H626.765ZM627.765 47H633.205V45H627.765V47ZM634.205 46V14H632.205V46H634.205ZM633.205 13H627.765V15H633.205V13ZM601.372 43.568V30.704H599.372V43.568H601.372ZM600.372 31.704H607.732V29.704H600.372V31.704ZM607.732 31.704C608.061 31.704 608.614 31.7417 609.42 31.8265L609.629 29.8375C608.813 29.7516 608.172 29.704 607.732 29.704V31.704ZM609.42 31.8265C610.071 31.8951 610.748 32.12 611.455 32.5294L612.458 30.7986C611.543 30.2693 610.599 29.9396 609.629 29.8375L609.42 31.8265ZM611.509 32.5584C612.183 32.8955 612.808 33.4506 613.37 34.2753L615.023 33.1487C614.305 32.096 613.436 31.2858 612.404 30.7696L611.509 32.5584ZM613.383 34.2932C613.854 34.953 614.156 35.996 614.156 37.552H616.156C616.156 35.78 615.819 34.263 615.01 33.1308L613.383 34.2932ZM614.156 37.552C614.156 39.3285 613.602 40.5232 612.612 41.3151L613.861 42.8769C615.431 41.6208 616.156 39.7862 616.156 37.552H614.156ZM612.615 41.3125C611.565 42.1457 610.336 42.568 608.885 42.568V44.568C610.761 44.568 612.434 44.0089 613.858 42.8795L612.615 41.3125ZM608.885 42.568H600.372V44.568H608.885V42.568Z" fill="url(#paint0_linear)" fill-opacity="0.5"/>
<defs>
<linearGradient id="paint0_linear" x1="-3.03039" y1="-10.9986" x2="12.7788" y2="103.819" gradientUnits="userSpaceOnUse">
<stop stop-color="#C69C6D"/>
<stop offset="1" stop-color="#E6A762"/>
</linearGradient>
</defs>
</svg>
