<svg width="565" height="49" viewBox="0 0 565 49" fill="none" xmlns="http://www.w3.org/2000/svg">
<path d="M1.2 24.6C1.2 26.9893 1.648 29.5493 2.544 32.28C3.48267 34.968 4.93333 37.464 6.896 39.768C8.85867 42.072 11.3547 43.992 14.384 45.528C17.4133 47.0213 21.04 47.768 25.264 47.768C28.1227 47.768 30.704 47.4267 33.008 46.744C35.3547 46.0187 37.4453 45.0587 39.28 43.864C41.1573 42.6693 42.7787 41.304 44.144 39.768C45.5093 38.1893 46.6187 36.5467 47.472 34.84C48.368 33.0907 49.0293 31.3413 49.456 29.592C49.9253 27.8427 50.16 26.1787 50.16 24.6C50.16 22.2107 49.6693 19.672 48.688 16.984C47.7067 14.2533 46.192 11.736 44.144 9.432C42.096 7.128 39.4933 5.22933 36.336 3.736C33.2213 2.2 29.5307 1.432 25.264 1.432C21.04 1.432 17.4133 2.17867 14.384 3.672C11.3547 5.16533 8.85867 7.064 6.896 9.368C4.93333 11.6293 3.48267 14.1253 2.544 16.856C1.648 19.5867 1.2 22.168 1.2 24.6ZM7.472 24.6C7.472 21.6133 7.92 18.8827 8.816 16.408C9.75467 13.8907 11.0133 11.736 12.592 9.944C14.2133 8.152 16.112 6.76533 18.288 5.784C20.464 4.76 22.832 4.248 25.392 4.248C27.9093 4.248 30.2773 4.76 32.496 5.784C34.7573 6.76533 36.72 8.152 38.384 9.944C40.0907 11.736 41.4347 13.8907 42.416 16.408C43.3973 18.8827 43.888 21.6133 43.888 24.6C43.888 27.5867 43.3973 30.3387 42.416 32.856C41.4347 35.3307 40.0907 37.464 38.384 39.256C36.72 41.048 34.7573 42.456 32.496 43.48C30.2773 44.4613 27.9093 44.952 25.392 44.952C22.832 44.952 20.464 44.4613 18.288 43.48C16.112 42.456 14.2133 41.048 12.592 39.256C11.0133 37.464 9.75467 35.3307 8.816 32.856C7.92 30.3387 7.472 27.5867 7.472 24.6ZM67.455 47H72.895V17.56H85.695V15H54.655V17.56H67.455V47ZM102.04 16.856C104.6 16.856 106.477 17.432 107.672 18.584C108.909 19.736 109.528 21.208 109.528 23C109.528 24.152 109.293 25.1547 108.824 26.008C108.397 26.8187 107.8 27.48 107.032 27.992C106.264 28.504 105.389 28.888 104.408 29.144C103.427 29.4 102.424 29.528 101.4 29.528H99.224V31.704H101.528C102.168 31.704 103 31.768 104.024 31.896C105.091 31.9813 106.115 32.2373 107.096 32.664C108.12 33.0907 108.995 33.752 109.72 34.648C110.445 35.5013 110.808 36.696 110.808 38.232C110.808 40.4933 109.997 42.2853 108.376 43.608C106.797 44.888 104.728 45.528 102.168 45.528C101.016 45.528 99.8853 45.3787 98.776 45.08C97.7093 44.7813 96.7067 44.3547 95.768 43.8C94.872 43.2027 94.0827 42.4773 93.4 41.624C92.7173 40.728 92.2267 39.704 91.928 38.552L88.92 41.048C89.56 42.2 90.2427 43.2027 90.968 44.056C91.6933 44.9093 92.5467 45.6133 93.528 46.168C94.552 46.68 95.7253 47.064 97.048 47.32C98.4133 47.6187 100.035 47.768 101.912 47.768C104.813 47.768 107.224 47.4907 109.144 46.936C111.064 46.3387 112.579 45.592 113.688 44.696C114.84 43.8 115.651 42.8187 116.12 41.752C116.589 40.6853 116.824 39.6613 116.824 38.68C116.824 37.656 116.611 36.6747 116.184 35.736C115.757 34.7547 115.139 33.88 114.328 33.112C113.56 32.344 112.579 31.7253 111.384 31.256C110.232 30.744 108.888 30.488 107.352 30.488V30.04C109.144 29.8693 110.531 29.4427 111.512 28.76C112.493 28.0773 113.219 27.352 113.688 26.584C114.157 25.7733 114.435 25.0053 114.52 24.28C114.648 23.512 114.712 23 114.712 22.744C114.712 21.848 114.499 20.9093 114.072 19.928C113.688 18.904 113.027 17.9867 112.088 17.176C111.192 16.3227 109.976 15.64 108.44 15.128C106.947 14.5733 105.112 14.296 102.936 14.296C100.589 14.296 98.6267 14.616 97.048 15.256C95.4693 15.8533 94.2107 16.6213 93.272 17.56C92.3333 18.4987 91.6507 19.544 91.224 20.696C90.7973 21.8053 90.5627 22.8507 90.52 23.832H94.36C94.5307 22.424 94.8507 21.272 95.32 20.376C95.7893 19.48 96.3653 18.776 97.048 18.264C97.7307 17.7093 98.4987 17.3467 99.352 17.176C100.205 16.9627 101.101 16.856 102.04 16.856ZM125.12 15V47H141.952C143.104 47 144.235 46.808 145.344 46.424C146.496 46.04 147.499 45.4853 148.352 44.76C149.205 43.992 149.888 43.096 150.4 42.072C150.955 41.0053 151.232 39.8107 151.232 38.488C151.232 36.312 150.741 34.6267 149.76 33.432C148.821 32.2373 147.669 31.3627 146.304 30.808C144.939 30.2107 143.509 29.848 142.016 29.72C140.523 29.592 139.264 29.528 138.24 29.528H130.56V15H125.12ZM157.952 15V47H163.392V15H157.952ZM130.56 44.568V31.704H137.92C138.304 31.704 138.901 31.7467 139.712 31.832C140.523 31.9173 141.333 32.1947 142.144 32.664C142.997 33.0907 143.744 33.7733 144.384 34.712C145.024 35.608 145.344 36.888 145.344 38.552C145.344 40.5573 144.704 42.072 143.424 43.096C142.187 44.0773 140.736 44.568 139.072 44.568H130.56ZM173.62 15V47H188.084C190.175 47 191.967 46.7653 193.46 46.296C194.953 45.784 196.169 45.144 197.108 44.376C198.047 43.5653 198.729 42.6693 199.156 41.688C199.583 40.664 199.796 39.6187 199.796 38.552C199.796 36.9307 199.476 35.5867 198.836 34.52C198.196 33.4533 197.385 32.6213 196.404 32.024C195.465 31.384 194.441 30.936 193.332 30.68C192.265 30.424 191.284 30.2747 190.388 30.232V29.784C191.241 29.6133 192.095 29.3573 192.948 29.016C193.801 28.632 194.548 28.1413 195.188 27.544C195.871 26.904 196.404 26.1787 196.788 25.368C197.215 24.5147 197.428 23.5547 197.428 22.488C197.428 21.8907 197.321 21.1653 197.108 20.312C196.895 19.4587 196.425 18.648 195.7 17.88C194.975 17.0693 193.908 16.3867 192.5 15.832C191.135 15.2773 189.3 15 186.996 15H173.62ZM179.06 44.44V31.704H184.692C185.375 31.704 186.228 31.7467 187.252 31.832C188.319 31.9173 189.343 32.1733 190.324 32.6C191.305 33.0267 192.137 33.688 192.82 34.584C193.545 35.48 193.908 36.7173 193.908 38.296C193.908 39.832 193.567 41.0267 192.884 41.88C192.201 42.6907 191.391 43.288 190.452 43.672C189.556 44.056 188.639 44.2907 187.7 44.376C186.804 44.4187 186.143 44.44 185.716 44.44H179.06ZM179.06 29.528V17.56H185.396C186.847 17.56 187.999 17.7733 188.852 18.2C189.748 18.6267 190.431 19.1387 190.9 19.736C191.369 20.3333 191.668 20.9733 191.796 21.656C191.967 22.296 192.052 22.872 192.052 23.384C192.052 24.3653 191.839 25.24 191.412 26.008C191.028 26.7333 190.495 27.3733 189.812 27.928C189.129 28.44 188.34 28.8453 187.444 29.144C186.548 29.4 185.609 29.528 184.628 29.528H179.06ZM208.12 15V47H224.952C226.104 47 227.235 46.808 228.344 46.424C229.496 46.04 230.499 45.4853 231.352 44.76C232.205 43.992 232.888 43.096 233.4 42.072C233.955 41.0053 234.232 39.8107 234.232 38.488C234.232 36.312 233.741 34.6267 232.76 33.432C231.821 32.2373 230.669 31.3627 229.304 30.808C227.939 30.2107 226.509 29.848 225.016 29.72C223.523 29.592 222.264 29.528 221.24 29.528H213.56V15H208.12ZM240.952 15V47H246.392V15H240.952ZM213.56 44.568V31.704H220.92C221.304 31.704 221.901 31.7467 222.712 31.832C223.523 31.9173 224.333 32.1947 225.144 32.664C225.997 33.0907 226.744 33.7733 227.384 34.712C228.024 35.608 228.344 36.888 228.344 38.552C228.344 40.5573 227.704 42.072 226.424 43.096C225.187 44.0773 223.736 44.568 222.072 44.568H213.56ZM284.435 31.512V15H278.995V47H284.435V35.736L287.955 32.024L295.891 42.456C296.403 43.096 296.936 43.736 297.491 44.376C298.046 45.016 298.643 45.592 299.283 46.104C299.923 46.616 300.606 47.0213 301.331 47.32C302.099 47.6187 302.91 47.768 303.763 47.768C304.531 47.768 305.278 47.6827 306.003 47.512C306.728 47.3413 307.368 47.1707 307.923 47V44.44H306.131C305.619 44.44 305.086 44.2907 304.531 43.992C303.976 43.6933 303.4 43.3093 302.803 42.84C302.248 42.328 301.694 41.7947 301.139 41.24C300.627 40.6427 300.158 40.0667 299.731 39.512L291.347 28.568L304.339 15H300.307L284.435 31.512ZM332.676 15H328.836L319.108 39.128C318.894 39.5973 318.66 40.152 318.404 40.792C318.148 41.3893 317.849 41.9653 317.508 42.52C317.166 43.0747 316.761 43.544 316.292 43.928C315.865 44.2693 315.396 44.44 314.884 44.44C314.286 44.44 313.668 44.2693 313.028 43.928C312.388 43.5867 311.876 43.2453 311.492 42.904L310.468 46.296C311.449 47.2347 312.836 47.704 314.628 47.704C315.438 47.704 316.164 47.576 316.804 47.32C317.444 47.1067 318.041 46.7013 318.595 46.104C319.15 45.464 319.684 44.6533 320.196 43.672C320.75 42.648 321.326 41.368 321.924 39.832L329.284 21.336H329.668L339.908 47H345.668L332.676 15ZM357.498 43.224V15H352.058V47H358.458L374.778 18.968V47H380.218V15H373.818L357.498 43.224ZM418.849 32.408V31.064C418.849 28.2053 418.443 25.7307 417.632 23.64C416.822 21.5493 415.713 19.8213 414.305 18.456C412.939 17.0907 411.339 16.0667 409.505 15.384C407.67 14.7013 405.729 14.36 403.681 14.36C401.505 14.36 399.499 14.744 397.665 15.512C395.83 16.2373 394.23 17.3253 392.865 18.776C391.499 20.184 390.433 21.912 389.665 23.96C388.897 25.9653 388.513 28.248 388.513 30.808C388.513 32.9413 388.833 35.032 389.473 37.08C390.155 39.0853 391.158 40.8987 392.481 42.52C393.846 44.0987 395.553 45.3787 397.601 46.36C399.691 47.2987 402.145 47.768 404.961 47.768C407.691 47.768 410.209 47.2987 412.513 46.36C414.817 45.3787 416.822 43.992 418.529 42.2L416.481 40.152C415.585 40.92 414.731 41.624 413.921 42.264C413.153 42.904 412.363 43.4373 411.553 43.864C410.742 44.2907 409.889 44.632 408.993 44.888C408.139 45.1013 407.179 45.208 406.113 45.208C404.918 45.208 403.638 45.0373 402.273 44.696C400.95 44.312 399.713 43.6507 398.561 42.712C397.409 41.7733 396.449 40.472 395.681 38.808C394.913 37.144 394.529 35.0107 394.529 32.408H418.849ZM394.529 29.848C394.529 28.1413 394.699 26.4987 395.041 24.92C395.425 23.2987 395.979 21.8693 396.705 20.632C397.473 19.3947 398.433 18.4133 399.585 17.688C400.737 16.92 402.102 16.536 403.681 16.536C406.71 16.536 409.057 17.7307 410.721 20.12C412.427 22.4667 413.281 25.7093 413.281 29.848H394.529ZM432.623 31.704H448.815V47H454.255V15H448.815V29.528H432.623V15H427.183V47H432.623V31.704ZM473.455 47H478.895V17.56H491.695V15H460.655V17.56H473.455V47ZM529.352 31.064C529.352 33.2827 528.968 35.416 528.2 37.464C527.432 39.4693 526.323 41.24 524.872 42.776C523.464 44.312 521.736 45.528 519.688 46.424C517.683 47.32 515.421 47.768 512.904 47.768C510.344 47.768 508.019 47.32 505.928 46.424C503.88 45.4853 502.131 44.248 500.68 42.712C499.272 41.176 498.163 39.4053 497.352 37.4C496.584 35.352 496.2 33.24 496.2 31.064C496.2 28.8453 496.584 26.7333 497.352 24.728C498.163 22.68 499.272 20.888 500.68 19.352C502.131 17.816 503.88 16.6 505.928 15.704C508.019 14.7653 510.344 14.296 512.904 14.296C515.421 14.296 517.683 14.7653 519.688 15.704C521.736 16.6 523.464 17.816 524.872 19.352C526.323 20.888 527.432 22.68 528.2 24.728C528.968 26.7333 529.352 28.8453 529.352 31.064ZM523.272 31.064C523.272 28.0773 522.952 25.6667 522.312 23.832C521.672 21.9547 520.84 20.504 519.816 19.48C518.792 18.456 517.661 17.7733 516.424 17.432C515.187 17.048 513.992 16.856 512.84 16.856C511.688 16.856 510.493 17.048 509.256 17.432C508.019 17.7733 506.867 18.456 505.8 19.48C504.776 20.504 503.923 21.9547 503.24 23.832C502.6 25.6667 502.28 28.0773 502.28 31.064C502.28 34.008 502.6 36.4187 503.24 38.296C503.923 40.1307 504.776 41.56 505.8 42.584C506.867 43.608 508.019 44.312 509.256 44.696C510.493 45.0373 511.688 45.208 512.84 45.208C513.992 45.208 515.187 45.0373 516.424 44.696C517.661 44.312 518.792 43.608 519.816 42.584C520.84 41.56 521.672 40.1307 522.312 38.296C522.952 36.4187 523.272 34.008 523.272 31.064ZM537.683 15V47H552.147C554.237 47 556.029 46.7653 557.523 46.296C559.016 45.784 560.232 45.144 561.171 44.376C562.109 43.5653 562.792 42.6693 563.219 41.688C563.645 40.664 563.859 39.6187 563.859 38.552C563.859 36.9307 563.539 35.5867 562.899 34.52C562.259 33.4533 561.448 32.6213 560.467 32.024C559.528 31.384 558.504 30.936 557.395 30.68C556.328 30.424 555.347 30.2747 554.451 30.232V29.784C555.304 29.6133 556.157 29.3573 557.011 29.016C557.864 28.632 558.611 28.1413 559.251 27.544C559.933 26.904 560.467 26.1787 560.851 25.368C561.277 24.5147 561.491 23.5547 561.491 22.488C561.491 21.8907 561.384 21.1653 561.171 20.312C560.957 19.4587 560.488 18.648 559.763 17.88C559.037 17.0693 557.971 16.3867 556.563 15.832C555.197 15.2773 553.363 15 551.059 15H537.683ZM543.123 44.44V31.704H548.755C549.437 31.704 550.291 31.7467 551.315 31.832C552.381 31.9173 553.405 32.1733 554.387 32.6C555.368 33.0267 556.2 33.688 556.883 34.584C557.608 35.48 557.971 36.7173 557.971 38.296C557.971 39.832 557.629 41.0267 556.947 41.88C556.264 42.6907 555.453 43.288 554.515 43.672C553.619 44.056 552.701 44.2907 551.763 44.376C550.867 44.4187 550.205 44.44 549.779 44.44H543.123ZM543.123 29.528V17.56H549.458C550.909 17.56 552.061 17.7733 552.915 18.2C553.811 18.6267 554.493 19.1387 554.963 19.736C555.432 20.3333 555.731 20.9733 555.859 21.656C556.029 22.296 556.115 22.872 556.115 23.384C556.115 24.3653 555.901 25.24 555.475 26.008C555.091 26.7333 554.557 27.3733 553.875 27.928C553.192 28.44 552.403 28.8453 551.507 29.144C550.611 29.4 549.672 29.528 548.691 29.528H543.123Z" fill="#333333"/>
<path d="M2.544 32.28L1.59384 32.5918L1.59679 32.6008L1.59991 32.6097L2.544 32.28ZM6.896 39.768L7.65724 39.1195L6.896 39.768ZM14.384 45.528L13.9317 46.42L13.9418 46.4249L14.384 45.528ZM33.008 46.744L33.2921 47.7029L33.3033 47.6994L33.008 46.744ZM39.28 43.864L38.7431 43.0203L38.7343 43.026L39.28 43.864ZM44.144 39.768L44.8915 40.4324L44.9004 40.4222L44.144 39.768ZM47.472 34.84L46.5819 34.3841L46.5776 34.3928L47.472 34.84ZM49.456 29.592L48.4902 29.3329L48.4872 29.3439L48.4845 29.355L49.456 29.592ZM48.688 16.984L47.7469 17.3222L47.7486 17.3269L48.688 16.984ZM44.144 9.432L43.3966 10.0964L44.144 9.432ZM36.336 3.736L35.8937 4.63287L35.901 4.63649L35.9084 4.63998L36.336 3.736ZM14.384 3.672L13.9418 2.77506H13.9418L14.384 3.672ZM6.896 9.368L7.65125 10.0235L7.65724 10.0165L6.896 9.368ZM2.544 16.856L1.59822 16.5309L1.59384 16.5442L2.544 16.856ZM8.816 16.408L7.87898 16.0586L7.87574 16.0676L8.816 16.408ZM12.592 9.944L11.8504 9.27302L11.8416 9.28297L12.592 9.944ZM18.288 5.784L18.6991 6.69558L18.7065 6.69226L18.7138 6.68882L18.288 5.784ZM32.496 5.784L32.0769 6.69196L32.0874 6.69677L32.0979 6.70134L32.496 5.784ZM38.384 9.944L37.6511 10.6245L37.6599 10.6337L38.384 9.944ZM42.416 16.408L41.4843 16.7712L41.4864 16.7766L42.416 16.408ZM42.416 32.856L43.3456 33.2246L43.3477 33.2192L42.416 32.856ZM38.384 39.256L37.6598 38.5663L37.6512 38.5755L38.384 39.256ZM32.496 43.48L32.9005 44.3946L32.9085 44.391L32.496 43.48ZM18.288 43.48L17.8622 44.3848L17.8695 44.3883L17.8769 44.3916L18.288 43.48ZM12.592 39.256L11.8416 39.9171L11.8505 39.9269L12.592 39.256ZM8.816 32.856L7.8739 33.1913L7.87735 33.201L7.881 33.2107L8.816 32.856ZM0.2 24.6C0.2 27.1142 0.671305 29.7802 1.59384 32.5918L3.49416 31.9682C2.6247 29.3184 2.2 26.8645 2.2 24.6H0.2ZM1.59991 32.6097C2.58182 35.4215 4.09707 38.0244 6.13476 40.4165L7.65724 39.1195C5.7696 36.9036 4.38351 34.5145 3.48809 31.9503L1.59991 32.6097ZM6.13476 40.4165C8.19319 42.8329 10.7987 44.8313 13.9318 46.4199L14.8362 44.6361C11.9106 43.1527 9.52415 41.3111 7.65724 39.1195L6.13476 40.4165ZM13.9418 46.4249C17.1388 48.0009 20.9242 48.768 25.264 48.768V46.768C21.1558 46.768 17.6879 46.0418 14.8262 44.6311L13.9418 46.4249ZM25.264 48.768C28.2012 48.768 30.8803 48.4174 33.2921 47.7028L32.7239 45.7852C30.5277 46.4359 28.0441 46.768 25.264 46.768V48.768ZM33.3033 47.6994C35.7279 46.95 37.9046 45.9529 39.8257 44.702L38.7343 43.026C36.9861 44.1644 34.9815 45.0873 32.7127 45.7886L33.3033 47.6994ZM39.8169 44.7077C41.7659 43.4674 43.4597 42.0431 44.8914 40.4324L43.3966 39.1036C42.0977 40.5649 40.5487 41.8713 38.7431 43.0203L39.8169 44.7077ZM44.9004 40.4222C46.3151 38.7864 47.4726 37.0749 48.3664 35.2872L46.5776 34.3928C45.7648 36.0184 44.7036 37.5923 43.3876 39.1138L44.9004 40.4222ZM48.362 35.2959C49.2904 33.4833 49.9807 31.6608 50.4275 29.829L48.4845 29.355C48.0779 31.0219 47.4456 32.698 46.582 34.3841L48.362 35.2959ZM50.4218 29.8511C50.9106 28.0294 51.16 26.2779 51.16 24.6H49.16C49.16 26.0794 48.9401 27.6559 48.4902 29.3329L50.4218 29.8511ZM51.16 24.6C51.16 22.0731 50.6411 19.4178 49.6274 16.6411L47.7486 17.3269C48.6976 19.9262 49.16 22.3482 49.16 24.6H51.16ZM49.6291 16.6458C48.6019 13.7877 47.0188 11.161 44.8914 8.76764L43.3966 10.0964C45.3652 12.311 46.8114 14.719 47.7469 17.3222L49.6291 16.6458ZM44.8914 8.76764C42.7429 6.35052 40.0264 4.37525 36.7636 2.83201L35.9084 4.63998C38.9603 6.08341 41.4491 7.90547 43.3966 10.0964L44.8914 8.76764ZM36.7783 2.83912C33.4982 1.22155 29.6496 0.431999 25.264 0.431999V2.432C29.4117 2.432 32.9445 3.17845 35.8937 4.63287L36.7783 2.83912ZM25.264 0.431999C20.9242 0.431999 17.1388 1.19909 13.9418 2.77506L14.8262 4.56894C17.6879 3.15824 21.1558 2.432 25.264 2.432V0.431999ZM13.9418 2.77506C10.8045 4.32162 8.19547 6.30044 6.13476 8.71953L7.65724 10.0165C9.52187 7.82756 11.9048 6.00904 14.8262 4.56894L13.9418 2.77506ZM6.14078 8.71253C4.09719 11.0671 2.58023 13.6744 1.59831 16.5309L3.48969 17.1811C4.3851 14.5762 5.76948 12.1916 7.65122 10.0235L6.14078 8.71253ZM1.59384 16.5442C0.670662 19.3577 0.2 22.0449 0.2 24.6H2.2C2.2 22.2911 2.62534 19.8156 3.49416 17.1678L1.59384 16.5442ZM8.472 24.6C8.472 21.7139 8.90473 19.1003 9.75627 16.7484L7.87574 16.0676C6.93527 18.665 6.472 21.5127 6.472 24.6H8.472ZM9.75298 16.7574C10.6543 14.3402 11.8539 12.2947 13.3424 10.605L11.8416 9.28297C10.1728 11.1773 8.85505 13.4411 7.87902 16.0586L9.75298 16.7574ZM13.3335 10.6149C14.8637 8.92373 16.6502 7.61958 18.6991 6.69558L17.8769 4.87241C15.5738 5.91108 13.563 7.38026 11.8505 9.27308L13.3335 10.6149ZM18.7138 6.68882C20.7481 5.73149 22.9695 5.248 25.392 5.248V3.248C22.6945 3.248 20.1799 3.7885 17.8622 4.87918L18.7138 6.68882ZM25.392 5.248C27.7691 5.248 29.9937 5.73045 32.0769 6.69196L32.9151 4.87604C30.561 3.78955 28.0495 3.248 25.392 3.248V5.248ZM32.0979 6.70134C34.2336 7.62813 36.082 8.93452 37.6512 10.6244L39.1168 9.26354C37.358 7.36947 35.2811 5.90253 32.8941 4.86665L32.0979 6.70134ZM37.6599 10.6337C39.2688 12.3231 40.5459 14.364 41.4843 16.7712L43.3477 16.0448C42.3235 13.4174 40.9125 11.1489 39.1081 9.25434L37.6599 10.6337ZM41.4864 16.7766C42.4159 19.1205 42.888 21.7242 42.888 24.6H44.888C44.888 21.5024 44.3788 18.6448 43.3456 16.0394L41.4864 16.7766ZM42.888 24.6C42.888 27.4755 42.416 30.1028 41.4843 32.4928L43.3477 33.2192C44.3787 30.5745 44.888 27.6978 44.888 24.6H42.888ZM41.4864 32.4874C40.5487 34.852 39.2716 36.874 37.6599 38.5663L39.1081 39.9457C40.9097 38.054 42.3206 35.8094 43.3456 33.2246L41.4864 32.4874ZM37.6512 38.5755C36.079 40.2687 34.2257 41.599 32.0835 42.569L32.9085 44.391C35.289 43.313 37.361 41.8273 39.1168 39.9365L37.6512 38.5755ZM32.0915 42.5655C30.0051 43.4883 27.7754 43.952 25.392 43.952V45.952C28.0433 45.952 30.5496 45.4344 32.9005 44.3945L32.0915 42.5655ZM25.392 43.952C22.9633 43.952 20.7367 43.4873 18.6991 42.5684L17.8769 44.3916C20.1913 45.4353 22.7007 45.952 25.392 45.952V43.952ZM18.7138 42.5752C16.6581 41.6078 14.8666 40.2795 13.3335 38.5851L11.8505 39.9269C13.5601 41.8165 15.5659 43.3042 17.8622 44.3848L18.7138 42.5752ZM13.3424 38.595C11.8513 36.9024 10.6516 34.8757 9.751 32.5013L7.881 33.2107C8.8577 35.7856 10.1754 38.0256 11.8416 39.917L13.3424 38.595ZM9.7581 32.5207C8.90465 30.1229 8.472 27.4858 8.472 24.6H6.472C6.472 27.6876 6.93535 30.5544 7.8739 33.1913L9.7581 32.5207ZM67.455 47H66.455V48H67.455V47ZM72.895 47V48H73.895V47H72.895ZM72.895 17.56V16.56H71.895V17.56H72.895ZM85.695 17.56V18.56H86.695V17.56H85.695ZM85.695 15H86.695V14H85.695V15ZM54.655 15V14H53.655V15H54.655ZM54.655 17.56H53.655V18.56H54.655V17.56ZM67.455 17.56H68.455V16.56H67.455V17.56ZM67.455 48H72.895V46H67.455V48ZM73.895 47V17.56H71.895V47H73.895ZM72.895 18.56H85.695V16.56H72.895V18.56ZM86.695 17.56V15H84.695V17.56H86.695ZM85.695 14H54.655V16H85.695V14ZM53.655 15V17.56H55.655V15H53.655ZM54.655 18.56H67.455V16.56H54.655V18.56ZM66.455 17.56V47H68.455V17.56H66.455ZM107.672 18.584L106.978 19.3038L106.984 19.3099L106.991 19.3159L107.672 18.584ZM108.824 26.008L107.948 25.5261L107.943 25.5341L107.939 25.5423L108.824 26.008ZM99.224 29.528V28.528H98.224V29.528H99.224ZM99.224 31.704H98.224V32.704H99.224V31.704ZM104.024 31.896L103.9 32.8883L103.922 32.891L103.944 32.8928L104.024 31.896ZM107.096 32.664L106.697 33.5811L106.704 33.5841L106.711 33.5871L107.096 32.664ZM109.72 34.648L108.943 35.2772L108.95 35.2865L108.958 35.2956L109.72 34.648ZM108.376 43.608L109.006 44.3848L109.008 44.3829L108.376 43.608ZM98.776 45.08L98.5064 46.043L98.516 46.0456L98.776 45.08ZM95.768 43.8L95.2133 44.632L95.2359 44.6471L95.2593 44.6609L95.768 43.8ZM93.4 41.624L92.6046 42.23L92.6117 42.2395L92.6191 42.2487L93.4 41.624ZM91.928 38.552L92.896 38.301L92.5009 36.7772L91.2894 37.7824L91.928 38.552ZM88.92 41.048L88.2814 40.2784L87.6429 40.8083L88.0458 41.5336L88.92 41.048ZM90.968 44.056L91.7299 43.4084L90.968 44.056ZM93.528 46.168L93.0359 47.0386L93.0581 47.0511L93.0808 47.0624L93.528 46.168ZM97.048 47.32L97.2617 46.3431L97.2499 46.3405L97.238 46.3382L97.048 47.32ZM109.144 46.936L109.422 47.8967L109.431 47.8939L109.441 47.8909L109.144 46.936ZM113.688 44.696L113.074 43.9066L113.067 43.9123L113.06 43.9181L113.688 44.696ZM116.12 41.752L115.205 41.3493L116.12 41.752ZM116.184 35.736L115.267 36.1347L115.27 36.1423L115.274 36.1498L116.184 35.736ZM114.328 33.112L113.621 33.8191L113.63 33.8287L113.64 33.838L114.328 33.112ZM111.384 31.256L110.978 32.1698L110.998 32.1787L111.018 32.1868L111.384 31.256ZM107.352 30.488H106.352V31.488H107.352V30.488ZM107.352 30.04L107.257 29.0445L106.352 29.1307V30.04H107.352ZM113.688 26.584L114.541 27.1054L114.547 27.0953L114.553 27.085L113.688 26.584ZM114.52 24.28L113.534 24.1156L113.53 24.1393L113.527 24.1632L114.52 24.28ZM114.072 19.928L113.136 20.2791L113.145 20.3032L113.155 20.3267L114.072 19.928ZM112.088 17.176L111.398 17.9001L111.416 17.9169L111.434 17.9328L112.088 17.176ZM108.44 15.128L108.092 16.0654L108.108 16.0713L108.124 16.0767L108.44 15.128ZM97.048 15.256L97.4019 16.1913L97.4128 16.1871L97.4237 16.1827L97.048 15.256ZM93.272 17.56L93.9791 18.2671L93.9791 18.2671L93.272 17.56ZM91.224 20.696L92.1574 21.055L92.1618 21.0433L91.224 20.696ZM90.52 23.832L89.5209 23.7886L89.4756 24.832H90.52V23.832ZM94.36 23.832V24.832H95.2461L95.3527 23.9523L94.36 23.832ZM95.32 20.376L96.2058 20.84L95.32 20.376ZM97.048 18.264L97.648 19.064L97.6635 19.0524L97.6786 19.0401L97.048 18.264ZM99.352 17.176L99.5481 18.1566L99.5714 18.1519L99.5945 18.1461L99.352 17.176ZM102.04 17.856C104.478 17.856 106.049 18.4081 106.978 19.3038L108.366 17.8642C106.906 16.4559 104.722 15.856 102.04 15.856V17.856ZM106.991 19.3159C108.011 20.2663 108.528 21.4669 108.528 23H110.528C110.528 20.9491 109.807 19.2056 108.353 17.8521L106.991 19.3159ZM108.528 23C108.528 24.0144 108.322 24.8453 107.948 25.5261L109.7 26.4899C110.264 25.4641 110.528 24.2896 110.528 23H108.528ZM107.939 25.5423C107.591 26.204 107.107 26.7398 106.477 27.1599L107.587 28.8241C108.493 28.2202 109.204 27.4333 109.709 26.4737L107.939 25.5423ZM106.477 27.1599C105.811 27.6045 105.04 27.9457 104.156 28.1764L104.66 30.1116C105.739 29.8303 106.717 29.4035 107.587 28.8241L106.477 27.1599ZM104.156 28.1764C103.257 28.4107 102.34 28.528 101.4 28.528V30.528C102.508 30.528 103.596 30.3893 104.66 30.1116L104.156 28.1764ZM101.4 28.528H99.224V30.528H101.4V28.528ZM98.224 29.528V31.704H100.224V29.528H98.224ZM99.224 32.704H101.528V30.704H99.224V32.704ZM101.528 32.704C102.109 32.704 102.896 32.7627 103.9 32.8883L104.148 30.9037C103.104 30.7733 102.227 30.704 101.528 30.704V32.704ZM103.944 32.8928C104.901 32.9693 105.817 33.1984 106.697 33.5811L107.495 31.7469C106.412 31.2763 105.28 30.9933 104.104 30.8992L103.944 32.8928ZM106.711 33.5871C107.576 33.9473 108.318 34.505 108.943 35.2772L110.497 34.0188C109.672 32.999 108.664 32.234 107.481 31.7409L106.711 33.5871ZM108.958 35.2956C109.481 35.9108 109.808 36.8452 109.808 38.232H111.808C111.808 36.5468 111.41 35.0918 110.482 34.0004L108.958 35.2956ZM109.808 38.232C109.808 40.2206 109.112 41.7172 107.744 42.8331L109.008 44.3829C110.883 42.8534 111.808 40.7661 111.808 38.232H109.808ZM107.746 42.8312C106.388 43.9326 104.56 44.528 102.168 44.528V46.528C104.896 46.528 107.207 45.8434 109.006 44.3848L107.746 42.8312ZM102.168 44.528C101.104 44.528 100.06 44.3902 99.036 44.1144L98.516 46.0456C99.7104 46.3672 100.928 46.528 102.168 46.528V44.528ZM99.0456 44.117C98.0614 43.8415 97.1393 43.4488 96.2767 42.9391L95.2593 44.6609C96.2741 45.2606 97.3573 45.7212 98.5064 46.043L99.0456 44.117ZM96.3227 42.9679C95.5136 42.4285 94.8002 41.7735 94.1809 40.9993L92.6191 42.2487C93.3651 43.1812 94.2304 43.9768 95.2133 44.632L96.3227 42.9679ZM94.1954 41.018C93.5978 40.2336 93.1632 39.3318 92.896 38.301L90.96 38.803C91.2901 40.0762 91.8369 41.2224 92.6046 42.23L94.1954 41.018ZM91.2894 37.7824L88.2814 40.2784L89.5586 41.8176L92.5666 39.3216L91.2894 37.7824ZM88.0458 41.5336C88.7124 42.7334 89.4314 43.7923 90.2061 44.7036L91.7299 43.4084C91.0539 42.6131 90.4076 41.6666 89.7942 40.5624L88.0458 41.5336ZM90.2061 44.7036C91.0081 45.6472 91.9529 46.4264 93.0359 47.0386L94.0201 45.2974C93.1404 44.8002 92.3786 44.1715 91.7299 43.4084L90.2061 44.7036ZM93.0808 47.0624C94.199 47.6215 95.4613 48.0315 96.858 48.3018L97.238 46.3382C95.9894 46.0965 94.905 45.7385 93.9752 45.2736L93.0808 47.0624ZM96.8343 48.2969C98.2891 48.6151 99.9856 48.768 101.912 48.768V46.768C100.084 46.768 98.5376 46.6222 97.2617 46.3431L96.8343 48.2969ZM101.912 48.768C104.869 48.768 107.381 48.4863 109.422 47.8967L108.866 45.9753C107.067 46.495 104.758 46.768 101.912 46.768V48.768ZM109.441 47.8909C111.436 47.2702 113.077 46.4747 114.316 45.4739L113.06 43.9181C112.08 44.7093 110.692 45.4071 108.847 45.9811L109.441 47.8909ZM114.302 45.4854C115.552 44.5127 116.484 43.4069 117.035 42.1547L115.205 41.3493C114.817 42.2304 114.128 43.0873 113.074 43.9066L114.302 45.4854ZM117.035 42.1547C117.55 40.9846 117.824 39.8235 117.824 38.68H115.824C115.824 39.4992 115.628 40.3861 115.205 41.3493L117.035 42.1547ZM117.824 38.68C117.824 37.5122 117.58 36.3899 117.094 35.3222L115.274 36.1498C115.642 36.9594 115.824 37.7998 115.824 38.68H117.824ZM117.101 35.3373C116.618 34.2272 115.92 33.2425 115.016 32.386L113.64 33.838C114.358 34.5175 114.896 35.2822 115.267 36.1347L117.101 35.3373ZM115.035 32.4049C114.154 31.5236 113.049 30.8358 111.75 30.3252L111.018 32.1868C112.108 32.6148 112.966 33.1644 113.621 33.8191L115.035 32.4049ZM111.79 30.3422C110.486 29.7624 108.998 29.488 107.352 29.488V31.488C108.778 31.488 109.978 31.7256 110.978 32.1698L111.79 30.3422ZM108.352 30.488V30.04H106.352V30.488H108.352ZM107.447 31.0355C109.33 30.8561 110.907 30.3991 112.083 29.5809L110.941 27.9391C110.154 28.4862 108.958 28.8825 107.257 29.0445L107.447 31.0355ZM112.083 29.5809C113.143 28.8437 113.98 28.0238 114.541 27.1054L112.835 26.0625C112.457 26.6802 111.844 27.3109 110.941 27.9391L112.083 29.5809ZM114.553 27.085C115.073 26.1884 115.408 25.2901 115.513 24.3968L113.527 24.1632C113.461 24.7206 113.242 25.3583 112.823 26.083L114.553 27.085ZM115.506 24.4444C115.632 23.6911 115.712 23.0969 115.712 22.744H113.712C113.712 22.9031 113.664 23.3329 113.534 24.1156L115.506 24.4444ZM115.712 22.744C115.712 21.6868 115.46 20.6124 114.989 19.5293L113.155 20.3267C113.537 21.2063 113.712 22.0092 113.712 22.744H115.712ZM115.008 19.5769C114.558 18.3761 113.79 17.3244 112.742 16.4192L111.434 17.9328C112.264 18.6489 112.818 19.4319 113.136 20.2791L115.008 19.5769ZM112.778 16.4519C111.748 15.4709 110.39 14.7241 108.756 14.1793L108.124 16.0767C109.562 16.5559 110.636 17.1744 111.398 17.9001L112.778 16.4519ZM108.788 14.1906C107.151 13.5824 105.19 13.296 102.936 13.296V15.296C105.034 15.296 106.742 15.5642 108.092 16.0654L108.788 14.1906ZM102.936 13.296C100.506 13.296 98.4062 13.6263 96.6723 14.3293L97.4237 16.1827C98.8472 15.6057 100.673 15.296 102.936 15.296V13.296ZM96.6941 14.3207C95.0176 14.9551 93.6271 15.7907 92.5649 16.8529L93.9791 18.2671C94.7942 17.452 95.9211 16.7516 97.4019 16.1913L96.6941 14.3207ZM92.5649 16.8529C91.5327 17.8851 90.7669 19.0509 90.2863 20.3487L92.1618 21.0433C92.5344 20.0371 93.134 19.1122 93.9791 18.2671L92.5649 16.8529ZM90.2907 20.337C89.833 21.5268 89.5692 22.6792 89.5209 23.7886L91.5191 23.8754C91.5562 23.0221 91.7616 22.0839 92.1573 21.055L90.2907 20.337ZM90.52 24.832H94.36V22.832H90.52V24.832ZM95.3527 23.9523C95.5143 22.6198 95.8103 21.5952 96.2058 20.84L94.4342 19.912C93.8911 20.9488 93.5471 22.2282 93.3673 23.7117L95.3527 23.9523ZM96.2058 20.84C96.6188 20.0517 97.1045 19.4716 97.648 19.064L96.448 17.464C95.6262 18.0804 94.9599 18.9083 94.4342 19.912L96.2058 20.84ZM97.6786 19.0401C98.2366 18.5867 98.8558 18.295 99.5481 18.1566L99.1559 16.1954C98.1415 16.3983 97.2247 16.8319 96.4174 17.4879L97.6786 19.0401ZM99.5945 18.1461C100.363 17.9539 101.178 17.856 102.04 17.856V15.856C101.025 15.856 100.047 15.9714 99.1095 16.2059L99.5945 18.1461ZM125.12 15V14H124.12V15H125.12ZM125.12 47H124.12V48H125.12V47ZM145.344 46.424L145.028 45.4753L145.017 45.479L145.344 46.424ZM148.352 44.76L149 45.5219L149.01 45.5128L149.021 45.5033L148.352 44.76ZM150.4 42.072L149.513 41.6106L149.509 41.6177L149.506 41.6248L150.4 42.072ZM149.76 33.432L148.974 34.0498L148.98 34.0584L148.987 34.0667L149.76 33.432ZM146.304 30.808L145.903 31.7242L145.915 31.7295L145.928 31.7345L146.304 30.808ZM130.56 29.528H129.56V30.528H130.56V29.528ZM130.56 15H131.56V14H130.56V15ZM157.952 15V14H156.952V15H157.952ZM157.952 47H156.952V48H157.952V47ZM163.392 47V48H164.392V47H163.392ZM163.392 15H164.392V14H163.392V15ZM130.56 44.568H129.56V45.568H130.56V44.568ZM130.56 31.704V30.704H129.56V31.704H130.56ZM139.712 31.832L139.817 30.8375L139.712 31.832ZM142.144 32.664L141.643 33.5294L141.669 33.5448L141.697 33.5584L142.144 32.664ZM144.384 34.712L143.558 35.2753L143.564 35.2844L143.57 35.2932L144.384 34.712ZM143.424 43.096L144.045 43.8795L144.049 43.8769L143.424 43.096ZM124.12 15V47H126.12V15H124.12ZM125.12 48H141.952V46H125.12V48ZM141.952 48C143.217 48 144.459 47.7887 145.671 47.369L145.017 45.479C144.011 45.8273 142.991 46 141.952 46V48ZM145.66 47.3727C146.923 46.9516 148.041 46.3369 149 45.5219L147.704 43.9981C146.956 44.6338 146.069 45.1284 145.028 45.4753L145.66 47.3727ZM149.021 45.5033C149.967 44.6518 150.726 43.6555 151.294 42.5192L149.506 41.6248C149.05 42.5365 148.444 43.3322 147.683 44.0167L149.021 45.5033ZM151.287 42.5334C151.923 41.3103 152.232 39.9549 152.232 38.488H150.232C150.232 39.6664 149.986 40.7003 149.513 41.6106L151.287 42.5334ZM152.232 38.488C152.232 36.1734 151.711 34.2314 150.533 32.7973L148.987 34.0667C149.772 35.0219 150.232 36.4506 150.232 38.488H152.232ZM150.546 32.8142C149.504 31.4871 148.212 30.5038 146.68 29.8815L145.928 31.7345C147.127 32.2216 148.139 32.9875 148.974 34.0498L150.546 32.8142ZM146.705 29.8918C145.239 29.2505 143.703 28.8609 142.101 28.7237L141.931 30.7163C143.316 30.8351 144.638 31.1709 145.903 31.7242L146.705 29.8918ZM142.101 28.7237C140.591 28.5942 139.302 28.528 138.24 28.528V30.528C139.226 30.528 140.454 30.5898 141.931 30.7163L142.101 28.7237ZM138.24 28.528H130.56V30.528H138.24V28.528ZM131.56 29.528V15H129.56V29.528H131.56ZM130.56 14H125.12V16H130.56V14ZM156.952 15V47H158.952V15H156.952ZM157.952 48H163.392V46H157.952V48ZM164.392 47V15H162.392V47H164.392ZM163.392 14H157.952V16H163.392V14ZM131.56 44.568V31.704H129.56V44.568H131.56ZM130.56 32.704H137.92V30.704H130.56V32.704ZM137.92 32.704C138.248 32.704 138.802 32.7417 139.607 32.8265L139.817 30.8375C139.001 30.7516 138.36 30.704 137.92 30.704V32.704ZM139.607 32.8265C140.259 32.8951 140.936 33.12 141.643 33.5294L142.645 31.7986C141.731 31.2693 140.786 30.9396 139.817 30.8375L139.607 32.8265ZM141.697 33.5584C142.371 33.8955 142.995 34.4506 143.558 35.2753L145.21 34.1487C144.493 33.096 143.624 32.2858 142.591 31.7696L141.697 33.5584ZM143.57 35.2932C144.042 35.953 144.344 36.996 144.344 38.552H146.344C146.344 36.78 146.006 35.263 145.198 34.1308L143.57 35.2932ZM144.344 38.552C144.344 40.3285 143.789 41.5232 142.799 42.3151L144.049 43.8769C145.619 42.6208 146.344 40.7862 146.344 38.552H144.344ZM142.803 42.3125C141.752 43.1457 140.523 43.568 139.072 43.568V45.568C140.949 45.568 142.621 45.0089 144.045 43.8795L142.803 42.3125ZM139.072 43.568H130.56V45.568H139.072V43.568ZM173.62 15V14H172.62V15H173.62ZM173.62 47H172.62V48H173.62V47ZM193.46 46.296L193.76 47.25L193.772 47.2461L193.784 47.2419L193.46 46.296ZM197.108 44.376L197.741 45.15L197.752 45.1415L197.762 45.1328L197.108 44.376ZM199.156 41.688L200.073 42.0867L200.076 42.0797L200.079 42.0726L199.156 41.688ZM198.836 34.52L199.693 34.0055L198.836 34.52ZM196.404 32.024L195.841 32.8502L195.862 32.8648L195.884 32.8782L196.404 32.024ZM193.332 30.68L193.099 31.6524L193.107 31.6544L193.332 30.68ZM190.388 30.232H189.388V31.1855L190.34 31.2309L190.388 30.232ZM190.388 29.784L190.192 28.8034L189.388 28.9642V29.784H190.388ZM192.948 29.016L193.319 29.9445L193.339 29.9366L193.358 29.9279L192.948 29.016ZM195.188 27.544L195.87 28.2751L195.872 28.2735L195.188 27.544ZM196.788 25.368L195.894 24.9208L195.889 24.9303L195.884 24.9399L196.788 25.368ZM197.108 20.312L198.078 20.0695L197.108 20.312ZM195.7 17.88L194.955 18.5468L194.964 18.5568L194.973 18.5666L195.7 17.88ZM192.5 15.832L192.124 16.7585L192.133 16.7624L192.5 15.832ZM179.06 44.44H178.06V45.44H179.06V44.44ZM179.06 31.704V30.704H178.06V31.704H179.06ZM187.252 31.832L187.169 32.8285L187.172 32.8288L187.252 31.832ZM192.82 34.584L192.025 35.19L192.033 35.2018L192.043 35.2132L192.82 34.584ZM192.884 41.88L193.649 42.5241L193.657 42.5145L193.665 42.5047L192.884 41.88ZM190.452 43.672L190.073 42.7465L190.066 42.7496L190.058 42.7529L190.452 43.672ZM187.7 44.376L187.748 45.3749L187.769 45.3738L187.791 45.3719L187.7 44.376ZM179.06 29.528H178.06V30.528H179.06V29.528ZM179.06 17.56V16.56H178.06V17.56H179.06ZM188.852 18.2L188.405 19.0944L188.413 19.0987L188.422 19.1029L188.852 18.2ZM191.796 21.656L190.813 21.8403L190.82 21.8773L190.83 21.9137L191.796 21.656ZM191.412 26.008L190.538 25.5224L190.533 25.5312L190.528 25.5401L191.412 26.008ZM189.812 27.928L190.412 28.728L190.428 28.7164L190.443 28.7041L189.812 27.928ZM187.444 29.144L187.719 30.1055L187.74 30.0996L187.76 30.0927L187.444 29.144ZM172.62 15V47H174.62V15H172.62ZM173.62 48H188.084V46H173.62V48ZM188.084 48C190.244 48 192.143 47.7581 193.76 47.25L193.16 45.342C191.79 45.7726 190.105 46 188.084 46V48ZM193.784 47.2419C195.358 46.7024 196.688 46.012 197.741 45.15L196.475 43.602C195.651 44.276 194.549 44.8656 193.136 45.3501L193.784 47.2419ZM197.762 45.1328C198.796 44.2396 199.578 43.226 200.073 42.0867L198.239 41.2893C197.881 42.1127 197.298 42.891 196.454 43.6192L197.762 45.1328ZM200.079 42.0726C200.554 40.9317 200.796 39.756 200.796 38.552H198.796C198.796 39.4814 198.611 40.3963 198.233 41.3034L200.079 42.0726ZM200.796 38.552C200.796 36.8032 200.451 35.268 199.693 34.0055L197.979 35.0345C198.501 35.9053 198.796 37.0581 198.796 38.552H200.796ZM199.693 34.0055C198.977 32.8117 198.055 31.8582 196.924 31.1698L195.884 32.8782C196.716 33.3844 197.415 34.095 197.979 35.0345L199.693 34.0055ZM196.967 31.1978C195.926 30.4876 194.787 29.9895 193.557 29.7056L193.107 31.6544C194.096 31.8825 195.005 32.2804 195.841 32.8502L196.967 31.1978ZM193.565 29.7076C192.451 29.4401 191.406 29.2794 190.436 29.2331L190.34 31.2309C191.162 31.27 192.08 31.4079 193.099 31.6524L193.565 29.7076ZM191.388 30.232V29.784H189.388V30.232H191.388ZM190.584 30.7646C191.501 30.5813 192.413 30.3072 193.319 29.9445L192.577 28.0875C191.777 28.4074 190.982 28.6454 190.192 28.8034L190.584 30.7646ZM193.358 29.9279C194.305 29.502 195.145 28.9522 195.87 28.2751L194.506 26.8129C193.951 27.3305 193.298 27.7619 192.538 28.1041L193.358 29.9279ZM195.872 28.2735C196.642 27.5515 197.252 26.725 197.692 25.7961L195.884 24.9399C195.556 25.6323 195.099 26.2565 194.504 26.8145L195.872 28.2735ZM197.682 25.8152C198.186 24.8074 198.428 23.6914 198.428 22.488H196.428C196.428 23.4179 196.243 24.222 195.894 24.9208L197.682 25.8152ZM198.428 22.488C198.428 21.7803 198.303 20.9685 198.078 20.0695L196.138 20.5545C196.34 21.3621 196.428 22.001 196.428 22.488H198.428ZM198.078 20.0695C197.816 19.0192 197.247 18.0611 196.427 17.1934L194.973 18.5666C195.604 19.2349 195.974 19.8981 196.138 20.5545L198.078 20.0695ZM196.445 17.2132C195.583 16.25 194.366 15.4923 192.867 14.9016L192.133 16.7624C193.45 17.281 194.366 17.8887 194.955 18.5468L196.445 17.2132ZM192.876 14.9055C191.343 14.2828 189.364 14 186.996 14V16C189.236 16 190.926 16.2719 192.124 16.7585L192.876 14.9055ZM186.996 14H173.62V16H186.996V14ZM180.06 44.44V31.704H178.06V44.44H180.06ZM179.06 32.704H184.692V30.704H179.06V32.704ZM184.692 32.704C185.337 32.704 186.16 32.7445 187.169 32.8285L187.335 30.8355C186.296 30.7488 185.412 30.704 184.692 30.704V32.704ZM187.172 32.8288C188.129 32.9053 189.045 33.1344 189.925 33.5171L190.723 31.6829C189.64 31.2123 188.508 30.9293 187.332 30.8352L187.172 32.8288ZM189.925 33.5171C190.742 33.872 191.44 34.4225 192.025 35.19L193.615 33.978C192.835 32.9535 191.869 32.1813 190.723 31.6829L189.925 33.5171ZM192.043 35.2132C192.579 35.8753 192.908 36.8624 192.908 38.296H194.908C194.908 36.5723 194.512 35.0847 193.597 33.9548L192.043 35.2132ZM192.908 38.296C192.908 39.6954 192.596 40.6389 192.103 41.2553L193.665 42.5047C194.537 41.4144 194.908 39.9686 194.908 38.296H192.908ZM192.119 41.2359C191.536 41.9286 190.856 42.4264 190.073 42.7465L190.831 44.5975C191.926 44.1496 192.867 43.4527 193.649 42.5241L192.119 41.2359ZM190.058 42.7529C189.255 43.0969 188.44 43.3046 187.609 43.3801L187.791 45.3719C188.837 45.2767 189.857 45.0151 190.846 44.5911L190.058 42.7529ZM187.652 43.3771C186.759 43.4197 186.118 43.44 185.716 43.44V45.44C186.168 45.44 186.849 45.4177 187.748 45.3749L187.652 43.3771ZM185.716 43.44H179.06V45.44H185.716V43.44ZM180.06 29.528V17.56H178.06V29.528H180.06ZM179.06 18.56H185.396V16.56H179.06V18.56ZM185.396 18.56C186.765 18.56 187.744 18.7639 188.405 19.0944L189.299 17.3056C188.254 16.7827 186.928 16.56 185.396 16.56V18.56ZM188.422 19.1029C189.22 19.4828 189.764 19.909 190.114 20.3538L191.686 19.1182C191.097 18.3683 190.276 17.7705 189.282 17.2971L188.422 19.1029ZM190.114 20.3538C190.493 20.8367 190.718 21.3303 190.813 21.8403L192.779 21.4717C192.618 20.6163 192.246 19.83 191.686 19.1182L190.114 20.3538ZM190.83 21.9137C190.984 22.4928 191.052 22.9801 191.052 23.384H193.052C193.052 22.7639 192.949 22.0992 192.762 21.3983L190.83 21.9137ZM191.052 23.384C191.052 24.2157 190.873 24.9197 190.538 25.5224L192.286 26.4936C192.805 25.5603 193.052 24.515 193.052 23.384H191.052ZM190.528 25.5401C190.211 26.1384 189.767 26.6758 189.181 27.1519L190.443 28.7041C191.222 28.0709 191.845 27.3283 192.296 26.4759L190.528 25.5401ZM189.212 27.128C188.624 27.569 187.933 27.927 187.128 28.1953L187.76 30.0927C188.747 29.7636 189.635 29.311 190.412 28.728L189.212 27.128ZM187.169 28.1825C186.367 28.4116 185.521 28.528 184.628 28.528V30.528C185.697 30.528 186.729 30.3884 187.719 30.1055L187.169 28.1825ZM184.628 28.528H179.06V30.528H184.628V28.528ZM208.12 15V14H207.12V15H208.12ZM208.12 47H207.12V48H208.12V47ZM228.344 46.424L228.028 45.4753L228.017 45.479L228.344 46.424ZM231.352 44.76L232 45.5219L232.01 45.5128L232.021 45.5033L231.352 44.76ZM233.4 42.072L232.513 41.6106L232.509 41.6177L232.506 41.6248L233.4 42.072ZM232.76 33.432L231.974 34.0498L231.98 34.0584L231.987 34.0667L232.76 33.432ZM229.304 30.808L228.903 31.7242L228.915 31.7295L228.928 31.7345L229.304 30.808ZM213.56 29.528H212.56V30.528H213.56V29.528ZM213.56 15H214.56V14H213.56V15ZM240.952 15V14H239.952V15H240.952ZM240.952 47H239.952V48H240.952V47ZM246.392 47V48H247.392V47H246.392ZM246.392 15H247.392V14H246.392V15ZM213.56 44.568H212.56V45.568H213.56V44.568ZM213.56 31.704V30.704H212.56V31.704H213.56ZM222.712 31.832L222.817 30.8375L222.712 31.832ZM225.144 32.664L224.643 33.5294L224.669 33.5448L224.697 33.5584L225.144 32.664ZM227.384 34.712L226.558 35.2753L226.564 35.2844L226.57 35.2932L227.384 34.712ZM226.424 43.096L227.045 43.8795L227.049 43.8769L226.424 43.096ZM207.12 15V47H209.12V15H207.12ZM208.12 48H224.952V46H208.12V48ZM224.952 48C226.217 48 227.459 47.7887 228.671 47.369L228.017 45.479C227.011 45.8273 225.991 46 224.952 46V48ZM228.66 47.3727C229.923 46.9516 231.041 46.3369 232 45.5219L230.704 43.9981C229.956 44.6338 229.069 45.1284 228.028 45.4753L228.66 47.3727ZM232.021 45.5033C232.967 44.6518 233.726 43.6555 234.294 42.5192L232.506 41.6248C232.05 42.5365 231.444 43.3322 230.683 44.0167L232.021 45.5033ZM234.287 42.5334C234.923 41.3103 235.232 39.9549 235.232 38.488H233.232C233.232 39.6664 232.986 40.7003 232.513 41.6106L234.287 42.5334ZM235.232 38.488C235.232 36.1734 234.711 34.2314 233.533 32.7973L231.987 34.0667C232.772 35.0219 233.232 36.4506 233.232 38.488H235.232ZM233.546 32.8142C232.504 31.4871 231.212 30.5038 229.68 29.8815L228.928 31.7345C230.127 32.2216 231.139 32.9875 231.974 34.0498L233.546 32.8142ZM229.705 29.8918C228.239 29.2505 226.703 28.8609 225.101 28.7237L224.931 30.7163C226.316 30.8351 227.638 31.1709 228.903 31.7242L229.705 29.8918ZM225.101 28.7237C223.591 28.5942 222.302 28.528 221.24 28.528V30.528C222.226 30.528 223.454 30.5898 224.931 30.7163L225.101 28.7237ZM221.24 28.528H213.56V30.528H221.24V28.528ZM214.56 29.528V15H212.56V29.528H214.56ZM213.56 14H208.12V16H213.56V14ZM239.952 15V47H241.952V15H239.952ZM240.952 48H246.392V46H240.952V48ZM247.392 47V15H245.392V47H247.392ZM246.392 14H240.952V16H246.392V14ZM214.56 44.568V31.704H212.56V44.568H214.56ZM213.56 32.704H220.92V30.704H213.56V32.704ZM220.92 32.704C221.248 32.704 221.802 32.7417 222.607 32.8265L222.817 30.8375C222.001 30.7516 221.36 30.704 220.92 30.704V32.704ZM222.607 32.8265C223.259 32.8951 223.936 33.12 224.643 33.5294L225.645 31.7986C224.731 31.2693 223.786 30.9396 222.817 30.8375L222.607 32.8265ZM224.697 33.5584C225.371 33.8955 225.995 34.4506 226.558 35.2753L228.21 34.1487C227.493 33.096 226.624 32.2858 225.591 31.7696L224.697 33.5584ZM226.57 35.2932C227.042 35.953 227.344 36.996 227.344 38.552H229.344C229.344 36.78 229.006 35.263 228.198 34.1308L226.57 35.2932ZM227.344 38.552C227.344 40.3285 226.789 41.5232 225.799 42.3151L227.049 43.8769C228.619 42.6208 229.344 40.7862 229.344 38.552H227.344ZM225.803 42.3125C224.752 43.1457 223.523 43.568 222.072 43.568V45.568C223.949 45.568 225.621 45.0089 227.045 43.8795L225.803 42.3125ZM222.072 43.568H213.56V45.568H222.072V43.568ZM284.435 31.512H283.435V33.9953L285.156 32.205L284.435 31.512ZM284.435 15H285.435V14H284.435V15ZM278.995 15V14H277.995V15H278.995ZM278.995 47H277.995V48H278.995V47ZM284.435 47V48H285.435V47H284.435ZM284.435 35.736L283.709 35.0479L283.435 35.3372V35.736H284.435ZM287.955 32.024L288.751 31.4185L288.039 30.4824L287.229 31.3359L287.955 32.024ZM295.891 42.456L295.095 43.0615L295.103 43.0712L295.11 43.0807L295.891 42.456ZM299.283 46.104L298.658 46.8849L299.283 46.104ZM301.331 47.32L300.95 48.2447L300.959 48.2484L300.969 48.252L301.331 47.32ZM306.003 47.512L306.232 48.4854L306.003 47.512ZM307.923 47L308.217 47.9558L308.923 47.7386V47H307.923ZM307.923 44.44H308.923V43.44H307.923V44.44ZM304.531 43.992L305.005 43.1115L304.531 43.992ZM302.803 42.84L302.125 43.5748L302.154 43.6018L302.185 43.6263L302.803 42.84ZM301.139 41.24L300.38 41.8908L300.405 41.9199L300.432 41.9471L301.139 41.24ZM299.731 39.512L298.937 40.1201L298.938 40.1217L299.731 39.512ZM291.347 28.568L290.625 27.8764L290.032 28.4956L290.553 29.1761L291.347 28.568ZM304.339 15L305.061 15.6916L306.681 14H304.339V15ZM300.307 15V14H299.881L299.586 14.307L300.307 15ZM285.435 31.512V15H283.435V31.512H285.435ZM284.435 14H278.995V16H284.435V14ZM277.995 15V47H279.995V15H277.995ZM278.995 48H284.435V46H278.995V48ZM285.435 47V35.736H283.435V47H285.435ZM285.161 36.4241L288.681 32.7121L287.229 31.3359L283.709 35.0479L285.161 36.4241ZM287.159 32.6295L295.095 43.0615L296.687 41.8505L288.751 31.4185L287.159 32.6295ZM295.11 43.0807C295.631 43.7313 296.172 44.3813 296.735 45.0309L298.247 43.7211C297.7 43.0907 297.175 42.4607 296.672 41.8313L295.11 43.0807ZM296.735 45.0309C297.328 45.7153 297.969 46.3337 298.658 46.8849L299.908 45.3231C299.317 44.8503 298.763 44.3167 298.247 43.7211L296.735 45.0309ZM298.658 46.8849C299.369 47.4535 300.133 47.9083 300.95 48.2447L301.712 46.3953C301.078 46.1344 300.477 45.7785 299.908 45.3231L298.658 46.8849ZM300.969 48.252C301.856 48.5972 302.79 48.768 303.763 48.768V46.768C303.029 46.768 302.342 46.6401 301.693 46.388L300.969 48.252ZM303.763 48.768C304.606 48.768 305.429 48.6743 306.232 48.4854L305.774 46.5386C305.126 46.6911 304.456 46.768 303.763 46.768V48.768ZM306.232 48.4854C306.973 48.311 307.636 48.1346 308.217 47.9558L307.629 46.0442C307.101 46.2067 306.483 46.3717 305.774 46.5386L306.232 48.4854ZM308.923 47V44.44H306.923V47H308.923ZM307.923 43.44H306.131V45.44H307.923V43.44ZM306.131 43.44C305.818 43.44 305.447 43.3496 305.005 43.1115L304.057 44.8725C304.724 45.2317 305.42 45.44 306.131 45.44V43.44ZM305.005 43.1115C304.51 42.8449 303.982 42.4945 303.421 42.0537L302.185 43.6263C302.819 44.1241 303.443 44.5417 304.057 44.8725L305.005 43.1115ZM303.481 42.1052C302.937 41.6026 302.392 41.0785 301.846 40.5329L300.432 41.9471C300.996 42.5108 301.56 43.0534 302.125 43.5748L303.481 42.1052ZM301.898 40.5892C301.396 40.0037 300.938 39.4414 300.524 38.9023L298.938 40.1217C299.377 40.692 299.858 41.2817 300.38 41.8908L301.898 40.5892ZM300.525 38.9039L292.141 27.9599L290.553 29.1761L298.937 40.1201L300.525 38.9039ZM292.069 29.2596L305.061 15.6916L303.617 14.3084L290.625 27.8764L292.069 29.2596ZM304.339 14H300.307V16H304.339V14ZM299.586 14.307L283.714 30.819L285.156 32.205L301.028 15.693L299.586 14.307ZM332.676 15L333.602 14.6238L333.349 14H332.676V15ZM328.836 15V14H328.16L327.908 14.6261L328.836 15ZM319.108 39.128L320.018 39.5418L320.027 39.5221L320.035 39.5019L319.108 39.128ZM318.404 40.792L319.323 41.1859L319.327 41.1747L319.332 41.1634L318.404 40.792ZM317.508 42.52L318.359 43.0441L317.508 42.52ZM316.292 43.928L316.916 44.7089L316.925 44.702L316.292 43.928ZM313.027 43.928L312.557 44.8104L313.027 43.928ZM311.491 42.904L312.156 42.1566L310.986 41.1171L310.534 42.615L311.491 42.904ZM310.467 46.296L309.51 46.007L309.333 46.5945L309.776 47.0186L310.467 46.296ZM316.803 47.32L316.487 46.3713L316.459 46.3806L316.432 46.3915L316.803 47.32ZM318.595 46.104L319.328 46.7845L319.34 46.7719L319.351 46.7589L318.595 46.104ZM320.195 43.672L319.316 43.1957L319.312 43.2025L319.309 43.2094L320.195 43.672ZM321.923 39.832L320.994 39.4623L320.991 39.4696L321.923 39.832ZM329.284 21.336V20.336H328.605L328.354 20.9663L329.284 21.336ZM329.668 21.336L330.596 20.9654L330.345 20.336H329.668V21.336ZM339.908 47L338.979 47.3706L339.23 48H339.908V47ZM345.668 47V48H347.153L346.594 46.6238L345.668 47ZM332.676 14H328.836V16H332.676V14ZM327.908 14.6261L318.18 38.7541L320.035 39.5019L329.763 15.3739L327.908 14.6261ZM318.197 38.7142C317.976 39.2013 317.735 39.7708 317.475 40.4206L319.332 41.1634C319.584 40.5332 319.813 39.9934 320.018 39.5418L318.197 38.7142ZM317.484 40.3981C317.248 40.9503 316.972 41.4828 316.656 41.9959L318.359 43.0441C318.726 42.4478 319.047 41.8283 319.323 41.1859L317.484 40.3981ZM316.656 41.9959C316.369 42.4627 316.035 42.8456 315.658 43.154L316.925 44.702C317.486 44.2424 317.964 43.6866 318.359 43.0441L316.656 41.9959ZM315.667 43.1471C315.405 43.3568 315.153 43.44 314.884 43.44V45.44C315.638 45.44 316.325 45.1818 316.916 44.7089L315.667 43.1471ZM314.884 43.44C314.482 43.44 314.024 43.3261 313.498 43.0456L312.557 44.8104C313.311 45.2125 314.09 45.44 314.884 45.44V43.44ZM313.498 43.0456C312.902 42.7276 312.462 42.4289 312.156 42.1566L310.827 43.6514C311.289 44.0618 311.873 44.4458 312.557 44.8104L313.498 43.0456ZM310.534 42.615L309.51 46.007L311.425 46.585L312.449 43.193L310.534 42.615ZM309.776 47.0186C310.997 48.1864 312.663 48.704 314.628 48.704V46.704C313.008 46.704 311.901 46.283 311.159 45.5734L309.776 47.0186ZM314.628 48.704C315.543 48.704 316.398 48.5593 317.175 48.2485L316.432 46.3915C315.929 46.5927 315.333 46.704 314.628 46.704V48.704ZM317.12 48.2687C317.949 47.9923 318.683 47.4793 319.328 46.7845L317.863 45.4235C317.399 45.9234 316.938 46.221 316.487 46.3713L317.12 48.2687ZM319.351 46.7589C319.97 46.0454 320.544 45.1651 321.082 44.1346L319.309 43.2094C318.823 44.1416 318.331 44.8826 317.84 45.4491L319.351 46.7589ZM321.075 44.1483C321.656 43.0759 322.249 41.7549 322.855 40.1944L320.991 39.4696C320.404 40.9811 319.845 42.2201 319.316 43.1957L321.075 44.1483ZM322.853 40.2017L330.213 21.7057L328.354 20.9663L320.994 39.4623L322.853 40.2017ZM329.284 22.336H329.668V20.336H329.284V22.336ZM328.739 21.7066L338.979 47.3706L340.836 46.6294L330.596 20.9654L328.739 21.7066ZM339.908 48H345.668V46H339.908V48ZM346.594 46.6238L333.602 14.6238L331.749 15.3762L344.741 47.3762L346.594 46.6238ZM357.497 43.224H356.497V46.9511L358.363 43.7246L357.497 43.224ZM357.497 15H358.497V14H357.497V15ZM352.057 15V14H351.057V15H352.057ZM352.057 47H351.057V48H352.057V47ZM358.457 47V48H359.032L359.322 47.5031L358.457 47ZM374.777 18.968H375.777V15.2628L373.913 18.4649L374.777 18.968ZM374.777 47H373.777V48H374.777V47ZM380.217 47V48H381.217V47H380.217ZM380.217 15H381.217V14H380.217V15ZM373.818 15V14H373.241L372.952 14.4994L373.818 15ZM358.497 43.224V15H356.497V43.224H358.497ZM357.497 14H352.057V16H357.497V14ZM351.057 15V47H353.057V15H351.057ZM352.057 48H358.457V46H352.057V48ZM359.322 47.5031L375.642 19.4711L373.913 18.4649L357.593 46.4969L359.322 47.5031ZM373.777 18.968V47H375.777V18.968H373.777ZM374.777 48H380.217V46H374.777V48ZM381.217 47V15H379.217V47H381.217ZM380.217 14H373.818V16H380.217V14ZM372.952 14.4994L356.632 42.7234L358.363 43.7246L374.683 15.5006L372.952 14.4994ZM418.849 32.408V33.408H419.849V32.408H418.849ZM417.633 23.64L416.7 24.0015V24.0015L417.633 23.64ZM414.305 18.456L413.597 19.1631L413.603 19.1685L413.608 19.1739L414.305 18.456ZM409.505 15.384L409.156 16.3212L409.505 15.384ZM397.664 15.512L398.032 16.442L398.041 16.4383L398.051 16.4344L397.664 15.512ZM392.865 18.776L393.582 19.4721L393.588 19.4668L393.593 19.4614L392.865 18.776ZM389.664 23.96L390.598 24.3177L390.601 24.3111L389.664 23.96ZM389.473 37.08L388.518 37.3783L388.522 37.3903L388.526 37.4023L389.473 37.08ZM392.48 42.52L391.706 43.1521L391.715 43.1633L391.724 43.1742L392.48 42.52ZM397.6 46.36L397.168 47.2618L397.18 47.2672L397.191 47.2723L397.6 46.36ZM412.513 46.36L412.89 47.2861L412.897 47.2831L412.904 47.28L412.513 46.36ZM418.529 42.2L419.253 42.8897L419.926 42.183L419.236 41.4929L418.529 42.2ZM416.48 40.152L417.188 39.4449L416.533 38.7901L415.83 39.3927L416.48 40.152ZM413.921 42.264L413.301 41.4791L413.29 41.4873L413.28 41.4958L413.921 42.264ZM408.992 44.888L409.235 45.8581L409.251 45.8541L409.267 45.8495L408.992 44.888ZM402.272 44.696L401.994 45.6563L402.012 45.6616L402.03 45.6661L402.272 44.696ZM398.56 42.712L399.192 41.9368L398.56 42.712ZM395.681 38.808L394.773 39.2271L395.681 38.808ZM394.529 32.408V31.408H393.529V32.408H394.529ZM394.529 29.848H393.529V30.848H394.529V29.848ZM395.04 24.92L394.067 24.6895L394.065 24.6991L394.063 24.7087L395.04 24.92ZM396.704 20.632L395.855 20.1046L395.848 20.1154L395.842 20.1263L396.704 20.632ZM399.585 17.688L400.117 18.5342L400.128 18.5273L400.139 18.52L399.585 17.688ZM410.72 20.12L409.9 20.6915L409.906 20.6999L409.912 20.7082L410.72 20.12ZM413.28 29.848V30.848H414.28V29.848H413.28ZM419.849 32.408V31.064H417.849V32.408H419.849ZM419.849 31.064C419.849 28.1142 419.431 25.5113 418.565 23.2785L416.7 24.0015C417.456 25.95 417.849 28.2965 417.849 31.064H419.849ZM418.565 23.2785C417.71 21.0726 416.526 19.2172 415.001 17.7381L413.608 19.1739C414.899 20.4254 415.934 22.0261 416.7 24.0015L418.565 23.2785ZM415.012 17.7489C413.543 16.2806 411.821 15.1788 409.853 14.4468L409.156 16.3212C410.858 16.9545 412.335 17.9008 413.597 19.1631L415.012 17.7489ZM409.853 14.4468C407.902 13.7207 405.842 13.36 403.681 13.36V15.36C405.615 15.36 407.438 15.682 409.156 16.3212L409.853 14.4468ZM403.681 13.36C401.384 13.36 399.246 13.7657 397.278 14.5896L398.051 16.4344C399.752 15.7223 401.625 15.36 403.681 15.36V13.36ZM397.297 14.582C395.324 15.362 393.601 16.534 392.136 18.0906L393.593 19.4614C394.858 18.1167 396.336 17.1127 398.032 16.442L397.297 14.582ZM392.147 18.0799C390.675 19.5974 389.539 21.447 388.728 23.6089L390.601 24.3111C391.326 22.377 392.323 20.7706 393.582 19.4721L392.147 18.0799ZM388.731 23.6024C387.911 25.7415 387.513 28.1487 387.513 30.808H389.513C389.513 28.3473 389.882 26.1892 390.598 24.3176L388.731 23.6024ZM387.513 30.808C387.513 33.0431 387.848 35.2343 388.518 37.3783L390.427 36.7817C389.817 34.8297 389.513 32.8396 389.513 30.808H387.513ZM388.526 37.4023C389.246 39.5189 390.307 41.4374 391.706 43.1521L393.255 41.8879C392.009 40.3599 391.064 38.6518 390.419 36.7577L388.526 37.4023ZM391.724 43.1742C393.187 44.8656 395.007 46.2264 397.168 47.2618L398.033 45.4582C396.098 44.531 394.505 43.3317 393.237 41.8658L391.724 43.1742ZM397.191 47.2723C399.436 48.2804 402.035 48.768 404.961 48.768V46.768C402.254 46.768 399.946 46.3169 398.01 45.4477L397.191 47.2723ZM404.961 48.768C407.808 48.768 410.455 48.2781 412.89 47.2861L412.135 45.4339C409.962 46.3192 407.574 46.768 404.961 46.768V48.768ZM412.904 47.28C415.332 46.246 417.451 44.7815 419.253 42.8897L417.804 41.5103C416.193 43.2025 414.301 44.5113 412.121 45.44L412.904 47.28ZM419.236 41.4929L417.188 39.4449L415.773 40.8591L417.821 42.9071L419.236 41.4929ZM415.83 39.3927C414.943 40.1532 414.1 40.8485 413.301 41.4791L414.54 43.0489C415.363 42.3995 416.227 41.6868 417.131 40.9113L415.83 39.3927ZM413.28 41.4958C412.561 42.0949 411.83 42.5879 411.087 42.9791L412.018 44.7489C412.896 44.2868 413.744 43.7131 414.561 43.0322L413.28 41.4958ZM411.087 42.9791C410.338 43.3732 409.549 43.689 408.718 43.9265L409.267 45.8495C410.228 45.575 411.146 45.2082 412.018 44.7489L411.087 42.9791ZM408.75 43.9179C407.991 44.1077 407.114 44.208 406.112 44.208V46.208C407.244 46.208 408.288 46.095 409.235 45.8581L408.75 43.9179ZM406.112 44.208C405.013 44.208 403.815 44.0508 402.515 43.7259L402.03 45.6661C403.461 46.0239 404.823 46.208 406.112 46.208V44.208ZM402.551 43.7357C401.367 43.3919 400.248 42.7974 399.192 41.9368L397.929 43.4872C399.177 44.5039 400.532 45.2321 401.994 45.6563L402.551 43.7357ZM399.192 41.9368C398.182 41.114 397.307 39.9463 396.588 38.3889L394.773 39.2271C395.59 40.9977 396.635 42.4326 397.929 43.4872L399.192 41.9368ZM396.588 38.3889C395.901 36.8995 395.529 34.9225 395.529 32.408H393.529C393.529 35.0988 393.924 37.3885 394.773 39.2271L396.588 38.3889ZM394.529 33.408H418.849V31.408H394.529V33.408ZM395.529 29.848C395.529 28.2084 395.692 26.6367 396.018 25.1313L394.063 24.7087C393.706 26.3606 393.529 28.0743 393.529 29.848H395.529ZM396.014 25.1505C396.378 23.6106 396.9 22.2767 397.567 21.1377L395.842 20.1263C395.059 21.4619 394.471 22.9867 394.067 24.6895L396.014 25.1505ZM397.554 21.1594C398.248 20.0418 399.103 19.1731 400.117 18.5342L399.052 16.8418C397.762 17.6535 396.697 18.7475 395.855 20.1046L397.554 21.1594ZM400.139 18.52C401.105 17.8764 402.271 17.536 403.681 17.536V15.536C401.933 15.536 400.368 15.9636 399.03 16.8559L400.139 18.52ZM403.681 17.536C406.398 17.536 408.432 18.5833 409.9 20.6915L411.541 19.5485C409.681 16.8781 407.021 15.536 403.681 15.536V17.536ZM409.912 20.7082C411.451 22.8249 412.28 25.8337 412.28 29.848H414.28C414.28 25.585 413.403 22.1084 411.529 19.5318L409.912 20.7082ZM413.28 28.848H394.529V30.848H413.28V28.848ZM432.622 31.704V30.704H431.622V31.704H432.622ZM448.815 31.704H449.815V30.704H448.815V31.704ZM448.815 47H447.815V48H448.815V47ZM454.255 47V48H455.255V47H454.255ZM454.255 15H455.255V14H454.255V15ZM448.815 15V14H447.815V15H448.815ZM448.815 29.528V30.528H449.815V29.528H448.815ZM432.622 29.528H431.622V30.528H432.622V29.528ZM432.622 15H433.622V14H432.622V15ZM427.182 15V14H426.182V15H427.182ZM427.182 47H426.182V48H427.182V47ZM432.622 47V48H433.622V47H432.622ZM432.622 32.704H448.815V30.704H432.622V32.704ZM447.815 31.704V47H449.815V31.704H447.815ZM448.815 48H454.255V46H448.815V48ZM455.255 47V15H453.255V47H455.255ZM454.255 14H448.815V16H454.255V14ZM447.815 15V29.528H449.815V15H447.815ZM448.815 28.528H432.622V30.528H448.815V28.528ZM433.622 29.528V15H431.622V29.528H433.622ZM432.622 14H427.182V16H432.622V14ZM426.182 15V47H428.182V15H426.182ZM427.182 48H432.622V46H427.182V48ZM433.622 47V31.704H431.622V47H433.622ZM473.455 47H472.455V48H473.455V47ZM478.895 47V48H479.895V47H478.895ZM478.895 17.56V16.56H477.895V17.56H478.895ZM491.695 17.56V18.56H492.695V17.56H491.695ZM491.695 15H492.695V14H491.695V15ZM460.655 15V14H459.655V15H460.655ZM460.655 17.56H459.655V18.56H460.655V17.56ZM473.455 17.56H474.455V16.56H473.455V17.56ZM473.455 48H478.895V46H473.455V48ZM479.895 47V17.56H477.895V47H479.895ZM478.895 18.56H491.695V16.56H478.895V18.56ZM492.695 17.56V15H490.695V17.56H492.695ZM491.695 14H460.655V16H491.695V14ZM459.655 15V17.56H461.655V15H459.655ZM460.655 18.56H473.455V16.56H460.655V18.56ZM472.455 17.56V47H474.455V17.56H472.455ZM528.2 37.464L529.134 37.8217L529.136 37.8151L528.2 37.464ZM524.872 42.776L524.145 42.0894L524.14 42.0948L524.135 42.1003L524.872 42.776ZM519.688 46.424L519.287 45.5078L519.28 45.511L519.688 46.424ZM505.928 46.424L505.511 47.3331L505.523 47.3382L505.534 47.3431L505.928 46.424ZM500.68 42.712L499.943 43.3877L499.948 43.3932L499.953 43.3986L500.68 42.712ZM497.352 37.4L496.416 37.7511L496.42 37.763L496.425 37.7748L497.352 37.4ZM497.352 24.728L496.422 24.3599L496.418 24.3703L497.352 24.728ZM500.68 19.352L499.953 18.6654L499.948 18.6708L499.943 18.6763L500.68 19.352ZM505.928 15.704L506.329 16.6202L506.338 16.6163L505.928 15.704ZM519.688 15.704L519.264 16.6097L519.276 16.6151L519.287 16.6202L519.688 15.704ZM524.872 19.352L524.135 20.0277L524.14 20.0332L524.145 20.0386L524.872 19.352ZM528.2 24.728L527.264 25.0791L527.266 25.0856L528.2 24.728ZM522.312 23.832L521.365 24.1547L521.368 24.1614L522.312 23.832ZM516.424 17.432L516.128 18.3871L516.143 18.3918L516.158 18.396L516.424 17.432ZM509.256 17.432L509.522 18.396L509.537 18.3918L509.552 18.3871L509.256 17.432ZM505.8 19.48L505.107 18.7586L505.1 18.7657L505.093 18.7729L505.8 19.48ZM503.24 23.832L502.3 23.4902L502.296 23.5026L503.24 23.832ZM503.24 38.296L502.293 38.6187L502.298 38.6318L502.303 38.6447L503.24 38.296ZM505.8 42.584L505.093 43.2911L505.1 43.2983L505.107 43.3054L505.8 42.584ZM509.256 44.696L508.96 45.6511L508.975 45.6558L508.99 45.66L509.256 44.696ZM516.424 44.696L516.69 45.66L516.705 45.6558L516.72 45.6511L516.424 44.696ZM519.816 42.584L520.523 43.2911L519.816 42.584ZM522.312 38.296L523.256 38.6254L523.258 38.6187L522.312 38.296ZM528.352 31.064C528.352 33.1645 527.989 35.1788 527.264 37.1129L529.136 37.8151C529.947 35.6532 530.352 33.4008 530.352 31.064H528.352ZM527.266 37.1064C526.544 38.9916 525.504 40.65 524.145 42.0894L525.599 43.4626C527.141 41.83 528.32 39.9471 529.134 37.8216L527.266 37.1064ZM524.135 42.1003C522.828 43.5263 521.217 44.6636 519.287 45.5078L520.089 47.3402C522.255 46.3924 524.1 45.0977 525.609 43.4517L524.135 42.1003ZM519.28 45.511C517.421 46.3418 515.301 46.768 512.904 46.768V48.768C515.541 48.768 517.945 48.2982 520.096 47.337L519.28 45.511ZM512.904 46.768C510.462 46.768 508.273 46.3412 506.322 45.5049L505.534 47.3431C507.764 48.2988 510.226 48.768 512.904 48.768V46.768ZM506.345 45.5149C504.406 44.6262 502.764 43.4619 501.407 42.0254L499.953 43.3986C501.498 45.0341 503.354 46.3445 505.511 47.3331L506.345 45.5149ZM501.417 42.0363C500.093 40.5918 499.047 38.924 498.279 37.0252L496.425 37.7748C497.279 39.8867 498.451 41.7602 499.943 43.3877L501.417 42.0363ZM498.288 37.0489C497.562 35.1126 497.2 33.1195 497.2 31.064H495.2C495.2 33.3605 495.606 35.5914 496.416 37.7511L498.288 37.0489ZM497.2 31.064C497.2 28.9635 497.563 26.973 498.286 25.0856L496.418 24.3703C495.605 26.4936 495.2 28.7272 495.2 31.064H497.2ZM498.282 25.096C499.05 23.155 500.096 21.4687 501.417 20.0277L499.943 18.6763C498.448 20.3073 497.275 22.205 496.422 24.36L498.282 25.096ZM501.407 20.0386C502.76 18.6059 504.397 17.4655 506.329 16.6202L505.527 14.7878C503.363 15.7345 501.501 17.0261 499.953 18.6654L501.407 20.0386ZM506.338 16.6163C508.285 15.7419 510.469 15.296 512.904 15.296V13.296C510.219 13.296 507.752 13.7888 505.518 14.7917L506.338 16.6163ZM512.904 15.296C515.295 15.296 517.409 15.7411 519.264 16.6097L520.112 14.7983C517.957 13.7895 515.548 13.296 512.904 13.296V15.296ZM519.287 16.6202C521.217 17.4644 522.828 18.6017 524.135 20.0277L525.609 18.6763C524.1 17.0303 522.255 15.7356 520.089 14.7878L519.287 16.6202ZM524.145 20.0386C525.501 21.4744 526.541 23.1513 527.264 25.0791L529.136 24.3769C528.323 22.2087 527.144 20.3016 525.599 18.6654L524.145 20.0386ZM527.266 25.0856C527.989 26.973 528.352 28.9635 528.352 31.064H530.352C530.352 28.7272 529.947 26.4936 529.134 24.3703L527.266 25.0856ZM524.272 31.064C524.272 28.0188 523.947 25.4841 523.256 23.5026L521.368 24.1614C521.957 25.8492 522.272 28.1359 522.272 31.064H524.272ZM523.258 23.5093C522.586 21.5378 521.688 19.9374 520.523 18.7729L519.109 20.1871C519.992 21.0706 520.758 22.3715 521.365 24.1547L523.258 23.5093ZM520.523 18.7729C519.393 17.6425 518.115 16.861 516.69 16.468L516.158 18.396C517.208 18.6857 518.191 19.2695 519.109 20.1871L520.523 18.7729ZM516.72 16.4769C515.399 16.0668 514.104 15.856 512.84 15.856V17.856C513.88 17.856 514.974 18.0292 516.128 18.3871L516.72 16.4769ZM512.84 15.856C511.576 15.856 510.281 16.0668 508.96 16.4769L509.552 18.3871C510.706 18.0292 511.8 17.856 512.84 17.856V15.856ZM508.99 16.468C507.57 16.8598 506.276 17.6372 505.107 18.7586L506.493 20.2014C507.458 19.2748 508.468 18.6868 509.522 18.396L508.99 16.468ZM505.093 18.7729C503.934 19.9316 503.015 21.5246 502.3 23.4903L504.18 24.1737C504.83 22.3847 505.618 21.0764 506.507 20.1871L505.093 18.7729ZM502.296 23.5026C501.605 25.4841 501.28 28.0188 501.28 31.064H503.28C503.28 28.1359 503.595 25.8492 504.184 24.1614L502.296 23.5026ZM501.28 31.064C501.28 34.0699 501.605 36.6002 502.293 38.6187L504.187 37.9733C503.595 36.2372 503.28 33.9461 503.28 31.064H501.28ZM502.303 38.6447C503.019 40.5692 503.938 42.1365 505.093 43.2911L506.507 41.8769C505.614 40.9835 504.826 39.6921 504.177 37.9473L502.303 38.6447ZM505.107 43.3054C506.27 44.4217 507.554 45.2149 508.96 45.6511L509.552 43.7409C508.483 43.4091 507.463 42.7943 506.493 41.8626L505.107 43.3054ZM508.99 45.66C510.304 46.0225 511.589 46.208 512.84 46.208V44.208C511.787 44.208 510.682 44.0521 509.522 43.732L508.99 45.66ZM512.84 46.208C514.091 46.208 515.376 46.0225 516.69 45.66L516.158 43.732C514.998 44.0521 513.893 44.208 512.84 44.208V46.208ZM516.72 45.6511C518.13 45.2135 519.398 44.4161 520.523 43.2911L519.109 41.8769C518.186 42.7999 517.192 43.4105 516.128 43.7409L516.72 45.6511ZM520.523 43.2911C521.683 42.1307 522.583 40.556 523.256 38.6254L521.368 37.9666C520.761 39.7054 519.997 40.9893 519.109 41.8769L520.523 43.2911ZM523.258 38.6187C523.947 36.6002 524.272 34.0699 524.272 31.064H522.272C522.272 33.9461 521.957 36.2372 521.365 37.9733L523.258 38.6187ZM537.682 15V14H536.682V15H537.682ZM537.682 47H536.682V48H537.682V47ZM557.523 46.296L557.822 47.25L557.835 47.2461L557.847 47.2419L557.523 46.296ZM561.171 44.376L561.804 45.15L561.814 45.1415L561.824 45.1328L561.171 44.376ZM563.219 41.688L564.136 42.0867L564.139 42.0797L564.142 42.0726L563.219 41.688ZM562.898 34.52L563.756 34.0055L562.898 34.52ZM560.466 32.024L559.903 32.8502L559.924 32.8648L559.947 32.8782L560.466 32.024ZM557.395 30.68L557.161 31.6524L557.17 31.6544L557.395 30.68ZM554.451 30.232H553.451V31.1855L554.403 31.2309L554.451 30.232ZM554.451 29.784L554.254 28.8034L553.451 28.9642V29.784H554.451ZM557.01 29.016L557.382 29.9445L557.402 29.9366L557.421 29.9279L557.01 29.016ZM559.25 27.544L559.933 28.2751L559.934 28.2735L559.25 27.544ZM560.851 25.368L559.956 24.9208L559.951 24.9303L559.947 24.9399L560.851 25.368ZM561.171 20.312L562.141 20.0695L561.171 20.312ZM559.763 17.88L559.017 18.5468L559.026 18.5568L559.035 18.5666L559.763 17.88ZM556.562 15.832L556.186 16.7585L556.196 16.7624L556.562 15.832ZM543.122 44.44H542.122V45.44H543.122V44.44ZM543.122 31.704V30.704H542.122V31.704H543.122ZM551.315 31.832L551.231 32.8285L551.235 32.8288L551.315 31.832ZM556.883 34.584L556.087 35.19L556.096 35.2018L556.105 35.2132L556.883 34.584ZM556.946 41.88L557.711 42.5241L557.72 42.5145L557.727 42.5047L556.946 41.88ZM554.515 43.672L554.136 42.7465L554.128 42.7496L554.121 42.7529L554.515 43.672ZM551.763 44.376L551.81 45.3749L551.832 45.3738L551.853 45.3719L551.763 44.376ZM543.122 29.528H542.122V30.528H543.122V29.528ZM543.122 17.56V16.56H542.122V17.56H543.122ZM552.914 18.2L552.467 19.0944L552.476 19.0987L552.485 19.1029L552.914 18.2ZM555.859 21.656L554.876 21.8403L554.883 21.8773L554.892 21.9137L555.859 21.656ZM555.474 26.008L554.6 25.5224L554.595 25.5312L554.591 25.5401L555.474 26.008ZM553.875 27.928L554.474 28.728L554.49 28.7164L554.505 28.7041L553.875 27.928ZM551.506 29.144L551.781 30.1055L551.802 30.0996L551.823 30.0927L551.506 29.144ZM536.682 15V47H538.682V15H536.682ZM537.682 48H552.146V46H537.682V48ZM552.146 48C554.307 48 556.206 47.7581 557.822 47.25L557.223 45.342C555.853 45.7726 554.167 46 552.146 46V48ZM557.847 47.2419C559.42 46.7024 560.75 46.012 561.804 45.15L560.537 43.602C559.714 44.276 558.611 44.8656 557.198 45.3501L557.847 47.2419ZM561.824 45.1328C562.858 44.2396 563.64 43.226 564.136 42.0867L562.301 41.2893C561.943 42.1127 561.36 42.891 560.517 43.6192L561.824 45.1328ZM564.142 42.0726C564.617 40.9317 564.859 39.756 564.859 38.552H562.859C562.859 39.4814 562.673 40.3963 562.295 41.3034L564.142 42.0726ZM564.859 38.552C564.859 36.8032 564.513 35.268 563.756 34.0055L562.041 35.0345C562.564 35.9053 562.859 37.0581 562.859 38.552H564.859ZM563.756 34.0055C563.04 32.8117 562.117 31.8582 560.986 31.1698L559.947 32.8782C560.778 33.3844 561.477 34.095 562.041 35.0345L563.756 34.0055ZM561.03 31.1978C559.988 30.4876 558.849 29.9895 557.619 29.7056L557.17 31.6544C558.158 31.8825 559.067 32.2804 559.903 32.8502L561.03 31.1978ZM557.628 29.7076C556.513 29.4401 555.469 29.2794 554.498 29.2331L554.403 31.2309C555.224 31.27 556.143 31.4079 557.161 31.6524L557.628 29.7076ZM555.451 30.232V29.784H553.451V30.232H555.451ZM554.647 30.7646C555.563 30.5813 556.475 30.3072 557.382 29.9445L556.639 28.0875C555.839 28.4074 555.045 28.6454 554.254 28.8034L554.647 30.7646ZM557.421 29.9279C558.367 29.502 559.207 28.9522 559.933 28.2751L558.568 26.8129C558.014 27.3305 557.36 27.7619 556.6 28.1041L557.421 29.9279ZM559.934 28.2735C560.705 27.5515 561.314 26.725 561.754 25.7961L559.947 24.9399C559.619 25.6323 559.162 26.2565 558.567 26.8145L559.934 28.2735ZM561.745 25.8152C562.249 24.8074 562.49 23.6914 562.49 22.488H560.49C560.49 23.4179 560.305 24.222 559.956 24.9208L561.745 25.8152ZM562.49 22.488C562.49 21.7803 562.365 20.9685 562.141 20.0695L560.2 20.5545C560.402 21.3621 560.49 22.001 560.49 22.488H562.49ZM562.141 20.0695C561.878 19.0192 561.309 18.0611 560.49 17.1934L559.035 18.5666C559.667 19.2349 560.036 19.8981 560.2 20.5545L562.141 20.0695ZM560.508 17.2132C559.646 16.25 558.429 15.4923 556.929 14.9016L556.196 16.7624C557.512 17.281 558.428 17.8887 559.017 18.5468L560.508 17.2132ZM556.939 14.9055C555.406 14.2828 553.427 14 551.058 14V16C553.298 16 554.988 16.2719 556.186 16.7585L556.939 14.9055ZM551.058 14H537.682V16H551.058V14ZM544.122 44.44V31.704H542.122V44.44H544.122ZM543.122 32.704H548.755V30.704H543.122V32.704ZM548.755 32.704C549.399 32.704 550.223 32.7445 551.231 32.8285L551.398 30.8355C550.358 30.7488 549.475 30.704 548.755 30.704V32.704ZM551.235 32.8288C552.191 32.9053 553.108 33.1344 553.988 33.5171L554.785 31.6829C553.703 31.2123 552.571 30.9293 551.394 30.8352L551.235 32.8288ZM553.988 33.5171C554.804 33.872 555.502 34.4225 556.087 35.19L557.678 33.978C556.897 32.9535 555.932 32.1813 554.785 31.6829L553.988 33.5171ZM556.105 35.2132C556.641 35.8753 556.971 36.8624 556.971 38.296H558.971C558.971 36.5723 558.574 35.0847 557.66 33.9548L556.105 35.2132ZM556.971 38.296C556.971 39.6954 556.659 40.6389 556.166 41.2553L557.727 42.5047C558.6 41.4144 558.971 39.9686 558.971 38.296H556.971ZM556.182 41.2359C555.598 41.9286 554.918 42.4264 554.136 42.7465L554.893 44.5975C555.988 44.1496 556.929 43.4527 557.711 42.5241L556.182 41.2359ZM554.121 42.7529C553.318 43.0969 552.503 43.3046 551.672 43.3801L551.853 45.3719C552.9 45.2767 553.919 45.0151 554.908 44.5911L554.121 42.7529ZM551.715 43.3771C550.822 43.4197 550.18 43.44 549.779 43.44V45.44C550.23 45.44 550.911 45.4177 551.81 45.3749L551.715 43.3771ZM549.779 43.44H543.122V45.44H549.779V43.44ZM544.122 29.528V17.56H542.122V29.528H544.122ZM543.122 18.56H549.458V16.56H543.122V18.56ZM549.458 18.56C550.828 18.56 551.806 18.7639 552.467 19.0944L553.362 17.3056C552.316 16.7827 550.991 16.56 549.458 16.56V18.56ZM552.485 19.1029C553.282 19.4828 553.827 19.909 554.176 20.3538L555.749 19.1182C555.16 18.3683 554.339 17.7705 553.344 17.2971L552.485 19.1029ZM554.176 20.3538C554.556 20.8367 554.78 21.3303 554.876 21.8403L556.841 21.4717C556.681 20.6163 556.308 19.83 555.749 19.1182L554.176 20.3538ZM554.892 21.9137C555.047 22.4928 555.115 22.9801 555.115 23.384H557.115C557.115 22.7639 557.012 22.0992 556.825 21.3983L554.892 21.9137ZM555.115 23.384C555.115 24.2157 554.935 24.9197 554.6 25.5224L556.349 26.4936C556.867 25.5603 557.115 24.515 557.115 23.384H555.115ZM554.591 25.5401C554.274 26.1384 553.83 26.6758 553.244 27.1519L554.505 28.7041C555.284 28.0709 555.907 27.3283 556.358 26.4759L554.591 25.5401ZM553.274 27.128C552.686 27.569 551.995 27.927 551.19 28.1953L551.823 30.0927C552.81 29.7636 553.697 29.311 554.474 28.728L553.274 27.128ZM551.232 28.1825C550.43 28.4116 549.584 28.528 548.69 28.528V30.528C549.76 30.528 550.791 30.3884 551.781 30.1055L551.232 28.1825ZM548.69 28.528H543.122V30.528H548.69V28.528Z" fill="url(#paint0_linear)" fill-opacity="0.5"/>
<defs>
<linearGradient id="paint0_linear" x1="0.624311" y1="-9.9986" x2="18.4208" y2="104.223" gradientUnits="userSpaceOnUse">
<stop stop-color="#C69C6D"/>
<stop offset="1" stop-color="#E6A762"/>
</linearGradient>
</defs>
</svg>
