<svg width="31" height="31" viewBox="0 0 31 31" fill="none" xmlns="http://www.w3.org/2000/svg">
<path d="M0.599993 15.2C0.599993 6.81008 7.41003 0 15.8 0C24.19 0 31 6.81008 31 15.2C31 23.5899 24.19 30.4 15.8 30.4C7.41003 30.4 0.599993 23.5899 0.599993 15.2ZM1.39999 15.2C1.39999 23.1576 7.84235 29.6 15.8 29.6C23.7576 29.6 30.2 23.1576 30.2 15.2C30.2 7.2424 23.7576 0.8 15.8 0.8C7.84235 0.8 1.39999 7.2424 1.39999 15.2ZM5.79999 15.1876C5.80519 15.0902 5.84395 14.9918 5.89999 14.9251L12.3 8.12507C12.4549 7.96339 12.7134 7.96855 12.8625 8.11267C13.0141 8.25903 13.0314 8.5214 12.8873 8.6752L7.12479 14.8H25.3998C25.6207 14.8 25.7998 14.9791 25.7998 15.2C25.7998 15.4209 25.6207 15.6 25.3998 15.6H7.12479L12.8873 21.725C13.0314 21.8788 13.0163 22.156 12.8625 22.3C12.7087 22.444 12.4674 22.4414 12.3 22.2752L5.89999 15.4752C5.82395 15.3816 5.79499 15.2851 5.79999 15.1877V15.1876Z" fill="url(#paint0_linear)" fill-opacity="0.6"/>
<defs>
<linearGradient id="paint0_linear" x1="33.2998" y1="0.199951" x2="0.799806" y2="37.6999" gradientUnits="userSpaceOnUse">
<stop stop-color="#C69C6D"/>
<stop offset="1" stop-color="#E6A762"/>
</linearGradient>
</defs>
</svg>
