<svg width="31" height="31" viewBox="0 0 31 31" fill="none" xmlns="http://www.w3.org/2000/svg">
<path d="M30.4 15.2C30.4 6.81008 23.59 0 15.2 0C6.81 0 0 6.81008 0 15.2C0 23.5899 6.81 30.4 15.2 30.4C23.59 30.4 30.4 23.5899 30.4 15.2ZM29.6 15.2C29.6 23.1576 23.1576 29.6 15.2 29.6C7.24236 29.6 0.8 23.1576 0.8 15.2C0.8 7.2424 7.24236 0.8 15.2 0.8C23.1576 0.8 29.6 7.2424 29.6 15.2ZM25.2 15.1876C25.1948 15.0902 25.156 14.9918 25.1 14.9251L18.7 8.12507C18.5451 7.96339 18.2866 7.96855 18.1375 8.11267C17.9859 8.25903 17.9686 8.5214 18.1127 8.6752L23.8752 14.8H5.6002C5.37928 14.8 5.2002 14.9791 5.2002 15.2C5.2002 15.4209 5.37928 15.6 5.6002 15.6H23.8752L18.1127 21.725C17.9686 21.8788 17.9837 22.156 18.1375 22.3C18.2913 22.444 18.5326 22.4414 18.7 22.2752L25.1 15.4752C25.176 15.3816 25.205 15.2851 25.2 15.1877V15.1876Z" fill="url(#paint0_linear)" fill-opacity="0.6"/>
<defs>
<linearGradient id="paint0_linear" x1="-2.2998" y1="0.199951" x2="30.2002" y2="37.6999" gradientUnits="userSpaceOnUse">
<stop stop-color="#C69C6D"/>
<stop offset="1" stop-color="#E6A762"/>
</linearGradient>
</defs>
</svg>
