<svg width="464" height="63" viewBox="0 0 464 63" fill="none" xmlns="http://www.w3.org/2000/svg">
<path d="M40.144 1.2H1.68V46H7.504V4.72H34.32V46H40.144V1.2ZM52.9325 62H58.3725V40.752H58.6285C59.0552 41.8613 59.6098 42.8 60.2925 43.568C61.0178 44.336 61.8285 44.9547 62.7245 45.424C63.6205 45.8933 64.5592 46.2347 65.5405 46.448C66.5645 46.6613 67.5885 46.768 68.6125 46.768C70.7458 46.768 72.7085 46.384 74.5005 45.616C76.2925 44.8053 77.8285 43.6747 79.1085 42.224C80.4312 40.7733 81.4552 39.024 82.1805 36.976C82.9058 34.8853 83.2685 32.5813 83.2685 30.064C83.2685 27.504 82.9058 25.2 82.1805 23.152C81.4552 21.104 80.4312 19.3547 79.1085 17.904C77.8285 16.4107 76.2925 15.28 74.5005 14.512C72.7085 13.7013 70.7458 13.296 68.6125 13.296C63.5352 13.296 60.2072 15.2587 58.6285 19.184H58.3725V14H52.9325V62ZM58.3725 26.8C58.3725 25.392 58.5858 24.0693 59.0125 22.832C59.4818 21.552 60.1218 20.464 60.9325 19.568C61.7432 18.6293 62.6818 17.904 63.7485 17.392C64.8578 16.8373 66.0312 16.56 67.2685 16.56C68.5912 16.56 69.8498 16.816 71.0445 17.328C72.2818 17.7973 73.3485 18.5653 74.2445 19.632C75.1405 20.6987 75.8445 22.0853 76.3565 23.792C76.9112 25.4987 77.1885 27.5467 77.1885 29.936C77.1885 32.368 76.9112 34.4373 76.3565 36.144C75.8445 37.8507 75.1192 39.2587 74.1805 40.368C73.2845 41.4347 72.2392 42.224 71.0445 42.736C69.8498 43.2053 68.5912 43.44 67.2685 43.44C66.0738 43.44 64.9432 43.2053 63.8765 42.736C62.8098 42.224 61.8712 41.4987 61.0605 40.56C60.2498 39.5787 59.5885 38.4053 59.0765 37.04C58.6072 35.6747 58.3725 34.1173 58.3725 32.368V26.8ZM119.974 31.408V30.064C119.974 27.2053 119.568 24.7307 118.757 22.64C117.947 20.5493 116.838 18.8213 115.43 17.456C114.064 16.0907 112.464 15.0667 110.63 14.384C108.795 13.7013 106.854 13.36 104.806 13.36C102.63 13.36 100.624 13.744 98.7895 14.512C96.9548 15.2373 95.3548 16.3253 93.9895 17.776C92.6242 19.184 91.5575 20.912 90.7895 22.96C90.0215 24.9653 89.6375 27.248 89.6375 29.808C89.6375 31.9413 89.9575 34.032 90.5975 36.08C91.2802 38.0853 92.2828 39.8987 93.6055 41.52C94.9708 43.0987 96.6775 44.3787 98.7255 45.36C100.816 46.2987 103.27 46.768 106.086 46.768C108.816 46.768 111.334 46.2987 113.638 45.36C115.942 44.3787 117.947 42.992 119.654 41.2L117.606 39.152C116.71 39.92 115.856 40.624 115.046 41.264C114.278 41.904 113.488 42.4373 112.678 42.864C111.867 43.2907 111.014 43.632 110.118 43.888C109.264 44.1013 108.304 44.208 107.238 44.208C106.043 44.208 104.763 44.0373 103.398 43.696C102.075 43.312 100.838 42.6507 99.6855 41.712C98.5335 40.7733 97.5735 39.472 96.8055 37.808C96.0375 36.144 95.6535 34.0107 95.6535 31.408H119.974ZM95.6535 28.848C95.6535 27.1413 95.8242 25.4987 96.1655 23.92C96.5495 22.2987 97.1042 20.8693 97.8295 19.632C98.5975 18.3947 99.5575 17.4133 100.71 16.688C101.862 15.92 103.227 15.536 104.806 15.536C107.835 15.536 110.182 16.7307 111.846 19.12C113.552 21.4667 114.406 24.7093 114.406 28.848H95.6535ZM133.748 42.224V14H128.308V46H134.708L151.028 17.968V46H156.468V14H150.068L133.748 42.224ZM171.739 14H166.683V46H168.859V20.72H169.115L181.787 46.768H182.427L194.267 20.72H194.523V46H199.963V14H195.035L183.899 38.448H183.579L171.739 14ZM223.239 38.512L212.167 14H206.343L220.679 45.616L217.287 53.936C216.903 54.9173 216.391 55.7067 215.751 56.304C215.153 56.9013 214.449 57.2 213.639 57.2C212.871 57.2 212.124 56.9653 211.399 56.496C210.716 56.0693 210.183 55.4293 209.799 54.576L206.983 59.888C207.793 60.6133 208.689 61.1467 209.671 61.488C210.652 61.8293 211.569 62 212.423 62C213.617 62 214.663 61.7013 215.559 61.104C216.455 60.5067 217.244 59.7173 217.927 58.736C218.609 57.7973 219.207 56.7307 219.719 55.536C220.231 54.384 220.721 53.232 221.191 52.08L236.679 14H233.543L223.495 38.512H223.239ZM243.058 46H288.434V52.72H292.722V43.44H287.09V14H281.586V43.44H267.762V14H262.322V43.44H248.498V14H243.058V46ZM326.911 31.408V30.064C326.911 27.2053 326.506 24.7307 325.695 22.64C324.884 20.5493 323.775 18.8213 322.367 17.456C321.002 16.0907 319.402 15.0667 317.567 14.384C315.732 13.7013 313.791 13.36 311.743 13.36C309.567 13.36 307.562 13.744 305.727 14.512C303.892 15.2373 302.292 16.3253 300.927 17.776C299.562 19.184 298.495 20.912 297.727 22.96C296.959 24.9653 296.575 27.248 296.575 29.808C296.575 31.9413 296.895 34.032 297.535 36.08C298.218 38.0853 299.22 39.8987 300.543 41.52C301.908 43.0987 303.615 44.3787 305.663 45.36C307.754 46.2987 310.207 46.768 313.023 46.768C315.754 46.768 318.271 46.2987 320.575 45.36C322.879 44.3787 324.884 42.992 326.591 41.2L324.543 39.152C323.647 39.92 322.794 40.624 321.983 41.264C321.215 41.904 320.426 42.4373 319.615 42.864C318.804 43.2907 317.951 43.632 317.055 43.888C316.202 44.1013 315.242 44.208 314.175 44.208C312.98 44.208 311.7 44.0373 310.335 43.696C309.012 43.312 307.775 42.6507 306.623 41.712C305.471 40.7733 304.511 39.472 303.743 37.808C302.975 36.144 302.591 34.0107 302.591 31.408H326.911ZM302.591 28.848C302.591 27.1413 302.762 25.4987 303.103 23.92C303.487 22.2987 304.042 20.8693 304.767 19.632C305.535 18.3947 306.495 17.4133 307.647 16.688C308.799 15.92 310.164 15.536 311.743 15.536C314.772 15.536 317.119 16.7307 318.783 19.12C320.49 21.4667 321.343 24.7093 321.343 28.848H302.591ZM351.309 43.44C349.773 43.44 348.28 43.2053 346.829 42.736C345.421 42.2667 344.162 41.52 343.053 40.496C341.944 39.4293 341.048 38.0427 340.365 36.336C339.725 34.5867 339.405 32.4533 339.405 29.936C339.405 27.3333 339.768 25.136 340.493 23.344C341.218 21.5093 342.114 20.0587 343.181 18.992C344.29 17.8827 345.506 17.0933 346.829 16.624C348.152 16.112 349.41 15.856 350.605 15.856C352.568 15.856 354.274 16.368 355.725 17.392C357.176 18.416 358.136 19.6747 358.605 21.168H363.021C362.594 19.632 361.912 18.3733 360.973 17.392C360.034 16.368 358.946 15.5573 357.709 14.96C356.514 14.32 355.213 13.8933 353.805 13.68C352.44 13.424 351.117 13.296 349.837 13.296C347.149 13.296 344.781 13.744 342.733 14.64C340.685 15.4933 338.957 16.6667 337.549 18.16C336.141 19.6533 335.074 21.4027 334.349 23.408C333.666 25.4133 333.325 27.5467 333.325 29.808C333.325 32.1973 333.709 34.4373 334.477 36.528C335.245 38.576 336.333 40.368 337.741 41.904C339.192 43.3973 340.92 44.592 342.925 45.488C344.93 46.3413 347.192 46.768 349.709 46.768C352.525 46.768 354.978 46.2987 357.069 45.36C359.202 44.4213 360.994 43.3973 362.445 42.288L360.589 39.856C359.096 41.0933 357.602 42.0107 356.109 42.608C354.658 43.1627 353.058 43.44 351.309 43.44ZM379.018 46H384.458V16.56H397.257V14H366.218V16.56H379.018V46ZM403.683 14V46H418.147C420.237 46 422.029 45.7653 423.523 45.296C425.016 44.784 426.232 44.144 427.171 43.376C428.109 42.5653 428.792 41.6693 429.219 40.688C429.645 39.664 429.859 38.6187 429.859 37.552C429.859 35.9307 429.539 34.5867 428.899 33.52C428.259 32.4533 427.448 31.6213 426.467 31.024C425.528 30.384 424.504 29.936 423.395 29.68C422.328 29.424 421.347 29.2747 420.451 29.232V28.784C421.304 28.6133 422.157 28.3573 423.011 28.016C423.864 27.632 424.611 27.1413 425.251 26.544C425.933 25.904 426.467 25.1787 426.851 24.368C427.277 23.5147 427.491 22.5547 427.491 21.488C427.491 20.8907 427.384 20.1653 427.171 19.312C426.957 18.4587 426.488 17.648 425.763 16.88C425.037 16.0693 423.971 15.3867 422.563 14.832C421.197 14.2773 419.363 14 417.059 14H403.683ZM409.123 43.44V30.704H414.755C415.437 30.704 416.291 30.7467 417.315 30.832C418.381 30.9173 419.405 31.1733 420.387 31.6C421.368 32.0267 422.2 32.688 422.883 33.584C423.608 34.48 423.971 35.7173 423.971 37.296C423.971 38.832 423.629 40.0267 422.947 40.88C422.264 41.6907 421.453 42.288 420.515 42.672C419.619 43.056 418.701 43.2907 417.763 43.376C416.867 43.4187 416.205 43.44 415.779 43.44H409.123ZM409.123 28.528V16.56H415.458C416.909 16.56 418.061 16.7733 418.915 17.2C419.811 17.6267 420.493 18.1387 420.963 18.736C421.432 19.3333 421.731 19.9733 421.859 20.656C422.029 21.296 422.115 21.872 422.115 22.384C422.115 23.3653 421.901 24.24 421.475 25.008C421.091 25.7333 420.557 26.3733 419.875 26.928C419.192 27.44 418.403 27.8453 417.507 28.144C416.611 28.4 415.672 28.528 414.691 28.528H409.123ZM449.958 13.296C453.073 13.296 455.484 13.744 457.191 14.64C458.897 15.4933 460.135 16.624 460.903 18.032C461.713 19.44 462.183 21.0613 462.311 22.896C462.439 24.7307 462.503 26.608 462.503 28.528V46H457.319V42.864C456.081 44.0587 454.503 45.0187 452.583 45.744C450.663 46.4267 448.743 46.768 446.823 46.768C444.988 46.768 443.367 46.448 441.959 45.808C440.551 45.168 439.377 44.336 438.439 43.312C437.5 42.288 436.796 41.136 436.327 39.856C435.857 38.576 435.623 37.2747 435.623 35.952C435.623 34.5867 435.879 33.2213 436.391 31.856C436.903 30.4907 437.671 29.2747 438.695 28.208C439.719 27.0987 440.977 26.2027 442.47 25.52C443.964 24.8373 445.671 24.496 447.591 24.496C449.511 24.496 451.324 24.88 453.031 25.648C454.78 26.3733 456.209 27.4187 457.319 28.784V26.032C457.319 22.5333 456.785 19.9307 455.719 18.224C454.695 16.5173 452.796 15.664 450.023 15.664C448.828 15.664 447.783 15.8133 446.887 16.112C445.991 16.4107 445.18 16.8373 444.455 17.392C443.772 17.904 443.132 18.5653 442.535 19.376C441.937 20.144 441.34 21.0187 440.743 22L437.415 18.672C438.012 18.032 438.631 17.392 439.271 16.752C439.953 16.112 440.764 15.536 441.703 15.024C442.684 14.512 443.836 14.1067 445.159 13.808C446.481 13.4667 448.081 13.296 449.958 13.296ZM457.319 33.328C457.105 32.816 456.785 32.2187 456.359 31.536C455.975 30.8533 455.463 30.192 454.823 29.552C454.183 28.912 453.415 28.3787 452.519 27.952C451.623 27.4827 450.556 27.248 449.319 27.248C448.081 27.248 446.951 27.504 445.927 28.016C444.903 28.4853 444.028 29.1253 443.303 29.936C442.62 30.704 442.087 31.6213 441.703 32.688C441.319 33.7547 441.127 34.864 441.127 36.016C441.127 37.3813 441.361 38.576 441.831 39.6C442.343 40.5813 442.983 41.4347 443.751 42.16C444.519 42.8427 445.372 43.3547 446.311 43.696C447.249 44.0373 448.145 44.208 448.999 44.208C449.809 44.208 450.62 44.0587 451.431 43.76C452.284 43.4613 453.073 43.056 453.799 42.544C454.567 41.9893 455.249 41.3493 455.847 40.624C456.444 39.8987 456.935 39.1093 457.319 38.256V33.328Z" fill="#333333"/>
<path d="M40.144 1.2H41.144V0.199997H40.144V1.2ZM1.68 1.2V0.199997H0.68V1.2H1.68ZM1.68 46H0.68V47H1.68V46ZM7.504 46V47H8.504V46H7.504ZM7.504 4.72V3.72H6.504V4.72H7.504ZM34.32 4.72H35.32V3.72H34.32V4.72ZM34.32 46H33.32V47H34.32V46ZM40.144 46V47H41.144V46H40.144ZM40.144 0.199997H1.68V2.2H40.144V0.199997ZM0.68 1.2V46H2.68V1.2H0.68ZM1.68 47H7.504V45H1.68V47ZM8.504 46V4.72H6.504V46H8.504ZM7.504 5.72H34.32V3.72H7.504V5.72ZM33.32 4.72V46H35.32V4.72H33.32ZM34.32 47H40.144V45H34.32V47ZM41.144 46V1.2H39.144V46H41.144ZM52.9325 62H51.9325V63H52.9325V62ZM58.3725 62V63H59.3725V62H58.3725ZM58.3725 40.752V39.752H57.3725V40.752H58.3725ZM58.6285 40.752L59.5618 40.393L59.3153 39.752H58.6285V40.752ZM60.2925 43.568L59.5451 44.2324L59.5551 44.2436L59.5655 44.2546L60.2925 43.568ZM62.7245 45.424L62.2605 46.3098L62.7245 45.424ZM65.5405 46.448L65.3281 47.4252L65.3365 47.427L65.5405 46.448ZM74.5005 45.616L74.8944 46.5351L74.9036 46.5312L74.9127 46.5271L74.5005 45.616ZM79.1085 42.224L78.3695 41.5502L78.3641 41.5563L78.3587 41.5624L79.1085 42.224ZM82.1805 36.976L83.1231 37.3099L83.1253 37.3038L82.1805 36.976ZM82.1805 23.152L81.2379 23.4858V23.4858L82.1805 23.152ZM79.1085 17.904L78.3492 18.5548L78.3592 18.5664L78.3695 18.5778L79.1085 17.904ZM74.5005 14.512L74.0883 15.4231L74.0974 15.4272L74.1066 15.4311L74.5005 14.512ZM58.6285 19.184V20.184H59.3042L59.5563 19.5571L58.6285 19.184ZM58.3725 19.184H57.3725V20.184H58.3725V19.184ZM58.3725 14H59.3725V13H58.3725V14ZM52.9325 14V13H51.9325V14H52.9325ZM59.0125 22.832L58.0736 22.4877L58.0703 22.4968L58.0671 22.506L59.0125 22.832ZM60.9325 19.568L61.674 20.2389L61.6818 20.2304L61.6893 20.2216L60.9325 19.568ZM63.7485 17.392L64.1812 18.2935L64.1885 18.29L64.1957 18.2864L63.7485 17.392ZM71.0445 17.328L70.6506 18.2471L70.67 18.2555L70.6898 18.263L71.0445 17.328ZM74.2445 19.632L75.0102 18.9888L74.2445 19.632ZM76.3565 23.792L75.3987 24.0793L75.4019 24.0903L75.4055 24.1011L76.3565 23.792ZM76.3565 36.144L75.4055 35.8349L75.4019 35.8457L75.3987 35.8567L76.3565 36.144ZM74.1805 40.368L73.4171 39.7221L73.4148 39.7248L74.1805 40.368ZM71.0445 42.736L71.4102 43.6668L71.4244 43.6612L71.4384 43.6551L71.0445 42.736ZM63.8765 42.736L63.4438 43.6375L63.4587 43.6447L63.4738 43.6513L63.8765 42.736ZM61.0605 40.56L60.2895 41.1969L60.2965 41.2053L60.3037 41.2136L61.0605 40.56ZM59.0765 37.04L58.1308 37.3651L58.1353 37.3782L58.1402 37.3911L59.0765 37.04ZM52.9325 63H58.3725V61H52.9325V63ZM59.3725 62V40.752H57.3725V62H59.3725ZM58.3725 41.752H58.6285V39.752H58.3725V41.752ZM57.6952 41.111C58.1583 42.3151 58.7711 43.3617 59.5451 44.2324L61.0399 42.9036C60.4485 42.2383 59.952 41.4075 59.5618 40.393L57.6952 41.111ZM59.5655 44.2546C60.3634 45.0995 61.2621 45.7869 62.2605 46.3098L63.1885 44.5382C62.3949 44.1225 61.6722 43.5725 61.0195 42.8814L59.5655 44.2546ZM62.2605 46.3098C63.2353 46.8204 64.2585 47.1927 65.3281 47.4252L65.7529 45.4708C64.8598 45.2767 64.0057 44.9662 63.1885 44.5382L62.2605 46.3098ZM65.3365 47.427C66.4262 47.654 67.5185 47.768 68.6125 47.768V45.768C67.6585 45.768 66.7028 45.6687 65.7445 45.469L65.3365 47.427ZM68.6125 47.768C70.8684 47.768 72.9667 47.3613 74.8944 46.5351L74.1066 44.6969C72.4504 45.4067 70.6233 45.768 68.6125 45.768V47.768ZM74.9127 46.5271C76.8314 45.6591 78.4831 44.4442 79.8583 42.8856L78.3587 41.5624C77.1739 42.9051 75.7536 43.9516 74.0883 44.7049L74.9127 46.5271ZM79.8475 42.8978C81.2692 41.3385 82.358 39.4701 83.1231 37.3098L81.2379 36.6422C80.5523 38.5779 79.5932 40.2082 78.3695 41.5502L79.8475 42.8978ZM83.1253 37.3038C83.8918 35.0943 84.2685 32.6778 84.2685 30.064H82.2685C82.2685 32.4849 81.9199 34.6764 81.2357 36.6482L83.1253 37.3038ZM84.2685 30.064C84.2685 27.4101 83.8925 24.9906 83.1231 22.8181L81.2379 23.4858C81.9191 25.4094 82.2685 27.5979 82.2685 30.064H84.2685ZM83.1231 22.8182C82.358 20.6579 81.2692 18.7895 79.8475 17.2302L78.3695 18.5778C79.5932 19.9198 80.5523 21.5501 81.2379 23.4858L83.1231 22.8182ZM79.8678 17.2532C78.489 15.6447 76.8284 14.4217 74.8944 13.5929L74.1066 15.4311C75.7566 16.1383 77.168 17.1766 78.3492 18.5548L79.8678 17.2532ZM74.9127 13.6009C72.9805 12.7268 70.8758 12.296 68.6125 12.296V14.296C70.6159 14.296 72.4365 14.6758 74.0883 15.4231L74.9127 13.6009ZM68.6125 12.296C65.9498 12.296 63.6595 12.8103 61.8005 13.9066C59.9283 15.0108 58.564 16.6642 57.7007 18.8109L59.5563 19.5571C60.2716 17.7784 61.3607 16.4879 62.8165 15.6294C64.2855 14.763 66.1979 14.296 68.6125 14.296V12.296ZM58.6285 18.184H58.3725V20.184H58.6285V18.184ZM59.3725 19.184V14H57.3725V19.184H59.3725ZM58.3725 13H52.9325V15H58.3725V13ZM51.9325 14V62H53.9325V14H51.9325ZM59.3725 26.8C59.3725 25.4945 59.57 24.2828 59.9579 23.158L58.0671 22.506C57.6017 23.8559 57.3725 25.2895 57.3725 26.8H59.3725ZM59.9514 23.1763C60.3822 22.0014 60.9599 21.0283 61.674 20.2389L60.191 18.8971C59.2838 19.8997 58.5815 21.1026 58.0736 22.4877L59.9514 23.1763ZM61.6893 20.2216C62.4146 19.3819 63.2444 18.7432 64.1812 18.2935L63.3158 16.4905C62.1192 17.0648 61.0718 17.8768 60.1757 18.9144L61.6893 20.2216ZM64.1957 18.2864C65.1665 17.801 66.1868 17.56 67.2685 17.56V15.56C65.8755 15.56 64.5491 15.8736 63.3013 16.4976L64.1957 18.2864ZM67.2685 17.56C68.4582 17.56 69.5826 17.7894 70.6506 18.2471L71.4384 16.4089C70.117 15.8426 68.7241 15.56 67.2685 15.56V17.56ZM70.6898 18.263C71.759 18.6685 72.6866 19.3322 73.4788 20.2752L75.0102 18.9888C74.0104 17.7985 72.8047 16.9261 71.3992 16.393L70.6898 18.263ZM73.4788 20.2752C74.2664 21.2128 74.9153 22.4682 75.3987 24.0793L77.3143 23.5047C76.7737 21.7025 76.0146 20.1845 75.0102 18.9888L73.4788 20.2752ZM75.4055 24.1011C75.919 25.6811 76.1885 27.6191 76.1885 29.936H78.1885C78.1885 27.4743 77.9034 25.3163 77.3075 23.4829L75.4055 24.1011ZM76.1885 29.936C76.1885 32.2977 75.9185 34.2564 75.4055 35.8349L77.3075 36.4531C77.9039 34.6182 78.1885 32.4383 78.1885 29.936H76.1885ZM75.3987 35.8567C74.9175 37.4607 74.2494 38.7385 73.4171 39.7221L74.9439 41.0139C75.989 39.7788 76.7715 38.2406 77.3143 36.4313L75.3987 35.8567ZM73.4148 39.7248C72.612 40.6805 71.6912 41.3709 70.6506 41.8169L71.4384 43.6551C72.7871 43.0771 73.957 42.1889 74.9462 41.0112L73.4148 39.7248ZM70.6788 41.8052C69.6042 42.2274 68.4699 42.44 67.2685 42.44V44.44C68.7124 44.44 70.0954 44.1832 71.4102 43.6668L70.6788 41.8052ZM67.2685 42.44C66.2089 42.44 65.2157 42.2327 64.2792 41.8207L63.4738 43.6513C64.6706 44.1779 65.9388 44.44 67.2685 44.44V42.44ZM64.3092 41.8345C63.3724 41.3848 62.5426 40.7461 61.8173 39.9064L60.3037 41.2136C61.1998 42.2512 62.2472 43.0632 63.4438 43.6375L64.3092 41.8345ZM61.8315 39.9231C61.1008 39.0387 60.4915 37.9653 60.0128 36.6889L58.1402 37.3911C58.6855 38.8454 59.3988 40.1187 60.2895 41.1969L61.8315 39.9231ZM60.0222 36.7149C59.5955 35.4737 59.3725 34.0294 59.3725 32.368H57.3725C57.3725 34.2053 57.6188 35.8757 58.1308 37.3651L60.0222 36.7149ZM59.3725 32.368V26.8H57.3725V32.368H59.3725ZM119.974 31.408V32.408H120.974V31.408H119.974ZM118.757 22.64L117.825 23.0015V23.0015L118.757 22.64ZM115.43 17.456L114.722 18.1631L114.728 18.1685L114.733 18.1739L115.43 17.456ZM110.63 14.384L110.281 15.3212L110.63 14.384ZM98.7895 14.512L99.1572 15.442L99.1664 15.4383L99.1756 15.4344L98.7895 14.512ZM93.9895 17.776L94.7074 18.4721L94.7126 18.4668L94.7177 18.4614L93.9895 17.776ZM90.7895 22.96L91.7234 23.3177L91.7258 23.3111L90.7895 22.96ZM90.5975 36.08L89.643 36.3783L89.6468 36.3903L89.6508 36.4023L90.5975 36.08ZM93.6055 41.52L92.8306 42.1521L92.8397 42.1633L92.8491 42.1742L93.6055 41.52ZM98.7255 45.36L98.2934 46.2618L98.3046 46.2672L98.3159 46.2723L98.7255 45.36ZM113.637 45.36L114.015 46.2861L114.022 46.2831L114.029 46.28L113.637 45.36ZM119.654 41.2L120.378 41.8897L121.051 41.183L120.361 40.4929L119.654 41.2ZM117.605 39.152L118.313 38.4449L117.658 37.7901L116.955 38.3927L117.605 39.152ZM115.046 41.264L114.426 40.4791L114.415 40.4873L114.405 40.4958L115.046 41.264ZM110.118 43.888L110.36 44.8581L110.376 44.8541L110.392 44.8495L110.118 43.888ZM103.397 43.696L103.119 44.6563L103.137 44.6616L103.155 44.6661L103.397 43.696ZM99.6855 41.712L100.317 40.9368L99.6855 41.712ZM96.8055 37.808L95.8975 38.2271L96.8055 37.808ZM95.6535 31.408V30.408H94.6535V31.408H95.6535ZM95.6535 28.848H94.6535V29.848H95.6535V28.848ZM96.1655 23.92L95.1924 23.6895L95.1902 23.6991L95.1881 23.7087L96.1655 23.92ZM97.8295 19.632L96.9799 19.1046L96.9732 19.1154L96.9668 19.1263L97.8295 19.632ZM100.71 16.688L101.242 17.5342L101.253 17.5273L101.264 17.52L100.71 16.688ZM111.846 19.12L111.025 19.6915L111.031 19.6999L111.037 19.7082L111.846 19.12ZM114.406 28.848V29.848H115.406V28.848H114.406ZM120.974 31.408V30.064H118.974V31.408H120.974ZM120.974 30.064C120.974 27.1142 120.556 24.5113 119.69 22.2785L117.825 23.0015C118.581 24.95 118.974 27.2965 118.974 30.064H120.974ZM119.69 22.2785C118.835 20.0726 117.651 18.2172 116.126 16.7381L114.733 18.1739C116.024 19.4254 117.059 21.0261 117.825 23.0015L119.69 22.2785ZM116.137 16.7489C114.668 15.2806 112.946 14.1788 110.978 13.4468L110.281 15.3212C111.983 15.9545 113.46 16.9008 114.722 18.1631L116.137 16.7489ZM110.978 13.4468C109.027 12.7207 106.967 12.36 104.805 12.36V14.36C106.74 14.36 108.563 14.682 110.281 15.3212L110.978 13.4468ZM104.805 12.36C102.509 12.36 100.371 12.7657 98.4034 13.5896L99.1756 15.4344C100.877 14.7223 102.75 14.36 104.805 14.36V12.36ZM98.4218 13.582C96.4491 14.362 94.7264 15.534 93.2613 17.0906L94.7177 18.4614C95.9833 17.1167 97.4606 16.1127 99.1572 15.442L98.4218 13.582ZM93.2716 17.0799C91.8 18.5974 90.6639 20.447 89.8532 22.6089L91.7258 23.3111C92.4511 21.377 93.4483 19.7706 94.7074 18.4721L93.2716 17.0799ZM89.8556 22.6024C89.0364 24.7415 88.6375 27.1487 88.6375 29.808H90.6375C90.6375 27.3473 91.0066 25.1892 91.7234 23.3176L89.8556 22.6024ZM88.6375 29.808C88.6375 32.0431 88.973 34.2343 89.643 36.3783L91.552 35.7817C90.942 33.8297 90.6375 31.8396 90.6375 29.808H88.6375ZM89.6508 36.4023C90.3714 38.5189 91.4318 40.4374 92.8306 42.1521L94.3804 40.8879C93.1339 39.3599 92.1889 37.6518 91.5442 35.7577L89.6508 36.4023ZM92.8491 42.1742C94.312 43.8656 96.1324 45.2264 98.2934 46.2618L99.1576 44.4582C97.2225 43.531 95.6296 42.3317 94.3619 40.8658L92.8491 42.1742ZM98.3159 46.2723C100.561 47.2804 103.16 47.768 106.086 47.768V45.768C103.379 45.768 101.071 45.3169 99.1351 44.4477L98.3159 46.2723ZM106.086 47.768C108.933 47.768 111.58 47.2781 114.015 46.2861L113.26 44.4339C111.087 45.3192 108.699 45.768 106.086 45.768V47.768ZM114.029 46.28C116.457 45.246 118.576 43.7815 120.378 41.8897L118.929 40.5103C117.318 42.2025 115.426 43.5113 113.246 44.44L114.029 46.28ZM120.361 40.4929L118.313 38.4449L116.898 39.8591L118.946 41.9071L120.361 40.4929ZM116.955 38.3927C116.068 39.1532 115.225 39.8485 114.426 40.4791L115.665 42.0489C116.488 41.3995 117.351 40.6868 118.256 39.9113L116.955 38.3927ZM114.405 40.4958C113.686 41.0949 112.955 41.5879 112.212 41.9791L113.143 43.7489C114.021 43.2868 114.869 42.7131 115.686 42.0322L114.405 40.4958ZM112.212 41.9791C111.463 42.3732 110.674 42.689 109.843 42.9265L110.392 44.8495C111.353 44.575 112.271 44.2082 113.143 43.7489L112.212 41.9791ZM109.875 42.9179C109.116 43.1077 108.239 43.208 107.238 43.208V45.208C108.369 45.208 109.413 45.095 110.36 44.8581L109.875 42.9179ZM107.238 43.208C106.138 43.208 104.94 43.0508 103.64 42.7259L103.155 44.6661C104.586 45.0239 105.948 45.208 107.238 45.208V43.208ZM103.676 42.7357C102.492 42.3919 101.373 41.7974 100.317 40.9368L99.0538 42.4872C100.302 43.5039 101.657 44.2321 103.119 44.6563L103.676 42.7357ZM100.317 40.9368C99.3075 40.114 98.4323 38.9463 97.7135 37.3889L95.8975 38.2271C96.7148 39.9977 97.7595 41.4326 99.0538 42.4872L100.317 40.9368ZM97.7135 37.3889C97.026 35.8995 96.6535 33.9225 96.6535 31.408H94.6535C94.6535 34.0988 95.049 36.3885 95.8975 38.2271L97.7135 37.3889ZM95.6535 32.408H119.974V30.408H95.6535V32.408ZM96.6535 28.848C96.6535 27.2084 96.8174 25.6367 97.1429 24.1313L95.1881 23.7087C94.8309 25.3606 94.6535 27.0743 94.6535 28.848H96.6535ZM97.1386 24.1505C97.5033 22.6106 98.0245 21.2767 98.6922 20.1377L96.9668 19.1263C96.1838 20.4619 95.5957 21.9867 95.1924 23.6895L97.1386 24.1505ZM98.6791 20.1594C99.3728 19.0418 100.228 18.1731 101.242 17.5342L100.177 15.8418C98.8874 16.6535 97.8222 17.7475 96.9799 19.1046L98.6791 20.1594ZM101.264 17.52C102.23 16.8764 103.396 16.536 104.805 16.536V14.536C103.058 14.536 101.493 14.9636 100.155 15.8559L101.264 17.52ZM104.805 16.536C107.523 16.536 109.557 17.5833 111.025 19.6915L112.666 18.5485C110.806 15.8781 108.146 14.536 104.805 14.536V16.536ZM111.037 19.7082C112.576 21.8249 113.406 24.8337 113.406 28.848H115.406C115.406 24.585 114.528 21.1084 112.654 18.5318L111.037 19.7082ZM114.406 27.848H95.6535V29.848H114.406V27.848ZM133.747 42.224H132.747V45.9511L134.613 42.7246L133.747 42.224ZM133.747 14H134.747V13H133.747V14ZM128.307 14V13H127.307V14H128.307ZM128.307 46H127.307V47H128.307V46ZM134.708 46V47H135.282L135.572 46.5031L134.708 46ZM151.027 17.968H152.027V14.2628L150.163 17.4649L151.027 17.968ZM151.027 46H150.027V47H151.027V46ZM156.467 46V47H157.467V46H156.467ZM156.467 14H157.467V13H156.467V14ZM150.068 14V13H149.491L149.202 13.4994L150.068 14ZM134.747 42.224V14H132.747V42.224H134.747ZM133.747 13H128.307V15H133.747V13ZM127.307 14V46H129.307V14H127.307ZM128.307 47H134.708V45H128.307V47ZM135.572 46.5031L151.892 18.4711L150.163 17.4649L133.843 45.4969L135.572 46.5031ZM150.027 17.968V46H152.027V17.968H150.027ZM151.027 47H156.467V45H151.027V47ZM157.467 46V14H155.467V46H157.467ZM156.467 13H150.068V15H156.467V13ZM149.202 13.4994L132.882 41.7234L134.613 42.7246L150.933 14.5006L149.202 13.4994ZM171.738 14L172.639 13.5641L172.365 13H171.738V14ZM166.682 14V13H165.682V14H166.682ZM166.682 46H165.682V47H166.682V46ZM168.859 46V47H169.859V46H168.859ZM168.859 20.72V19.72H167.859V20.72H168.859ZM169.115 20.72L170.014 20.2825L169.74 19.72H169.115V20.72ZM181.786 46.768L180.887 47.2055L181.161 47.768H181.786V46.768ZM182.426 46.768V47.768H183.07L183.337 47.1818L182.426 46.768ZM194.267 20.72V19.72H193.623L193.356 20.3062L194.267 20.72ZM194.523 20.72H195.523V19.72H194.523V20.72ZM194.523 46H193.523V47H194.523V46ZM199.962 46V47H200.962V46H199.962ZM199.962 14H200.962V13H199.962V14ZM195.035 14V13H194.391L194.124 13.5855L195.035 14ZM183.898 38.448V39.448H184.542L184.809 38.8625L183.898 38.448ZM183.579 38.448L182.678 38.8839L182.952 39.448H183.579V38.448ZM171.738 13H166.682V15H171.738V13ZM165.682 14V46H167.682V14H165.682ZM166.682 47H168.859V45H166.682V47ZM169.859 46V20.72H167.859V46H169.859ZM168.859 21.72H169.115V19.72H168.859V21.72ZM168.215 21.1575L180.887 47.2055L182.686 46.3305L170.014 20.2825L168.215 21.1575ZM181.786 47.768H182.426V45.768H181.786V47.768ZM183.337 47.1818L195.177 21.1338L193.356 20.3062L181.516 46.3542L183.337 47.1818ZM194.267 21.72H194.523V19.72H194.267V21.72ZM193.523 20.72V46H195.523V20.72H193.523ZM194.523 47H199.962V45H194.523V47ZM200.962 46V14H198.962V46H200.962ZM199.962 13H195.035V15H199.962V13ZM194.124 13.5855L182.988 38.0335L184.809 38.8625L195.945 14.4145L194.124 13.5855ZM183.898 37.448H183.579V39.448H183.898V37.448ZM184.479 38.0121L172.639 13.5641L170.838 14.4359L182.678 38.8839L184.479 38.0121ZM223.238 38.512L222.327 38.9236L222.593 39.512H223.238V38.512ZM212.167 14L213.078 13.5884L212.812 13H212.167V14ZM206.342 14V13H204.791L205.432 14.413L206.342 14ZM220.678 45.616L221.605 45.9935L221.767 45.595L221.589 45.203L220.678 45.616ZM217.286 53.936L216.36 53.5584L216.355 53.5716L217.286 53.936ZM215.751 56.304L215.068 55.5729L215.056 55.5847L215.043 55.5969L215.751 56.304ZM211.398 56.496L211.942 55.6564L211.935 55.6522L211.928 55.648L211.398 56.496ZM209.798 54.576L210.71 54.1656L209.872 52.3024L208.915 54.1076L209.798 54.576ZM206.982 59.888L206.099 59.4196L205.732 60.1113L206.316 60.6332L206.982 59.888ZM209.671 61.488L209.342 62.4325L209.671 61.488ZM215.559 61.104L216.113 61.9361L215.559 61.104ZM217.926 58.736L217.118 58.1478L217.112 58.1563L217.106 58.1649L217.926 58.736ZM219.719 55.536L218.805 55.1298L218.799 55.1421L219.719 55.536ZM221.191 52.08L222.117 52.4573L222.117 52.4568L221.191 52.08ZM236.678 14L237.605 14.3768L238.165 13H236.678V14ZM233.542 14V13H232.872L232.617 13.6207L233.542 14ZM223.495 38.512V39.512H224.165L224.42 38.8913L223.495 38.512ZM224.15 38.1003L213.078 13.5884L211.255 14.4116L222.327 38.9236L224.15 38.1003ZM212.167 13H206.342V15H212.167V13ZM205.432 14.413L219.768 46.029L221.589 45.203L207.253 13.587L205.432 14.413ZM219.753 45.2385L216.361 53.5585L218.212 54.3135L221.605 45.9935L219.753 45.2385ZM216.355 53.5716C216.015 54.4416 215.579 55.0964 215.068 55.5729L216.433 57.0351C217.202 56.317 217.79 55.3931 218.218 54.3004L216.355 53.5716ZM215.043 55.5969C214.625 56.0155 214.172 56.2 213.639 56.2V58.2C214.727 58.2 215.682 57.7872 216.458 57.0111L215.043 55.5969ZM213.639 56.2C213.087 56.2 212.526 56.0345 211.942 55.6564L210.855 57.3356C211.722 57.8961 212.654 58.2 213.639 58.2V56.2ZM211.928 55.648C211.44 55.3424 211.027 54.8686 210.71 54.1656L208.887 54.9864C209.338 55.9901 209.992 56.7963 210.868 57.344L211.928 55.648ZM208.915 54.1076L206.099 59.4196L207.866 60.3564L210.682 55.0444L208.915 54.1076ZM206.316 60.6332C207.22 61.4425 208.23 62.0457 209.342 62.4325L209.999 60.5435C209.148 60.2476 208.366 59.7842 207.649 59.1428L206.316 60.6332ZM209.342 62.4325C210.407 62.8028 211.436 63 212.423 63V61C211.702 61 210.897 60.8558 209.999 60.5435L209.342 62.4325ZM212.423 63C213.792 63 215.035 62.6547 216.113 61.9361L215.004 60.2719C214.29 60.748 213.442 61 212.423 61V63ZM216.113 61.9361C217.124 61.2619 218.001 60.38 218.747 59.3071L217.106 58.1649C216.487 59.0547 215.785 59.7514 215.004 60.2719L216.113 61.9361ZM218.735 59.3242C219.467 58.3184 220.1 57.1852 220.638 55.9299L218.799 55.1421C218.313 56.2761 217.752 57.2763 217.118 58.1478L218.735 59.3242ZM220.632 55.9421C221.148 54.7807 221.643 53.6191 222.117 52.4573L220.264 51.7027C219.799 52.8449 219.312 53.9873 218.805 55.1299L220.632 55.9421ZM222.117 52.4568L237.605 14.3768L235.752 13.6232L220.264 51.7032L222.117 52.4568ZM236.678 13H233.542V15H236.678V13ZM232.617 13.6207L222.569 38.1327L224.42 38.8913L234.468 14.3793L232.617 13.6207ZM223.495 37.512H223.238V39.512H223.495V37.512ZM243.057 46H242.057V47H243.057V46ZM288.434 46H289.434V45H288.434V46ZM288.434 52.72H287.434V53.72H288.434V52.72ZM292.721 52.72V53.72H293.721V52.72H292.721ZM292.721 43.44H293.721V42.44H292.721V43.44ZM287.09 43.44H286.09V44.44H287.09V43.44ZM287.09 14H288.09V13H287.09V14ZM281.586 14V13H280.586V14H281.586ZM281.586 43.44V44.44H282.586V43.44H281.586ZM267.762 43.44H266.762V44.44H267.762V43.44ZM267.762 14H268.762V13H267.762V14ZM262.322 14V13H261.322V14H262.322ZM262.322 43.44V44.44H263.322V43.44H262.322ZM248.497 43.44H247.497V44.44H248.497V43.44ZM248.497 14H249.497V13H248.497V14ZM243.057 14V13H242.057V14H243.057ZM243.057 47H288.434V45H243.057V47ZM287.434 46V52.72H289.434V46H287.434ZM288.434 53.72H292.721V51.72H288.434V53.72ZM293.721 52.72V43.44H291.721V52.72H293.721ZM292.721 42.44H287.09V44.44H292.721V42.44ZM288.09 43.44V14H286.09V43.44H288.09ZM287.09 13H281.586V15H287.09V13ZM280.586 14V43.44H282.586V14H280.586ZM281.586 42.44H267.762V44.44H281.586V42.44ZM268.762 43.44V14H266.762V43.44H268.762ZM267.762 13H262.322V15H267.762V13ZM261.322 14V43.44H263.322V14H261.322ZM262.322 42.44H248.497V44.44H262.322V42.44ZM249.497 43.44V14H247.497V43.44H249.497ZM248.497 13H243.057V15H248.497V13ZM242.057 14V46H244.057V14H242.057ZM326.911 31.408V32.408H327.911V31.408H326.911ZM325.695 22.64L324.763 23.0015V23.0015L325.695 22.64ZM322.367 17.456L321.66 18.1631L321.665 18.1685L321.671 18.1739L322.367 17.456ZM317.567 14.384L317.218 15.3212L317.567 14.384ZM305.727 14.512L306.095 15.442L306.104 15.4383L306.113 15.4344L305.727 14.512ZM300.927 17.776L301.645 18.4721L301.65 18.4668L301.655 18.4614L300.927 17.776ZM297.727 22.96L298.661 23.3177L298.663 23.3111L297.727 22.96ZM297.535 36.08L296.581 36.3783L296.584 36.3903L296.588 36.4023L297.535 36.08ZM300.543 41.52L299.768 42.1521L299.777 42.1633L299.787 42.1742L300.543 41.52ZM305.663 45.36L305.231 46.2618L305.242 46.2672L305.253 46.2723L305.663 45.36ZM320.575 45.36L320.952 46.2861L320.96 46.2831L320.967 46.28L320.575 45.36ZM326.591 41.2L327.315 41.8897L327.988 41.183L327.298 40.4929L326.591 41.2ZM324.543 39.152L325.25 38.4449L324.595 37.7901L323.892 38.3927L324.543 39.152ZM321.983 41.264L321.363 40.4791L321.353 40.4873L321.343 40.4958L321.983 41.264ZM317.055 43.888L317.298 44.8581L317.314 44.8541L317.33 44.8495L317.055 43.888ZM310.335 43.696L310.056 44.6563L310.074 44.6616L310.092 44.6661L310.335 43.696ZM306.623 41.712L307.255 40.9368L306.623 41.712ZM303.743 37.808L302.835 38.2271L303.743 37.808ZM302.591 31.408V30.408H301.591V31.408H302.591ZM302.591 28.848H301.591V29.848H302.591V28.848ZM303.103 23.92L302.13 23.6895L302.128 23.6991L302.126 23.7087L303.103 23.92ZM304.767 19.632L303.917 19.1046L303.911 19.1154L303.904 19.1263L304.767 19.632ZM307.647 16.688L308.18 17.5342L308.191 17.5273L308.202 17.52L307.647 16.688ZM318.783 19.12L317.962 19.6915L317.968 19.6999L317.974 19.7082L318.783 19.12ZM321.343 28.848V29.848H322.343V28.848H321.343ZM327.911 31.408V30.064H325.911V31.408H327.911ZM327.911 30.064C327.911 27.1142 327.493 24.5113 326.627 22.2785L324.763 23.0015C325.518 24.95 325.911 27.2965 325.911 30.064H327.911ZM326.627 22.2785C325.772 20.0726 324.589 18.2172 323.063 16.7381L321.671 18.1739C322.961 19.4254 323.997 21.0261 324.763 23.0015L326.627 22.2785ZM323.074 16.7489C321.606 15.2806 319.883 14.1788 317.916 13.4468L317.218 15.3212C318.92 15.9545 320.398 16.9008 321.66 18.1631L323.074 16.7489ZM317.916 13.4468C315.964 12.7207 313.904 12.36 311.743 12.36V14.36C313.678 14.36 315.5 14.682 317.218 15.3212L317.916 13.4468ZM311.743 12.36C309.447 12.36 307.309 12.7657 305.341 13.5896L306.113 15.4344C307.814 14.7223 309.687 14.36 311.743 14.36V12.36ZM305.359 13.582C303.387 14.362 301.664 15.534 300.199 17.0906L301.655 18.4614C302.921 17.1167 304.398 16.1127 306.095 15.442L305.359 13.582ZM300.209 17.0799C298.738 18.5974 297.601 20.447 296.791 22.6089L298.663 23.3111C299.389 21.377 300.386 19.7706 301.645 18.4721L300.209 17.0799ZM296.793 22.6024C295.974 24.7415 295.575 27.1487 295.575 29.808H297.575C297.575 27.3473 297.944 25.1892 298.661 23.3176L296.793 22.6024ZM295.575 29.808C295.575 32.0431 295.911 34.2343 296.581 36.3783L298.489 35.7817C297.879 33.8297 297.575 31.8396 297.575 29.808H295.575ZM296.588 36.4023C297.309 38.5189 298.369 40.4374 299.768 42.1521L301.318 40.8879C300.071 39.3599 299.126 37.6518 298.482 35.7577L296.588 36.4023ZM299.787 42.1742C301.25 43.8656 303.07 45.2264 305.231 46.2618L306.095 44.4582C304.16 43.531 302.567 42.3317 301.299 40.8658L299.787 42.1742ZM305.253 46.2723C307.499 47.2804 310.097 47.768 313.023 47.768V45.768C310.317 45.768 308.009 45.3169 306.073 44.4477L305.253 46.2723ZM313.023 47.768C315.87 47.768 318.517 47.2781 320.952 46.2861L320.198 44.4339C318.025 45.3192 315.637 45.768 313.023 45.768V47.768ZM320.967 46.28C323.395 45.246 325.513 43.7815 327.315 41.8897L325.867 40.5103C324.255 42.2025 322.363 43.5113 320.183 44.44L320.967 46.28ZM327.298 40.4929L325.25 38.4449L323.836 39.8591L325.884 41.9071L327.298 40.4929ZM323.892 38.3927C323.005 39.1532 322.162 39.8485 321.363 40.4791L322.603 42.0489C323.425 41.3995 324.289 40.6868 325.194 39.9113L323.892 38.3927ZM321.343 40.4958C320.624 41.0949 319.892 41.5879 319.149 41.9791L320.081 43.7489C320.959 43.2868 321.806 42.7131 322.623 42.0322L321.343 40.4958ZM319.149 41.9791C318.401 42.3732 317.611 42.689 316.78 42.9265L317.33 44.8495C318.291 44.575 319.208 44.2082 320.081 43.7489L319.149 41.9791ZM316.812 42.9179C316.053 43.1077 315.177 43.208 314.175 43.208V45.208C315.307 45.208 316.35 45.095 317.298 44.8581L316.812 42.9179ZM314.175 43.208C313.075 43.208 311.877 43.0508 310.578 42.7259L310.092 44.6661C311.523 45.0239 312.886 45.208 314.175 45.208V43.208ZM310.614 42.7357C309.43 42.3919 308.311 41.7974 307.255 40.9368L305.991 42.4872C307.239 43.5039 308.595 44.2321 310.056 44.6563L310.614 42.7357ZM307.255 40.9368C306.245 40.114 305.37 38.9463 304.651 37.3889L302.835 38.2271C303.652 39.9977 304.697 41.4326 305.991 42.4872L307.255 40.9368ZM304.651 37.3889C303.964 35.8995 303.591 33.9225 303.591 31.408H301.591C301.591 34.0988 301.987 36.3885 302.835 38.2271L304.651 37.3889ZM302.591 32.408H326.911V30.408H302.591V32.408ZM303.591 28.848C303.591 27.2084 303.755 25.6367 304.08 24.1313L302.126 23.7087C301.768 25.3606 301.591 27.0743 301.591 28.848H303.591ZM304.076 24.1505C304.441 22.6106 304.962 21.2767 305.63 20.1377L303.904 19.1263C303.121 20.4619 302.533 21.9867 302.13 23.6895L304.076 24.1505ZM305.617 20.1594C306.31 19.0418 307.165 18.1731 308.18 17.5342L307.114 15.8418C305.825 16.6535 304.76 17.7475 303.917 19.1046L305.617 20.1594ZM308.202 17.52C309.167 16.8764 310.333 16.536 311.743 16.536V14.536C309.995 14.536 308.431 14.9636 307.092 15.8559L308.202 17.52ZM311.743 16.536C314.461 16.536 316.494 17.5833 317.962 19.6915L319.604 18.5485C317.744 15.8781 315.084 14.536 311.743 14.536V16.536ZM317.974 19.7082C319.514 21.8249 320.343 24.8337 320.343 28.848H322.343C322.343 24.585 321.466 21.1084 319.592 18.5318L317.974 19.7082ZM321.343 27.848H302.591V29.848H321.343V27.848ZM346.829 42.736L346.513 43.6847L346.521 43.6874L346.829 42.736ZM343.053 40.496L342.36 41.2168L342.367 41.2239L342.375 41.2308L343.053 40.496ZM340.365 36.336L339.426 36.6796L339.431 36.6936L339.437 36.7074L340.365 36.336ZM340.493 23.344L341.42 23.7192L341.423 23.7117L340.493 23.344ZM343.181 18.992L343.888 19.6991L343.181 18.992ZM346.829 16.624L347.163 17.5664L347.177 17.5617L347.19 17.5566L346.829 16.624ZM355.725 17.392L356.302 16.575L355.725 17.392ZM358.605 21.168L357.651 21.4678L357.871 22.168H358.605V21.168ZM363.021 21.168V22.168H364.337L363.985 20.9004L363.021 21.168ZM360.973 17.392L360.236 18.0677L360.243 18.0755L360.25 18.0832L360.973 17.392ZM357.709 14.96L357.237 15.8415L357.255 15.8514L357.274 15.8605L357.709 14.96ZM353.805 13.68L353.621 14.6629L353.638 14.6661L353.655 14.6687L353.805 13.68ZM342.733 14.64L343.118 15.5631L343.126 15.5597L343.134 15.5562L342.733 14.64ZM337.549 18.16L336.821 17.474L337.549 18.16ZM334.349 23.408L333.409 23.0679L333.405 23.0768L333.402 23.0857L334.349 23.408ZM334.477 36.528L333.538 36.8728L333.541 36.8791L334.477 36.528ZM337.741 41.904L337.004 42.5797L337.014 42.5904L337.024 42.6008L337.741 41.904ZM342.925 45.488L342.517 46.401L342.525 46.4047L342.533 46.4082L342.925 45.488ZM357.069 45.36L356.666 44.4447L356.659 44.4477L357.069 45.36ZM362.445 42.288L363.052 43.0824L363.846 42.4755L363.24 41.6813L362.445 42.288ZM360.589 39.856L361.384 39.2493L360.752 38.4219L359.951 39.086L360.589 39.856ZM356.109 42.608L356.466 43.5421L356.473 43.5393L356.48 43.5365L356.109 42.608ZM351.309 42.44C349.877 42.44 348.487 42.2215 347.137 41.7846L346.521 43.6874C348.072 44.1892 349.669 44.44 351.309 44.44V42.44ZM347.145 41.7873C345.874 41.3636 344.738 40.6908 343.731 39.7612L342.375 41.2308C343.586 42.3492 344.968 43.1697 346.513 43.6847L347.145 41.7873ZM343.746 39.7752C342.757 38.8242 341.934 37.5646 341.293 35.9646L339.437 36.7074C340.162 38.5207 341.13 40.0345 342.36 41.2168L343.746 39.7752ZM341.304 35.9924C340.716 34.3843 340.405 32.3746 340.405 29.936H338.405C338.405 32.532 338.734 34.789 339.426 36.6796L341.304 35.9924ZM340.405 29.936C340.405 27.42 340.756 25.3585 341.42 23.7192L339.566 22.9688C338.779 24.9135 338.405 27.2466 338.405 29.936H340.405ZM341.423 23.7117C342.113 21.9668 342.943 20.6442 343.888 19.6991L342.474 18.2849C341.286 19.4731 340.324 21.0518 339.563 22.9763L341.423 23.7117ZM343.888 19.6991C344.905 18.6825 345.997 17.9804 347.163 17.5664L346.495 15.6816C345.016 16.2062 343.676 17.0829 342.474 18.2849L343.888 19.6991ZM347.19 17.5566C348.419 17.081 349.555 16.856 350.605 16.856V14.856C349.266 14.856 347.885 15.143 346.468 15.6914L347.19 17.5566ZM350.605 16.856C352.384 16.856 353.884 17.3165 355.148 18.209L356.302 16.575C354.665 15.4195 352.751 14.856 350.605 14.856V16.856ZM355.148 18.209C356.445 19.1244 357.256 20.2112 357.651 21.4678L359.559 20.8682C359.015 19.1381 357.906 17.7076 356.302 16.575L355.148 18.209ZM358.605 22.168H363.021V20.168H358.605V22.168ZM363.985 20.9004C363.521 19.2331 362.767 17.8204 361.696 16.7008L360.25 18.0832C361.057 18.9262 361.667 20.0309 362.057 21.4356L363.985 20.9004ZM361.71 16.7163C360.687 15.5999 359.496 14.7125 358.144 14.0594L357.274 15.8605C358.396 16.4022 359.382 17.1361 360.236 18.0677L361.71 16.7163ZM358.181 14.0785C356.881 13.382 355.47 12.9208 353.955 12.6913L353.655 14.6687C354.956 14.8658 356.148 15.258 357.237 15.8415L358.181 14.0785ZM353.989 12.6971C352.568 12.4307 351.184 12.296 349.837 12.296V14.296C351.05 14.296 352.311 14.4173 353.621 14.6629L353.989 12.6971ZM349.837 12.296C347.038 12.296 344.529 12.7625 342.332 13.7238L343.134 15.5562C345.033 14.7255 347.26 14.296 349.837 14.296V12.296ZM342.348 13.7169C340.181 14.6199 338.333 15.8703 336.821 17.474L338.277 18.846C339.581 17.463 341.189 16.3668 343.118 15.5631L342.348 13.7169ZM336.821 17.474C335.316 19.0707 334.179 20.939 333.409 23.0679L335.289 23.7481C335.97 21.8663 336.966 20.2359 338.277 18.846L336.821 17.474ZM333.402 23.0857C332.682 25.2016 332.325 27.4445 332.325 29.808H334.325C334.325 27.6489 334.651 25.625 335.296 23.7303L333.402 23.0857ZM332.325 29.808C332.325 32.3064 332.727 34.6639 333.538 36.8728L335.416 36.1832C334.691 34.2108 334.325 32.0883 334.325 29.808H332.325ZM333.541 36.8791C334.351 39.041 335.505 40.9446 337.004 42.5797L338.478 41.2283C337.161 39.7914 336.139 38.111 335.413 36.1769L333.541 36.8791ZM337.024 42.6008C338.568 44.1901 340.402 45.4561 342.517 46.401L343.333 44.575C341.437 43.7279 339.816 42.6046 338.458 41.2072L337.024 42.6008ZM342.533 46.4082C344.68 47.3217 347.078 47.768 349.709 47.768V45.768C347.306 45.768 345.18 45.361 343.317 44.5678L342.533 46.4082ZM349.709 47.768C352.635 47.768 355.233 47.2804 357.479 46.2723L356.659 44.4477C354.723 45.3169 352.415 45.768 349.709 45.768V47.768ZM357.472 46.2753C359.659 45.313 361.524 44.2511 363.052 43.0824L361.838 41.4936C360.465 42.5435 358.746 43.5297 356.666 44.4447L357.472 46.2753ZM363.24 41.6813L361.384 39.2493L359.794 40.4627L361.65 42.8947L363.24 41.6813ZM359.951 39.086C358.522 40.2701 357.117 41.1278 355.738 41.6795L356.48 43.5365C358.088 42.8935 359.67 41.9165 361.227 40.626L359.951 39.086ZM355.752 41.6739C354.429 42.1799 352.952 42.44 351.309 42.44V44.44C353.165 44.44 354.888 44.1455 356.466 43.5421L355.752 41.6739ZM379.017 46H378.017V47H379.017V46ZM384.457 46V47H385.457V46H384.457ZM384.457 16.56V15.56H383.457V16.56H384.457ZM397.258 16.56V17.56H398.258V16.56H397.258ZM397.258 14H398.258V13H397.258V14ZM366.217 14V13H365.217V14H366.217ZM366.217 16.56H365.217V17.56H366.217V16.56ZM379.017 16.56H380.017V15.56H379.017V16.56ZM379.017 47H384.457V45H379.017V47ZM385.457 46V16.56H383.457V46H385.457ZM384.457 17.56H397.258V15.56H384.457V17.56ZM398.258 16.56V14H396.258V16.56H398.258ZM397.258 13H366.217V15H397.258V13ZM365.217 14V16.56H367.217V14H365.217ZM366.217 17.56H379.017V15.56H366.217V17.56ZM378.017 16.56V46H380.017V16.56H378.017ZM403.682 14V13H402.682V14H403.682ZM403.682 46H402.682V47H403.682V46ZM423.522 45.296L423.822 46.25L423.835 46.2461L423.847 46.2419L423.522 45.296ZM427.171 43.376L427.804 44.15L427.814 44.1415L427.824 44.1328L427.171 43.376ZM429.219 40.688L430.136 41.0867L430.139 41.0797L430.142 41.0726L429.219 40.688ZM428.898 33.52L429.756 33.0055L428.898 33.52ZM426.466 31.024L425.903 31.8502L425.924 31.8648L425.947 31.8782L426.466 31.024ZM423.395 29.68L423.161 30.6524L423.17 30.6544L423.395 29.68ZM420.451 29.232H419.451V30.1855L420.403 30.2309L420.451 29.232ZM420.451 28.784L420.254 27.8034L419.451 27.9642V28.784H420.451ZM423.01 28.016L423.382 28.9445L423.402 28.9366L423.421 28.9279L423.01 28.016ZM425.25 26.544L425.933 27.2751L425.934 27.2735L425.25 26.544ZM426.85 24.368L425.956 23.9208L425.951 23.9303L425.947 23.9399L426.85 24.368ZM427.171 19.312L428.141 19.0695L427.171 19.312ZM425.763 16.88L425.017 17.5468L425.026 17.5568L425.035 17.5666L425.763 16.88ZM422.562 14.832L422.186 15.7585L422.196 15.7624L422.562 14.832ZM409.122 43.44H408.122V44.44H409.122V43.44ZM409.122 30.704V29.704H408.122V30.704H409.122ZM417.315 30.832L417.231 31.8285L417.235 31.8288L417.315 30.832ZM422.883 33.584L422.087 34.19L422.096 34.2018L422.105 34.2132L422.883 33.584ZM422.947 40.88L423.711 41.5241L423.72 41.5145L423.727 41.5047L422.947 40.88ZM420.514 42.672L420.136 41.7465L420.128 41.7496L420.121 41.7529L420.514 42.672ZM417.763 43.376L417.81 44.3749L417.832 44.3738L417.853 44.3719L417.763 43.376ZM409.122 28.528H408.122V29.528H409.122V28.528ZM409.122 16.56V15.56H408.122V16.56H409.122ZM418.914 17.2L418.467 18.0944L418.476 18.0987L418.485 18.1029L418.914 17.2ZM421.858 20.656L420.876 20.8403L420.883 20.8773L420.892 20.9137L421.858 20.656ZM421.474 25.008L420.6 24.5224L420.595 24.5312L420.591 24.5401L421.474 25.008ZM419.875 26.928L420.474 27.728L420.49 27.7164L420.505 27.7041L419.875 26.928ZM417.507 28.144L417.781 29.1055L417.802 29.0996L417.823 29.0927L417.507 28.144ZM402.682 14V46H404.682V14H402.682ZM403.682 47H418.147V45H403.682V47ZM418.147 47C420.307 47 422.206 46.7581 423.822 46.25L423.223 44.342C421.853 44.7726 420.167 45 418.147 45V47ZM423.847 46.2419C425.42 45.7024 426.75 45.012 427.804 44.15L426.537 42.602C425.714 43.276 424.611 43.8656 423.198 44.3501L423.847 46.2419ZM427.824 44.1328C428.858 43.2396 429.64 42.226 430.136 41.0867L428.301 40.2893C427.943 41.1127 427.36 41.891 426.517 42.6192L427.824 44.1328ZM430.142 41.0726C430.617 39.9317 430.858 38.756 430.858 37.552H428.858C428.858 38.4814 428.673 39.3963 428.295 40.3034L430.142 41.0726ZM430.858 37.552C430.858 35.8032 430.513 34.268 429.756 33.0055L428.041 34.0345C428.564 34.9053 428.858 36.0581 428.858 37.552H430.858ZM429.756 33.0055C429.04 31.8117 428.117 30.8582 426.986 30.1698L425.947 31.8782C426.778 32.3844 427.477 33.095 428.041 34.0345L429.756 33.0055ZM427.03 30.1978C425.988 29.4876 424.849 28.9895 423.619 28.7056L423.17 30.6544C424.158 30.8825 425.067 31.2804 425.903 31.8502L427.03 30.1978ZM423.628 28.7076C422.513 28.4401 421.469 28.2794 420.498 28.2331L420.403 30.2309C421.224 30.27 422.143 30.4079 423.161 30.6524L423.628 28.7076ZM421.451 29.232V28.784H419.451V29.232H421.451ZM420.647 29.7646C421.563 29.5813 422.475 29.3072 423.382 28.9445L422.639 27.0875C421.839 27.4074 421.045 27.6454 420.254 27.8034L420.647 29.7646ZM423.421 28.9279C424.367 28.502 425.207 27.9522 425.933 27.2751L424.568 25.8129C424.014 26.3305 423.36 26.7619 422.6 27.1041L423.421 28.9279ZM425.934 27.2735C426.705 26.5515 427.314 25.725 427.754 24.7961L425.947 23.9399C425.619 24.6323 425.162 25.2565 424.567 25.8145L425.934 27.2735ZM427.745 24.8152C428.249 23.8074 428.491 22.6914 428.491 21.488H426.491C426.491 22.4179 426.305 23.222 425.956 23.9208L427.745 24.8152ZM428.491 21.488C428.491 20.7803 428.365 19.9685 428.141 19.0695L426.2 19.5545C426.402 20.3621 426.491 21.001 426.491 21.488H428.491ZM428.141 19.0695C427.878 18.0192 427.309 17.0611 426.49 16.1934L425.035 17.5666C425.667 18.2349 426.036 18.8981 426.2 19.5545L428.141 19.0695ZM426.508 16.2132C425.646 15.25 424.429 14.4923 422.929 13.9016L422.196 15.7624C423.512 16.281 424.428 16.8887 425.017 17.5468L426.508 16.2132ZM422.939 13.9055C421.406 13.2828 419.427 13 417.059 13V15C419.298 15 420.988 15.2719 422.186 15.7585L422.939 13.9055ZM417.059 13H403.682V15H417.059V13ZM410.122 43.44V30.704H408.122V43.44H410.122ZM409.122 31.704H414.755V29.704H409.122V31.704ZM414.755 31.704C415.399 31.704 416.223 31.7445 417.231 31.8285L417.398 29.8355C416.358 29.7488 415.475 29.704 414.755 29.704V31.704ZM417.235 31.8288C418.191 31.9053 419.108 32.1344 419.988 32.5171L420.785 30.6829C419.703 30.2123 418.571 29.9293 417.394 29.8352L417.235 31.8288ZM419.988 32.5171C420.804 32.872 421.502 33.4225 422.087 34.19L423.678 32.978C422.897 31.9535 421.932 31.1813 420.785 30.6829L419.988 32.5171ZM422.105 34.2132C422.641 34.8753 422.97 35.8624 422.97 37.296H424.97C424.97 35.5723 424.574 34.0847 423.66 32.9548L422.105 34.2132ZM422.97 37.296C422.97 38.6954 422.659 39.6389 422.166 40.2553L423.727 41.5047C424.6 40.4144 424.97 38.9686 424.97 37.296H422.97ZM422.182 40.2359C421.598 40.9286 420.918 41.4264 420.136 41.7465L420.893 43.5975C421.988 43.1496 422.929 42.4527 423.711 41.5241L422.182 40.2359ZM420.121 41.7529C419.318 42.0969 418.503 42.3046 417.672 42.3801L417.853 44.3719C418.9 44.2767 419.919 44.0151 420.908 43.5911L420.121 41.7529ZM417.715 42.3771C416.822 42.4197 416.18 42.44 415.779 42.44V44.44C416.23 44.44 416.911 44.4177 417.81 44.3749L417.715 42.3771ZM415.779 42.44H409.122V44.44H415.779V42.44ZM410.122 28.528V16.56H408.122V28.528H410.122ZM409.122 17.56H415.458V15.56H409.122V17.56ZM415.458 17.56C416.828 17.56 417.806 17.7639 418.467 18.0944L419.362 16.3056C418.316 15.7827 416.991 15.56 415.458 15.56V17.56ZM418.485 18.1029C419.282 18.4828 419.827 18.909 420.176 19.3538L421.749 18.1182C421.16 17.3683 420.339 16.7705 419.344 16.2971L418.485 18.1029ZM420.176 19.3538C420.556 19.8367 420.78 20.3303 420.876 20.8403L422.841 20.4717C422.681 19.6163 422.308 18.83 421.749 18.1182L420.176 19.3538ZM420.892 20.9137C421.047 21.4928 421.115 21.9801 421.115 22.384H423.115C423.115 21.7639 423.012 21.0992 422.825 20.3983L420.892 20.9137ZM421.115 22.384C421.115 23.2157 420.935 23.9197 420.6 24.5224L422.349 25.4936C422.867 24.5603 423.115 23.515 423.115 22.384H421.115ZM420.591 24.5401C420.274 25.1384 419.83 25.6758 419.244 26.1519L420.505 27.7041C421.284 27.0709 421.907 26.3283 422.358 25.4759L420.591 24.5401ZM419.275 26.128C418.686 26.569 417.995 26.927 417.19 27.1953L417.823 29.0927C418.81 28.7636 419.697 28.311 420.474 27.728L419.275 26.128ZM417.232 27.1825C416.43 27.4116 415.584 27.528 414.69 27.528V29.528C415.76 29.528 416.791 29.3884 417.781 29.1055L417.232 27.1825ZM414.69 27.528H409.122V29.528H414.69V27.528ZM457.19 14.64L456.726 15.5254L456.734 15.53L456.743 15.5344L457.19 14.64ZM460.902 18.032L460.025 18.5109L460.03 18.521L460.036 18.531L460.902 18.032ZM462.31 22.896L463.308 22.8264L462.31 22.896ZM462.503 46V47H463.503V46H462.503ZM457.319 46H456.319V47H457.319V46ZM457.319 42.864H458.319V40.5084L456.624 42.1446L457.319 42.864ZM452.582 45.744L452.918 46.6862L452.927 46.6829L452.936 46.6795L452.582 45.744ZM441.958 45.808L442.372 44.8976L441.958 45.808ZM438.439 43.312L439.176 42.6363L438.439 43.312ZM436.391 31.856L435.454 31.5049L436.391 31.856ZM438.694 28.208L439.416 28.9005L439.423 28.8935L439.429 28.8863L438.694 28.208ZM442.47 25.52L442.055 24.6105L442.47 25.52ZM453.03 25.648L452.62 26.5599L452.634 26.566L452.647 26.5717L453.03 25.648ZM457.319 28.784L456.542 29.4146L458.319 31.6006V28.784H457.319ZM455.719 18.224L454.861 18.7385L454.866 18.7463L454.871 18.754L455.719 18.224ZM446.887 16.112L447.203 17.0607L446.887 16.112ZM444.454 17.392L445.055 18.192L445.062 18.1864L444.454 17.392ZM442.534 19.376L443.324 19.9899L443.332 19.9797L443.34 19.9692L442.534 19.376ZM440.742 22L440.035 22.7071L440.935 23.6068L441.597 22.5199L440.742 22ZM437.414 18.672L436.683 17.9897L436.024 18.696L436.707 19.3791L437.414 18.672ZM439.271 16.752L438.587 16.0225L438.575 16.0335L438.563 16.0449L439.271 16.752ZM441.703 15.024L441.24 14.1374L441.232 14.1417L441.224 14.1461L441.703 15.024ZM445.159 13.808L445.379 14.7834L445.394 14.7801L445.408 14.7763L445.159 13.808ZM457.319 33.328H458.319V33.128L458.242 32.9434L457.319 33.328ZM456.358 31.536L455.487 32.0263L455.498 32.0464L455.51 32.066L456.358 31.536ZM454.823 29.552L454.115 30.2591L454.823 29.552ZM452.518 27.952L452.055 28.8378L452.071 28.8467L452.089 28.8549L452.518 27.952ZM445.927 28.016L446.343 28.9251L446.359 28.918L446.374 28.9104L445.927 28.016ZM443.302 29.936L442.557 29.2692L442.555 29.2716L443.302 29.936ZM441.703 32.688L442.643 33.0267L441.703 32.688ZM441.831 39.6L440.921 40.0167L440.932 40.0399L440.944 40.0626L441.831 39.6ZM443.75 42.16L443.064 42.887L443.075 42.8974L443.086 42.9074L443.75 42.16ZM446.31 43.696L446.652 42.7562L446.31 43.696ZM451.431 43.76L451.1 42.8161L451.092 42.8188L451.085 42.8217L451.431 43.76ZM453.798 42.544L454.375 43.361L454.384 43.3547L453.798 42.544ZM455.846 40.624L455.075 39.9883L455.846 40.624ZM457.319 38.256L458.23 38.6664L458.319 38.4706V38.256H457.319ZM449.958 14.296C453 14.296 455.225 14.7373 456.726 15.5254L457.655 13.7546C455.743 12.7507 453.146 12.296 449.958 12.296V14.296ZM456.743 15.5344C458.303 16.3142 459.372 17.314 460.025 18.5109L461.78 17.5531C460.897 15.934 459.492 14.6725 457.638 13.7456L456.743 15.5344ZM460.036 18.531C460.761 19.7912 461.194 21.2621 461.313 22.9656L463.308 22.8264C463.171 20.8606 462.665 19.0888 461.769 17.533L460.036 18.531ZM461.313 22.9656C461.439 24.7761 461.503 26.6302 461.503 28.528H463.503C463.503 26.5858 463.438 24.6852 463.308 22.8264L461.313 22.9656ZM461.503 28.528V46H463.503V28.528H461.503ZM462.503 45H457.319V47H462.503V45ZM458.319 46V42.864H456.319V46H458.319ZM456.624 42.1446C455.501 43.2284 454.046 44.1221 452.229 44.8085L452.936 46.6795C454.959 45.9152 456.661 44.889 458.013 43.5834L456.624 42.1446ZM452.247 44.8018C450.428 45.4486 448.622 45.768 446.823 45.768V47.768C448.863 47.768 450.897 47.4048 452.918 46.6862L452.247 44.8018ZM446.823 45.768C445.104 45.768 443.628 45.4686 442.372 44.8976L441.545 46.7184C443.105 47.4274 444.871 47.768 446.823 47.768V45.768ZM442.372 44.8976C441.073 44.307 440.014 43.5504 439.176 42.6363L437.701 43.9877C438.741 45.1216 440.028 46.029 441.545 46.7184L442.372 44.8976ZM439.176 42.6363C438.324 41.7067 437.689 40.6668 437.265 39.5117L435.388 40.2003C435.903 41.6052 436.676 42.8693 437.701 43.9877L439.176 42.6363ZM437.265 39.5117C436.835 38.3386 436.622 37.1536 436.622 35.952H434.622C434.622 37.3957 434.879 38.8134 435.388 40.2003L437.265 39.5117ZM436.622 35.952C436.622 34.7145 436.854 33.4679 437.327 32.2071L435.454 31.5049C434.903 32.9748 434.622 34.4588 434.622 35.952H436.622ZM437.327 32.2071C437.79 30.9708 438.485 29.8706 439.416 28.9005L437.973 27.5155C436.856 28.6787 436.015 30.0105 435.454 31.5049L437.327 32.2071ZM439.429 28.8863C440.356 27.8827 441.503 27.0619 442.886 26.4295L442.055 24.6105C440.451 25.3435 439.081 26.3147 437.96 27.5297L439.429 28.8863ZM442.886 26.4295C444.229 25.8157 445.79 25.496 447.591 25.496V23.496C445.551 23.496 443.699 23.8589 442.055 24.6105L442.886 26.4295ZM447.591 25.496C449.373 25.496 451.046 25.8515 452.62 26.5599L453.441 24.7361C451.602 23.9085 449.648 23.496 447.591 23.496V25.496ZM452.647 26.5717C454.256 27.2385 455.546 28.1878 456.542 29.4146L458.095 28.1534C456.873 26.6495 455.304 25.5082 453.414 24.7243L452.647 26.5717ZM458.319 28.784V26.032H456.319V28.784H458.319ZM458.319 26.032C458.319 22.4673 457.782 19.6381 456.566 17.694L454.871 18.754C455.789 20.2233 456.319 22.5994 456.319 26.032H458.319ZM456.576 17.7095C455.304 15.5899 452.993 14.664 450.022 14.664V16.664C452.598 16.664 454.085 17.4448 454.861 18.7385L456.576 17.7095ZM450.022 14.664C448.747 14.664 447.591 14.823 446.57 15.1633L447.203 17.0607C447.974 16.8036 448.908 16.664 450.022 16.664V14.664ZM446.57 15.1633C445.573 15.4957 444.663 15.9735 443.847 16.5976L445.062 18.1864C445.696 17.7012 446.408 17.3256 447.203 17.0607L446.57 15.1633ZM443.854 16.592C443.081 17.172 442.375 17.9073 441.729 18.7828L443.34 19.9692C443.889 19.2234 444.462 18.636 445.055 18.192L443.854 16.592ZM441.745 18.7621C441.121 19.5649 440.502 20.4718 439.888 21.4801L441.597 22.5199C442.178 21.5655 442.754 20.7231 443.324 19.9899L441.745 18.7621ZM441.45 21.2929L438.122 17.9649L436.707 19.3791L440.035 22.7071L441.45 21.2929ZM438.146 19.3543C438.735 18.723 439.345 18.0913 439.978 17.4591L438.563 16.0449C437.916 16.6927 437.289 17.341 436.683 17.9897L438.146 19.3543ZM439.954 17.4815C440.567 16.907 441.307 16.379 442.181 15.9019L441.224 14.1461C440.221 14.693 439.339 15.317 438.587 16.0225L439.954 17.4815ZM442.165 15.9106C443.055 15.4463 444.122 15.0672 445.379 14.7834L444.938 12.8326C443.549 13.1462 442.313 13.5777 441.24 14.1374L442.165 15.9106ZM445.408 14.7763C446.625 14.4622 448.136 14.296 449.958 14.296V12.296C448.026 12.296 446.337 12.4711 444.909 12.8397L445.408 14.7763ZM458.242 32.9434C458 32.364 457.65 31.7163 457.207 31.006L455.51 32.066C455.92 32.7211 456.21 33.268 456.395 33.7126L458.242 32.9434ZM457.23 31.0457C456.795 30.2724 456.224 29.5396 455.53 28.8449L454.115 30.2591C454.701 30.8444 455.154 31.4342 455.487 32.0263L457.23 31.0457ZM455.53 28.8449C454.802 28.1169 453.937 27.5201 452.948 27.0491L452.089 28.8549C452.892 29.2373 453.563 29.7071 454.115 30.2591L455.53 28.8449ZM452.983 27.0662C451.915 26.5069 450.682 26.248 449.319 26.248V28.248C450.43 28.248 451.33 28.4584 452.055 28.8378L452.983 27.0662ZM449.319 26.248C447.939 26.248 446.653 26.5346 445.479 27.1216L446.374 28.9104C447.248 28.4734 448.224 28.248 449.319 28.248V26.248ZM445.51 27.1069C444.365 27.6315 443.378 28.3524 442.557 29.2692L444.048 30.6028C444.678 29.8983 445.44 29.3392 446.343 28.9251L445.51 27.1069ZM442.555 29.2716C441.779 30.1442 441.184 31.1751 440.762 32.3493L442.643 33.0267C442.989 32.0675 443.46 31.2638 444.05 30.6004L442.555 29.2716ZM440.762 32.3493C440.338 33.5264 440.126 34.7504 440.126 36.016H442.126C442.126 34.9776 442.299 33.983 442.643 33.0267L440.762 32.3493ZM440.126 36.016C440.126 37.4952 440.381 38.8372 440.921 40.0167L442.74 39.1833C442.341 38.3148 442.126 37.2674 442.126 36.016H440.126ZM440.944 40.0626C441.505 41.1378 442.211 42.0817 443.064 42.887L444.437 41.433C443.754 40.7877 443.18 40.0249 442.717 39.1374L440.944 40.0626ZM443.086 42.9074C443.946 43.6715 444.908 44.25 445.969 44.6358L446.652 42.7562C445.836 42.4593 445.091 42.0138 444.415 41.4126L443.086 42.9074ZM445.969 44.6358C446.999 45.0103 448.011 45.208 448.999 45.208V43.208C448.28 43.208 447.5 43.0644 446.652 42.7562L445.969 44.6358ZM448.999 45.208C449.935 45.208 450.862 45.0351 451.776 44.6983L451.085 42.8217C450.378 43.0822 449.684 43.208 448.999 43.208V45.208ZM451.761 44.7039C452.7 44.3751 453.573 43.9275 454.375 43.361L453.222 41.727C452.574 42.1845 451.867 42.5476 451.1 42.8161L451.761 44.7039ZM454.384 43.3547C455.221 42.7503 455.966 42.0516 456.618 41.2597L455.075 39.9883C454.532 40.647 453.912 41.2283 453.213 41.7333L454.384 43.3547ZM456.618 41.2597C457.272 40.4661 457.81 39.601 458.23 38.6664L456.407 37.8456C456.059 38.6176 455.616 39.3312 455.075 39.9883L456.618 41.2597ZM458.319 38.256V33.328H456.319V38.256H458.319Z" fill="url(#paint0_linear)" fill-opacity="0.5"/>
<defs>
<linearGradient id="paint0_linear" x1="-3.81768" y1="-10.9986" x2="17.3593" y2="102.028" gradientUnits="userSpaceOnUse">
<stop stop-color="#C69C6D"/>
<stop offset="1" stop-color="#E6A762"/>
</linearGradient>
</defs>
</svg>
