<svg width="544" height="63" viewBox="0 0 544 63" fill="none" xmlns="http://www.w3.org/2000/svg">
<path d="M1.68 46H7.504V30.256L14.736 22.512L31.76 46H38.416L18.448 18.544L34.704 1.2H31.504L7.504 26.416V1.2H1.68V46ZM57.2085 13.296C60.3232 13.296 62.7338 13.744 64.4405 14.64C66.1472 15.4933 67.3845 16.624 68.1525 18.032C68.9632 19.44 69.4325 21.0613 69.5605 22.896C69.6885 24.7307 69.7525 26.608 69.7525 28.528V46H64.5685V42.864C63.3312 44.0587 61.7525 45.0187 59.8325 45.744C57.9125 46.4267 55.9925 46.768 54.0725 46.768C52.2378 46.768 50.6165 46.448 49.2085 45.808C47.8005 45.168 46.6272 44.336 45.6885 43.312C44.7498 42.288 44.0458 41.136 43.5765 39.856C43.1072 38.576 42.8725 37.2747 42.8725 35.952C42.8725 34.5867 43.1285 33.2213 43.6405 31.856C44.1525 30.4907 44.9205 29.2747 45.9445 28.208C46.9685 27.0987 48.2272 26.2027 49.7205 25.52C51.2138 24.8373 52.9205 24.496 54.8405 24.496C56.7605 24.496 58.5738 24.88 60.2805 25.648C62.0298 26.3733 63.4592 27.4187 64.5685 28.784V26.032C64.5685 22.5333 64.0352 19.9307 62.9685 18.224C61.9445 16.5173 60.0458 15.664 57.2725 15.664C56.0778 15.664 55.0325 15.8133 54.1365 16.112C53.2405 16.4107 52.4298 16.8373 51.7045 17.392C51.0218 17.904 50.3818 18.5653 49.7845 19.376C49.1872 20.144 48.5898 21.0187 47.9925 22L44.6645 18.672C45.2618 18.032 45.8805 17.392 46.5205 16.752C47.2032 16.112 48.0138 15.536 48.9525 15.024C49.9338 14.512 51.0858 14.1067 52.4085 13.808C53.7312 13.4667 55.3312 13.296 57.2085 13.296ZM64.5685 33.328C64.3552 32.816 64.0352 32.2187 63.6085 31.536C63.2245 30.8533 62.7125 30.192 62.0725 29.552C61.4325 28.912 60.6645 28.3787 59.7685 27.952C58.8725 27.4827 57.8058 27.248 56.5685 27.248C55.3312 27.248 54.2005 27.504 53.1765 28.016C52.1525 28.4853 51.2778 29.1253 50.5525 29.936C49.8698 30.704 49.3365 31.6213 48.9525 32.688C48.5685 33.7547 48.3765 34.864 48.3765 36.016C48.3765 37.3813 48.6112 38.576 49.0805 39.6C49.5925 40.5813 50.2325 41.4347 51.0005 42.16C51.7685 42.8427 52.6218 43.3547 53.5605 43.696C54.4992 44.0373 55.3952 44.208 56.2485 44.208C57.0592 44.208 57.8698 44.0587 58.6805 43.76C59.5338 43.4613 60.3232 43.056 61.0485 42.544C61.8165 41.9893 62.4992 41.3493 63.0965 40.624C63.6938 39.8987 64.1845 39.1093 64.5685 38.256V33.328ZM85.435 30.512V14H79.995V46H85.435V34.736L88.955 31.024L96.891 41.456C97.403 42.096 97.9363 42.736 98.491 43.376C99.0457 44.016 99.643 44.592 100.283 45.104C100.923 45.616 101.606 46.0213 102.331 46.32C103.099 46.6187 103.91 46.768 104.763 46.768C105.531 46.768 106.278 46.6827 107.003 46.512C107.728 46.3413 108.368 46.1707 108.923 46V43.44H107.131C106.619 43.44 106.086 43.2907 105.531 42.992C104.976 42.6933 104.4 42.3093 103.803 41.84C103.248 41.328 102.694 40.7947 102.139 40.24C101.627 39.6427 101.158 39.0667 100.731 38.512L92.347 27.568L105.339 14H101.307L85.435 30.512ZM142.739 14H137.683V46H139.859V20.72H140.115L152.787 46.768H153.427L165.267 20.72H165.523V46H170.963V14H166.035L154.899 38.448H154.579L142.739 14ZM181.183 14V46H198.015C199.167 46 200.297 45.808 201.407 45.424C202.559 45.04 203.561 44.4853 204.415 43.76C205.268 42.992 205.951 42.096 206.463 41.072C207.017 40.0053 207.295 38.8107 207.295 37.488C207.295 35.312 206.804 33.6267 205.823 32.432C204.884 31.2373 203.732 30.3627 202.367 29.808C201.001 29.2107 199.572 28.848 198.079 28.72C196.585 28.592 195.327 28.528 194.303 28.528H186.623V14H181.183ZM214.015 14V46H219.455V14H214.015ZM186.623 43.568V30.704H193.983C194.367 30.704 194.964 30.7467 195.775 30.832C196.585 30.9173 197.396 31.1947 198.207 31.664C199.06 32.0907 199.807 32.7733 200.447 33.712C201.087 34.608 201.407 35.888 201.407 37.552C201.407 39.5573 200.767 41.072 199.487 42.096C198.249 43.0773 196.799 43.568 195.135 43.568H186.623ZM252.058 62H257.498V40.752H257.754C258.18 41.8613 258.735 42.8 259.418 43.568C260.143 44.336 260.954 44.9547 261.85 45.424C262.746 45.8933 263.684 46.2347 264.666 46.448C265.69 46.6613 266.714 46.768 267.738 46.768C269.871 46.768 271.834 46.384 273.626 45.616C275.418 44.8053 276.954 43.6747 278.234 42.224C279.556 40.7733 280.58 39.024 281.306 36.976C282.031 34.8853 282.394 32.5813 282.394 30.064C282.394 27.504 282.031 25.2 281.306 23.152C280.58 21.104 279.556 19.3547 278.234 17.904C276.954 16.4107 275.418 15.28 273.626 14.512C271.834 13.7013 269.871 13.296 267.738 13.296C262.66 13.296 259.332 15.2587 257.754 19.184H257.498V14H252.058V62ZM257.498 26.8C257.498 25.392 257.711 24.0693 258.138 22.832C258.607 21.552 259.247 20.464 260.058 19.568C260.868 18.6293 261.807 17.904 262.874 17.392C263.983 16.8373 265.156 16.56 266.394 16.56C267.716 16.56 268.975 16.816 270.17 17.328C271.407 17.7973 272.474 18.5653 273.37 19.632C274.266 20.6987 274.97 22.0853 275.482 23.792C276.036 25.4987 276.314 27.5467 276.314 29.936C276.314 32.368 276.036 34.4373 275.482 36.144C274.97 37.8507 274.244 39.2587 273.306 40.368C272.41 41.4347 271.364 42.224 270.17 42.736C268.975 43.2053 267.716 43.44 266.394 43.44C265.199 43.44 264.068 43.2053 263.002 42.736C261.935 42.224 260.996 41.4987 260.186 40.56C259.375 39.5787 258.714 38.4053 258.202 37.04C257.732 35.6747 257.498 34.1173 257.498 32.368V26.8ZM302.458 13.296C305.573 13.296 307.984 13.744 309.691 14.64C311.397 15.4933 312.635 16.624 313.403 18.032C314.213 19.44 314.683 21.0613 314.811 22.896C314.939 24.7307 315.003 26.608 315.003 28.528V46H309.819V42.864C308.581 44.0587 307.003 45.0187 305.083 45.744C303.163 46.4267 301.243 46.768 299.323 46.768C297.488 46.768 295.867 46.448 294.459 45.808C293.051 45.168 291.877 44.336 290.939 43.312C290 42.288 289.296 41.136 288.827 39.856C288.357 38.576 288.123 37.2747 288.123 35.952C288.123 34.5867 288.379 33.2213 288.891 31.856C289.403 30.4907 290.171 29.2747 291.195 28.208C292.219 27.0987 293.477 26.2027 294.97 25.52C296.464 24.8373 298.171 24.496 300.091 24.496C302.011 24.496 303.824 24.88 305.531 25.648C307.28 26.3733 308.709 27.4187 309.819 28.784V26.032C309.819 22.5333 309.285 19.9307 308.219 18.224C307.195 16.5173 305.296 15.664 302.523 15.664C301.328 15.664 300.283 15.8133 299.387 16.112C298.491 16.4107 297.68 16.8373 296.955 17.392C296.272 17.904 295.632 18.5653 295.035 19.376C294.437 20.144 293.84 21.0187 293.243 22L289.915 18.672C290.512 18.032 291.131 17.392 291.771 16.752C292.453 16.112 293.264 15.536 294.203 15.024C295.184 14.512 296.336 14.1067 297.659 13.808C298.981 13.4667 300.581 13.296 302.458 13.296ZM309.819 33.328C309.605 32.816 309.285 32.2187 308.859 31.536C308.475 30.8533 307.963 30.192 307.323 29.552C306.683 28.912 305.915 28.3787 305.019 27.952C304.123 27.4827 303.056 27.248 301.819 27.248C300.581 27.248 299.451 27.504 298.427 28.016C297.403 28.4853 296.528 29.1253 295.803 29.936C295.12 30.704 294.587 31.6213 294.203 32.688C293.819 33.7547 293.627 34.864 293.627 36.016C293.627 37.3813 293.861 38.576 294.331 39.6C294.843 40.5813 295.483 41.4347 296.251 42.16C297.019 42.8427 297.872 43.3547 298.811 43.696C299.749 44.0373 300.645 44.208 301.499 44.208C302.309 44.208 303.12 44.0587 303.931 43.76C304.784 43.4613 305.573 43.056 306.299 42.544C307.067 41.9893 307.749 41.3493 308.347 40.624C308.944 39.8987 309.435 39.1093 309.819 38.256V33.328ZM346.045 1.2C344.21 1.2 342.397 1.24266 340.605 1.328C338.813 1.41333 337.085 1.712 335.421 2.224C333.757 2.736 332.178 3.52533 330.685 4.592C329.234 5.65866 327.933 7.152 326.781 9.072C325.928 10.48 325.266 11.9733 324.797 13.552C324.328 15.1307 323.986 16.7093 323.773 18.288C323.56 19.824 323.432 21.36 323.389 22.896C323.346 24.3893 323.325 25.7973 323.325 27.12V28.848C323.325 30.4693 323.538 32.3253 323.965 34.416C324.392 36.464 325.224 38.4053 326.461 40.24C327.698 42.0747 329.448 43.632 331.709 44.912C334.013 46.1493 337 46.768 340.669 46.768C343.528 46.768 345.96 46.2773 347.965 45.296C350.013 44.272 351.677 42.9493 352.957 41.328C354.237 39.7067 355.176 37.8933 355.773 35.888C356.37 33.8827 356.669 31.856 356.669 29.808C356.669 27.76 356.349 25.7547 355.709 23.792C355.112 21.7867 354.173 20.016 352.893 18.48C351.613 16.944 349.97 15.7067 347.965 14.768C345.96 13.7867 343.549 13.296 340.733 13.296C338.77 13.296 337.021 13.5307 335.485 14C333.949 14.4693 332.605 15.1093 331.453 15.92C330.301 16.688 329.32 17.584 328.509 18.608C327.698 19.632 327.058 20.6773 326.589 21.744H326.333V21.424C326.333 18.736 326.802 16.24 327.741 13.936C328.68 11.5893 329.917 9.81866 331.453 8.624C333.202 7.30133 335.058 6.53333 337.021 6.32C339.026 6.064 341.224 5.936 343.613 5.936H351.485L354.941 1.2H346.045ZM329.405 30.192C329.405 27.7173 329.661 25.584 330.173 23.792C330.685 21.9573 331.41 20.464 332.349 19.312C333.288 18.1173 334.376 17.2427 335.613 16.688C336.893 16.1333 338.28 15.856 339.773 15.856C340.413 15.856 341.33 15.9413 342.525 16.112C343.72 16.2827 344.914 16.816 346.109 17.712C347.304 18.608 348.349 20.0373 349.245 22C350.141 23.92 350.589 26.6507 350.589 30.192C350.589 33.136 350.226 35.5253 349.501 37.36C348.818 39.1947 347.965 40.624 346.941 41.648C345.917 42.6293 344.829 43.312 343.677 43.696C342.525 44.0373 341.522 44.208 340.669 44.208C339.56 44.208 338.344 44.016 337.021 43.632C335.698 43.248 334.461 42.544 333.309 41.52C332.2 40.4533 331.261 39.024 330.493 37.232C329.768 35.3973 329.405 33.0507 329.405 30.192ZM396.227 30.064C396.227 32.2827 395.843 34.416 395.075 36.464C394.307 38.4693 393.198 40.24 391.747 41.776C390.339 43.312 388.611 44.528 386.563 45.424C384.558 46.32 382.296 46.768 379.779 46.768C377.219 46.768 374.894 46.32 372.803 45.424C370.755 44.4853 369.006 43.248 367.555 41.712C366.147 40.176 365.038 38.4053 364.227 36.4C363.459 34.352 363.075 32.24 363.075 30.064C363.075 27.8453 363.459 25.7333 364.227 23.728C365.038 21.68 366.147 19.888 367.555 18.352C369.006 16.816 370.755 15.6 372.803 14.704C374.894 13.7653 377.219 13.296 379.779 13.296C382.296 13.296 384.558 13.7653 386.563 14.704C388.611 15.6 390.339 16.816 391.747 18.352C393.198 19.888 394.307 21.68 395.075 23.728C395.843 25.7333 396.227 27.8453 396.227 30.064ZM390.147 30.064C390.147 27.0773 389.827 24.6667 389.187 22.832C388.547 20.9547 387.715 19.504 386.691 18.48C385.667 17.456 384.536 16.7733 383.299 16.432C382.062 16.048 380.867 15.856 379.715 15.856C378.563 15.856 377.368 16.048 376.131 16.432C374.894 16.7733 373.742 17.456 372.675 18.48C371.651 19.504 370.798 20.9547 370.115 22.832C369.475 24.6667 369.155 27.0773 369.155 30.064C369.155 33.008 369.475 35.4187 370.115 37.296C370.798 39.1307 371.651 40.56 372.675 41.584C373.742 42.608 374.894 43.312 376.131 43.696C377.368 44.0373 378.563 44.208 379.715 44.208C380.867 44.208 382.062 44.0373 383.299 43.696C384.536 43.312 385.667 42.608 386.691 41.584C387.715 40.56 388.547 39.1307 389.187 37.296C389.827 35.4187 390.147 33.008 390.147 30.064ZM413.518 46H418.958V16.56H431.757V14H400.718V16.56H413.518V46ZM449.958 13.296C453.073 13.296 455.484 13.744 457.191 14.64C458.897 15.4933 460.135 16.624 460.903 18.032C461.713 19.44 462.183 21.0613 462.311 22.896C462.439 24.7307 462.503 26.608 462.503 28.528V46H457.319V42.864C456.081 44.0587 454.503 45.0187 452.583 45.744C450.663 46.4267 448.743 46.768 446.823 46.768C444.988 46.768 443.367 46.448 441.959 45.808C440.551 45.168 439.377 44.336 438.439 43.312C437.5 42.288 436.796 41.136 436.327 39.856C435.857 38.576 435.623 37.2747 435.623 35.952C435.623 34.5867 435.879 33.2213 436.391 31.856C436.903 30.4907 437.671 29.2747 438.695 28.208C439.719 27.0987 440.977 26.2027 442.47 25.52C443.964 24.8373 445.671 24.496 447.591 24.496C449.511 24.496 451.324 24.88 453.031 25.648C454.78 26.3733 456.209 27.4187 457.319 28.784V26.032C457.319 22.5333 456.785 19.9307 455.719 18.224C454.695 16.5173 452.796 15.664 450.023 15.664C448.828 15.664 447.783 15.8133 446.887 16.112C445.991 16.4107 445.18 16.8373 444.455 17.392C443.772 17.904 443.132 18.5653 442.535 19.376C441.937 20.144 441.34 21.0187 440.743 22L437.415 18.672C438.012 18.032 438.631 17.392 439.271 16.752C439.953 16.112 440.764 15.536 441.703 15.024C442.684 14.512 443.836 14.1067 445.159 13.808C446.481 13.4667 448.081 13.296 449.958 13.296ZM457.319 33.328C457.105 32.816 456.785 32.2187 456.359 31.536C455.975 30.8533 455.463 30.192 454.823 29.552C454.183 28.912 453.415 28.3787 452.519 27.952C451.623 27.4827 450.556 27.248 449.319 27.248C448.081 27.248 446.951 27.504 445.927 28.016C444.903 28.4853 444.028 29.1253 443.303 29.936C442.62 30.704 442.087 31.6213 441.703 32.688C441.319 33.7547 441.127 34.864 441.127 36.016C441.127 37.3813 441.361 38.576 441.831 39.6C442.343 40.5813 442.983 41.4347 443.751 42.16C444.519 42.8427 445.372 43.3547 446.311 43.696C447.249 44.0373 448.145 44.208 448.999 44.208C449.809 44.208 450.62 44.0587 451.431 43.76C452.284 43.4613 453.073 43.056 453.799 42.544C454.567 41.9893 455.249 41.3493 455.847 40.624C456.444 39.8987 456.935 39.1093 457.319 38.256V33.328ZM501.161 31.408V30.064C501.161 27.2053 500.756 24.7307 499.945 22.64C499.134 20.5493 498.025 18.8213 496.617 17.456C495.252 16.0907 493.652 15.0667 491.817 14.384C489.982 13.7013 488.041 13.36 485.993 13.36C483.817 13.36 481.812 13.744 479.977 14.512C478.142 15.2373 476.542 16.3253 475.177 17.776C473.812 19.184 472.745 20.912 471.977 22.96C471.209 24.9653 470.825 27.248 470.825 29.808C470.825 31.9413 471.145 34.032 471.785 36.08C472.468 38.0853 473.47 39.8987 474.793 41.52C476.158 43.0987 477.865 44.3787 479.913 45.36C482.004 46.2987 484.457 46.768 487.273 46.768C490.004 46.768 492.521 46.2987 494.825 45.36C497.129 44.3787 499.134 42.992 500.841 41.2L498.793 39.152C497.897 39.92 497.044 40.624 496.233 41.264C495.465 41.904 494.676 42.4373 493.865 42.864C493.054 43.2907 492.201 43.632 491.305 43.888C490.452 44.1013 489.492 44.208 488.425 44.208C487.23 44.208 485.95 44.0373 484.585 43.696C483.262 43.312 482.025 42.6507 480.873 41.712C479.721 40.7733 478.761 39.472 477.993 37.808C477.225 36.144 476.841 34.0107 476.841 31.408H501.161ZM476.841 28.848C476.841 27.1413 477.012 25.4987 477.353 23.92C477.737 22.2987 478.292 20.8693 479.017 19.632C479.785 18.3947 480.745 17.4133 481.897 16.688C483.049 15.92 484.414 15.536 485.993 15.536C489.022 15.536 491.369 16.7307 493.033 19.12C494.74 21.4667 495.593 24.7093 495.593 28.848H476.841ZM514.551 14H509.495V46H511.671V20.72H511.927L524.599 46.768H525.239L537.079 20.72H537.335V46H542.775V14H537.847L526.711 38.448H526.391L514.551 14Z" fill="#333333"/>
<path d="M1.68 46H0.68V47H1.68V46ZM7.504 46V47H8.504V46H7.504ZM7.504 30.256L6.77315 29.5735L6.504 29.8617V30.256H7.504ZM14.736 22.512L15.5457 21.9251L14.8335 20.9425L14.0051 21.8295L14.736 22.512ZM31.76 46L30.9503 46.5869L31.2498 47H31.76V46ZM38.416 46V47H40.3798L39.2247 45.4118L38.416 46ZM18.448 18.544L17.7184 17.8601L17.1529 18.4634L17.6393 19.1322L18.448 18.544ZM34.704 1.2L35.4336 1.88385L37.0118 0.199997H34.704V1.2ZM31.504 1.2V0.199997H31.0752L30.7796 0.510571L31.504 1.2ZM7.504 26.416H6.504V28.9171L8.22836 27.1054L7.504 26.416ZM7.504 1.2H8.504V0.199997H7.504V1.2ZM1.68 1.2V0.199997H0.68V1.2H1.68ZM1.68 47H7.504V45H1.68V47ZM8.504 46V30.256H6.504V46H8.504ZM8.23485 30.9385L15.4669 23.1945L14.0051 21.8295L6.77315 29.5735L8.23485 30.9385ZM13.9263 23.0989L30.9503 46.5869L32.5697 45.4131L15.5457 21.9251L13.9263 23.0989ZM31.76 47H38.416V45H31.76V47ZM39.2247 45.4118L19.2567 17.9558L17.6393 19.1322L37.6073 46.5882L39.2247 45.4118ZM19.1776 19.2279L35.4336 1.88385L33.9744 0.516146L17.7184 17.8601L19.1776 19.2279ZM34.704 0.199997H31.504V2.2H34.704V0.199997ZM30.7796 0.510571L6.77964 25.7266L8.22836 27.1054L32.2284 1.88942L30.7796 0.510571ZM8.504 26.416V1.2H6.504V26.416H8.504ZM7.504 0.199997H1.68V2.2H7.504V0.199997ZM0.68 1.2V46H2.68V1.2H0.68ZM64.4405 14.64L63.9757 15.5254L63.9844 15.53L63.9933 15.5344L64.4405 14.64ZM68.1525 18.032L67.2746 18.5109L67.2801 18.521L67.2859 18.531L68.1525 18.032ZM69.5605 22.896L70.5581 22.8264L69.5605 22.896ZM69.7525 46V47H70.7525V46H69.7525ZM64.5685 46H63.5685V47H64.5685V46ZM64.5685 42.864H65.5685V40.5084L63.8739 42.1446L64.5685 42.864ZM59.8325 45.744L60.1675 46.6862L60.1767 46.6829L60.1859 46.6795L59.8325 45.744ZM49.2085 45.808L49.6223 44.8976L49.2085 45.808ZM45.6885 43.312L46.4257 42.6363L45.6885 43.312ZM43.6405 31.856L42.7042 31.5049L43.6405 31.856ZM45.9445 28.208L46.6659 28.9005L46.6727 28.8935L46.6793 28.8863L45.9445 28.208ZM49.7205 25.52L49.3047 24.6105L49.7205 25.52ZM60.2805 25.648L59.8701 26.5599L59.8837 26.566L59.8975 26.5717L60.2805 25.648ZM64.5685 28.784L63.7924 29.4146L65.5685 31.6006V28.784H64.5685ZM62.9685 18.224L62.111 18.7385L62.1157 18.7463L62.1205 18.754L62.9685 18.224ZM54.1365 16.112L54.4527 17.0607L54.1365 16.112ZM51.7045 17.392L52.3045 18.192L52.312 18.1864L51.7045 17.392ZM49.7845 19.376L50.5739 19.9899L50.5818 19.9797L50.5896 19.9692L49.7845 19.376ZM47.9925 22L47.2854 22.7071L48.1851 23.6068L48.8467 22.5199L47.9925 22ZM44.6645 18.672L43.9334 17.9897L43.2743 18.696L43.9574 19.3791L44.6645 18.672ZM46.5205 16.752L45.8366 16.0225L45.8248 16.0335L45.8134 16.0449L46.5205 16.752ZM48.9525 15.024L48.4899 14.1374L48.4818 14.1417L48.4736 14.1461L48.9525 15.024ZM52.4085 13.808L52.6288 14.7834L52.6436 14.7801L52.6584 14.7763L52.4085 13.808ZM64.5685 33.328H65.5685V33.128L65.4916 32.9434L64.5685 33.328ZM63.6085 31.536L62.7369 32.0263L62.7483 32.0464L62.7605 32.066L63.6085 31.536ZM62.0725 29.552L61.3654 30.2591L62.0725 29.552ZM59.7685 27.952L59.3045 28.8378L59.3214 28.8467L59.3386 28.8549L59.7685 27.952ZM53.1765 28.016L53.5932 28.9251L53.6086 28.918L53.6237 28.9104L53.1765 28.016ZM50.5525 29.936L49.8073 29.2692L49.8051 29.2716L50.5525 29.936ZM48.9525 32.688L49.8934 33.0267L48.9525 32.688ZM49.0805 39.6L48.1714 40.0167L48.1821 40.0399L48.1939 40.0626L49.0805 39.6ZM51.0005 42.16L50.3139 42.887L50.3249 42.8974L50.3361 42.9074L51.0005 42.16ZM53.5605 43.696L53.9022 42.7562L53.5605 43.696ZM58.6805 43.76L58.3502 42.8161L58.3425 42.8188L58.3348 42.8217L58.6805 43.76ZM61.0485 42.544L61.6252 43.361L61.634 43.3547L61.0485 42.544ZM63.0965 40.624L62.3246 39.9883L63.0965 40.624ZM64.5685 38.256L65.4804 38.6664L65.5685 38.4706V38.256H64.5685ZM57.2085 14.296C60.2502 14.296 62.4745 14.7373 63.9757 15.5254L64.9053 13.7546C62.9931 12.7507 60.3962 12.296 57.2085 12.296V14.296ZM63.9933 15.5344C65.5528 16.3142 66.6218 17.314 67.2746 18.5109L69.0304 17.5531C68.1472 15.934 66.7416 14.6725 64.8877 13.7456L63.9933 15.5344ZM67.2859 18.531C68.0115 19.7912 68.4441 21.2621 68.5629 22.9656L70.5581 22.8264C70.4209 20.8606 69.9148 19.0888 69.0191 17.533L67.2859 18.531ZM68.5629 22.9656C68.6892 24.7761 68.7525 26.6302 68.7525 28.528H70.7525C70.7525 26.5858 70.6878 24.6852 70.5581 22.8264L68.5629 22.9656ZM68.7525 28.528V46H70.7525V28.528H68.7525ZM69.7525 45H64.5685V47H69.7525V45ZM65.5685 46V42.864H63.5685V46H65.5685ZM63.8739 42.1446C62.7514 43.2284 61.296 44.1221 59.4791 44.8085L60.1859 46.6795C62.209 45.9152 63.9109 44.889 65.2631 43.5834L63.8739 42.1446ZM59.4975 44.8018C57.6784 45.4486 55.8715 45.768 54.0725 45.768V47.768C56.1135 47.768 58.1466 47.4048 60.1675 46.6862L59.4975 44.8018ZM54.0725 45.768C52.3543 45.768 50.8784 45.4686 49.6223 44.8976L48.7947 46.7184C50.3546 47.4274 52.1213 47.768 54.0725 47.768V45.768ZM49.6223 44.8976C48.3229 44.307 47.2636 43.5504 46.4257 42.6363L44.9513 43.9877C45.9907 45.1216 47.2781 46.029 48.7947 46.7184L49.6223 44.8976ZM46.4257 42.6363C45.5735 41.7067 44.9389 40.6668 44.5154 39.5117L42.6376 40.2003C43.1528 41.6052 43.9262 42.8693 44.9513 43.9877L46.4257 42.6363ZM44.5154 39.5117C44.0852 38.3386 43.8725 37.1536 43.8725 35.952H41.8725C41.8725 37.3957 42.1291 38.8134 42.6376 40.2003L44.5154 39.5117ZM43.8725 35.952C43.8725 34.7145 44.104 33.4679 44.5768 32.2071L42.7042 31.5049C42.153 32.9748 41.8725 34.4588 41.8725 35.952H43.8725ZM44.5768 32.2071C45.0404 30.9708 45.7346 29.8706 46.6659 28.9005L45.2231 27.5155C44.1064 28.6787 43.2646 30.0105 42.7042 31.5049L44.5768 32.2071ZM46.6793 28.8863C47.6057 27.8827 48.7529 27.0619 50.1363 26.4295L49.3047 24.6105C47.7014 25.3435 46.3313 26.3147 45.2097 27.5297L46.6793 28.8863ZM50.1363 26.4295C51.4788 25.8157 53.0399 25.496 54.8405 25.496V23.496C52.8011 23.496 50.9488 23.8589 49.3047 24.6105L50.1363 26.4295ZM54.8405 25.496C56.6228 25.496 58.2959 25.8515 59.8701 26.5599L60.6909 24.7361C58.8518 23.9085 56.8982 23.496 54.8405 23.496V25.496ZM59.8975 26.5717C61.5055 27.2385 62.7957 28.1878 63.7924 29.4146L65.3446 28.1534C64.1227 26.6495 62.5541 25.5082 60.6635 24.7243L59.8975 26.5717ZM65.5685 28.784V26.032H63.5685V28.784H65.5685ZM65.5685 26.032C65.5685 22.4673 65.0315 19.6381 63.8165 17.694L62.1205 18.754C63.0388 20.2233 63.5685 22.5994 63.5685 26.032H65.5685ZM63.826 17.7095C62.5542 15.5899 60.2435 14.664 57.2725 14.664V16.664C59.8482 16.664 61.3348 17.4448 62.111 18.7385L63.826 17.7095ZM57.2725 14.664C55.9975 14.664 54.8411 14.823 53.8203 15.1633L54.4527 17.0607C55.2239 16.8036 56.1582 16.664 57.2725 16.664V14.664ZM53.8203 15.1633C52.823 15.4957 51.9133 15.9735 51.097 16.5976L52.312 18.1864C52.9464 17.7012 53.658 17.3256 54.4527 17.0607L53.8203 15.1633ZM51.1045 16.592C50.3312 17.172 49.6246 17.9073 48.9794 18.7828L50.5896 19.9692C51.1391 19.2234 51.7125 18.636 52.3045 18.192L51.1045 16.592ZM48.9951 18.7621C48.3707 19.5649 47.752 20.4718 47.1383 21.4801L48.8467 22.5199C49.4277 21.5655 50.0036 20.7231 50.5739 19.9899L48.9951 18.7621ZM48.6996 21.2929L45.3716 17.9649L43.9574 19.3791L47.2854 22.7071L48.6996 21.2929ZM45.3956 19.3543C45.9848 18.723 46.5955 18.0913 47.2276 17.4591L45.8134 16.0449C45.1655 16.6927 44.5389 17.341 43.9334 17.9897L45.3956 19.3543ZM47.2044 17.4815C47.8173 16.907 48.5567 16.379 49.4314 15.9019L48.4736 14.1461C47.471 14.693 46.5891 15.317 45.8366 16.0225L47.2044 17.4815ZM49.4151 15.9106C50.3049 15.4463 51.3722 15.0672 52.6288 14.7834L52.1882 12.8326C50.7994 13.1462 49.5628 13.5777 48.4899 14.1374L49.4151 15.9106ZM52.6584 14.7763C53.8754 14.4622 55.3864 14.296 57.2085 14.296V12.296C55.2759 12.296 53.5869 12.4711 52.1586 12.8397L52.6584 14.7763ZM65.4916 32.9434C65.2502 32.364 64.9004 31.7163 64.4565 31.006L62.7605 32.066C63.1699 32.7211 63.4602 33.268 63.6454 33.7126L65.4916 32.9434ZM64.4801 31.0457C64.0451 30.2724 63.4743 29.5396 62.7796 28.8449L61.3654 30.2591C61.9507 30.8444 62.4039 31.4342 62.7369 32.0263L64.4801 31.0457ZM62.7796 28.8449C62.0516 28.1169 61.1874 27.5201 60.1984 27.0491L59.3386 28.8549C60.1416 29.2373 60.8134 29.7071 61.3654 30.2591L62.7796 28.8449ZM60.2325 27.0662C59.1648 26.5069 57.9318 26.248 56.5685 26.248V28.248C57.6798 28.248 58.5802 28.4584 59.3045 28.8378L60.2325 27.0662ZM56.5685 26.248C55.1887 26.248 53.9032 26.5346 52.7293 27.1216L53.6237 28.9104C54.4978 28.4734 55.4736 28.248 56.5685 28.248V26.248ZM52.7598 27.1069C51.6154 27.6315 50.6276 28.3524 49.8073 29.2692L51.2977 30.6028C51.9281 29.8983 52.6896 29.3392 53.5932 28.9251L52.7598 27.1069ZM49.8051 29.2716C49.0294 30.1442 48.4343 31.1751 48.0116 32.3493L49.8934 33.0267C50.2387 32.0675 50.7102 31.2638 51.2999 30.6004L49.8051 29.2716ZM48.0116 32.3493C47.5879 33.5264 47.3765 34.7504 47.3765 36.016H49.3765C49.3765 34.9776 49.5491 33.983 49.8934 33.0267L48.0116 32.3493ZM47.3765 36.016C47.3765 37.4952 47.6309 38.8372 48.1714 40.0167L49.9896 39.1833C49.5915 38.3148 49.3765 37.2674 49.3765 36.016H47.3765ZM48.1939 40.0626C48.7549 41.1378 49.4612 42.0817 50.3139 42.887L51.6871 41.433C51.0038 40.7877 50.4301 40.0249 49.9671 39.1374L48.1939 40.0626ZM50.3361 42.9074C51.1958 43.6715 52.1579 44.25 53.2188 44.6358L53.9022 42.7562C53.0857 42.4593 52.3412 42.0138 51.6649 41.4126L50.3361 42.9074ZM53.2188 44.6358C54.2487 45.0103 55.2606 45.208 56.2485 45.208V43.208C55.5297 43.208 54.7497 43.0644 53.9022 42.7562L53.2188 44.6358ZM56.2485 45.208C57.1847 45.208 58.1122 45.0351 59.0262 44.6983L58.3348 42.8217C57.6275 43.0822 56.9336 43.208 56.2485 43.208V45.208ZM59.0108 44.7039C59.9502 44.3751 60.8226 43.9275 61.6252 43.361L60.4718 41.727C59.8237 42.1845 59.1175 42.5476 58.3502 42.8161L59.0108 44.7039ZM61.634 43.3547C62.4708 42.7503 63.2162 42.0516 63.8684 41.2597L62.3246 39.9883C61.7821 40.647 61.1622 41.2283 60.463 41.7333L61.634 43.3547ZM63.8684 41.2597C64.522 40.4661 65.0598 39.601 65.4804 38.6664L63.6566 37.8456C63.3092 38.6176 62.8657 39.3312 62.3246 39.9883L63.8684 41.2597ZM65.5685 38.256V33.328H63.5685V38.256H65.5685ZM85.435 30.512H84.435V32.9953L86.1559 31.205L85.435 30.512ZM85.435 14H86.435V13H85.435V14ZM79.995 14V13H78.995V14H79.995ZM79.995 46H78.995V47H79.995V46ZM85.435 46V47H86.435V46H85.435ZM85.435 34.736L84.7094 34.0479L84.435 34.3372V34.736H85.435ZM88.955 31.024L89.7509 30.4185L89.0387 29.4824L88.2294 30.3359L88.955 31.024ZM96.891 41.456L96.0951 42.0615L96.1025 42.0712L96.1101 42.0807L96.891 41.456ZM100.283 45.104L99.6583 45.8849H99.6583L100.283 45.104ZM102.331 46.32L101.95 47.2447L101.959 47.2484L101.969 47.252L102.331 46.32ZM107.003 46.512L107.232 47.4854L107.003 46.512ZM108.923 46L109.217 46.9558L109.923 46.7386V46H108.923ZM108.923 43.44H109.923V42.44H108.923V43.44ZM105.531 42.992L106.005 42.1115L105.531 42.992ZM103.803 41.84L103.125 42.5748L103.154 42.6018L103.185 42.6263L103.803 41.84ZM102.139 40.24L101.38 40.8908L101.405 40.9199L101.432 40.9471L102.139 40.24ZM100.731 38.512L99.9372 39.1201L99.9384 39.1217L100.731 38.512ZM92.347 27.568L91.6247 26.8764L91.0318 27.4956L91.5532 28.1761L92.347 27.568ZM105.339 14L106.061 14.6916L107.681 13H105.339V14ZM101.307 14V13H100.881L100.586 13.307L101.307 14ZM86.435 30.512V14H84.435V30.512H86.435ZM85.435 13H79.995V15H85.435V13ZM78.995 14V46H80.995V14H78.995ZM79.995 47H85.435V45H79.995V47ZM86.435 46V34.736H84.435V46H86.435ZM86.1606 35.4241L89.6806 31.7121L88.2294 30.3359L84.7094 34.0479L86.1606 35.4241ZM88.1591 31.6295L96.0951 42.0615L97.6869 40.8505L89.7509 30.4185L88.1591 31.6295ZM96.1101 42.0807C96.6306 42.7313 97.1723 43.3813 97.7353 44.0309L99.2467 42.7211C98.7003 42.0907 98.1754 41.4607 97.6719 40.8313L96.1101 42.0807ZM97.7353 44.0309C98.3284 44.7153 98.9694 45.3337 99.6583 45.8849L100.908 44.3231C100.317 43.8503 99.7629 43.3167 99.2467 42.7211L97.7353 44.0309ZM99.6583 45.8849C100.369 46.4535 101.133 46.9083 101.95 47.2447L102.712 45.3953C102.078 45.1344 101.477 44.7785 100.908 44.3231L99.6583 45.8849ZM101.969 47.252C102.856 47.5972 103.79 47.768 104.763 47.768V45.768C104.029 45.768 103.342 45.6401 102.693 45.388L101.969 47.252ZM104.763 47.768C105.606 47.768 106.429 47.6743 107.232 47.4854L106.774 45.5386C106.126 45.6911 105.456 45.768 104.763 45.768V47.768ZM107.232 47.4854C107.973 47.311 108.636 47.1346 109.217 46.9558L108.629 45.0442C108.101 45.2067 107.483 45.3717 106.774 45.5386L107.232 47.4854ZM109.923 46V43.44H107.923V46H109.923ZM108.923 42.44H107.131V44.44H108.923V42.44ZM107.131 42.44C106.818 42.44 106.447 42.3496 106.005 42.1115L105.057 43.8725C105.724 44.2317 106.42 44.44 107.131 44.44V42.44ZM106.005 42.1115C105.51 41.8449 104.982 41.4945 104.421 41.0537L103.185 42.6263C103.819 43.1241 104.443 43.5417 105.057 43.8725L106.005 42.1115ZM104.481 41.1052C103.937 40.6026 103.392 40.0785 102.846 39.5329L101.432 40.9471C101.996 41.5108 102.56 42.0534 103.125 42.5748L104.481 41.1052ZM102.898 39.5892C102.396 39.0037 101.938 38.4414 101.524 37.9023L99.9384 39.1217C100.377 39.692 100.858 40.2817 101.38 40.8908L102.898 39.5892ZM101.525 37.9039L93.1408 26.9599L91.5532 28.1761L99.9372 39.1201L101.525 37.9039ZM93.0693 28.2596L106.061 14.6916L104.617 13.3084L91.6247 26.8764L93.0693 28.2596ZM105.339 13H101.307V15H105.339V13ZM100.586 13.307L84.7141 29.819L86.1559 31.205L102.028 14.693L100.586 13.307ZM142.738 14L143.639 13.5641L143.365 13H142.738V14ZM137.682 14V13H136.682V14H137.682ZM137.682 46H136.682V47H137.682V46ZM139.859 46V47H140.859V46H139.859ZM139.859 20.72V19.72H138.859V20.72H139.859ZM140.115 20.72L141.014 20.2825L140.74 19.72H140.115V20.72ZM152.786 46.768L151.887 47.2055L152.161 47.768H152.786V46.768ZM153.426 46.768V47.768H154.07L154.337 47.1818L153.426 46.768ZM165.267 20.72V19.72H164.623L164.356 20.3062L165.267 20.72ZM165.523 20.72H166.523V19.72H165.523V20.72ZM165.523 46H164.523V47H165.523V46ZM170.962 46V47H171.962V46H170.962ZM170.962 14H171.962V13H170.962V14ZM166.035 14V13H165.391L165.124 13.5855L166.035 14ZM154.898 38.448V39.448H155.542L155.809 38.8625L154.898 38.448ZM154.579 38.448L153.678 38.8839L153.952 39.448H154.579V38.448ZM142.738 13H137.682V15H142.738V13ZM136.682 14V46H138.682V14H136.682ZM137.682 47H139.859V45H137.682V47ZM140.859 46V20.72H138.859V46H140.859ZM139.859 21.72H140.115V19.72H139.859V21.72ZM139.215 21.1575L151.887 47.2055L153.686 46.3305L141.014 20.2825L139.215 21.1575ZM152.786 47.768H153.426V45.768H152.786V47.768ZM154.337 47.1818L166.177 21.1338L164.356 20.3062L152.516 46.3542L154.337 47.1818ZM165.267 21.72H165.523V19.72H165.267V21.72ZM164.523 20.72V46H166.523V20.72H164.523ZM165.523 47H170.962V45H165.523V47ZM171.962 46V14H169.962V46H171.962ZM170.962 13H166.035V15H170.962V13ZM165.124 13.5855L153.988 38.0335L155.809 38.8625L166.945 14.4145L165.124 13.5855ZM154.898 37.448H154.579V39.448H154.898V37.448ZM155.479 38.0121L143.639 13.5641L141.838 14.4359L153.678 38.8839L155.479 38.0121ZM181.182 14V13H180.182V14H181.182ZM181.182 46H180.182V47H181.182V46ZM201.406 45.424L201.09 44.4753L201.079 44.479L201.406 45.424ZM204.415 43.76L205.062 44.5219L205.073 44.5128L205.083 44.5033L204.415 43.76ZM206.462 41.072L205.575 40.6106L205.572 40.6177L205.568 40.6248L206.462 41.072ZM205.823 32.432L205.036 33.0498L205.043 33.0584L205.05 33.0667L205.823 32.432ZM202.367 29.808L201.966 30.7242L201.978 30.7295L201.99 30.7345L202.367 29.808ZM186.622 28.528H185.622V29.528H186.622V28.528ZM186.622 14H187.622V13H186.622V14ZM214.014 14V13H213.014V14H214.014ZM214.014 46H213.014V47H214.014V46ZM219.454 46V47H220.454V46H219.454ZM219.454 14H220.454V13H219.454V14ZM186.622 43.568H185.622V44.568H186.622V43.568ZM186.622 30.704V29.704H185.622V30.704H186.622ZM195.775 30.832L195.879 29.8375L195.775 30.832ZM198.206 31.664L197.705 32.5294L197.732 32.5448L197.759 32.5584L198.206 31.664ZM200.447 33.712L199.62 34.2753L199.626 34.2844L199.633 34.2932L200.447 33.712ZM199.486 42.096L200.108 42.8795L200.111 42.8769L199.486 42.096ZM180.182 14V46H182.182V14H180.182ZM181.182 47H198.014V45H181.182V47ZM198.014 47C199.28 47 200.521 46.7887 201.734 46.369L201.079 44.479C200.073 44.8273 199.053 45 198.014 45V47ZM201.723 46.3727C202.986 45.9516 204.103 45.3369 205.062 44.5219L203.767 42.9981C203.019 43.6338 202.131 44.1284 201.09 44.4753L201.723 46.3727ZM205.083 44.5033C206.03 43.6518 206.789 42.6555 207.357 41.5192L205.568 40.6248C205.112 41.5365 204.506 42.3322 203.746 43.0167L205.083 44.5033ZM207.35 41.5334C207.986 40.3103 208.294 38.9549 208.294 37.488H206.294C206.294 38.6664 206.049 39.7003 205.575 40.6106L207.35 41.5334ZM208.294 37.488C208.294 35.1734 207.773 33.2314 206.595 31.7973L205.05 33.0667C205.834 34.0219 206.294 35.4506 206.294 37.488H208.294ZM206.609 31.8142C205.566 30.4871 204.275 29.5038 202.743 28.8815L201.99 30.7345C203.189 31.2216 204.202 31.9875 205.036 33.0498L206.609 31.8142ZM202.767 28.8918C201.301 28.2505 199.765 27.8609 198.164 27.7237L197.993 29.7163C199.378 29.8351 200.701 30.1709 201.966 30.7242L202.767 28.8918ZM198.164 27.7237C196.654 27.5942 195.365 27.528 194.303 27.528V29.528C195.288 29.528 196.516 29.5898 197.993 29.7163L198.164 27.7237ZM194.303 27.528H186.622V29.528H194.303V27.528ZM187.622 28.528V14H185.622V28.528H187.622ZM186.622 13H181.182V15H186.622V13ZM213.014 14V46H215.014V14H213.014ZM214.014 47H219.454V45H214.014V47ZM220.454 46V14H218.454V46H220.454ZM219.454 13H214.014V15H219.454V13ZM187.622 43.568V30.704H185.622V43.568H187.622ZM186.622 31.704H193.982V29.704H186.622V31.704ZM193.982 31.704C194.311 31.704 194.864 31.7417 195.67 31.8265L195.879 29.8375C195.063 29.7516 194.422 29.704 193.982 29.704V31.704ZM195.67 31.8265C196.321 31.8951 196.998 32.12 197.705 32.5294L198.708 30.7986C197.793 30.2693 196.849 29.9396 195.879 29.8375L195.67 31.8265ZM197.759 32.5584C198.433 32.8955 199.058 33.4506 199.62 34.2753L201.273 33.1487C200.555 32.096 199.686 31.2858 198.654 30.7696L197.759 32.5584ZM199.633 34.2932C200.104 34.953 200.406 35.996 200.406 37.552H202.406C202.406 35.78 202.069 34.263 201.26 33.1308L199.633 34.2932ZM200.406 37.552C200.406 39.3285 199.852 40.5232 198.862 41.3151L200.111 42.8769C201.681 41.6208 202.406 39.7862 202.406 37.552H200.406ZM198.865 41.3125C197.814 42.1457 196.586 42.568 195.135 42.568V44.568C197.011 44.568 198.684 44.0089 200.108 42.8795L198.865 41.3125ZM195.135 42.568H186.622V44.568H195.135V42.568ZM252.057 62H251.057V63H252.057V62ZM257.497 62V63H258.497V62H257.497ZM257.497 40.752V39.752H256.497V40.752H257.497ZM257.754 40.752L258.687 40.393L258.44 39.752H257.754V40.752ZM259.418 43.568L258.67 44.2324L258.68 44.2436L258.69 44.2546L259.418 43.568ZM261.849 45.424L261.385 46.3098L261.849 45.424ZM264.665 46.448L264.453 47.4252L264.462 47.427L264.665 46.448ZM273.625 45.616L274.019 46.5351L274.029 46.5312L274.038 46.5271L273.625 45.616ZM278.233 42.224L277.495 41.5502L277.489 41.5563L277.484 41.5624L278.233 42.224ZM281.306 36.976L282.248 37.3099L282.25 37.3038L281.306 36.976ZM281.306 23.152L280.363 23.4858V23.4858L281.306 23.152ZM278.233 17.904L277.474 18.5548L277.484 18.5664L277.495 18.5778L278.233 17.904ZM273.625 14.512L273.213 15.4231L273.222 15.4272L273.232 15.4311L273.625 14.512ZM257.754 19.184V20.184H258.429L258.681 19.5571L257.754 19.184ZM257.497 19.184H256.497V20.184H257.497V19.184ZM257.497 14H258.497V13H257.497V14ZM252.057 14V13H251.057V14H252.057ZM258.138 22.832L257.199 22.4877L257.195 22.4968L257.192 22.506L258.138 22.832ZM260.057 19.568L260.799 20.2389L260.807 20.2304L260.814 20.2216L260.057 19.568ZM262.874 17.392L263.306 18.2935L263.314 18.29L263.321 18.2864L262.874 17.392ZM270.169 17.328L269.776 18.2471L269.795 18.2555L269.815 18.263L270.169 17.328ZM273.37 19.632L274.135 18.9888L273.37 19.632ZM275.482 23.792L274.524 24.0793L274.527 24.0903L274.53 24.1011L275.482 23.792ZM275.482 36.144L274.53 35.8349L274.527 35.8457L274.524 35.8567L275.482 36.144ZM273.306 40.368L272.542 39.7221L272.54 39.7248L273.306 40.368ZM270.169 42.736L270.535 43.6668L270.549 43.6612L270.563 43.6551L270.169 42.736ZM263.001 42.736L262.569 43.6375L262.584 43.6447L262.599 43.6513L263.001 42.736ZM260.185 40.56L259.415 41.1969L259.422 41.2053L259.429 41.2136L260.185 40.56ZM258.202 37.04L257.256 37.3651L257.26 37.3782L257.265 37.3911L258.202 37.04ZM252.057 63H257.497V61H252.057V63ZM258.497 62V40.752H256.497V62H258.497ZM257.497 41.752H257.754V39.752H257.497V41.752ZM256.82 41.111C257.283 42.3151 257.896 43.3617 258.67 44.2324L260.165 42.9036C259.574 42.2383 259.077 41.4075 258.687 40.393L256.82 41.111ZM258.69 44.2546C259.488 45.0995 260.387 45.7869 261.385 46.3098L262.314 44.5382C261.52 44.1225 260.797 43.5725 260.145 42.8814L258.69 44.2546ZM261.385 46.3098C262.36 46.8204 263.384 47.1927 264.453 47.4252L264.878 45.4708C263.985 45.2767 263.131 44.9662 262.314 44.5382L261.385 46.3098ZM264.462 47.427C265.551 47.654 266.644 47.768 267.737 47.768V45.768C266.783 45.768 265.828 45.6687 264.869 45.469L264.462 47.427ZM267.737 47.768C269.993 47.768 272.092 47.3613 274.019 46.5351L273.232 44.6969C271.575 45.4067 269.748 45.768 267.737 45.768V47.768ZM274.038 46.5271C275.956 45.6591 277.608 44.4442 278.983 42.8856L277.484 41.5624C276.299 42.9051 274.879 43.9516 273.213 44.7049L274.038 46.5271ZM278.972 42.8978C280.394 41.3385 281.483 39.4701 282.248 37.3098L280.363 36.6422C279.677 38.5779 278.718 40.2082 277.495 41.5502L278.972 42.8978ZM282.25 37.3038C283.017 35.0943 283.393 32.6778 283.393 30.064H281.393C281.393 32.4849 281.045 34.6764 280.361 36.6482L282.25 37.3038ZM283.393 30.064C283.393 27.4101 283.018 24.9906 282.248 22.8181L280.363 23.4858C281.044 25.4094 281.393 27.5979 281.393 30.064H283.393ZM282.248 22.8182C281.483 20.6579 280.394 18.7895 278.972 17.2302L277.495 18.5778C278.718 19.9198 279.677 21.5501 280.363 23.4858L282.248 22.8182ZM278.993 17.2532C277.614 15.6447 275.953 14.4217 274.019 13.5929L273.232 15.4311C274.882 16.1383 276.293 17.1766 277.474 18.5548L278.993 17.2532ZM274.038 13.6009C272.105 12.7268 270.001 12.296 267.737 12.296V14.296C269.741 14.296 271.561 14.6758 273.213 15.4231L274.038 13.6009ZM267.737 12.296C265.075 12.296 262.785 12.8103 260.926 13.9066C259.053 15.0108 257.689 16.6642 256.826 18.8109L258.681 19.5571C259.397 17.7784 260.486 16.4879 261.941 15.6294C263.41 14.763 265.323 14.296 267.737 14.296V12.296ZM257.754 18.184H257.497V20.184H257.754V18.184ZM258.497 19.184V14H256.497V19.184H258.497ZM257.497 13H252.057V15H257.497V13ZM251.057 14V62H253.057V14H251.057ZM258.497 26.8C258.497 25.4945 258.695 24.2828 259.083 23.158L257.192 22.506C256.727 23.8559 256.497 25.2895 256.497 26.8H258.497ZM259.076 23.1763C259.507 22.0014 260.085 21.0283 260.799 20.2389L259.316 18.8971C258.409 19.8997 257.707 21.1026 257.199 22.4877L259.076 23.1763ZM260.814 20.2216C261.54 19.3819 262.369 18.7432 263.306 18.2935L262.441 16.4905C261.244 17.0648 260.197 17.8768 259.301 18.9144L260.814 20.2216ZM263.321 18.2864C264.292 17.801 265.312 17.56 266.393 17.56V15.56C265.001 15.56 263.674 15.8736 262.426 16.4976L263.321 18.2864ZM266.393 17.56C267.583 17.56 268.708 17.7894 269.776 18.2471L270.563 16.4089C269.242 15.8426 267.849 15.56 266.393 15.56V17.56ZM269.815 18.263C270.884 18.6685 271.812 19.3322 272.604 20.2752L274.135 18.9888C273.135 17.7985 271.93 16.9261 270.524 16.393L269.815 18.263ZM272.604 20.2752C273.391 21.2128 274.04 22.4682 274.524 24.0793L276.439 23.5047C275.899 21.7025 275.14 20.1845 274.135 18.9888L272.604 20.2752ZM274.53 24.1011C275.044 25.6811 275.314 27.6191 275.314 29.936H277.314C277.314 27.4743 277.028 25.3163 276.433 23.4829L274.53 24.1011ZM275.314 29.936C275.314 32.2977 275.043 34.2564 274.53 35.8349L276.433 36.4531C277.029 34.6182 277.314 32.4383 277.314 29.936H275.314ZM274.524 35.8567C274.042 37.4607 273.374 38.7385 272.542 39.7221L274.069 41.0139C275.114 39.7788 275.897 38.2406 276.439 36.4313L274.524 35.8567ZM272.54 39.7248C271.737 40.6805 270.816 41.3709 269.776 41.8169L270.563 43.6551C271.912 43.0771 273.082 42.1889 274.071 41.0112L272.54 39.7248ZM269.804 41.8052C268.729 42.2274 267.595 42.44 266.393 42.44V44.44C267.837 44.44 269.22 44.1832 270.535 43.6668L269.804 41.8052ZM266.393 42.44C265.334 42.44 264.341 42.2327 263.404 41.8207L262.599 43.6513C263.796 44.1779 265.064 44.44 266.393 44.44V42.44ZM263.434 41.8345C262.497 41.3848 261.668 40.7461 260.942 39.9064L259.429 41.2136C260.325 42.2512 261.372 43.0632 262.569 43.6375L263.434 41.8345ZM260.956 39.9231C260.226 39.0387 259.616 37.9653 259.138 36.6889L257.265 37.3911C257.811 38.8454 258.524 40.1187 259.415 41.1969L260.956 39.9231ZM259.147 36.7149C258.72 35.4737 258.497 34.0294 258.497 32.368H256.497C256.497 34.2053 256.744 35.8757 257.256 37.3651L259.147 36.7149ZM258.497 32.368V26.8H256.497V32.368H258.497ZM309.69 14.64L309.226 15.5254L309.234 15.53L309.243 15.5344L309.69 14.64ZM313.402 18.032L312.525 18.5109L312.53 18.521L312.536 18.531L313.402 18.032ZM314.81 22.896L315.808 22.8264L314.81 22.896ZM315.003 46V47H316.003V46H315.003ZM309.819 46H308.819V47H309.819V46ZM309.819 42.864H310.819V40.5084L309.124 42.1446L309.819 42.864ZM305.082 45.744L305.418 46.6862L305.427 46.6829L305.436 46.6795L305.082 45.744ZM294.458 45.808L294.872 44.8976L294.458 45.808ZM290.939 43.312L291.676 42.6363L290.939 43.312ZM288.891 31.856L287.954 31.5049L288.891 31.856ZM291.194 28.208L291.916 28.9005L291.923 28.8935L291.929 28.8863L291.194 28.208ZM294.97 25.52L294.555 24.6105L294.97 25.52ZM305.53 25.648L305.12 26.5599L305.134 26.566L305.147 26.5717L305.53 25.648ZM309.819 28.784L309.042 29.4146L310.819 31.6006V28.784H309.819ZM308.219 18.224L307.361 18.7385L307.366 18.7463L307.371 18.754L308.219 18.224ZM299.387 16.112L299.703 17.0607L299.387 16.112ZM296.954 17.392L297.555 18.192L297.562 18.1864L296.954 17.392ZM295.034 19.376L295.824 19.9899L295.832 19.9797L295.84 19.9692L295.034 19.376ZM293.242 22L292.535 22.7071L293.435 23.6068L294.097 22.5199L293.242 22ZM289.914 18.672L289.183 17.9897L288.524 18.696L289.207 19.3791L289.914 18.672ZM291.771 16.752L291.087 16.0225L291.075 16.0335L291.063 16.0449L291.771 16.752ZM294.203 15.024L293.74 14.1374L293.732 14.1417L293.724 14.1461L294.203 15.024ZM297.659 13.808L297.879 14.7834L297.894 14.7801L297.908 14.7763L297.659 13.808ZM309.819 33.328H310.819V33.128L310.742 32.9434L309.819 33.328ZM308.858 31.536L307.987 32.0263L307.998 32.0464L308.01 32.066L308.858 31.536ZM307.323 29.552L306.615 30.2591L307.323 29.552ZM305.018 27.952L304.555 28.8378L304.571 28.8467L304.589 28.8549L305.018 27.952ZM298.427 28.016L298.843 28.9251L298.859 28.918L298.874 28.9104L298.427 28.016ZM295.802 29.936L295.057 29.2692L295.055 29.2716L295.802 29.936ZM294.203 32.688L295.143 33.0267L294.203 32.688ZM294.331 39.6L293.421 40.0167L293.432 40.0399L293.444 40.0626L294.331 39.6ZM296.25 42.16L295.564 42.887L295.575 42.8974L295.586 42.9074L296.25 42.16ZM298.81 43.696L299.152 42.7562L298.81 43.696ZM303.931 43.76L303.6 42.8161L303.592 42.8188L303.585 42.8217L303.931 43.76ZM306.298 42.544L306.875 43.361L306.884 43.3547L306.298 42.544ZM308.346 40.624L307.575 39.9883L308.346 40.624ZM309.819 38.256L310.73 38.6664L310.819 38.4706V38.256H309.819ZM302.458 14.296C305.5 14.296 307.725 14.7373 309.226 15.5254L310.155 13.7546C308.243 12.7507 305.646 12.296 302.458 12.296V14.296ZM309.243 15.5344C310.803 16.3142 311.872 17.314 312.525 18.5109L314.28 17.5531C313.397 15.934 311.992 14.6725 310.138 13.7456L309.243 15.5344ZM312.536 18.531C313.261 19.7912 313.694 21.2621 313.813 22.9656L315.808 22.8264C315.671 20.8606 315.165 19.0888 314.269 17.533L312.536 18.531ZM313.813 22.9656C313.939 24.7761 314.003 26.6302 314.003 28.528H316.003C316.003 26.5858 315.938 24.6852 315.808 22.8264L313.813 22.9656ZM314.003 28.528V46H316.003V28.528H314.003ZM315.003 45H309.819V47H315.003V45ZM310.819 46V42.864H308.819V46H310.819ZM309.124 42.1446C308.001 43.2284 306.546 44.1221 304.729 44.8085L305.436 46.6795C307.459 45.9152 309.161 44.889 310.513 43.5834L309.124 42.1446ZM304.747 44.8018C302.928 45.4486 301.122 45.768 299.323 45.768V47.768C301.363 47.768 303.397 47.4048 305.418 46.6862L304.747 44.8018ZM299.323 45.768C297.604 45.768 296.128 45.4686 294.872 44.8976L294.045 46.7184C295.605 47.4274 297.371 47.768 299.323 47.768V45.768ZM294.872 44.8976C293.573 44.307 292.514 43.5504 291.676 42.6363L290.201 43.9877C291.241 45.1216 292.528 46.029 294.045 46.7184L294.872 44.8976ZM291.676 42.6363C290.824 41.7067 290.189 40.6668 289.765 39.5117L287.888 40.2003C288.403 41.6052 289.176 42.8693 290.201 43.9877L291.676 42.6363ZM289.765 39.5117C289.335 38.3386 289.122 37.1536 289.122 35.952H287.122C287.122 37.3957 287.379 38.8134 287.888 40.2003L289.765 39.5117ZM289.122 35.952C289.122 34.7145 289.354 33.4679 289.827 32.2071L287.954 31.5049C287.403 32.9748 287.122 34.4588 287.122 35.952H289.122ZM289.827 32.2071C290.29 30.9708 290.985 29.8706 291.916 28.9005L290.473 27.5155C289.356 28.6787 288.515 30.0105 287.954 31.5049L289.827 32.2071ZM291.929 28.8863C292.856 27.8827 294.003 27.0619 295.386 26.4295L294.555 24.6105C292.951 25.3435 291.581 26.3147 290.46 27.5297L291.929 28.8863ZM295.386 26.4295C296.729 25.8157 298.29 25.496 300.091 25.496V23.496C298.051 23.496 296.199 23.8589 294.555 24.6105L295.386 26.4295ZM300.091 25.496C301.873 25.496 303.546 25.8515 305.12 26.5599L305.941 24.7361C304.102 23.9085 302.148 23.496 300.091 23.496V25.496ZM305.147 26.5717C306.756 27.2385 308.046 28.1878 309.042 29.4146L310.595 28.1534C309.373 26.6495 307.804 25.5082 305.914 24.7243L305.147 26.5717ZM310.819 28.784V26.032H308.819V28.784H310.819ZM310.819 26.032C310.819 22.4673 310.282 19.6381 309.066 17.694L307.371 18.754C308.289 20.2233 308.819 22.5994 308.819 26.032H310.819ZM309.076 17.7095C307.804 15.5899 305.493 14.664 302.522 14.664V16.664C305.098 16.664 306.585 17.4448 307.361 18.7385L309.076 17.7095ZM302.522 14.664C301.247 14.664 300.091 14.823 299.07 15.1633L299.703 17.0607C300.474 16.8036 301.408 16.664 302.522 16.664V14.664ZM299.07 15.1633C298.073 15.4957 297.163 15.9735 296.347 16.5976L297.562 18.1864C298.196 17.7012 298.908 17.3256 299.703 17.0607L299.07 15.1633ZM296.354 16.592C295.581 17.172 294.875 17.9073 294.229 18.7828L295.84 19.9692C296.389 19.2234 296.962 18.636 297.555 18.192L296.354 16.592ZM294.245 18.7621C293.621 19.5649 293.002 20.4718 292.388 21.4801L294.097 22.5199C294.678 21.5655 295.254 20.7231 295.824 19.9899L294.245 18.7621ZM293.95 21.2929L290.622 17.9649L289.207 19.3791L292.535 22.7071L293.95 21.2929ZM290.646 19.3543C291.235 18.723 291.845 18.0913 292.478 17.4591L291.063 16.0449C290.416 16.6927 289.789 17.341 289.183 17.9897L290.646 19.3543ZM292.454 17.4815C293.067 16.907 293.807 16.379 294.681 15.9019L293.724 14.1461C292.721 14.693 291.839 15.317 291.087 16.0225L292.454 17.4815ZM294.665 15.9106C295.555 15.4463 296.622 15.0672 297.879 14.7834L297.438 12.8326C296.049 13.1462 294.813 13.5777 293.74 14.1374L294.665 15.9106ZM297.908 14.7763C299.125 14.4622 300.636 14.296 302.458 14.296V12.296C300.526 12.296 298.837 12.4711 297.409 12.8397L297.908 14.7763ZM310.742 32.9434C310.5 32.364 310.15 31.7163 309.707 31.006L308.01 32.066C308.42 32.7211 308.71 33.268 308.895 33.7126L310.742 32.9434ZM309.73 31.0457C309.295 30.2724 308.724 29.5396 308.03 28.8449L306.615 30.2591C307.201 30.8444 307.654 31.4342 307.987 32.0263L309.73 31.0457ZM308.03 28.8449C307.302 28.1169 306.437 27.5201 305.448 27.0491L304.589 28.8549C305.392 29.2373 306.063 29.7071 306.615 30.2591L308.03 28.8449ZM305.483 27.0662C304.415 26.5069 303.182 26.248 301.819 26.248V28.248C302.93 28.248 303.83 28.4584 304.555 28.8378L305.483 27.0662ZM301.819 26.248C300.439 26.248 299.153 26.5346 297.979 27.1216L298.874 28.9104C299.748 28.4734 300.724 28.248 301.819 28.248V26.248ZM298.01 27.1069C296.865 27.6315 295.878 28.3524 295.057 29.2692L296.548 30.6028C297.178 29.8983 297.94 29.3392 298.843 28.9251L298.01 27.1069ZM295.055 29.2716C294.279 30.1442 293.684 31.1751 293.262 32.3493L295.143 33.0267C295.489 32.0675 295.96 31.2638 296.55 30.6004L295.055 29.2716ZM293.262 32.3493C292.838 33.5264 292.626 34.7504 292.626 36.016H294.626C294.626 34.9776 294.799 33.983 295.143 33.0267L293.262 32.3493ZM292.626 36.016C292.626 37.4952 292.881 38.8372 293.421 40.0167L295.24 39.1833C294.841 38.3148 294.626 37.2674 294.626 36.016H292.626ZM293.444 40.0626C294.005 41.1378 294.711 42.0817 295.564 42.887L296.937 41.433C296.254 40.7877 295.68 40.0249 295.217 39.1374L293.444 40.0626ZM295.586 42.9074C296.446 43.6715 297.408 44.25 298.469 44.6358L299.152 42.7562C298.336 42.4593 297.591 42.0138 296.915 41.4126L295.586 42.9074ZM298.469 44.6358C299.499 45.0103 300.511 45.208 301.499 45.208V43.208C300.78 43.208 300 43.0644 299.152 42.7562L298.469 44.6358ZM301.499 45.208C302.435 45.208 303.362 45.0351 304.276 44.6983L303.585 42.8217C302.878 43.0822 302.184 43.208 301.499 43.208V45.208ZM304.261 44.7039C305.2 44.3751 306.073 43.9275 306.875 43.361L305.722 41.727C305.074 42.1845 304.367 42.5476 303.6 42.8161L304.261 44.7039ZM306.884 43.3547C307.721 42.7503 308.466 42.0516 309.118 41.2597L307.575 39.9883C307.032 40.647 306.412 41.2283 305.713 41.7333L306.884 43.3547ZM309.118 41.2597C309.772 40.4661 310.31 39.601 310.73 38.6664L308.907 37.8456C308.559 38.6176 308.116 39.3312 307.575 39.9883L309.118 41.2597ZM310.819 38.256V33.328H308.819V38.256H310.819ZM340.605 1.328L340.653 2.32687L340.605 1.328ZM335.421 2.224L335.715 3.17978V3.17978L335.421 2.224ZM330.685 4.592L330.104 3.77819L330.093 3.78635L330.685 4.592ZM326.781 9.072L327.636 9.59031L327.638 9.58649L326.781 9.072ZM324.797 13.552L325.756 13.837V13.837L324.797 13.552ZM323.773 18.288L324.763 18.4256L324.764 18.4219L323.773 18.288ZM323.389 22.896L324.389 22.9246L324.389 22.9238L323.389 22.896ZM323.965 34.416L322.985 34.616L322.986 34.62L323.965 34.416ZM326.461 40.24L327.29 39.6809L326.461 40.24ZM331.709 44.912L331.216 45.7823L331.226 45.7877L331.236 45.793L331.709 44.912ZM347.965 45.296L348.405 46.1942L348.412 46.1904L347.965 45.296ZM352.957 41.328L352.172 40.7084L352.957 41.328ZM355.773 35.888L356.731 36.1735L355.773 35.888ZM355.709 23.792L354.751 24.0775L354.754 24.0898L354.758 24.102L355.709 23.792ZM352.893 18.48L352.125 19.1202V19.1202L352.893 18.48ZM347.965 14.768L347.525 15.6662L347.533 15.67L347.541 15.6737L347.965 14.768ZM335.485 14L335.777 14.9564L335.485 14ZM331.453 15.92L332.008 16.752L332.018 16.7451L332.029 16.7378L331.453 15.92ZM328.509 18.608L327.725 17.9873L328.509 18.608ZM326.589 21.744V22.744H327.242L327.504 22.1467L326.589 21.744ZM326.333 21.744H325.333V22.744H326.333V21.744ZM327.741 13.936L328.667 14.3133L328.669 14.3074L327.741 13.936ZM331.453 8.624L330.85 7.82626L330.839 7.83464L331.453 8.624ZM337.021 6.32L337.129 7.31414L337.138 7.31313L337.148 7.31195L337.021 6.32ZM351.485 5.936V6.936H351.993L352.293 6.52547L351.485 5.936ZM354.941 1.2L355.749 1.78947L356.909 0.199997H354.941V1.2ZM330.173 23.792L331.135 24.0667L331.136 24.0608L330.173 23.792ZM332.349 19.312L333.124 19.9437L333.13 19.9368L333.135 19.9298L332.349 19.312ZM335.613 16.688L335.215 15.7704L335.204 15.7755L335.613 16.688ZM342.525 16.112L342.384 17.1019L342.525 16.112ZM349.245 22L348.335 22.4153L348.339 22.4229L349.245 22ZM349.501 37.36L348.571 36.9923L348.567 37.0018L348.564 37.0113L349.501 37.36ZM346.941 41.648L347.633 42.37L347.641 42.3626L347.648 42.3551L346.941 41.648ZM343.677 43.696L343.961 44.6548L343.977 44.65L343.993 44.6447L343.677 43.696ZM337.021 43.632L336.742 44.5923L337.021 43.632ZM333.309 41.52L332.616 42.2408L332.63 42.2544L332.645 42.2674L333.309 41.52ZM330.493 37.232L329.563 37.5997L329.568 37.6129L329.574 37.6259L330.493 37.232ZM346.045 0.199997C344.195 0.199997 342.366 0.243025 340.557 0.329131L340.653 2.32687C342.428 2.2423 344.226 2.2 346.045 2.2V0.199997ZM340.557 0.329131C338.684 0.418324 336.873 0.730847 335.127 1.26822L335.715 3.17978C337.297 2.69315 338.942 2.40834 340.653 2.32687L340.557 0.329131ZM335.127 1.26822C333.355 1.8135 331.68 2.65252 330.104 3.77827L331.266 5.40573C332.677 4.39814 334.159 3.65849 335.715 3.17978L335.127 1.26822ZM330.093 3.78635C328.513 4.94814 327.128 6.55063 325.923 8.5575L327.638 9.58649C328.738 7.75336 329.956 6.36919 331.277 5.39765L330.093 3.78635ZM325.926 8.5537C325.028 10.0348 324.332 11.6065 323.838 13.267L325.756 13.837C326.201 12.3401 326.827 10.9252 327.636 9.5903L325.926 8.5537ZM323.838 13.267C323.355 14.8935 323.002 16.5226 322.782 18.1541L324.764 18.4219C324.97 16.8961 325.3 15.3679 325.756 13.837L323.838 13.267ZM322.783 18.1504C322.564 19.7225 322.433 21.2952 322.389 22.8682L324.389 22.9238C324.43 21.4248 324.555 19.9255 324.763 18.4256L322.783 18.1504ZM322.389 22.8674C322.346 24.3691 322.325 25.7867 322.325 27.12H324.325C324.325 25.808 324.346 24.4096 324.389 22.9246L322.389 22.8674ZM322.325 27.12V28.848H324.325V27.12H322.325ZM322.325 28.848C322.325 30.5537 322.549 32.4788 322.985 34.616L324.945 34.216C324.528 32.1718 324.325 30.385 324.325 28.848H322.325ZM322.986 34.62C323.441 36.8022 324.326 38.8632 325.632 40.7991L327.29 39.6809C326.121 37.9474 325.343 36.1258 324.944 34.212L322.986 34.62ZM325.632 40.7991C326.97 42.7827 328.844 44.4392 331.216 45.7823L332.202 44.0417C330.052 42.8248 328.427 41.3666 327.29 39.6809L325.632 40.7991ZM331.236 45.793C333.732 47.1336 336.897 47.768 340.669 47.768V45.768C337.102 45.768 334.294 45.1651 332.182 44.031L331.236 45.793ZM340.669 47.768C343.639 47.768 346.23 47.2586 348.405 46.1942L347.525 44.3978C345.69 45.2961 343.417 45.768 340.669 45.768V47.768ZM348.412 46.1904C350.577 45.1079 352.361 43.6962 353.742 41.9476L352.172 40.7084C350.993 42.2024 349.449 43.4361 347.518 44.4016L348.412 46.1904ZM353.742 41.9476C355.101 40.2256 356.098 38.2986 356.731 36.1735L354.815 35.6025C354.253 37.4881 353.373 39.1877 352.172 40.7084L353.742 41.9476ZM356.731 36.1735C357.356 34.0775 357.669 31.9548 357.669 29.808H355.669C355.669 31.7572 355.385 33.6878 354.815 35.6025L356.731 36.1735ZM357.669 29.808C357.669 27.6539 357.332 25.5439 356.66 23.482L354.758 24.102C355.366 25.9654 355.669 27.8661 355.669 29.808H357.669ZM356.667 23.5065C356.033 21.3774 355.032 19.4848 353.661 17.8398L352.125 19.1202C353.314 20.5472 354.19 22.1959 354.751 24.0775L356.667 23.5065ZM353.661 17.8398C352.278 16.1795 350.513 14.8564 348.389 13.8623L347.541 15.6737C349.428 16.5569 350.948 17.7085 352.125 19.1202L353.661 17.8398ZM348.405 13.8698C346.231 12.8063 343.663 12.296 340.733 12.296V14.296C343.435 14.296 345.688 14.767 347.525 15.6662L348.405 13.8698ZM340.733 12.296C338.692 12.296 336.842 12.5398 335.193 13.0436L335.777 14.9564C337.2 14.5215 338.848 14.296 340.733 14.296V12.296ZM335.193 13.0436C333.57 13.5396 332.127 14.2228 330.878 15.1022L332.029 16.7378C333.083 15.9959 334.328 15.399 335.777 14.9564L335.193 13.0436ZM330.898 15.0879C329.665 15.9105 328.604 16.8765 327.725 17.9873L329.293 19.2287C330.035 18.2915 330.937 17.4655 332.008 16.752L330.898 15.0879ZM327.725 17.9873C326.868 19.0701 326.181 20.1879 325.674 21.3413L327.504 22.1467C327.936 21.1667 328.529 20.1938 329.293 19.2287L327.725 17.9873ZM326.589 20.744H326.333V22.744H326.589V20.744ZM327.333 21.744V21.424H325.333V21.744H327.333ZM327.333 21.424C327.333 18.8549 327.781 16.4881 328.667 14.3133L326.815 13.5587C325.824 15.9918 325.333 18.6171 325.333 21.424H327.333ZM328.669 14.3074C329.561 12.0774 330.707 10.4712 332.067 9.41335L330.839 7.83464C329.127 9.16617 327.798 11.1013 326.813 13.5646L328.669 14.3074ZM332.056 9.42166C333.678 8.19561 335.366 7.50583 337.129 7.31414L336.913 5.32586C334.751 5.56084 332.727 6.40705 330.85 7.82634L332.056 9.42166ZM337.148 7.31195C339.104 7.06217 341.259 6.936 343.613 6.936V4.936C341.189 4.936 338.948 5.06583 336.894 5.32805L337.148 7.31195ZM343.613 6.936H351.485V4.936H343.613V6.936ZM352.293 6.52547L355.749 1.78947L354.133 0.610528L350.677 5.34653L352.293 6.52547ZM354.941 0.199997H346.045V2.2H354.941V0.199997ZM330.405 30.192C330.405 27.7818 330.655 25.7456 331.135 24.0667L329.211 23.5173C328.667 25.4224 328.405 27.6528 328.405 30.192H330.405ZM331.136 24.0608C331.621 22.3228 332.293 20.9634 333.124 19.9437L331.574 18.6803C330.527 19.9646 329.749 21.5918 329.21 23.5232L331.136 24.0608ZM333.135 19.9298C333.986 18.8469 334.95 18.0813 336.022 17.6005L335.204 15.7755C333.802 16.404 332.589 17.3877 331.563 18.6942L333.135 19.9298ZM336.011 17.6056C337.156 17.109 338.407 16.856 339.773 16.856V14.856C338.153 14.856 336.63 15.1576 335.215 15.7704L336.011 17.6056ZM339.773 16.856C340.341 16.856 341.202 16.9332 342.384 17.1019L342.666 15.122C341.458 14.9494 340.485 14.856 339.773 14.856V16.856ZM342.384 17.1019C343.377 17.2438 344.417 17.6932 345.509 18.512L346.709 16.912C345.411 15.9388 344.063 15.3215 342.666 15.122L342.384 17.1019ZM345.509 18.512C346.524 19.2729 347.48 20.5415 348.335 22.4153L350.155 21.5847C349.218 19.5332 348.084 17.9431 346.709 16.912L345.509 18.512ZM348.339 22.4229C349.145 24.1502 349.589 26.7112 349.589 30.192H351.589C351.589 26.5901 351.137 23.6898 350.151 21.5771L348.339 22.4229ZM349.589 30.192C349.589 33.0662 349.233 35.3175 348.571 36.9923L350.431 37.7277C351.219 35.7332 351.589 33.2058 351.589 30.192H349.589ZM348.564 37.0113C347.915 38.7561 347.127 40.0475 346.234 40.9409L347.648 42.3551C348.803 41.2005 349.722 39.6332 350.438 37.7087L348.564 37.0113ZM346.249 40.926C345.314 41.822 344.351 42.4174 343.361 42.7473L343.993 44.6447C345.307 44.2066 346.52 43.4367 347.633 42.37L346.249 40.926ZM343.393 42.7372C342.299 43.0614 341.396 43.208 340.669 43.208V45.208C341.649 45.208 342.751 45.0133 343.961 44.6548L343.393 42.7372ZM340.669 43.208C339.674 43.208 338.553 43.0354 337.3 42.6717L336.742 44.5923C338.135 44.9966 339.446 45.208 340.669 45.208V43.208ZM337.3 42.6717C336.136 42.3338 335.028 41.7097 333.973 40.7726L332.645 42.2674C333.894 43.3783 335.261 44.1622 336.742 44.5923L337.3 42.6717ZM334.002 40.7992C333.011 39.8464 332.141 38.5387 331.412 36.8381L329.574 37.6259C330.381 39.5093 331.388 41.0602 332.616 42.2408L334.002 40.7992ZM331.423 36.8643C330.76 35.1867 330.405 32.9765 330.405 30.192H328.405C328.405 33.1248 328.776 35.6079 329.563 37.5997L331.423 36.8643ZM395.075 36.464L396.009 36.8217L396.011 36.8151L395.075 36.464ZM391.747 41.776L391.02 41.0894L391.015 41.0948L391.01 41.1003L391.747 41.776ZM386.563 45.424L386.162 44.5078L386.155 44.511L386.563 45.424ZM372.803 45.424L372.386 46.3331L372.398 46.3382L372.409 46.3431L372.803 45.424ZM367.555 41.712L366.818 42.3877L366.823 42.3932L366.828 42.3986L367.555 41.712ZM364.227 36.4L363.291 36.7511L363.295 36.763L363.3 36.7748L364.227 36.4ZM364.227 23.728L363.297 23.3599L363.293 23.3703L364.227 23.728ZM367.555 18.352L366.828 17.6654L366.823 17.6708L366.818 17.6763L367.555 18.352ZM372.803 14.704L373.204 15.6202L373.213 15.6163L372.803 14.704ZM386.563 14.704L386.139 15.6097L386.151 15.6151L386.162 15.6202L386.563 14.704ZM391.747 18.352L391.01 19.0277L391.015 19.0332L391.02 19.0386L391.747 18.352ZM395.075 23.728L394.139 24.0791L394.141 24.0856L395.075 23.728ZM389.187 22.832L388.24 23.1547L388.243 23.1614L389.187 22.832ZM383.299 16.432L383.003 17.3871L383.018 17.3918L383.033 17.396L383.299 16.432ZM376.131 16.432L376.397 17.396L376.412 17.3918L376.427 17.3871L376.131 16.432ZM372.675 18.48L371.982 17.7586L371.975 17.7657L371.968 17.7729L372.675 18.48ZM370.115 22.832L369.175 22.4902L369.171 22.5026L370.115 22.832ZM370.115 37.296L369.168 37.6187L369.173 37.6318L369.178 37.6447L370.115 37.296ZM372.675 41.584L371.968 42.2911L371.975 42.2983L371.982 42.3054L372.675 41.584ZM376.131 43.696L375.835 44.6511L375.85 44.6558L375.865 44.66L376.131 43.696ZM383.299 43.696L383.565 44.66L383.58 44.6558L383.595 44.6511L383.299 43.696ZM386.691 41.584L387.398 42.2911L386.691 41.584ZM389.187 37.296L390.131 37.6254L390.134 37.6187L389.187 37.296ZM395.227 30.064C395.227 32.1645 394.864 34.1788 394.139 36.1129L396.011 36.8151C396.822 34.6532 397.227 32.4008 397.227 30.064H395.227ZM394.141 36.1064C393.419 37.9916 392.379 39.65 391.02 41.0894L392.474 42.4626C394.016 40.83 395.195 38.9471 396.009 36.8216L394.141 36.1064ZM391.01 41.1003C389.703 42.5263 388.092 43.6636 386.162 44.5078L386.964 46.3402C389.13 45.3924 390.975 44.0977 392.484 42.4517L391.01 41.1003ZM386.155 44.511C384.296 45.3418 382.176 45.768 379.779 45.768V47.768C382.416 47.768 384.82 47.2982 386.971 46.337L386.155 44.511ZM379.779 45.768C377.337 45.768 375.148 45.3412 373.197 44.5049L372.409 46.3431C374.639 47.2988 377.101 47.768 379.779 47.768V45.768ZM373.22 44.5149C371.281 43.6262 369.639 42.4619 368.282 41.0254L366.828 42.3986C368.373 44.0341 370.229 45.3445 372.386 46.3331L373.22 44.5149ZM368.292 41.0363C366.968 39.5918 365.922 37.924 365.154 36.0252L363.3 36.7748C364.154 38.8867 365.326 40.7602 366.818 42.3877L368.292 41.0363ZM365.163 36.0489C364.437 34.1126 364.075 32.1195 364.075 30.064H362.075C362.075 32.3605 362.481 34.5914 363.291 36.7511L365.163 36.0489ZM364.075 30.064C364.075 27.9635 364.438 25.973 365.161 24.0856L363.293 23.3703C362.48 25.4936 362.075 27.7272 362.075 30.064H364.075ZM365.157 24.096C365.925 22.155 366.971 20.4687 368.292 19.0277L366.818 17.6763C365.323 19.3073 364.15 21.205 363.297 23.36L365.157 24.096ZM368.282 19.0386C369.635 17.6059 371.272 16.4655 373.204 15.6202L372.402 13.7878C370.238 14.7345 368.376 16.0261 366.828 17.6654L368.282 19.0386ZM373.213 15.6163C375.16 14.7419 377.344 14.296 379.779 14.296V12.296C377.094 12.296 374.627 12.7888 372.393 13.7917L373.213 15.6163ZM379.779 14.296C382.17 14.296 384.284 14.7411 386.139 15.6097L386.987 13.7983C384.832 12.7895 382.423 12.296 379.779 12.296V14.296ZM386.162 15.6202C388.092 16.4644 389.703 17.6017 391.01 19.0277L392.484 17.6763C390.975 16.0303 389.13 14.7356 386.964 13.7878L386.162 15.6202ZM391.02 19.0386C392.376 20.4744 393.416 22.1513 394.139 24.0791L396.011 23.3769C395.198 21.2087 394.019 19.3016 392.474 17.6654L391.02 19.0386ZM394.141 24.0856C394.864 25.973 395.227 27.9635 395.227 30.064H397.227C397.227 27.7272 396.822 25.4936 396.009 23.3703L394.141 24.0856ZM391.147 30.064C391.147 27.0188 390.822 24.4841 390.131 22.5026L388.243 23.1614C388.832 24.8492 389.147 27.1359 389.147 30.064H391.147ZM390.134 22.5093C389.461 20.5378 388.563 18.9374 387.398 17.7729L385.984 19.1871C386.867 20.0706 387.633 21.3715 388.24 23.1547L390.134 22.5093ZM387.398 17.7729C386.268 16.6425 384.99 15.861 383.565 15.468L383.033 17.396C384.083 17.6857 385.066 18.2695 385.984 19.1871L387.398 17.7729ZM383.595 15.4769C382.274 15.0668 380.979 14.856 379.715 14.856V16.856C380.755 16.856 381.849 17.0292 383.003 17.3871L383.595 15.4769ZM379.715 14.856C378.451 14.856 377.156 15.0668 375.835 15.4769L376.427 17.3871C377.581 17.0292 378.675 16.856 379.715 16.856V14.856ZM375.865 15.468C374.445 15.8598 373.151 16.6372 371.982 17.7586L373.368 19.2014C374.333 18.2748 375.343 17.6868 376.397 17.396L375.865 15.468ZM371.968 17.7729C370.809 18.9316 369.89 20.5246 369.175 22.4903L371.055 23.1737C371.705 21.3847 372.493 20.0764 373.382 19.1871L371.968 17.7729ZM369.171 22.5026C368.48 24.4841 368.155 27.0188 368.155 30.064H370.155C370.155 27.1359 370.47 24.8492 371.059 23.1614L369.171 22.5026ZM368.155 30.064C368.155 33.0699 368.48 35.6002 369.168 37.6187L371.062 36.9733C370.47 35.2372 370.155 32.9461 370.155 30.064H368.155ZM369.178 37.6447C369.894 39.5692 370.813 41.1365 371.968 42.2911L373.382 40.8769C372.489 39.9835 371.701 38.6921 371.052 36.9473L369.178 37.6447ZM371.982 42.3054C373.145 43.4217 374.429 44.2149 375.835 44.6511L376.427 42.7409C375.358 42.4091 374.338 41.7943 373.368 40.8626L371.982 42.3054ZM375.865 44.66C377.179 45.0225 378.464 45.208 379.715 45.208V43.208C378.662 43.208 377.557 43.0521 376.397 42.732L375.865 44.66ZM379.715 45.208C380.966 45.208 382.251 45.0225 383.565 44.66L383.033 42.732C381.873 43.0521 380.768 43.208 379.715 43.208V45.208ZM383.595 44.6511C385.005 44.2135 386.273 43.4161 387.398 42.2911L385.984 40.8769C385.061 41.7999 384.067 42.4105 383.003 42.7409L383.595 44.6511ZM387.398 42.2911C388.558 41.1307 389.458 39.556 390.131 37.6254L388.243 36.9666C387.636 38.7054 386.872 39.9893 385.984 40.8769L387.398 42.2911ZM390.134 37.6187C390.822 35.6002 391.147 33.0699 391.147 30.064H389.147C389.147 32.9461 388.832 35.2372 388.24 36.9733L390.134 37.6187ZM413.517 46H412.517V47H413.517V46ZM418.957 46V47H419.957V46H418.957ZM418.957 16.56V15.56H417.957V16.56H418.957ZM431.758 16.56V17.56H432.758V16.56H431.758ZM431.758 14H432.758V13H431.758V14ZM400.717 14V13H399.717V14H400.717ZM400.717 16.56H399.717V17.56H400.717V16.56ZM413.517 16.56H414.517V15.56H413.517V16.56ZM413.517 47H418.957V45H413.517V47ZM419.957 46V16.56H417.957V46H419.957ZM418.957 17.56H431.758V15.56H418.957V17.56ZM432.758 16.56V14H430.758V16.56H432.758ZM431.758 13H400.717V15H431.758V13ZM399.717 14V16.56H401.717V14H399.717ZM400.717 17.56H413.517V15.56H400.717V17.56ZM412.517 16.56V46H414.517V16.56H412.517ZM457.19 14.64L456.726 15.5254L456.734 15.53L456.743 15.5344L457.19 14.64ZM460.902 18.032L460.025 18.5109L460.03 18.521L460.036 18.531L460.902 18.032ZM462.31 22.896L463.308 22.8264L462.31 22.896ZM462.503 46V47H463.503V46H462.503ZM457.319 46H456.319V47H457.319V46ZM457.319 42.864H458.319V40.5084L456.624 42.1446L457.319 42.864ZM452.582 45.744L452.918 46.6862L452.927 46.6829L452.936 46.6795L452.582 45.744ZM441.958 45.808L442.372 44.8976L441.958 45.808ZM438.439 43.312L439.176 42.6363L438.439 43.312ZM436.391 31.856L435.454 31.5049L436.391 31.856ZM438.694 28.208L439.416 28.9005L439.423 28.8935L439.429 28.8863L438.694 28.208ZM442.47 25.52L442.055 24.6105L442.47 25.52ZM453.03 25.648L452.62 26.5599L452.634 26.566L452.647 26.5717L453.03 25.648ZM457.319 28.784L456.542 29.4146L458.319 31.6006V28.784H457.319ZM455.719 18.224L454.861 18.7385L454.866 18.7463L454.871 18.754L455.719 18.224ZM446.887 16.112L447.203 17.0607L446.887 16.112ZM444.454 17.392L445.055 18.192L445.062 18.1864L444.454 17.392ZM442.534 19.376L443.324 19.9899L443.332 19.9797L443.34 19.9692L442.534 19.376ZM440.742 22L440.035 22.7071L440.935 23.6068L441.597 22.5199L440.742 22ZM437.414 18.672L436.683 17.9897L436.024 18.696L436.707 19.3791L437.414 18.672ZM439.271 16.752L438.587 16.0225L438.575 16.0335L438.563 16.0449L439.271 16.752ZM441.703 15.024L441.24 14.1374L441.232 14.1417L441.224 14.1461L441.703 15.024ZM445.159 13.808L445.379 14.7834L445.394 14.7801L445.408 14.7763L445.159 13.808ZM457.319 33.328H458.319V33.128L458.242 32.9434L457.319 33.328ZM456.358 31.536L455.487 32.0263L455.498 32.0464L455.51 32.066L456.358 31.536ZM454.823 29.552L454.115 30.2591L454.823 29.552ZM452.518 27.952L452.055 28.8378L452.071 28.8467L452.089 28.8549L452.518 27.952ZM445.927 28.016L446.343 28.9251L446.359 28.918L446.374 28.9104L445.927 28.016ZM443.302 29.936L442.557 29.2692L442.555 29.2716L443.302 29.936ZM441.703 32.688L442.643 33.0267L441.703 32.688ZM441.831 39.6L440.921 40.0167L440.932 40.0399L440.944 40.0626L441.831 39.6ZM443.75 42.16L443.064 42.887L443.075 42.8974L443.086 42.9074L443.75 42.16ZM446.31 43.696L446.652 42.7562L446.31 43.696ZM451.431 43.76L451.1 42.8161L451.092 42.8188L451.085 42.8217L451.431 43.76ZM453.798 42.544L454.375 43.361L454.384 43.3547L453.798 42.544ZM455.846 40.624L455.075 39.9883L455.846 40.624ZM457.319 38.256L458.23 38.6664L458.319 38.4706V38.256H457.319ZM449.958 14.296C453 14.296 455.225 14.7373 456.726 15.5254L457.655 13.7546C455.743 12.7507 453.146 12.296 449.958 12.296V14.296ZM456.743 15.5344C458.303 16.3142 459.372 17.314 460.025 18.5109L461.78 17.5531C460.897 15.934 459.492 14.6725 457.638 13.7456L456.743 15.5344ZM460.036 18.531C460.761 19.7912 461.194 21.2621 461.313 22.9656L463.308 22.8264C463.171 20.8606 462.665 19.0888 461.769 17.533L460.036 18.531ZM461.313 22.9656C461.439 24.7761 461.503 26.6302 461.503 28.528H463.503C463.503 26.5858 463.438 24.6852 463.308 22.8264L461.313 22.9656ZM461.503 28.528V46H463.503V28.528H461.503ZM462.503 45H457.319V47H462.503V45ZM458.319 46V42.864H456.319V46H458.319ZM456.624 42.1446C455.501 43.2284 454.046 44.1221 452.229 44.8085L452.936 46.6795C454.959 45.9152 456.661 44.889 458.013 43.5834L456.624 42.1446ZM452.247 44.8018C450.428 45.4486 448.622 45.768 446.823 45.768V47.768C448.863 47.768 450.897 47.4048 452.918 46.6862L452.247 44.8018ZM446.823 45.768C445.104 45.768 443.628 45.4686 442.372 44.8976L441.545 46.7184C443.105 47.4274 444.871 47.768 446.823 47.768V45.768ZM442.372 44.8976C441.073 44.307 440.014 43.5504 439.176 42.6363L437.701 43.9877C438.741 45.1216 440.028 46.029 441.545 46.7184L442.372 44.8976ZM439.176 42.6363C438.324 41.7067 437.689 40.6668 437.265 39.5117L435.388 40.2003C435.903 41.6052 436.676 42.8693 437.701 43.9877L439.176 42.6363ZM437.265 39.5117C436.835 38.3386 436.622 37.1536 436.622 35.952H434.622C434.622 37.3957 434.879 38.8134 435.388 40.2003L437.265 39.5117ZM436.622 35.952C436.622 34.7145 436.854 33.4679 437.327 32.2071L435.454 31.5049C434.903 32.9748 434.622 34.4588 434.622 35.952H436.622ZM437.327 32.2071C437.79 30.9708 438.485 29.8706 439.416 28.9005L437.973 27.5155C436.856 28.6787 436.015 30.0105 435.454 31.5049L437.327 32.2071ZM439.429 28.8863C440.356 27.8827 441.503 27.0619 442.886 26.4295L442.055 24.6105C440.451 25.3435 439.081 26.3147 437.96 27.5297L439.429 28.8863ZM442.886 26.4295C444.229 25.8157 445.79 25.496 447.591 25.496V23.496C445.551 23.496 443.699 23.8589 442.055 24.6105L442.886 26.4295ZM447.591 25.496C449.373 25.496 451.046 25.8515 452.62 26.5599L453.441 24.7361C451.602 23.9085 449.648 23.496 447.591 23.496V25.496ZM452.647 26.5717C454.256 27.2385 455.546 28.1878 456.542 29.4146L458.095 28.1534C456.873 26.6495 455.304 25.5082 453.414 24.7243L452.647 26.5717ZM458.319 28.784V26.032H456.319V28.784H458.319ZM458.319 26.032C458.319 22.4673 457.782 19.6381 456.566 17.694L454.871 18.754C455.789 20.2233 456.319 22.5994 456.319 26.032H458.319ZM456.576 17.7095C455.304 15.5899 452.993 14.664 450.022 14.664V16.664C452.598 16.664 454.085 17.4448 454.861 18.7385L456.576 17.7095ZM450.022 14.664C448.747 14.664 447.591 14.823 446.57 15.1633L447.203 17.0607C447.974 16.8036 448.908 16.664 450.022 16.664V14.664ZM446.57 15.1633C445.573 15.4957 444.663 15.9735 443.847 16.5976L445.062 18.1864C445.696 17.7012 446.408 17.3256 447.203 17.0607L446.57 15.1633ZM443.854 16.592C443.081 17.172 442.375 17.9073 441.729 18.7828L443.34 19.9692C443.889 19.2234 444.462 18.636 445.055 18.192L443.854 16.592ZM441.745 18.7621C441.121 19.5649 440.502 20.4718 439.888 21.4801L441.597 22.5199C442.178 21.5655 442.754 20.7231 443.324 19.9899L441.745 18.7621ZM441.45 21.2929L438.122 17.9649L436.707 19.3791L440.035 22.7071L441.45 21.2929ZM438.146 19.3543C438.735 18.723 439.345 18.0913 439.978 17.4591L438.563 16.0449C437.916 16.6927 437.289 17.341 436.683 17.9897L438.146 19.3543ZM439.954 17.4815C440.567 16.907 441.307 16.379 442.181 15.9019L441.224 14.1461C440.221 14.693 439.339 15.317 438.587 16.0225L439.954 17.4815ZM442.165 15.9106C443.055 15.4463 444.122 15.0672 445.379 14.7834L444.938 12.8326C443.549 13.1462 442.313 13.5777 441.24 14.1374L442.165 15.9106ZM445.408 14.7763C446.625 14.4622 448.136 14.296 449.958 14.296V12.296C448.026 12.296 446.337 12.4711 444.909 12.8397L445.408 14.7763ZM458.242 32.9434C458 32.364 457.65 31.7163 457.207 31.006L455.51 32.066C455.92 32.7211 456.21 33.268 456.395 33.7126L458.242 32.9434ZM457.23 31.0457C456.795 30.2724 456.224 29.5396 455.53 28.8449L454.115 30.2591C454.701 30.8444 455.154 31.4342 455.487 32.0263L457.23 31.0457ZM455.53 28.8449C454.802 28.1169 453.937 27.5201 452.948 27.0491L452.089 28.8549C452.892 29.2373 453.563 29.7071 454.115 30.2591L455.53 28.8449ZM452.983 27.0662C451.915 26.5069 450.682 26.248 449.319 26.248V28.248C450.43 28.248 451.33 28.4584 452.055 28.8378L452.983 27.0662ZM449.319 26.248C447.939 26.248 446.653 26.5346 445.479 27.1216L446.374 28.9104C447.248 28.4734 448.224 28.248 449.319 28.248V26.248ZM445.51 27.1069C444.365 27.6315 443.378 28.3524 442.557 29.2692L444.048 30.6028C444.678 29.8983 445.44 29.3392 446.343 28.9251L445.51 27.1069ZM442.555 29.2716C441.779 30.1442 441.184 31.1751 440.762 32.3493L442.643 33.0267C442.989 32.0675 443.46 31.2638 444.05 30.6004L442.555 29.2716ZM440.762 32.3493C440.338 33.5264 440.126 34.7504 440.126 36.016H442.126C442.126 34.9776 442.299 33.983 442.643 33.0267L440.762 32.3493ZM440.126 36.016C440.126 37.4952 440.381 38.8372 440.921 40.0167L442.74 39.1833C442.341 38.3148 442.126 37.2674 442.126 36.016H440.126ZM440.944 40.0626C441.505 41.1378 442.211 42.0817 443.064 42.887L444.437 41.433C443.754 40.7877 443.18 40.0249 442.717 39.1374L440.944 40.0626ZM443.086 42.9074C443.946 43.6715 444.908 44.25 445.969 44.6358L446.652 42.7562C445.836 42.4593 445.091 42.0138 444.415 41.4126L443.086 42.9074ZM445.969 44.6358C446.999 45.0103 448.011 45.208 448.999 45.208V43.208C448.28 43.208 447.5 43.0644 446.652 42.7562L445.969 44.6358ZM448.999 45.208C449.935 45.208 450.862 45.0351 451.776 44.6983L451.085 42.8217C450.378 43.0822 449.684 43.208 448.999 43.208V45.208ZM451.761 44.7039C452.7 44.3751 453.573 43.9275 454.375 43.361L453.222 41.727C452.574 42.1845 451.867 42.5476 451.1 42.8161L451.761 44.7039ZM454.384 43.3547C455.221 42.7503 455.966 42.0516 456.618 41.2597L455.075 39.9883C454.532 40.647 453.912 41.2283 453.213 41.7333L454.384 43.3547ZM456.618 41.2597C457.272 40.4661 457.81 39.601 458.23 38.6664L456.407 37.8456C456.059 38.6176 455.616 39.3312 455.075 39.9883L456.618 41.2597ZM458.319 38.256V33.328H456.319V38.256H458.319ZM501.161 31.408V32.408H502.161V31.408H501.161ZM499.945 22.64L499.013 23.0015V23.0015L499.945 22.64ZM496.617 17.456L495.91 18.1631L495.915 18.1685L495.921 18.1739L496.617 17.456ZM491.817 14.384L491.468 15.3212L491.817 14.384ZM479.977 14.512L480.345 15.442L480.354 15.4383L480.363 15.4344L479.977 14.512ZM475.177 17.776L475.895 18.4721L475.9 18.4668L475.905 18.4614L475.177 17.776ZM471.977 22.96L472.911 23.3177L472.913 23.3111L471.977 22.96ZM471.785 36.08L470.831 36.3783L470.834 36.3903L470.838 36.4023L471.785 36.08ZM474.793 41.52L474.018 42.1521L474.027 42.1633L474.037 42.1742L474.793 41.52ZM479.913 45.36L479.481 46.2618L479.492 46.2672L479.503 46.2723L479.913 45.36ZM494.825 45.36L495.202 46.2861L495.21 46.2831L495.217 46.28L494.825 45.36ZM500.841 41.2L501.565 41.8897L502.238 41.183L501.548 40.4929L500.841 41.2ZM498.793 39.152L499.5 38.4449L498.845 37.7901L498.142 38.3927L498.793 39.152ZM496.233 41.264L495.613 40.4791L495.603 40.4873L495.593 40.4958L496.233 41.264ZM491.305 43.888L491.548 44.8581L491.564 44.8541L491.58 44.8495L491.305 43.888ZM484.585 43.696L484.306 44.6563L484.324 44.6616L484.342 44.6661L484.585 43.696ZM480.873 41.712L481.505 40.9368L480.873 41.712ZM477.993 37.808L477.085 38.2271L477.993 37.808ZM476.841 31.408V30.408H475.841V31.408H476.841ZM476.841 28.848H475.841V29.848H476.841V28.848ZM477.353 23.92L476.38 23.6895L476.378 23.6991L476.376 23.7087L477.353 23.92ZM479.017 19.632L478.167 19.1046L478.161 19.1154L478.154 19.1263L479.017 19.632ZM481.897 16.688L482.43 17.5342L482.441 17.5273L482.452 17.52L481.897 16.688ZM493.033 19.12L492.212 19.6915L492.218 19.6999L492.224 19.7082L493.033 19.12ZM495.593 28.848V29.848H496.593V28.848H495.593ZM502.161 31.408V30.064H500.161V31.408H502.161ZM502.161 30.064C502.161 27.1142 501.743 24.5113 500.877 22.2785L499.013 23.0015C499.768 24.95 500.161 27.2965 500.161 30.064H502.161ZM500.877 22.2785C500.022 20.0726 498.839 18.2172 497.313 16.7381L495.921 18.1739C497.211 19.4254 498.247 21.0261 499.013 23.0015L500.877 22.2785ZM497.324 16.7489C495.856 15.2806 494.133 14.1788 492.166 13.4468L491.468 15.3212C493.17 15.9545 494.648 16.9008 495.91 18.1631L497.324 16.7489ZM492.166 13.4468C490.214 12.7207 488.154 12.36 485.993 12.36V14.36C487.928 14.36 489.75 14.682 491.468 15.3212L492.166 13.4468ZM485.993 12.36C483.697 12.36 481.559 12.7657 479.591 13.5896L480.363 15.4344C482.064 14.7223 483.937 14.36 485.993 14.36V12.36ZM479.609 13.582C477.637 14.362 475.914 15.534 474.449 17.0906L475.905 18.4614C477.171 17.1167 478.648 16.1127 480.345 15.442L479.609 13.582ZM474.459 17.0799C472.988 18.5974 471.851 20.447 471.041 22.6089L472.913 23.3111C473.639 21.377 474.636 19.7706 475.895 18.4721L474.459 17.0799ZM471.043 22.6024C470.224 24.7415 469.825 27.1487 469.825 29.808H471.825C471.825 27.3473 472.194 25.1892 472.911 23.3176L471.043 22.6024ZM469.825 29.808C469.825 32.0431 470.161 34.2343 470.831 36.3783L472.739 35.7817C472.129 33.8297 471.825 31.8396 471.825 29.808H469.825ZM470.838 36.4023C471.559 38.5189 472.619 40.4374 474.018 42.1521L475.568 40.8879C474.321 39.3599 473.376 37.6518 472.732 35.7577L470.838 36.4023ZM474.037 42.1742C475.5 43.8656 477.32 45.2264 479.481 46.2618L480.345 44.4582C478.41 43.531 476.817 42.3317 475.549 40.8658L474.037 42.1742ZM479.503 46.2723C481.749 47.2804 484.347 47.768 487.273 47.768V45.768C484.567 45.768 482.259 45.3169 480.323 44.4477L479.503 46.2723ZM487.273 47.768C490.12 47.768 492.767 47.2781 495.202 46.2861L494.448 44.4339C492.275 45.3192 489.887 45.768 487.273 45.768V47.768ZM495.217 46.28C497.645 45.246 499.763 43.7815 501.565 41.8897L500.117 40.5103C498.505 42.2025 496.613 43.5113 494.433 44.44L495.217 46.28ZM501.548 40.4929L499.5 38.4449L498.086 39.8591L500.134 41.9071L501.548 40.4929ZM498.142 38.3927C497.255 39.1532 496.412 39.8485 495.613 40.4791L496.853 42.0489C497.675 41.3995 498.539 40.6868 499.444 39.9113L498.142 38.3927ZM495.593 40.4958C494.874 41.0949 494.142 41.5879 493.399 41.9791L494.331 43.7489C495.209 43.2868 496.056 42.7131 496.873 42.0322L495.593 40.4958ZM493.399 41.9791C492.651 42.3732 491.861 42.689 491.03 42.9265L491.58 44.8495C492.541 44.575 493.458 44.2082 494.331 43.7489L493.399 41.9791ZM491.062 42.9179C490.303 43.1077 489.427 43.208 488.425 43.208V45.208C489.557 45.208 490.6 45.095 491.548 44.8581L491.062 42.9179ZM488.425 43.208C487.325 43.208 486.127 43.0508 484.828 42.7259L484.342 44.6661C485.773 45.0239 487.136 45.208 488.425 45.208V43.208ZM484.864 42.7357C483.68 42.3919 482.561 41.7974 481.505 40.9368L480.241 42.4872C481.489 43.5039 482.845 44.2321 484.306 44.6563L484.864 42.7357ZM481.505 40.9368C480.495 40.114 479.62 38.9463 478.901 37.3889L477.085 38.2271C477.902 39.9977 478.947 41.4326 480.241 42.4872L481.505 40.9368ZM478.901 37.3889C478.214 35.8995 477.841 33.9225 477.841 31.408H475.841C475.841 34.0988 476.237 36.3885 477.085 38.2271L478.901 37.3889ZM476.841 32.408H501.161V30.408H476.841V32.408ZM477.841 28.848C477.841 27.2084 478.005 25.6367 478.33 24.1313L476.376 23.7087C476.018 25.3606 475.841 27.0743 475.841 28.848H477.841ZM478.326 24.1505C478.691 22.6106 479.212 21.2767 479.88 20.1377L478.154 19.1263C477.371 20.4619 476.783 21.9867 476.38 23.6895L478.326 24.1505ZM479.867 20.1594C480.56 19.0418 481.415 18.1731 482.43 17.5342L481.364 15.8418C480.075 16.6535 479.01 17.7475 478.167 19.1046L479.867 20.1594ZM482.452 17.52C483.417 16.8764 484.583 16.536 485.993 16.536V14.536C484.245 14.536 482.681 14.9636 481.342 15.8559L482.452 17.52ZM485.993 16.536C488.711 16.536 490.744 17.5833 492.212 19.6915L493.854 18.5485C491.994 15.8781 489.334 14.536 485.993 14.536V16.536ZM492.224 19.7082C493.764 21.8249 494.593 24.8337 494.593 28.848H496.593C496.593 24.585 495.716 21.1084 493.842 18.5318L492.224 19.7082ZM495.593 27.848H476.841V29.848H495.593V27.848ZM514.551 14L515.451 13.5641L515.178 13H514.551V14ZM509.495 14V13H508.495V14H509.495ZM509.495 46H508.495V47H509.495V46ZM511.671 46V47H512.671V46H511.671ZM511.671 20.72V19.72H510.671V20.72H511.671ZM511.927 20.72L512.826 20.2825L512.553 19.72H511.927V20.72ZM524.599 46.768L523.7 47.2055L523.973 47.768H524.599V46.768ZM525.239 46.768V47.768H525.883L526.149 47.1818L525.239 46.768ZM537.079 20.72V19.72H536.435L536.169 20.3062L537.079 20.72ZM537.335 20.72H538.335V19.72H537.335V20.72ZM537.335 46H536.335V47H537.335V46ZM542.775 46V47H543.775V46H542.775ZM542.775 14H543.775V13H542.775V14ZM537.847 14V13H537.204L536.937 13.5855L537.847 14ZM526.711 38.448V39.448H527.354L527.621 38.8625L526.711 38.448ZM526.391 38.448L525.491 38.8839L525.764 39.448H526.391V38.448ZM514.551 13H509.495V15H514.551V13ZM508.495 14V46H510.495V14H508.495ZM509.495 47H511.671V45H509.495V47ZM512.671 46V20.72H510.671V46H512.671ZM511.671 21.72H511.927V19.72H511.671V21.72ZM511.028 21.1575L523.7 47.2055L525.498 46.3305L512.826 20.2825L511.028 21.1575ZM524.599 47.768H525.239V45.768H524.599V47.768ZM526.149 47.1818L537.989 21.1338L536.169 20.3062L524.329 46.3542L526.149 47.1818ZM537.079 21.72H537.335V19.72H537.079V21.72ZM536.335 20.72V46H538.335V20.72H536.335ZM537.335 47H542.775V45H537.335V47ZM543.775 46V14H541.775V46H543.775ZM542.775 13H537.847V15H542.775V13ZM536.937 13.5855L525.801 38.0335L527.621 38.8625L538.757 14.4145L536.937 13.5855ZM526.711 37.448H526.391V39.448H526.711V37.448ZM527.291 38.0121L515.451 13.5641L513.651 14.4359L525.491 38.8839L527.291 38.0121Z" fill="url(#paint0_linear)" fill-opacity="0.5"/>
<defs>
<linearGradient id="paint0_linear" x1="-3.44935" y1="-10.9986" x2="14.8357" y2="103.065" gradientUnits="userSpaceOnUse">
<stop stop-color="#C69C6D"/>
<stop offset="1" stop-color="#E6A762"/>
</linearGradient>
</defs>
</svg>
